<?xml version="1.0" encoding="UTF-8"?>
<svg width="144px" height="144px" viewBox="0 0 144 144" version="1.1" xmlns="http://www.w3.org/2000/svg" xmlns:xlink="http://www.w3.org/1999/xlink">
    <title>code</title>
    <g id="code" stroke="none" stroke-width="1" fill="none" fill-rule="evenodd">
        <path d="M136,0 C140.418278,-8.11624501e-16 144,3.581722 144,8 L144,31 L0,31 L0,8 C-5.41083001e-16,3.581722 3.581722,8.11624501e-16 8,0 L136,0 Z M16,11 C13.2385763,11 11,13.2385763 11,16 C11,18.7614237 13.2385763,21 16,21 C18.7614237,21 21,18.7614237 21,16 C21,13.2385763 18.7614237,11 16,11 Z M36,11 C33.2385763,11 31,13.2385763 31,16 C31,18.7614237 33.2385763,21 36,21 C38.7614237,21 41,18.7614237 41,16 C41,13.2385763 38.7614237,11 36,11 Z M56,11 C53.2385763,11 51,13.2385763 51,16 C51,18.7614237 53.2385763,21 56,21 C58.7614237,21 61,18.7614237 61,16 C61,13.2385763 58.7614237,11 56,11 Z" id="Combined-Shape" fill="#D8D8D8"></path>
        <path d="M144,41 L144,136 C144,140.418278 140.418278,144 136,144 L8,144 C3.581722,144 5.41083001e-16,140.418278 0,136 L0,41 L144,41 Z M87.4625,60.7 L77.8625,60.7 L57.5375,117.25 L67.1375,117.25 L87.4625,60.7 Z M51.8375,68.875 L10.5875,85.675 L10.5875,99.325 L51.8375,116.125 L51.8375,105.25 L18.3125,92.5 L51.8375,79.75 L51.8375,68.875 Z M93.1625,68.875 L93.1625,79.75 L126.6875,92.5 L93.1625,105.25 L93.1625,116.125 L134.4125,99.325 L134.4125,85.675 L93.1625,68.875 Z" id="Combined-Shape" fill="#D8D8D8"></path>
    </g>
</svg>