<?xml version="1.0" encoding="UTF-8"?>
<svg width="144px" height="144px" viewBox="0 0 144 144" version="1.1" xmlns="http://www.w3.org/2000/svg" xmlns:xlink="http://www.w3.org/1999/xlink">
    <title>ui</title>
    <g id="ui" stroke="none" stroke-width="1" fill="none" fill-rule="evenodd">
        <path d="M72,0 C111.764502,0 144,32.235498 144,72 C144,89.5175725 123.054995,68.1801529 99.4942411,81.6421524 L92.0441559,74.1949135 C89.7447798,71.8955374 86.680697,70.826938 83.6705498,70.9891155 C83.9806281,67.1767526 82.6757931,63.2554829 79.7569831,60.3366729 C76.6405724,57.2202622 69.2829941,54.4217314 57.6842483,51.9410807 L57.0588276,51.8085024 C55.4373954,51.4677598 53.8467384,52.5059639 53.5059958,54.1273961 C53.4379808,54.4510471 53.4239506,54.7837173 53.4644729,55.1119457 C55.071618,68.1297462 57.471827,76.235283 60.6651,79.428556 C64.0976028,82.8610588 68.9164689,84.0614959 73.316692,83.0292557 C73.5402494,85.3652041 74.5097535,87.6442612 76.2249367,89.4793737 L76.4878067,89.7512627 L83.48575,96.7545227 C63.2232381,125.258905 90.25266,144 72,144 C32.235498,144 0,111.764502 0,72 C0,32.235498 32.235498,0 72,0 Z M87.0796898,76.5944084 L139.405592,128.92031 C141.748737,131.263456 141.748737,135.062446 139.405592,137.405592 C137.062446,139.748737 133.263456,139.748737 130.92031,137.405592 L78.5944084,85.0796898 C76.2512627,82.736544 76.2512627,78.9375542 78.5944084,76.5944084 C80.9375542,74.2512627 84.736544,74.2512627 87.0796898,76.5944084 Z M41.5,94 C35.1487254,94 30,99.1487254 30,105.5 C30,111.851275 35.1487254,117 41.5,117 C47.8512746,117 53,111.851275 53,105.5 C53,99.1487254 47.8512746,94 41.5,94 Z M56.7469517,56.2469517 C68.338389,60.2959167 75.1748827,63.3611742 77.2564328,65.4427243 C80.378758,68.5650495 80.3772427,73.628854 77.2530483,76.7530483 C74.128854,79.8772427 69.0650495,79.878758 65.9427243,76.7564328 C63.8611742,74.6748827 60.7959167,67.838389 56.7469517,56.2469517 Z M30.5,49 C24.1487254,49 19,54.1487254 19,60.5 C19,66.8512746 24.1487254,72 30.5,72 C36.8512746,72 42,66.8512746 42,60.5 C42,54.1487254 36.8512746,49 30.5,49 Z M104.5,28 C98.1487254,28 93,33.1487254 93,39.5 C93,45.8512746 98.1487254,51 104.5,51 C110.851275,51 116,45.8512746 116,39.5 C116,33.1487254 110.851275,28 104.5,28 Z M64.5,20 C58.1487254,20 53,25.1487254 53,31.5 C53,37.8512746 58.1487254,43 64.5,43 C70.8512746,43 76,37.8512746 76,31.5 C76,25.1487254 70.8512746,20 64.5,20 Z" id="Combined-Shape" fill="#D8D8D8"></path>
    </g>
</svg>