<?xml version="1.0" encoding="UTF-8"?>
<svg width="180px" height="180px" viewBox="0 0 180 180" version="1.1" xmlns="http://www.w3.org/2000/svg" xmlns:xlink="http://www.w3.org/1999/xlink">
    <!-- Generator: Sketch 64 (93537) - https://sketch.com -->
    <title>500px-solid</title>
    <desc>Created with Sketch.</desc>
    <g id="500px-solid" stroke="none" stroke-width="1" fill="none" fill-rule="evenodd">
        <path d="M180,0 L180,180 L0,180 L0,0 L180,0 Z M38.1111411,71.2905138 L20,71.2905138 L19.8356243,71.2958315 C18.5315359,71.3804752 17.5,72.4650304 17.5,73.7905138 L17.5,73.7905138 L17.5,90.183352 L17.5053177,90.3477277 C17.5899613,91.6518161 18.6745166,92.683352 20,92.683352 L20,92.683352 L20.1643757,92.6780343 C20.3295458,92.6673137 20.4903438,92.6405529 20.6451577,92.6000838 C21.5996801,92.6904588 22.5625604,92.2244741 23.0621614,91.3346019 C24.4307574,88.8969057 27.0040473,87.3577075 29.8494244,87.3577075 C34.144366,87.3577075 37.6261042,90.8394457 37.6261042,95.1343874 C37.6261042,99.429329 34.144366,102.911067 29.8494244,102.911067 C26.926717,102.911067 24.2940897,101.28623 22.9587041,98.7437115 L22.9587041,98.7437115 L22.8740082,98.5948577 C22.1912434,97.4840692 20.7543778,97.0776245 19.5829419,97.692888 C18.3605741,98.3349021 17.8901044,99.8462823 18.5321185,101.06865 C20.7231605,105.240302 25.0504417,107.911067 29.8494244,107.911067 C36.9057898,107.911067 42.6261042,102.190753 42.6261042,95.1343874 C42.6261042,88.0780219 36.9057898,82.3577075 29.8494244,82.3577075 C27.1534461,82.3577075 24.6043062,83.200509 22.4989329,84.6818935 L22.4989329,84.6818935 L22.499,76.29 L38.1111411,76.2905138 L38.2755168,76.2851962 C39.5796052,76.2005525 40.6111411,75.1159972 40.6111411,73.7905138 C40.6111411,72.409802 39.491853,71.2905138 38.1111411,71.2905138 L38.1111411,71.2905138 Z M62.3677772,73 C52.9811193,73 45.3717297,80.6093896 45.3717297,89.9960474 C45.3717297,99.3827052 52.9811193,106.992095 62.3677772,106.992095 C71.754435,106.992095 79.3638246,99.3827052 79.3638246,89.9960474 C79.3638246,80.6093896 71.754435,73 62.3677772,73 Z M101.027668,73 C91.6410102,73 84.0316206,80.6093896 84.0316206,89.9960474 C84.0316206,99.3827052 91.6410102,106.992095 101.027668,106.992095 C110.414326,106.992095 118.023715,99.3827052 118.023715,89.9960474 C118.023715,80.6093896 110.414326,73 101.027668,73 Z M62.3677772,78 C68.9930112,78 74.3638246,83.3708134 74.3638246,89.9960474 C74.3638246,96.6212815 68.9930112,101.992095 62.3677772,101.992095 C55.7425431,101.992095 50.3717297,96.6212815 50.3717297,89.9960474 C50.3717297,83.3708134 55.7425431,78 62.3677772,78 Z M101.027668,78 C107.652902,78 113.023715,83.3708134 113.023715,89.9960474 C113.023715,96.6212815 107.652902,101.992095 101.027668,101.992095 C94.4024339,101.992095 89.0316206,96.6212815 89.0316206,89.9960474 C89.0316206,83.3708134 94.4024339,78 101.027668,78 Z M130.59665,72.984472 C125.333149,72.984472 121.018503,77.046998 120.617239,82.2076304 C120.597182,82.3351737 120.586768,82.465919 120.586768,82.5990966 L120.586768,82.5990966 L120.586768,98.8474005 L120.592086,99.0117762 C120.67673,100.315865 121.761285,101.3474 123.086768,101.3474 C124.46748,101.3474 125.586768,100.228112 125.586768,98.8474005 L125.586768,98.8474005 L125.586768,82.9943535 L125.591397,82.7770352 C125.705184,80.110973 127.902581,77.984472 130.59665,77.984472 C133.363531,77.984472 135.606531,80.2274724 135.606531,82.9943535 C135.606531,85.7612346 133.363531,88.0042349 130.59665,88.0042349 L130.59665,88.0042349 L130.432274,88.0095526 C129.128186,88.0941962 128.09665,89.1787515 128.09665,90.5042349 C128.09665,91.8849468 129.215938,93.0042349 130.59665,93.0042349 C136.124955,93.0042349 140.606531,88.5226583 140.606531,82.9943535 C140.606531,77.4660486 136.124955,72.984472 130.59665,72.984472 Z M144.866513,73.594897 C143.88439,72.7422399 142.395527,72.7828427 141.461664,73.7167051 C140.485354,74.6930158 140.485354,76.2759283 141.461664,77.252239 L141.461664,77.252239 L147.313,83.1035138 L141.461664,88.9554816 L141.339856,89.0861668 C140.487199,90.0682902 140.527802,91.557153 141.461664,92.4910155 C142.437975,93.4673262 144.020888,93.4673262 144.997198,92.4910155 L144.997198,92.4910155 L150.848,86.6385138 L156.700441,92.4910155 L156.831126,92.6128236 C157.813249,93.4654806 159.302112,93.4248779 160.235975,92.4910155 C161.212286,91.5147047 161.212286,89.9317923 160.235975,88.9554816 L160.235975,88.9554816 L154.384,83.1035138 L160.235975,77.252239 L160.357783,77.1215538 C161.21044,76.1394304 161.169837,74.6505675 160.235975,73.7167051 C159.259664,72.7403944 157.676752,72.7403944 156.700441,73.7167051 L156.700441,73.7167051 L150.848,79.5675138 L144.997198,73.7167051 Z" id="Combined-Shape" fill="#000000" fill-rule="nonzero"></path>
    </g>
</svg>