<?xml version="1.0" encoding="UTF-8"?>
<svg width="180px" height="180px" viewBox="0 0 180 180" version="1.1" xmlns="http://www.w3.org/2000/svg" xmlns:xlink="http://www.w3.org/1999/xlink">
    <!-- Generator: Sketch 64 (93537) - https://sketch.com -->
    <title>500px</title>
    <desc>Created with Sketch.</desc>
    <g id="500px" stroke="none" stroke-width="1" fill="none" fill-rule="evenodd">
        <path d="M38.1111411,71.2905138 C39.491853,71.2905138 40.6111411,72.409802 40.6111411,73.7905138 C40.6111411,75.1159972 39.5796052,76.2005525 38.2755168,76.2851962 L38.1111411,76.2905138 L22.499,76.29 L22.4989329,84.6818935 C24.6043062,83.200509 27.1534461,82.3577075 29.8494244,82.3577075 C36.9057898,82.3577075 42.6261042,88.0780219 42.6261042,95.1343874 C42.6261042,102.190753 36.9057898,107.911067 29.8494244,107.911067 C25.0504417,107.911067 20.7231605,105.240302 18.5321185,101.06865 C17.8901044,99.8462823 18.3605741,98.3349021 19.5829419,97.692888 C20.7543778,97.0776245 22.1912434,97.4840692 22.8740082,98.5948577 L22.9587041,98.7437115 C24.2940897,101.28623 26.926717,102.911067 29.8494244,102.911067 C34.144366,102.911067 37.6261042,99.429329 37.6261042,95.1343874 C37.6261042,90.8394457 34.144366,87.3577075 29.8494244,87.3577075 C27.0040473,87.3577075 24.4307574,88.8969057 23.0621614,91.3346019 C22.5625604,92.2244741 21.5996801,92.6904588 20.6451577,92.6000838 C20.4903438,92.6405529 20.3295458,92.6673137 20.1643757,92.6780343 L20,92.683352 C18.6745166,92.683352 17.5899613,91.6518161 17.5053177,90.3477277 L17.5,90.183352 L17.5,73.7905138 C17.5,72.4650304 18.5315359,71.3804752 19.8356243,71.2958315 L20,71.2905138 L38.1111411,71.2905138 Z" id="Combined-Shape" fill="#000000" fill-rule="nonzero"></path>
        <path d="M62.3677772,73 C71.754435,73 79.3638246,80.6093896 79.3638246,89.9960474 C79.3638246,99.3827052 71.754435,106.992095 62.3677772,106.992095 C52.9811193,106.992095 45.3717297,99.3827052 45.3717297,89.9960474 C45.3717297,80.6093896 52.9811193,73 62.3677772,73 Z M62.3677772,78 C55.7425431,78 50.3717297,83.3708134 50.3717297,89.9960474 C50.3717297,96.6212815 55.7425431,101.992095 62.3677772,101.992095 C68.9930112,101.992095 74.3638246,96.6212815 74.3638246,89.9960474 C74.3638246,83.3708134 68.9930112,78 62.3677772,78 Z" id="Oval" fill="#000000" fill-rule="nonzero"></path>
        <path d="M101.027668,73 C110.414326,73 118.023715,80.6093896 118.023715,89.9960474 C118.023715,99.3827052 110.414326,106.992095 101.027668,106.992095 C91.6410102,106.992095 84.0316206,99.3827052 84.0316206,89.9960474 C84.0316206,80.6093896 91.6410102,73 101.027668,73 Z M101.027668,78 C94.4024339,78 89.0316206,83.3708134 89.0316206,89.9960474 C89.0316206,96.6212815 94.4024339,101.992095 101.027668,101.992095 C107.652902,101.992095 113.023715,96.6212815 113.023715,89.9960474 C113.023715,83.3708134 107.652902,78 101.027668,78 Z" id="Oval-Copy-3" fill="#000000" fill-rule="nonzero"></path>
        <path d="M130.59665,72.984472 C136.124955,72.984472 140.606531,77.4660486 140.606531,82.9943535 C140.606531,88.5226583 136.124955,93.0042349 130.59665,93.0042349 C129.215938,93.0042349 128.09665,91.8849468 128.09665,90.5042349 C128.09665,89.1787515 129.128186,88.0941962 130.432274,88.0095526 L130.59665,88.0042349 C133.363531,88.0042349 135.606531,85.7612346 135.606531,82.9943535 C135.606531,80.2274724 133.363531,77.984472 130.59665,77.984472 C127.902581,77.984472 125.705184,80.110973 125.591397,82.7770352 L125.586768,82.9943535 L125.586768,98.8474005 C125.586768,100.228112 124.46748,101.3474 123.086768,101.3474 C121.761285,101.3474 120.67673,100.315865 120.592086,99.0117762 L120.586768,98.8474005 L120.586768,82.5990966 C120.586768,82.4683659 120.596803,82.3399788 120.616143,82.2146636 C121.014607,77.0506673 125.330773,72.984472 130.59665,72.984472 Z" id="Combined-Shape" fill="#000000" fill-rule="nonzero"></path>
        <path d="M144.866513,73.594897 L144.997198,73.7167051 L150.848431,79.568472 L156.700441,73.7167051 C157.676752,72.7403944 159.259664,72.7403944 160.235975,73.7167051 C161.169837,74.6505675 161.21044,76.1394304 160.357783,77.1215538 L160.235975,77.252239 L154.383431,83.103472 L160.235975,88.9554816 C161.212286,89.9317923 161.212286,91.5147047 160.235975,92.4910155 C159.302112,93.4248779 157.813249,93.4654806 156.831126,92.6128236 L156.700441,92.4910155 L150.848431,86.638472 L144.997198,92.4910155 C144.020888,93.4673262 142.437975,93.4673262 141.461664,92.4910155 C140.527802,91.557153 140.487199,90.0682902 141.339856,89.0861668 L141.461664,88.9554816 L147.313431,83.103472 L141.461664,77.252239 C140.485354,76.2759283 140.485354,74.6930158 141.461664,73.7167051 C142.395527,72.7828427 143.88439,72.7422399 144.866513,73.594897 Z" id="Combined-Shape" fill="#000000" fill-rule="nonzero"></path>
        <path d="M180,0 L180,180 L0,180 L0,0 L180,0 Z M175,5 L5,5 L5,175 L175,175 L175,5 Z" id="Rectangle" fill="#000000" fill-rule="nonzero"></path>
    </g>
</svg>