<?xml version="1.0" encoding="UTF-8"?>
<svg width="180px" height="180px" viewBox="0 0 180 180" version="1.1" xmlns="http://www.w3.org/2000/svg" xmlns:xlink="http://www.w3.org/1999/xlink">
    <!-- Generator: Sketch 64 (93537) - https://sketch.com -->
    <title>github-solid</title>
    <desc>Created with Sketch.</desc>
    <g id="github-solid" stroke="none" stroke-width="1" fill="none" fill-rule="evenodd">
        <path d="M90,0 C40.2975,0 0,41.3123223 0,92.2793742 C0,133.049555 25.790625,167.642786 61.54875,179.840965 C66.04875,180.69455 67.7025,177.839656 67.7025,175.40002 C67.7025,173.202618 67.618125,165.92985 67.57875,158.218754 C42.53625,163.801657 37.254375,147.329788 37.254375,147.329788 C33.159375,136.665753 27.264375,133.828162 27.264375,133.828162 C19.096875,128.101074 27.883125,128.216423 27.883125,128.216423 C36.916875,128.868146 41.675625,137.726966 41.675625,137.726966 C49.7025,151.834175 62.73,147.75658 67.865625,145.397689 C68.67,139.434134 71.004375,135.362307 73.580625,133.055323 C53.589375,130.725268 32.574375,122.806545 32.574375,87.4520094 C32.574375,77.3762552 36.09,69.1460886 41.85,62.6807649 C40.91625,60.3564782 37.83375,50.9728193 42.721875,38.2613355 C42.721875,38.2613355 50.281875,35.7813273 67.4775,47.7199714 C74.655,45.6725228 82.355625,44.6516822 90.005625,44.61131 C97.65,44.6459147 105.35625,45.6725228 112.550625,47.7199714 C129.729375,35.7813273 137.2725,38.2613355 137.2725,38.2613355 C142.171875,50.9728193 139.089375,60.3564782 138.155625,62.6807649 C143.926875,69.1403211 147.42,77.3762552 147.42,87.4520094 C147.42,122.893057 126.365625,130.696431 106.32375,132.986113 C109.5525,135.852541 112.426875,141.464281 112.426875,150.0751 C112.426875,162.423233 112.32,172.360569 112.32,175.40002 C112.32,177.856959 113.94,180.734922 118.501875,179.82943 C154.243125,167.613948 180,133.03802 180,92.2793742 C180,41.3123223 139.7025,0 90,0 Z" id="Path" fill="#000000" fill-rule="nonzero"></path>
    </g>
</svg>