<?xml version="1.0" encoding="UTF-8"?>
<svg width="180px" height="180px" viewBox="0 0 180 180" version="1.1" xmlns="http://www.w3.org/2000/svg" xmlns:xlink="http://www.w3.org/1999/xlink">
    <!-- Generator: Sketch 64 (93537) - https://sketch.com -->
    <title>github</title>
    <desc>Created with Sketch.</desc>
    <g id="github" stroke="none" stroke-width="1" fill="none" fill-rule="evenodd">
        <path d="M90,0 C139.7025,0 180,41.3123223 180,92.2793742 C180,133.03802 154.243125,167.613948 118.501875,179.82943 C113.94,180.734922 112.32,177.856959 112.32,175.40002 L112.412014,158.302324 C112.419206,156.245152 112.424402,154.066252 112.426193,151.795202 L112.426875,150.0751 C112.426875,141.464281 109.5525,135.852541 106.32375,132.986113 C126.365625,130.696431 147.42,122.893057 147.42,87.4520094 C147.42,77.3762552 143.926875,69.1403211 138.155625,62.6807649 L138.348104,62.1776957 C139.435613,59.1997566 141.873133,50.1977288 137.2725,38.2613355 L137.044114,38.2038339 C135.667519,37.9095204 128.0115,36.9751917 112.550625,47.7199714 C105.35625,45.6725228 97.65,44.6459147 90.005625,44.61131 C82.355625,44.6516822 74.655,45.6725228 67.4775,47.7199714 L66.4774865,47.0344691 C50.3248014,36.1051894 43.0221859,38.1697145 42.7309636,38.2584947 C37.83375,50.9728193 40.91625,60.3564782 41.85,62.6807649 C36.09,69.1460886 32.574375,77.3762552 32.574375,87.4520094 C32.574375,122.806545 53.589375,130.725268 73.580625,133.055323 C71.004375,135.362307 68.67,139.434134 67.865625,145.397689 L67.5481204,145.541126 C62.2653617,147.888214 49.7997488,151.477885 41.9179185,138.144747 L41.5543617,137.513938 C40.7741131,136.184346 36.2404397,129.055532 28.29703,128.252268 L27.8571138,128.216264 C27.3452563,128.215025 19.5320677,128.282349 27.0094353,133.647359 L27.2758725,133.833843 C27.5616884,133.976918 33.1153411,136.861773 37.0960036,146.923482 L37.269027,147.373222 C37.5890721,148.298251 43.287525,163.63417 67.57875,158.218754 L67.7021185,175.118366 L67.7025,175.40002 C67.7025,177.839656 66.04875,180.69455 61.54875,179.840965 C25.790625,167.642786 0,133.049555 0,92.2793742 C0,41.3123223 40.2975,0 90,0 Z M90,5 C43.0853067,5 5,44.0481838 5,92.2793742 C5,129.792913 28.2590929,162.69874 62.1333292,174.749946 L62.701,174.947 L62.616,164.113 L62.4679623,164.129944 C51.8506438,165.254275 43.7270146,162.588334 38.0629326,157.193805 L37.777048,156.917161 C36.0759082,155.244674 34.7479144,153.446549 33.7440804,151.630698 C33.3821814,150.976054 33.0839701,150.356567 32.8434333,149.784074 L32.6970969,149.423521 L32.561,149.06 L32.3467821,148.513029 C31.6989994,146.909046 30.9874248,145.468114 30.224178,144.179957 L29.935562,143.704039 C28.694534,141.7047 27.4086451,140.214144 26.1710198,139.152367 C25.8452679,138.872899 25.5531782,138.649863 25.3016009,138.478346 L25.0573611,138.318015 C25.0538649,138.315448 25.0528984,138.314344 25.0545194,138.314664 L24.7279638,138.156353 L24.3937545,137.922004 C20.5484034,135.225626 18.5339331,132.792273 18.8086863,129.448584 C18.9865147,127.284449 20.1969037,125.652462 21.8584823,124.635306 C22.778288,124.072236 23.7580047,123.735209 24.8305519,123.515119 C25.5041973,123.376884 26.1798129,123.294541 26.8511431,123.250731 C27.1875256,123.228779 27.4844158,123.218814 27.7314467,123.216663 L28.096018,123.218787 L28.2429056,123.229384 C33.3502439,123.597843 37.7245464,125.871159 41.3515865,129.338669 C42.6915563,130.619702 43.8387667,131.981417 44.8054664,133.349156 C45.2847005,134.027202 45.6516159,134.607284 45.9083839,135.052657 L46.03,135.269 L46.2331731,135.619353 C48.9299421,140.179096 52.1693392,142.285022 56.0068321,142.726555 L56.3110357,142.75797 C58.5670169,142.964664 60.9450995,142.600497 63.241079,141.850625 L63.44,141.783 L63.4613159,141.690629 C63.8371951,140.0574 64.327456,138.518336 64.9217698,137.086441 L65.055,136.773 L64.8001517,136.722155 C55.9448792,134.890265 48.7134115,131.793774 42.748355,126.792572 L42.3141424,126.423222 C32.6524346,118.085527 27.574375,105.291999 27.574375,87.4520094 C27.574375,77.7694977 30.4860525,69.1815383 35.9491434,61.9868534 L36.216,61.64 L36.1809081,61.5178213 C34.3191702,54.9194784 34.3158879,46.5299048 37.8488718,37.0325015 L38.0651077,36.4613333 L38.9412659,34.1866196 L41.2729414,33.4757997 C43.1726585,32.8966639 46.089732,32.8069607 49.9990367,33.6909332 C55.0985755,34.8440417 61.0606246,37.504156 67.935927,41.9992475 L68.389,42.298 L68.8390516,42.1842052 C75.2747522,40.5909887 82.1052025,39.7298758 89.0372995,39.6216918 L90.0282589,39.6113612 C97.2380351,39.6439986 104.413035,40.5104524 111.176345,42.1821853 L111.634,42.298 L111.811632,42.1808327 C123.090481,34.7319503 131.539829,32.3596062 137.309403,33.1781249 L137.573789,33.2181615 C137.998646,33.2866098 138.36133,33.369264 138.66153,33.4577456 L138.834149,33.5114668 L141.085602,34.2516933 L141.937955,36.4631337 C145.614888,46.0029788 145.720877,54.4497405 143.934207,61.1196237 L143.79,61.635 L144.051799,61.9756682 C149.400429,69.007633 152.297817,77.3954123 152.41622,86.8472578 L152.42,87.4520094 C152.42,105.335119 147.331632,118.131095 137.64384,126.445129 C131.711515,131.536233 124.520931,134.6868 115.68086,136.555969 L114.898,136.716 L115.042199,137.053449 C116.527247,140.616381 117.365657,144.841665 117.423649,149.551754 L117.426875,150.077084 L117.422211,154.650428 C117.418421,156.543009 117.412379,158.426563 117.404197,160.346219 L117.32,174.947 L117.914032,174.738868 C151.428689,162.794161 174.529636,130.446705 174.992903,93.414461 L175,92.2793742 C175,44.0481838 136.914693,5 90,5 Z" id="Path" fill="#000000" fill-rule="nonzero"></path>
    </g>
</svg>