<?xml version="1.0" encoding="UTF-8"?>
<svg width="180px" height="180px" viewBox="0 0 180 180" version="1.1" xmlns="http://www.w3.org/2000/svg" xmlns:xlink="http://www.w3.org/1999/xlink">
    <!-- Generator: Sketch 64 (93537) - https://sketch.com -->
    <title>instagram</title>
    <desc>Created with Sketch.</desc>
    <g id="instagram" stroke="none" stroke-width="1" fill="none" fill-rule="evenodd">
        <path d="M126,0 C155.823376,0 180,24.1766235 180,54 L180,126 C180,155.823376 155.823376,180 126,180 L54,180 C24.1766235,180 0,155.823376 0,126 L0,54 C0,24.1766235 24.1766235,0 54,0 L126,0 Z M126,5 L54,5 C27.2086668,5 5.43927334,26.5014801 5.0065646,53.1896954 L5,54 L5,126 C5,152.791333 26.5014801,174.560727 53.1896954,174.993435 L54,175 L126,175 C152.791333,175 174.560727,153.49852 174.993435,126.810305 L175,126 L175,54 C175,27.2086668 153.49852,5.43927334 126.810305,5.0065646 L126,5 Z" id="Rectangle" fill="#000000" fill-rule="nonzero"></path>
        <path d="M90.5,53 C111.210678,53 128,69.7893219 128,90.5 C128,111.210678 111.210678,128 90.5,128 C69.7893219,128 53,111.210678 53,90.5 C53,69.7893219 69.7893219,53 90.5,53 Z M90.5,58 C72.5507456,58 58,72.5507456 58,90.5 C58,108.449254 72.5507456,123 90.5,123 C108.449254,123 123,108.449254 123,90.5 C123,72.5507456 108.449254,58 90.5,58 Z" id="Oval" fill="#000000" fill-rule="nonzero"></path>
        <path d="M143,20.5 C133.335017,20.5 125.5,28.3350169 125.5,38 C125.5,47.6649831 133.335017,55.5 143,55.5 C152.664983,55.5 160.5,47.6649831 160.5,38 C160.5,28.3350169 152.664983,20.5 143,20.5 Z M143,25.5 C149.903559,25.5 155.5,31.0964406 155.5,38 C155.5,44.9035594 149.903559,50.5 143,50.5 C136.096441,50.5 130.5,44.9035594 130.5,38 C130.5,31.0964406 136.096441,25.5 143,25.5 Z" id="Oval-Copy" fill="#000000" fill-rule="nonzero"></path>
    </g>
</svg>