<?xml version="1.0" encoding="UTF-8"?>
<svg width="180px" height="180px" viewBox="0 0 180 180" version="1.1" xmlns="http://www.w3.org/2000/svg" xmlns:xlink="http://www.w3.org/1999/xlink">
    <!-- Generator: Sketch 64 (93537) - https://sketch.com -->
    <title>mail-solid</title>
    <desc>Created with Sketch.</desc>
    <g id="mail-solid" stroke="none" stroke-width="1" fill="none" fill-rule="evenodd">
        <path d="M-0.000573231325,50.776 L105.182202,101.58026 L105.358566,101.657245 C106.072044,101.936562 106.875309,101.872895 107.535877,101.484671 L107.697911,101.380864 L124.921238,89.389824 C125.020297,89.5378368 125.136561,89.6770662 125.269751,89.8045024 L125.403112,89.9233753 L178.403112,133.923375 C178.800553,134.253327 179.269911,134.439368 179.747928,134.487367 C178.059863,146.089158 168.070551,155 156,155 L24,155 C11.9294491,155 1.94013676,146.089158 0.251459813,134.486872 C0.556331445,134.457095 0.858767098,134.370087 1.14265598,134.223772 L1.29012426,134.141362 L1.43365586,134.04793 L61.4336559,92.0479303 C62.5647791,91.2561441 62.8398661,89.6973179 62.0480798,88.5661947 C61.2892846,87.4822016 59.8260379,87.1843946 58.7098757,87.8583388 L58.5663441,87.9517707 L-0.000573231325,128.948 L-0.000573231325,50.776 Z M179.999427,51.045 L179.999427,128.75 L129.090427,86.486 L179.999427,51.045 Z M156,25 C168.070551,25 178.059863,33.9108417 179.74854,45.5131283 C179.406663,45.5467284 179.068447,45.6516287 178.755895,45.8313777 L178.57162,45.9482373 L106.041,96.442 L1.08732909,45.7488413 L0.930692452,45.6795896 C0.708631239,45.5902643 0.480266191,45.5351368 0.251834916,45.5120327 C1.94070958,33.9103307 11.9297952,25 24,25 L156,25 Z" id="Combined-Shape" fill="#000000" fill-rule="nonzero"></path>
    </g>
</svg>