<?xml version="1.0" encoding="UTF-8"?>
<svg width="180px" height="180px" viewBox="0 0 180 180" version="1.1" xmlns="http://www.w3.org/2000/svg" xmlns:xlink="http://www.w3.org/1999/xlink">
    <!-- Generator: Sketch 64 (93537) - https://sketch.com -->
    <title>mail</title>
    <desc>Created with Sketch.</desc>
    <g id="mail" stroke="none" stroke-width="1" fill="none" fill-rule="evenodd">
        <g id="Group" transform="translate(0.000000, 25.000000)" fill="#000000" fill-rule="nonzero">
            <path d="M156,0 C169.254834,0 180,10.745166 180,24 L180,106 C180,119.254834 169.254834,130 156,130 L24,130 C10.745166,130 0,119.254834 0,106 L0,24 C0,10.745166 10.745166,0 24,0 L156,0 Z M156,5 L24,5 C13.6194221,5 5.18316713,13.3246359 5.0029425,23.6622002 L5,24 L5,106 C5,116.380578 13.3246359,124.816833 23.6622002,124.997058 L24,125 L156,125 C166.380578,125 174.816833,116.675364 174.997058,106.3378 L175,106 L175,24 C175,13.6194221 166.675364,5.18316713 156.3378,5.0029425 L156,5 Z" id="Rectangle"></path>
            <path d="M0.242672568,22.4049728 C0.802610085,21.2204689 2.16156348,20.6953686 3.33851445,21.1791084 L3.49091702,21.2479548 L105.607564,71.6444186 L176.177594,21.4461837 C177.234182,20.6946056 178.670501,20.9181139 179.463907,21.9295397 L179.563665,22.0659178 C180.299232,23.1455044 180.080485,24.6130874 179.090606,25.4237631 L178.957133,25.5256922 L107.219687,76.5543768 C106.550186,77.0306104 105.695618,77.1299619 104.943578,76.8291404 L104.771981,76.7526058 L1.37504245,25.7239212 C0.165369207,25.1269206 -0.34161006,23.6409767 0.242672568,22.4049728 Z" id="Path"></path>
            <path d="M179.433401,60.9031744 C180.262447,61.9193166 180.166999,63.4055591 179.243458,64.3047056 L179.112397,64.4235781 L127.026307,108.423461 C125.982293,109.305396 124.433328,109.159156 123.566599,108.096826 C122.737553,107.080683 122.833001,105.594441 123.756542,104.695294 L123.887603,104.576422 L175.973693,60.576539 C177.017707,59.6946042 178.566672,59.8408438 179.433401,60.9031744 Z M3.749977,60.3611526 L3.89165219,60.4548564 L62.9497795,102.45448 C64.0661688,103.248409 64.335105,104.807741 63.5504653,105.937347 C62.798519,107.019885 61.3518479,107.314907 60.250023,106.638847 L60.1083478,106.545144 L1.0502205,64.5455198 C-0.0661688229,63.7515913 -0.335105037,62.1922589 0.449534658,61.0626534 C1.16878771,60.0271816 2.5236679,59.712236 3.6043905,60.2784629 L3.749977,60.3611526 Z" id="Shape" transform="translate(90.000000, 84.500000) scale(1, -1) translate(-90.000000, -84.500000) "></path>
        </g>
    </g>
</svg>