<?xml version="1.0" encoding="UTF-8"?>
<svg width="180px" height="180px" viewBox="0 0 180 180" version="1.1" xmlns="http://www.w3.org/2000/svg" xmlns:xlink="http://www.w3.org/1999/xlink">
    <!-- Generator: Sketch 64 (93537) - https://sketch.com -->
    <title>500px-solid</title>
    <desc>Created with Sketch.</desc>
    <g id="500px-solid" stroke="none" stroke-width="1" fill="none" fill-rule="evenodd">
        <path d="M180,0 L180,180 L0,180 L0,0 L180,0 Z M63.5813643,55 L24.7723793,55 L18.195341,92.5873545 L30.7627287,92.5873545 C31.2855242,91.5973377 32.0169719,90.7391014 32.9577371,90.0129783 C33.8985023,89.2868553 34.8006654,88.7617305 35.664559,88.4369385 C36.5284525,88.1121465 37.4525789,87.8539102 38.4372711,87.6612312 C39.4219633,87.4685523 40.0875207,87.3613977 40.4342762,87.3394342 C40.7806986,87.3171381 41.0612312,87.3061564 41.2758734,87.3061564 C44.9727121,87.3061562 47.9381031,88.5191348 50.1713811,90.9454242 C52.4049918,93.3713811 53.5214643,96.303827 53.5214643,99.7424293 C53.5214643,103.224626 52.3274543,106.404326 49.9400998,109.281531 C47.5524127,112.158735 44.6615641,113.597338 41.2672213,113.597338 C37.9610648,113.597338 35.254243,112.469218 33.1474209,110.213977 C31.0405988,107.958735 29.9870215,105.647587 29.9870215,103.282529 L29.9870215,103.282529 L16,103.282529 C16,103.920466 16.0742096,104.70416 16.2226289,105.633943 C16.3710482,106.563727 16.6708818,107.724459 17.1221297,109.116472 C17.5730449,110.508486 18.1643928,111.872546 18.896173,113.209318 C19.6279535,114.546423 20.6595674,115.910483 21.9906822,117.302496 C23.3221297,118.694509 24.8379367,119.90782 26.5377703,120.941764 C28.2379367,121.97604 30.3557404,122.825957 32.8918469,123.491514 C35.4279533,124.157404 38.2226289,124.490183 41.2758734,124.490183 C44.1587354,124.49584 46.8459234,124.163062 49.3381031,123.491514 C51.8302826,122.820632 53.9041596,121.962396 55.5600664,120.917138 C57.2159734,119.871547 58.6985025,118.744093 60.0079867,117.533777 C61.3171381,116.323461 62.3267887,115.140765 63.0362729,113.985358 C63.745757,112.830283 64.2821963,111.853577 64.6452578,111.055907 C65.0086521,110.257904 65.1900166,109.688852 65.1900166,109.347754 C65.195341,109.694176 65.4648918,110.393012 65.9986687,111.443927 C66.5321131,112.494509 67.4123127,113.773378 68.6392678,115.280865 C69.8662229,116.788353 71.2965059,118.218969 72.9304492,119.572047 C74.5640598,120.925458 76.6382693,122.08619 79.1524125,123.054576 C81.6665557,124.022629 84.3211314,124.506994 87.1154742,124.506994 C90.3447586,124.517804 93.4286187,124.003328 96.3660564,122.963394 C99.3041598,121.923794 101.774043,120.655574 103.776705,119.159401 C105.779368,117.662895 107.531115,116.169052 109.033278,114.678203 C110.534775,113.187687 111.706822,111.930449 112.548419,110.907155 C113.390017,109.88386 113.873877,109.369717 114.000665,109.36406 C114.127121,109.358735 114.674542,109.873211 115.642928,110.907155 C116.610982,111.941764 117.890183,113.209318 119.479867,114.711481 C121.069551,116.213644 122.885191,117.706822 124.926123,119.192346 C126.967388,120.677538 129.406988,121.934775 132.245591,122.963394 C135.084193,123.992346 137.964393,124.506994 140.885524,124.506994 C144.626289,124.506994 148.042596,123.733777 151.134443,122.187687 C154.226289,120.64193 156.718136,118.633611 158.610316,116.163727 C160.495099,113.708255 161.974816,110.966999 162.993344,108.043927 C164.021631,105.100499 164.536106,102.146423 164.536106,99.1813645 L164.536106,99.1813645 L164.545091,99.1400998 C164.545091,96.130782 164.070882,93.1876873 163.124792,90.3104826 C162.178369,87.4332779 160.780699,84.745757 158.933444,82.2482529 C157.084526,79.750416 154.602995,77.7510816 151.489517,76.2489186 C148.37604,74.7470881 144.841264,73.9960066 140.885857,73.9960066 C137.79401,73.9903494 134.785025,74.5264559 131.858236,75.6049916 C128.931447,76.6835273 126.45025,77.995341 124.414975,79.5414309 C122.379368,81.0871881 120.586023,82.6249584 119.034609,84.1540766 C117.483195,85.6835273 116.278536,86.9846922 115.420299,88.0572379 C114.562063,89.1301164 114.089185,89.6665557 114.000998,89.6665557 C113.957071,89.6828619 113.505824,89.1464227 112.647587,88.0572379 C111.789351,86.9680533 110.576373,85.6562396 109.008319,84.1211314 C107.440599,82.5863562 105.646922,81.0485857 103.627953,79.5084859 C101.609318,77.9683859 99.1281197,76.6672213 96.1846922,75.6053244 C93.2415973,74.5440932 90.2212977,74.0073211 87.1241264,73.9963395 C84.0266223,73.9853576 81.1687187,74.5217969 78.5500832,75.6053244 C75.9317803,76.6891846 73.8465889,78.0013311 72.2951746,79.5417637 C70.7437604,81.0821965 69.4429285,82.619634 68.3920133,84.1544094 C67.3414309,85.6895174 66.5574043,86.9903494 66.0402662,88.0575707 C65.5234607,89.124792 65.2425955,89.6612312 65.1986687,89.6668885 C65.1544094,89.6722131 64.9181365,89.2322795 64.488852,88.3464227 C64.0595674,87.4605658 63.39401,86.385025 62.4918469,85.1198004 C61.5896838,83.854243 60.4838602,82.5970051 59.1747088,81.3484193 C57.8655574,80.0998336 56.0911814,79.0352744 53.8522463,78.1550748 C51.6133111,77.2748752 49.1623959,76.834609 46.4998336,76.834609 C43.8369383,76.834609 41.515474,77.1148086 39.535108,77.6762062 C37.554742,78.2376039 36.1574043,78.850915 35.3430947,79.5164725 C34.5287854,80.1823627 33.8522463,80.7956738 33.3131447,81.3567387 C32.7740432,81.9178037 32.4189682,82.1983361 32.2485855,82.1983361 C32.8482527,78.3750416 33.7284525,73.0469219 34.8891846,66.2143096 L34.8891846,66.2143096 L63.5813643,66.2143096 L63.5813643,55 Z M87.1733777,87.6449252 C89.1044924,87.6449252 91.1564059,88.159401 93.3294508,89.1880199 C95.5024957,90.2166391 97.5108152,91.5480865 99.3534109,93.1816973 C101.196672,94.8156406 102.538769,96.0505824 103.380699,96.8871881 C104.222296,97.7234607 104.964725,98.5294508 105.608652,99.3048252 L105.608652,99.3048252 L105.674542,99.3707154 L105.608319,99.4535773 C104.915141,100.273211 104.172379,101.079201 103.380366,101.871215 C102.58802,102.663561 101.256572,103.887521 99.3863561,105.543428 C97.5161396,107.199667 95.4971713,108.541764 93.3294508,109.570383 C91.1617305,110.599335 89.109817,111.11381 87.1733777,111.11381 C85.1104824,111.11381 83.3281197,110.651581 81.8262895,109.727454 C80.3244592,108.803328 79.2299502,107.653577 78.5420965,106.278203 C77.8542428,104.902829 77.3590682,103.634609 77.0565723,102.473877 C76.7540764,101.313145 76.6026621,100.281531 76.6026621,99.3793678 C76.6026621,98.4772047 76.7540764,97.4565725 77.0565723,96.3181365 C77.3590682,95.179035 77.8545758,93.9108152 78.5420965,92.5134775 C79.2296172,91.1164727 80.324459,89.9554076 81.8262895,89.0312813 C83.3281199,88.1071549 85.1104826,87.6449252 87.1733777,87.6449252 Z M141.009983,87.6366057 C143.072879,87.6366057 144.855241,88.0988354 146.357071,89.0229617 C147.858902,89.9470881 148.953744,91.1078203 149.641264,92.505158 C150.329118,93.9028285 150.824293,95.1707154 151.126456,96.3094842 C151.429285,97.4482529 151.580366,98.4688852 151.580366,99.3707154 L151.580699,99.3544094 L151.580699,99.3544094 L151.58,99.362 L151.575103,99.6600125 C151.548987,100.384222 151.431453,101.186407 151.222346,102.067035 L151.127121,102.449251 C150.824626,103.610316 150.329118,104.878203 149.641597,106.253245 C148.954077,107.628952 147.859235,108.778702 146.357404,109.702496 C144.855907,110.626955 143.073211,111.089185 141.010316,111.089185 C139.079201,111.089185 137.027288,110.574709 134.854243,109.545757 C132.681198,108.517138 130.673211,107.185691 128.830283,105.55208 C126.987021,103.918137 125.644592,102.682862 124.802995,101.846922 C123.961398,101.010316 123.218968,100.204326 122.575042,99.4286189 L122.575042,99.4286189 L122.509151,99.3627287 L122.575042,99.2968387 C123.26822,98.4772047 124.010649,97.6712146 124.802995,96.8788686 C125.595341,96.0865225 126.926789,94.8628953 128.797005,93.2066557 C130.667554,91.5507488 132.68619,90.2086523 134.85391,89.1797006 C137.021631,88.1507488 139.073544,87.6366057 141.009983,87.6366057 Z" id="Combined-Shape" fill="#000000"></path>
    </g>
</svg>