<?xml version="1.0" encoding="UTF-8"?>
<svg width="180px" height="180px" viewBox="0 0 180 180" version="1.1" xmlns="http://www.w3.org/2000/svg" xmlns:xlink="http://www.w3.org/1999/xlink">
    <!-- Generator: Sketch 64 (93537) - https://sketch.com -->
    <title>500px</title>
    <desc>Created with Sketch.</desc>
    <g id="500px" stroke="none" stroke-width="1" fill="none" fill-rule="evenodd">
        <path d="M27.465376,115.026999 C33.2756408,150.834449 64.3330889,177.5 101,177.5 C121.325755,177.5 140.345988,169.324606 154.275273,155.076866 C155.240488,154.089584 156.823299,154.071695 157.810581,155.03691 C158.797863,156.002125 158.815752,157.584936 157.850537,158.572218 C142.989932,173.77257 122.685376,182.5 101,182.5 C61.8712201,182.5 28.7314616,154.046602 22.5299281,115.827846 C22.3087806,114.464959 23.2343427,113.180846 24.597229,112.959699 C25.9601152,112.738551 27.2442284,113.664113 27.465376,115.026999 Z M138,0.5 C139.380712,0.5 140.5,1.61928813 140.5,3 C140.5,4.3254834 139.468464,5.41003867 138.164376,5.49468232 L138,5.5 L51.5,5.5 L51.4996607,76.5558851 C60.1956077,57.6366024 79.3136949,44.5 101.5,44.5 C131.875661,44.5 156.5,69.1243388 156.5,99.5 C156.5,129.875661 131.875661,154.5 101.5,154.5 C80.980648,154.5 62.4632399,143.163293 52.9640488,125.392062 C52.3131713,124.174391 52.7726486,122.659633 53.9903201,122.008755 C55.2079916,121.357878 56.7227498,121.817355 57.3736272,123.035027 C60.8763152,129.587908 65.7264535,135.178075 71.4992482,139.508784 L71.5,101.796875 L71.5012749,101.742 L71.5042201,101.47909 C71.78239,84.3223801 85.7770001,70.5 103,70.5 C120.39697,70.5 134.5,84.6030304 134.5,102 C134.5,119.39697 120.39697,133.5 103,133.5 C98.7406298,133.5 94.5952646,132.652813 90.7520928,131.029499 C89.4801886,130.492261 88.8846243,129.025661 89.4218626,127.753757 C89.959101,126.481853 91.4257008,125.886289 92.697605,126.423527 C95.9278639,127.787953 99.4119772,128.5 103,128.5 C117.635546,128.5 129.5,116.635546 129.5,102 C129.5,87.3644541 117.635546,75.5 103,75.5 C88.3801232,75.5 76.5254077,87.3390632 76.5000408,101.953002 L76.5,142.414062 C76.5,142.543276 76.4901971,142.6702 76.4712945,142.794132 C83.909502,147.097569 92.4921699,149.5 101.5,149.5 C129.114237,149.5 151.5,127.114237 151.5,99.5 C151.5,71.8857625 129.114237,49.5 101.5,49.5 C73.8857625,49.5 51.5,71.8857625 51.5,99.5 C51.5,100.880712 50.3807119,102 49,102 C47.6192881,102 46.5,100.880712 46.5,99.5 C46.5,98.3055844 46.5380736,97.1200614 46.6130734,95.9445783 C46.5546948,95.7605394 46.5182805,95.5672162 46.5053177,95.3675007 L46.5,95.203125 L46.5,3 C46.5,1.6745166 47.5315359,0.589961328 48.8356243,0.50531768 L49,0.5 L138,0.5 Z M92.6370817,88.1104249 L92.767767,88.232233 L102.796275,98.261 L112.825983,88.232233 C113.802294,87.2559223 115.385206,87.2559223 116.361517,88.232233 C117.295379,89.1660955 117.335982,90.6549584 116.483325,91.6370817 L116.361517,91.767767 L106.332275,101.796 L116.361517,111.825983 C117.337828,112.802294 117.337828,114.385206 116.361517,115.361517 C115.427655,116.295379 113.938792,116.335982 112.956668,115.483325 L112.825983,115.361517 L102.796275,105.332 L92.767767,115.361517 C91.7914562,116.337828 90.2085438,116.337828 89.232233,115.361517 C88.2983706,114.427655 88.2577679,112.938792 89.1104249,111.956668 L89.232233,111.825983 L99.2602749,101.796 L89.232233,91.767767 C88.2559223,90.7914562 88.2559223,89.2085438 89.232233,88.232233 C90.1660955,87.2983706 91.6549584,87.2577679 92.6370817,88.1104249 Z M101,23.5 C120.559787,23.5 139.026015,30.5927606 153.426712,43.2350391 C154.464314,44.1459434 154.567023,45.7255201 153.656119,46.7631224 C152.745214,47.8007248 151.165638,47.9034338 150.128035,46.9925294 C136.631097,35.1436547 119.334131,28.5 101,28.5 C92.2401334,28.5 83.6910051,30.011217 75.629852,32.9305362 C74.331648,33.4006763 72.8981219,32.729398 72.4279817,31.431194 C71.9578416,30.1329901 72.6291199,28.6994639 73.9273239,28.2293238 C82.5323876,25.1130292 91.6574793,23.5 101,23.5 Z" id="Combined-Shape" fill="#000000" fill-rule="nonzero"></path>
    </g>
</svg>