<?xml version="1.0" encoding="UTF-8"?>
<svg width="180px" height="180px" viewBox="0 0 180 180" version="1.1" xmlns="http://www.w3.org/2000/svg" xmlns:xlink="http://www.w3.org/1999/xlink">
    <!-- Generator: Sketch 64 (93537) - https://sketch.com -->
    <title>500px</title>
    <desc>Created with Sketch.</desc>
    <g id="500px" stroke="none" stroke-width="1" fill="none" fill-rule="evenodd">
        <path d="M180,0 L180,180 L0,180 L0,0 L180,0 Z M175,5 L5,5 L5,175 L175,175 L175,5 Z M66.0813643,52.5 L66.0813643,68.7143096 L37.001,68.714 L35.891921,75.3379051 L35.717,76.395 L35.877042,76.3207641 C36.5116817,76.0351982 37.2269632,75.7693407 38.0260846,75.5178638 L38.4326468,75.3932991 L38.8532711,75.2709831 C41.0708623,74.6423364 43.6182178,74.334609 46.4998336,74.334609 C49.4675771,74.334609 52.2285641,74.8304976 54.7669335,75.8284147 C57.2887909,76.8198404 59.3376368,78.0490904 60.9001325,79.5392999 C62.3198263,80.893314 63.5297934,82.2689677 64.5273736,83.6683766 L64.7877868,84.0374931 L65.0362685,84.3977318 L65.142,84.555 L65.3034061,84.2972498 C65.4593483,84.0505297 65.6227898,83.7976275 65.7937555,83.5384454 L66.0558503,83.1449503 L66.32925,82.741962 C67.4730569,81.071526 68.8751199,79.4145667 70.5336975,77.7677291 C72.3330522,75.9811111 74.691606,74.4968278 77.5942382,73.2952681 C80.5261864,72.0820994 83.7119679,71.4842263 87.1329906,71.4963552 C90.5162132,71.5083511 93.8203381,72.0952171 97.0330912,73.2536826 C100.205112,74.3980488 102.911107,75.817056 105.144206,77.5207794 C107.241907,79.1209378 109.113193,80.7252197 110.75722,82.3346974 C111.877844,83.4317774 112.831499,84.4268535 113.620957,85.3251527 L113.909313,85.6574887 L114.037,85.808 L114.165325,85.6585438 C114.822889,84.8968239 115.605781,84.0571014 116.515504,83.1365167 L117.279683,82.3735616 C118.911662,80.7650359 120.786319,79.1577896 122.902713,77.5506867 C125.145438,75.8470076 127.844249,74.4198223 130.9938,73.2591976 C134.197873,72.0784812 137.501048,71.4898092 140.885857,71.4960066 C145.205086,71.4960066 149.110768,72.3258467 152.575865,73.9972861 C156.045505,75.6712873 158.846078,77.9281963 160.943395,80.7616127 C162.948655,83.4727419 164.469685,86.3982461 165.499694,89.5295611 C166.460427,92.4512961 166.974005,95.4395063 167.038212,98.4863176 L167.045091,99.1400998 L167.045091,99.409123 L167.033,99.464 L167.029513,99.7903588 C166.972378,102.428466 166.543997,105.055119 165.747743,107.663816 L165.557464,108.265501 L165.354133,108.866531 C164.247846,112.041462 162.640633,115.018911 160.594874,117.684099 C158.464998,120.46425 155.674457,122.712949 152.252573,124.423707 C148.806025,126.147166 145.006624,127.007519 140.885524,127.007519 C137.67151,127.007519 134.503229,126.440932 131.393866,125.313834 C128.344263,124.208755 125.696283,122.844403 123.45491,121.213616 C121.328231,119.665679 119.431168,118.105049 117.762828,116.52856 L116.962515,115.767069 C116.060672,114.902637 115.270104,114.121859 114.58856,113.422088 L114.114,112.929 L114.039974,113.01687 C113.44062,113.71337 112.724907,114.488732 111.89127,115.345572 L111.147809,116.10002 L110.794349,116.45264 C109.204475,118.030539 107.364043,119.599626 105.272975,121.162193 C103.055682,122.818716 100.362941,124.201045 97.2003826,125.320066 C93.9900499,126.456611 90.6210891,127.018743 87.1154742,127.007519 C84.0171416,127.007519 81.0579134,126.467196 78.2538269,125.387502 C75.4998034,124.32672 73.1913389,123.034702 71.3359361,121.497541 C69.5794212,120.042961 68.0333174,118.496767 66.7003189,116.85899 C66.2910625,116.356161 65.9154414,115.873949 65.5732754,115.411374 L65.312,115.054 L65.1666817,115.293547 C64.48095,116.410273 63.5826323,117.519761 62.4745968,118.629636 L62.0974883,118.999619 L61.7048687,119.369694 C60.2811651,120.68558 58.6774455,121.9054 56.8945213,123.031193 C55.0099451,124.220794 52.7075046,125.173487 49.988557,125.905413 C47.2765994,126.636183 44.3695315,126.996259 41.2758734,126.990183 C38.0155953,126.990183 35.008577,126.63203 32.2572537,125.909631 C29.5010108,125.186303 27.161629,124.247536 25.2385796,123.077672 C23.3542747,121.931522 21.6675752,120.581533 20.1838337,119.030298 C18.7085957,117.487567 17.5465382,115.950622 16.7032516,114.409774 C15.8969449,112.936862 15.243333,111.428994 14.7439644,109.8874 C14.2559092,108.381843 13.9253037,107.101894 13.7538842,106.028024 C13.6071453,105.108768 13.5228194,104.296965 13.5040307,103.5827 L13.5,103.282529 L13.5,100.782529 L32.4870215,100.782529 L32.4870215,103.282529 C32.4870215,104.962083 33.2732066,106.686438 34.974279,108.507346 C36.5989581,110.246479 38.6408446,111.097338 41.2672213,111.097338 C43.8960148,111.097338 46.0909116,110.0051 48.0161584,107.685145 C50.0383687,105.248006 51.0214643,102.629615 51.0214643,99.7424293 C51.0214643,96.923757 50.1356286,94.5974977 48.3319659,92.6385137 C46.5884125,90.7442733 44.2952662,89.8061563 41.2758734,89.8061564 L41.0541858,89.8105847 C40.925714,89.8150449 40.7711821,89.8229226 40.5923094,89.8344343 L40.4583858,89.8477414 C40.1828893,89.8812775 39.6498182,89.971378 38.9173523,90.1147027 C38.064561,90.281572 37.2741774,90.502629 36.5443429,90.7770197 C35.9292628,91.0082671 35.2396726,91.4097491 34.4852599,91.9920372 C33.9065505,92.43871 33.453633,92.9409475 33.1127164,93.5078217 L32.9734263,93.7547516 L32.2697223,95.0873545 L15.2199068,95.0873545 L22.6718455,52.5 L66.0813643,52.5 Z M61.081,57.5 L26.872,57.5 L21.17,90.087 L29.396,90.087 L29.5587861,89.8743556 C29.9255989,89.4101223 30.3348284,88.9753364 30.7851833,88.5708697 L31.1306402,88.2732182 L31.4302144,88.0339194 C32.5567102,87.1644415 33.6714962,86.5154089 34.7847751,86.0968572 C35.7803775,85.7225476 36.8379034,85.4267754 37.9571899,85.2077598 L38.7097587,85.0655098 C39.400073,84.9406578 39.9080653,84.8677548 40.2737059,84.8445961 C40.6676275,84.8192429 40.9994145,84.8061564 41.2758733,84.8061564 C45.6505274,84.8061562 49.2880169,86.2942386 52.0105548,89.2520725 C54.6740172,92.1448974 56.0214643,95.6833767 56.0214643,99.7424293 C56.0214643,103.819193 54.6168438,107.56028 51.8639319,110.878049 C49.0138553,114.312441 45.4270301,116.097338 41.2672214,116.097338 C37.2817177,116.097338 33.9098036,114.692253 31.3205628,111.920608 C29.6566498,110.139477 28.5151901,108.26682 27.9340138,106.318818 L27.8316183,105.952689 L27.79,105.782 L18.792,105.782 L18.8430505,106.015408 C18.9489198,106.484115 19.0908494,107.015452 19.2691037,107.607166 L19.3804173,107.969421 L19.5004616,108.346059 C19.9025434,109.587319 20.431494,110.807597 21.0892202,112.009091 C21.7086565,113.140921 22.6092407,114.33204 23.7973151,115.574469 C24.9770912,116.807911 26.3221181,117.884435 27.8370806,118.805928 C29.3145668,119.70474 31.2109508,120.465736 33.526737,121.073475 C35.8467497,121.682626 38.4289639,121.990183 41.2807793,121.990188 C43.9484367,121.995423 46.4156774,121.689825 48.6882503,121.077453 C50.9522469,120.467997 52.797833,119.704339 54.2253077,118.803275 C55.7559442,117.836783 57.1169789,116.801554 58.3108722,115.698075 C59.4625196,114.633372 60.325621,113.622105 60.906032,112.676895 L61.281361,112.054606 C61.7544401,111.254548 62.1179325,110.573762 62.370057,110.019827 C62.4849818,109.767456 62.5725542,109.554911 62.6323935,109.387764 L62.685273,109.235055 C62.6866026,109.233484 62.6875638,109.2343 62.6882579,109.237768 L62.6900166,109.347754 L67.6897214,109.309334 C67.687548,109.167931 67.674208,109.086725 67.6613421,109.037803 L67.6846386,109.111931 C67.695849,109.144588 67.7105104,109.184882 67.7286412,109.231882 C67.8288645,109.49169 67.9961328,109.856013 68.2277742,110.312075 C68.66864,111.18033 69.4540194,112.321506 70.5782167,113.702741 C71.7002197,115.08128 73.0150413,116.396178 74.5253876,117.646905 C75.936125,118.81567 77.7757255,119.845271 80.0507291,120.721546 C82.2758835,121.578326 84.6258828,122.007309 87.1238427,122.007309 C90.068925,122.016866 92.8676395,121.549884 95.5321355,120.60658 C98.2435311,119.647196 100.491144,118.493374 102.280222,117.156769 C104.191209,115.728768 105.855132,114.310166 107.272011,112.90396 C108.608008,111.577734 109.663105,110.454085 110.431452,109.54259 L110.940909,108.929856 C111.247928,108.564348 111.506549,108.269614 111.722044,108.040637 C111.900775,107.850723 112.05985,107.6947 112.218114,107.559978 C112.346299,107.450861 112.476227,107.353003 112.62739,107.260102 C112.984197,107.040817 113.356969,106.890294 113.895492,106.866273 C114.464278,106.842324 114.861471,106.974626 115.25204,107.184697 C115.40937,107.269318 115.545499,107.360092 115.681442,107.462796 C115.807299,107.55788 115.935695,107.665934 116.074904,107.791895 L116.218025,107.924009 C116.417884,108.111809 116.653862,108.346726 116.929303,108.631634 L117.917766,109.672471 C118.782889,110.57202 119.875526,111.645771 121.196906,112.894402 C122.704092,114.318609 124.437196,115.744358 126.396964,117.170805 C128.239679,118.511536 130.471363,119.661394 133.097558,120.613043 C135.665463,121.543871 138.257591,122.007309 140.885524,122.007309 C144.245575,122.007309 147.278852,121.320545 150.016505,119.951571 C152.777087,118.571429 154.970641,116.803799 156.62718,114.641502 C158.349565,112.397599 159.701786,109.892536 160.63322,107.219418 C161.503339,104.72874 161.967154,102.2437 162.028974,99.7555998 L162.036106,99.1813645 L162.036106,98.9123413 L162.042,98.885 L162.038491,98.5535662 C161.990483,96.42414 161.680587,94.3319195 161.108097,92.272343 L160.928472,91.6554448 L160.749971,91.091652 C159.887696,88.4702617 158.613997,86.0204687 156.924039,83.7356302 C155.32383,81.573793 153.161929,79.8315727 150.403365,78.5006451 C147.641135,77.1682441 144.477218,76.4960066 140.881283,76.4960025 C138.086212,76.4908882 135.371458,76.9746953 132.722673,77.9507856 C130.016815,78.9479071 127.75379,80.1446404 125.926874,81.5324507 C123.974841,83.0147457 122.262236,84.4830556 120.789729,85.9344008 C119.417816,87.2868914 118.339275,88.4417466 117.560874,89.3869701 L116.904123,90.1981868 C116.761286,90.3725358 116.631576,90.5283192 116.514482,90.6660778 L116.296967,90.9177224 C116.13574,91.1005561 115.997661,91.2479904 115.866812,91.3730782 C115.757816,91.4772743 115.650304,91.570309 115.522694,91.6631318 C115.136908,91.9437511 114.782884,92.127029 114.203008,92.1608784 L114.000998,92.1665557 L114,92.072 L113.688855,92.0874727 C113.283225,92.1005051 113.13165,92.0661485 112.952827,91.9628775 L112.509179,91.6796458 C112.470699,91.6531163 112.443049,91.6315436 112.404583,91.6000048 L112.361711,91.5645914 C112.257019,91.4770459 112.171567,91.3940655 112.080938,91.2988604 L111.913148,91.1148807 C111.883035,91.0806985 111.851714,91.0446287 111.818985,91.006479 L111.513572,90.6411059 C111.366267,90.4614825 111.194629,90.2484612 110.997913,90.0011989 L110.683938,89.6045196 C109.901195,88.6111434 108.757356,87.374031 107.259423,85.9075695 C105.767808,84.4473006 104.051683,82.9760409 102.111542,81.4960719 C100.307364,80.1195897 98.0508864,78.9363068 95.336679,77.9571053 C92.6611183,76.9923425 89.9245551,76.5062846 87.115263,76.4963237 C84.3417934,76.4864907 81.8116881,76.9613136 79.5062824,77.9152342 C77.1714686,78.8817425 75.3598376,80.0218368 74.0566518,81.3157981 C72.6130012,82.74923 71.4132072,84.1671475 70.4551277,85.5663438 C69.5505456,86.8881166 68.8678089,88.006204 68.4096956,88.9069199 L67.8871216,89.9684583 C67.8002738,90.1420838 67.7237733,90.2921457 67.6573552,90.419114 L67.5314202,90.6543639 C67.4923496,90.7252465 67.4558293,90.7891341 67.4207868,90.8476445 C67.3609557,90.9475446 67.3028283,91.0371813 67.2305403,91.1341434 L67.1454956,91.2430281 L66.8791144,91.5325194 C66.6820431,91.7400466 66.5635665,91.780941 65.4972773,92.148991 L64.8106085,92.0764575 C64.1337649,91.9974326 64.0591029,91.9413259 63.704458,91.6748189 L63.4806052,91.4867519 C63.3990976,91.4156099 63.3686544,91.3812201 63.2874727,91.2895138 C63.183373,91.1699343 63.1058145,91.0621184 63.0291779,90.9434208 C62.9768576,90.8623852 62.9253787,90.775987 62.8707716,90.6788253 L62.7860186,90.524335 C62.6479959,90.2675148 62.4679728,89.9089535 62.2390956,89.4366504 C61.8789479,88.6934619 61.2832716,87.7309694 60.4561397,86.5709711 C59.6496172,85.4395786 58.6479565,84.3007557 57.4492851,83.1575388 C56.3935249,82.1506215 54.893652,81.2507399 52.9375591,80.4817349 C50.9977385,79.7191272 48.8568347,79.334609 46.4998336,79.334609 C44.0536757,79.334609 41.9586132,79.5876982 40.2169449,80.0814294 C38.5366647,80.5577582 37.4195153,81.0481573 36.9256725,81.4517883 C36.2766244,81.9825384 35.7329728,82.468182 35.2963904,82.9047733 L34.7380818,83.4748051 C33.9045166,84.3049797 33.3731625,84.6513265 32.4521595,84.6938164 L32.2485855,84.6983361 L29.3259075,84.6983361 L30.1149998,79.6926861 C30.5243663,77.140173 31.0300143,74.0715129 31.6319506,70.4866096 L32.4244966,65.7956055 L32.7780695,63.7143096 L61.081,63.714 L61.081,57.5 Z M87.1733777,85.1449252 C89.4972609,85.1449252 91.9080519,85.7492601 94.3990569,86.9283866 C96.7871169,88.0587839 98.9934567,89.5215112 101.011761,91.3109022 L102.252012,92.4180186 C103.505612,93.5459913 104.467291,94.4425361 105.142847,95.1138202 C105.88836,95.8546166 106.565677,96.5782997 107.174695,97.2853651 L107.442309,97.6029485 L109.023757,99.1843966 L107.517197,101.067946 C106.778681,101.941188 105.988823,102.798292 105.148133,103.638982 L104.831281,103.95128 C103.984471,104.775324 102.726901,105.924793 101.043811,107.415016 C98.9996426,109.225305 96.7839984,110.698323 94.4014848,111.828865 C91.9150565,113.009098 89.5031507,113.61381 87.1733777,113.61381 C84.6655367,113.61381 82.4295529,113.034045 80.5161247,111.856649 C78.6309974,110.696667 77.2104575,109.204657 76.3061369,107.396454 C75.5446169,105.873783 74.9868562,104.445364 74.6373745,103.104339 C74.2843664,101.749782 74.1026621,100.511216 74.1026621,99.3793678 C74.1026621,98.2443612 74.2853664,97.0123377 74.6403184,95.6764845 C74.9882182,94.3664066 75.5423057,92.9475406 76.2990199,91.4095719 C77.2019686,89.5748291 78.6253918,88.065518 80.5161251,86.9020867 C82.4295535,85.7246904 84.6655373,85.1449252 87.1733777,85.1449252 Z M141.009983,85.1366057 C143.517824,85.1366057 145.753808,85.7163709 147.667236,86.8937673 C149.558265,88.0573805 150.981595,89.5664853 151.884338,91.4012454 C152.64116,92.9390556 153.195139,94.3579342 153.542488,95.6669974 C153.858225,96.8543071 154.037642,97.960055 154.073614,98.9886151 L154.080366,99.3707154 L153.456,99.37 L154.03,99.402 L154.079663,99.4030769 L154.073479,99.7501075 C154.036587,100.773148 153.858733,101.880579 153.546363,103.079544 C153.197168,104.419855 152.639499,105.847611 151.877882,107.370846 C150.973942,109.179601 149.552954,110.671967 147.668122,111.83135 C145.75503,113.009224 143.518591,113.589185 141.010316,113.589185 C138.686186,113.589185 136.275262,112.984719 133.784637,111.80539 C131.397031,110.675208 129.191027,109.212643 127.171932,107.422875 L125.932433,106.316434 C124.679234,105.188839 123.716751,104.29165 123.040494,103.619939 C122.294269,102.87814 121.616989,102.154335 121.008377,101.447498 L120.733,101.122 L118.973615,99.3627261 L120.748,97.587 L121.230151,97.0299648 C121.612424,96.5971138 122.007262,96.168564 122.414675,95.7442956 L123.035228,95.1111016 L123.351518,94.7993618 C124.196898,93.9767302 125.453076,92.8285873 127.139902,91.3347555 C129.184581,89.5246999 131.399726,88.0519534 133.781876,86.921218 C136.267978,85.7411405 138.679956,85.1366057 141.009983,85.1366057 Z M87.1733777,90.1449252 C85.5557491,90.1449252 84.2269202,90.4894755 83.1364538,91.1604758 C82.0238893,91.8450738 81.2574321,92.6577783 80.7852772,93.6171715 C80.1656358,94.8765492 79.7293876,95.9936611 79.472733,96.960139 C79.222654,97.9013053 79.1026621,98.7104425 79.1026621,99.3793678 C79.1026621,100.051362 79.2236239,100.875884 79.47577,101.843415 C79.7313455,102.824105 80.1640172,103.932172 80.7780561,105.159952 C81.2496273,106.102866 82.0183232,106.910236 83.1364542,107.59826 C84.22692,108.26926 85.5557487,108.61381 87.1733777,108.61381 C88.7164005,108.61381 90.4083117,108.189615 92.2577,107.311766 C94.2112184,106.384789 96.0333903,105.173362 97.7290879,103.671674 L98.9365318,102.595294 C100.147354,101.507449 101.04149,100.674556 101.612599,100.103448 C101.761283,99.9547636 101.908057,99.8056211 102.052566,99.6564522 L102.319,99.375 L102.003347,99.0481695 L101.618548,98.6605536 L101.146648,98.2006633 C100.338524,97.4257395 99.185361,96.3735564 97.6949142,95.0523626 C96.0281703,93.5746587 94.2178704,92.3744923 92.2598449,91.4476533 C90.4042928,90.5693208 88.711309,90.1449252 87.1733777,90.1449252 Z M141.009983,90.1366057 C139.466552,90.1366057 137.774634,90.5606655 135.925944,91.4381832 C133.972652,92.3653524 132.150525,93.5767995 130.45446,95.0782441 L129.245249,96.1563456 C128.033369,97.245226 127.140676,98.0767217 126.570762,98.6466355 C126.385114,98.8322838 126.202411,99.0186967 126.022648,99.2058755 L125.871,99.365 L126.179903,99.6853572 L126.56479,100.073203 L127.037022,100.533269 C127.8457,101.308531 128.999467,102.361226 130.488612,103.681266 C132.15614,105.159398 133.966242,106.359483 135.924132,107.286257 C137.779408,108.164743 139.4723,108.589185 141.010316,108.589185 C142.62808,108.589185 143.956965,108.244574 145.047582,107.573091 C146.165716,106.885313 146.934303,106.078118 147.405529,105.135211 C148.020027,103.906216 148.452648,102.798608 148.70788,101.818958 C148.905036,101.062217 149.022103,100.392139 149.062709,99.8455301 L149.07544,99.6189355 L149.08,99.349 L149.074724,99.1131389 C149.052116,98.5849504 148.961311,97.9787181 148.797869,97.2974971 L148.710073,96.9506517 C148.453761,95.9846802 148.017793,94.8680571 147.398084,93.608852 C146.925983,92.6493396 146.159737,91.8369176 145.046907,91.1521562 C143.956441,90.4811559 142.627612,90.1366057 141.009983,90.1366057 Z" id="Combined-Shape" fill="#000000" fill-rule="nonzero"></path>
    </g>
</svg>