<?xml version="1.0" encoding="UTF-8"?>
<svg width="180px" height="180px" viewBox="0 0 180 180" version="1.1" xmlns="http://www.w3.org/2000/svg" xmlns:xlink="http://www.w3.org/1999/xlink">
    <!-- Generator: Sketch 64 (93537) - https://sketch.com -->
    <title>500px-solid</title>
    <desc>Created with Sketch.</desc>
    <g id="500px-solid" stroke="none" stroke-width="1" fill="none" fill-rule="evenodd">
        <circle id="Oval" fill="#000000" cx="90" cy="90" r="90"></circle>
        <path d="M53.0753165,103.070413 C56.5374102,124.406574 75.0450285,140.296992 96.8947368,140.296992 C109.00779,140.296992 120.34047,135.42591 128.641656,126.934939 C129.606871,125.947658 131.189682,125.929769 132.176964,126.894984 C133.164246,127.860199 133.182135,129.44301 132.21692,130.430292 C122.984414,139.873874 110.367411,145.296992 96.8947368,145.296992 C72.5831597,145.296992 51.9932311,127.618728 48.1398687,103.871259 C47.9187211,102.508373 48.8442832,101.22426 50.2071695,101.003112 C51.5700558,100.781965 52.854169,101.707527 53.0753165,103.070413 Z M119.428571,32.5 C120.809283,32.5 121.928571,33.6192881 121.928571,35 C121.928571,36.3254834 120.897035,37.4100387 119.592947,37.4946823 L119.428571,37.5 L67.725,37.5 L67.7241999,75.8820442 C73.7720444,65.9383435 84.710061,59.2969925 97.1992481,59.2969925 C116.238538,59.2969925 131.672932,74.7313866 131.672932,93.7706767 C131.672932,112.809967 116.238538,128.244361 97.1992481,128.244361 C84.3382563,128.244361 72.7313358,121.138385 66.7777362,110.000301 C66.1268587,108.782629 66.586336,107.267871 67.8040075,106.616993 C69.021679,105.966116 70.5364372,106.425593 71.1873146,107.643265 C72.9275908,110.899 75.2319264,113.751531 77.9504956,116.096203 L77.9511278,95.1695254 L77.9512155,95.131 L77.9540584,94.9459593 C78.1394124,83.9711826 87.0937972,75.1315789 98.112782,75.1315789 C109.247756,75.1315789 118.274436,84.158259 118.274436,95.2932331 C118.274436,106.428207 109.247756,115.454887 98.112782,115.454887 C95.3874886,115.454887 92.7336004,114.912513 90.2732045,113.873269 C89.0013003,113.33603 88.405736,111.86943 88.9429744,110.597526 C89.4802127,109.325622 90.9468125,108.730058 92.2187167,109.267296 C94.0661996,110.047653 96.058836,110.454887 98.112782,110.454887 C106.486332,110.454887 113.274436,103.666783 113.274436,95.2932331 C113.274436,86.9196827 106.486332,80.1315789 98.112782,80.1315789 C89.7392316,80.1315789 82.9511278,86.9196827 82.9511278,95.2932331 L82.9504536,119.577518 C87.2175027,121.934568 92.092386,123.244361 97.1992481,123.244361 C113.477114,123.244361 126.672932,110.048543 126.672932,93.7706767 C126.672932,77.4928104 113.477114,64.2969925 97.1992481,64.2969925 C80.9213818,64.2969925 67.7255639,77.4928104 67.7255639,93.7706767 C67.7255639,95.1513886 66.6062758,96.2706767 65.2255639,96.2706767 C63.844852,96.2706767 62.7255639,95.1513886 62.7255639,93.7706767 C62.7255639,93.076402 62.7460874,92.3869209 62.7865607,91.7028069 C62.75815,91.5785997 62.7394238,91.4497671 62.7308816,91.3181586 L62.7255639,91.1537829 L62.7255639,35 C62.7255639,33.6745166 63.7570998,32.5899613 65.0611882,32.5053177 L65.2255639,32.5 L119.428571,32.5 Z M92.441593,86.0953873 L92.5722782,86.2171955 L97.9892155,91.634 L103.40587,86.2171955 C104.382181,85.2408847 105.965093,85.2408847 106.941404,86.2171955 C107.875267,87.1510579 107.915869,88.6399208 107.063212,89.6220441 L106.941404,89.7527294 L101.524215,95.169 L106.941404,100.586321 C107.917715,101.562632 107.917715,103.145545 106.941404,104.121855 C106.007542,105.055718 104.518679,105.09632 103.536556,104.243663 L103.40587,104.121855 L97.9892155,98.705 L92.5722782,104.121855 C91.5959675,105.098166 90.0130551,105.098166 89.0367443,104.121855 C88.1028819,103.187993 88.0622792,101.69913 88.9149362,100.717007 L89.0367443,100.586321 L94.4532155,95.169 L89.0367443,89.7527294 C88.0604336,88.7764186 88.0604336,87.1935062 89.0367443,86.2171955 C89.9706068,85.283333 91.4594696,85.2427303 92.441593,86.0953873 Z M96.8947368,46.5075188 C109.04669,46.5075188 120.521617,50.9149652 129.468641,58.7694993 C130.506243,59.6804037 130.608952,61.2599804 129.698048,62.2975827 C128.787144,63.3351851 127.207567,63.4378941 126.169964,62.5269897 C118.126699,55.4658592 107.821034,51.5075188 96.8947368,51.5075188 C91.6736828,51.5075188 86.5796652,52.4079809 81.7765695,54.1474057 C80.4783655,54.6175458 79.0448394,53.9462675 78.5746992,52.6480635 C78.1045591,51.3498596 78.7758374,49.9163334 80.0740414,49.4461933 C85.4210477,47.5097931 91.0910287,46.5075188 96.8947368,46.5075188 Z" id="Combined-Shape" fill="#FFFFFF" fill-rule="nonzero"></path>
    </g>
</svg>