<?xml version="1.0" encoding="UTF-8"?>
<svg width="180px" height="180px" viewBox="0 0 180 180" version="1.1" xmlns="http://www.w3.org/2000/svg" xmlns:xlink="http://www.w3.org/1999/xlink">
    <!-- Generator: Sketch 64 (93537) - https://sketch.com -->
    <title>wechat</title>
    <desc>Created with Sketch.</desc>
    <g id="wechat" stroke="none" stroke-width="1" fill="none" fill-rule="evenodd">
        <path d="M64.6070459,18.9921875 C95.1484531,18.9921875 121.376169,36.3675086 127.4244,60.3997863 C127.761377,61.7387454 126.949111,63.0973604 125.610152,63.4343378 C124.271192,63.7713152 122.912577,62.9590485 122.5756,61.6200894 C117.129087,39.9787008 92.99775,23.9921875 64.6070459,23.9921875 C31.8560192,23.9921875 5.5,45.0860499 5.5,70.7989718 C5.5,85.2700457 13.8816401,98.7133717 28.054014,107.567954 C31.1142914,109.479947 30.7781467,114.610798 27.6160014,124.205546 L27.38,124.913 L28.6355001,124.058224 C38.2934628,117.511902 43.6756006,114.75469 46.3011209,115.315959 L46.4093365,115.341369 C52.2361497,116.835737 58.3546949,117.605756 64.6070459,117.605756 C66.1720147,117.605756 67.7294727,117.557522 69.2771549,117.461566 C70.6552207,117.376126 71.8416263,118.424007 71.9270661,119.802073 C72.0125058,121.180138 70.9646253,122.366544 69.5865595,122.451984 C67.9358653,122.554326 66.275223,122.605756 64.6070459,122.605756 C58.2698216,122.605756 52.0543371,121.863414 46.1044446,120.418588 L45.364,120.233 L45.2833609,120.24982 C45.0098883,120.309 44.6195853,120.438123 44.1304861,120.639468 C43.0971969,121.064838 41.724324,121.769065 40.0316812,122.747636 L39.6640848,122.961527 C35.831408,125.205581 30.5333425,128.731253 23.7890742,133.529276 C21.773241,134.963385 19.1218301,132.911567 20.0043095,130.600403 L20.4726999,129.363245 C22.6829998,123.473436 24.1162317,118.886394 24.7700851,115.638507 C25.094503,114.027026 25.2156021,112.793725 25.1539562,111.985621 L25.1420302,111.855237 L25.107,111.62 L24.9101881,111.496307 C9.8102002,101.871881 0.697397046,87.2448733 0.50316865,71.3187573 L0.5,70.7989718 C0.5,42.0491236 29.3088088,18.9921875 64.6070459,18.9921875 Z" id="Path" fill="#000000" fill-rule="nonzero"></path>
        <path d="M125,63 C155.375661,63 180,83.6719147 180,109.172014 C180,134.672113 155.375661,155.344028 125,155.344028 C119.140663,155.344028 113.495326,154.574851 108.199449,153.150215 C105.476089,152.417608 91.1845016,163.496605 87.9526743,161.828694 C84.7208469,160.160783 94.0215638,147.447985 91.1845016,145.588751 C78.290473,137.138805 70,123.968181 70,109.172014 C70,83.6719147 94.6243388,63 125,63 Z M125,68 C97.2110057,68 75,86.6459429 75,109.172014 C75,121.811453 82.0037448,133.594235 93.9251171,141.406763 C95.7535087,142.604977 96.6125992,144.464529 96.7192593,146.45976 C96.779706,147.590504 96.6043228,148.709902 96.2573774,149.951213 L96.1283269,150.396804 C95.8638971,151.277214 95.5526342,152.117748 95.0350491,153.364116 L94.725,154.101 L99.7809048,151.210945 C100.660309,150.712407 101.099159,150.474364 101.608613,150.211966 L102.286562,149.867168 C105.397968,148.294189 107.168078,147.695013 109.498316,148.321867 C114.457842,149.656021 119.669777,150.344028 125,150.344028 C152.788994,150.344028 175,131.698085 175,109.172014 C175,86.6459429 152.788994,68 125,68 Z" id="Oval-Copy-2" fill="#000000" fill-rule="nonzero" transform="translate(125.000000, 112.500000) scale(-1, 1) translate(-125.000000, -112.500000) "></path>
        <path d="M43.5,41.5 C37.457614,41.5 32.5,46.1659896 32.5,52 C32.5,57.8340104 37.457614,62.5 43.5,62.5 C49.542386,62.5 54.5,57.8340104 54.5,52 C54.5,46.1659896 49.542386,41.5 43.5,41.5 Z M43.5,46.5 C46.8464547,46.5 49.5,48.9974544 49.5,52 C49.5,55.0025456 46.8464547,57.5 43.5,57.5 C40.1535453,57.5 37.5,55.0025456 37.5,52 C37.5,48.9974544 40.1535453,46.5 43.5,46.5 Z" id="Oval" fill="#000000" fill-rule="nonzero"></path>
        <path d="M86.5,41.5 C80.457614,41.5 75.5,46.1659896 75.5,52 C75.5,57.8340104 80.457614,62.5 86.5,62.5 C92.542386,62.5 97.5,57.8340104 97.5,52 C97.5,46.1659896 92.542386,41.5 86.5,41.5 Z M86.5,46.5 C89.8464547,46.5 92.5,48.9974544 92.5,52 C92.5,55.0025456 89.8464547,57.5 86.5,57.5 C83.1535453,57.5 80.5,55.0025456 80.5,52 C80.5,48.9974544 83.1535453,46.5 86.5,46.5 Z" id="Oval-Copy" fill="#000000" fill-rule="nonzero"></path>
        <path d="M108.5,87.5 C103.572147,87.5 99.5,91.2589053 99.5,96 C99.5,100.741095 103.572147,104.5 108.5,104.5 C113.427853,104.5 117.5,100.741095 117.5,96 C117.5,91.2589053 113.427853,87.5 108.5,87.5 Z M108.5,92.5 C110.751849,92.5 112.5,94.1136777 112.5,96 C112.5,97.8863223 110.751849,99.5 108.5,99.5 C106.248151,99.5 104.5,97.8863223 104.5,96 C104.5,94.1136777 106.248151,92.5 108.5,92.5 Z" id="Oval-Copy-4" fill="#000000" fill-rule="nonzero"></path>
        <path d="M142.5,87.5 C137.572147,87.5 133.5,91.2589053 133.5,96 C133.5,100.741095 137.572147,104.5 142.5,104.5 C147.427853,104.5 151.5,100.741095 151.5,96 C151.5,91.2589053 147.427853,87.5 142.5,87.5 Z M142.5,92.5 C144.751849,92.5 146.5,94.1136777 146.5,96 C146.5,97.8863223 144.751849,99.5 142.5,99.5 C140.248151,99.5 138.5,97.8863223 138.5,96 C138.5,94.1136777 140.248151,92.5 142.5,92.5 Z" id="Oval-Copy-5" fill="#000000" fill-rule="nonzero"></path>
    </g>
</svg>