<?xml version="1.0" encoding="UTF-8"?>
<svg width="180px" height="180px" viewBox="0 0 180 180" version="1.1" xmlns="http://www.w3.org/2000/svg" xmlns:xlink="http://www.w3.org/1999/xlink">
    <!-- Generator: Sketch 64 (93537) - https://sketch.com -->
    <title>wechat-solid</title>
    <desc>Created with Sketch.</desc>
    <g id="wechat-solid" stroke="none" stroke-width="1" fill="none" fill-rule="evenodd">
        <path d="M125,62 C155.375661,62 180,82.7129304 180,108.263625 C180,123.08915 171.709527,136.285906 158.815498,144.752618 C155.978436,146.615541 165.279153,159.353562 162.047326,161.024782 C158.815498,162.696003 144.523911,151.595023 141.800551,152.329084 C136.504674,153.756547 130.859337,154.52725 125,154.52725 C94.6243388,154.52725 70,133.81432 70,108.263625 C70,82.7129304 94.6243388,62 125,62 Z M62.6169975,19 C92.6397544,19 117.727504,35.9404314 123.821172,58.5494108 L124,59.2362549 L122.320307,61.0207843 C92.1693594,61.7678938 68,82.562149 68,108.104782 C68,111.339015 68.3875043,114.497118 69.1255898,117.548033 L67.5209041,119.254853 C65.902737,119.355355 64.267323,119.406542 62.6169975,119.406542 C55.9461963,119.406542 49.5190318,118.570209 43.4897234,117.021189 C41.4227099,116.490142 33.4784322,121.149745 19.6568904,131 C24.7845174,117.5474 26.2716745,110.147246 24.1183615,108.799537 C9.43862779,99.6118303 0,85.2912852 0,69.2032712 C0,41.4767701 28.0345847,19 62.6169975,19 Z M108.794643,89.5 C105.268896,89.5 102.410714,92.138322 102.410714,95.3928571 C102.410714,98.6473923 105.268896,101.285714 108.794643,101.285714 C112.320389,101.285714 115.178571,98.6473923 115.178571,95.3928571 C115.178571,92.138322 112.320389,89.5 108.794643,89.5 Z M142.1875,89.5 C138.661754,89.5 135.803571,92.138322 135.803571,95.3928571 C135.803571,98.6473923 138.661754,101.285714 142.1875,101.285714 C145.713246,101.285714 148.571429,98.6473923 148.571429,95.3928571 C148.571429,92.138322 145.713246,89.5 142.1875,89.5 Z M41,42 C36.0294373,42 32,45.581722 32,50 C32,54.418278 36.0294373,58 41,58 C45.9705627,58 50,54.418278 50,50 C50,45.581722 45.9705627,42 41,42 Z M84.5,42 C79.8055796,42 76,45.581722 76,50 C76,54.418278 79.8055796,58 84.5,58 C89.1944204,58 93,54.418278 93,50 C93,45.581722 89.1944204,42 84.5,42 Z" id="Combined-Shape" fill="#000000" fill-rule="nonzero"></path>
    </g>
</svg>