<svg xmlns="http://www.w3.org/2000/svg" width="13" height="13" viewBox="0 0 13 13">
  <g fill="#FFF" transform="translate(0 .5)">
    <path d="M6,0.5 L6,11.5 C6,11.7761424 6.22385763,12 6.5,12 C6.77614237,12 7,11.7761424 7,11.5 L7,0.5 C7,0.223857625 6.77614237,0 6.5,0 C6.22385763,0 6,0.223857625 6,0.5 Z"/>
    <path d="M6,0.5 L6,11.5 C6,11.7761424 6.22385763,12 6.5,12 C6.77614237,12 7,11.7761424 7,11.5 L7,0.5 C7,0.223857625 6.77614237,0 6.5,0 C6.22385763,0 6,0.223857625 6,0.5 Z" transform="rotate(90 6.5 6)"/>
  </g>
</svg>
