<svg xmlns="http://www.w3.org/2000/svg" width="16" height="16" viewBox="0 0 16 16">
  <g fill="#6C5CE7" transform="matrix(0 1 1 0 0 0)">
    <path d="M2.66666667.888888889L2.66666667 3.55555556C2.66666667 3.80101544 2.86565122 4 3.11111111 4 3.356571 4 3.55555556 3.80101544 3.55555556 3.55555556L3.55555556.888888889C3.55555556.643429 3.356571.444444444 3.11111111.444444444 2.86565122.444444444 2.66666667.643429 2.66666667.888888889zM2.66666667 8L2.66666667 15.1111111C2.66666667 15.356571 2.86565122 15.5555556 3.11111111 15.5555556 3.356571 15.5555556 3.55555556 15.356571 3.55555556 15.1111111L3.55555556 8C3.55555556 7.75454011 3.356571 7.55555556 3.11111111 7.55555556 2.86565122 7.55555556 2.66666667 7.75454011 2.66666667 8zM8 .888888889L8 8.88888889C8 9.13434878 8.19898456 9.33333333 8.44444444 9.33333333 8.68990433 9.33333333 8.88888889 9.13434878 8.88888889 8.88888889L8.88888889.888888889C8.88888889.643429 8.68990433.444444444 8.44444444.444444444 8.19898456.444444444 8 .643429 8 .888888889zM12.4444444.888888889L12.4444444 3.55555556C12.4444444 3.80101544 12.643429 4 12.8888889 4 13.1343488 4 13.3333333 3.80101544 13.3333333 3.55555556L13.3333333.888888889C13.3333333.643429 13.1343488.444444444 12.8888889.444444444 12.643429.444444444 12.4444444.643429 12.4444444.888888889z"/>
    <path d="M3.11111111 3.11111111C4.58387044 3.11111111 5.77777778 4.30501844 5.77777778 5.77777778 5.77777778 7.25053711 4.58387044 8.44444444 3.11111111 8.44444444 1.63835178 8.44444444.444444444 7.25053711.444444444 5.77777778.444444444 4.30501844 1.63835178 3.11111111 3.11111111 3.11111111zM3.11111111 4C2.12927156 4 1.33333333 4.79593822 1.33333333 5.77777778 1.33333333 6.75961733 2.12927156 7.55555556 3.11111111 7.55555556 4.09295067 7.55555556 4.88888889 6.75961733 4.88888889 5.77777778 4.88888889 4.79593822 4.09295067 4 3.11111111 4zM8.44444444 8.44444444C9.91720378 8.44444444 11.1111111 9.63835178 11.1111111 11.1111111 11.1111111 12.5838704 9.91720378 13.7777778 8.44444444 13.7777778 6.97168511 13.7777778 5.77777778 12.5838704 5.77777778 11.1111111 5.77777778 9.63835178 6.97168511 8.44444444 8.44444444 8.44444444zM8.44444444 9.33333333C7.46260489 9.33333333 6.66666667 10.1292716 6.66666667 11.1111111 6.66666667 12.0929507 7.46260489 12.8888889 8.44444444 12.8888889 9.426284 12.8888889 10.2222222 12.0929507 10.2222222 11.1111111 10.2222222 10.1292716 9.426284 9.33333333 8.44444444 9.33333333zM12.8888889 3.11111111C14.3616482 3.11111111 15.5555556 4.30501844 15.5555556 5.77777778 15.5555556 7.25053711 14.3616482 8.44444444 12.8888889 8.44444444 11.4161296 8.44444444 10.2222222 7.25053711 10.2222222 5.77777778 10.2222222 4.30501844 11.4161296 3.11111111 12.8888889 3.11111111zM12.8888889 4C11.9070493 4 11.1111111 4.79593822 11.1111111 5.77777778 11.1111111 6.75961733 11.9070493 7.55555556 12.8888889 7.55555556 13.8707284 7.55555556 14.6666667 6.75961733 14.6666667 5.77777778 14.6666667 4.79593822 13.8707284 4 12.8888889 4z"/>
    <path d="M8 13.3333333L8 15.1111111C8 15.356571 8.19898456 15.5555556 8.44444444 15.5555556 8.68990433 15.5555556 8.88888889 15.356571 8.88888889 15.1111111L8.88888889 13.3333333C8.88888889 13.0878734 8.68990433 12.8888889 8.44444444 12.8888889 8.19898456 12.8888889 8 13.0878734 8 13.3333333zM12.4444444 8L12.4444444 15.1111111C12.4444444 15.356571 12.643429 15.5555556 12.8888889 15.5555556 13.1343488 15.5555556 13.3333333 15.356571 13.3333333 15.1111111L13.3333333 8C13.3333333 7.75454011 13.1343488 7.55555556 12.8888889 7.55555556 12.643429 7.55555556 12.4444444 7.75454011 12.4444444 8z"/>
  </g>
</svg>
