<svg xmlns="http://www.w3.org/2000/svg" width="16" height="16" viewBox="0 0 16 16">
  <g fill="#DEDEDE">
    <path d="M1.41176471,0 L14.5882353,0 C15.3679314,0 16,0.632068588 16,1.41176471 L16,10.8235294 C16,11.6032255 15.3679314,12.2352941 14.5882353,12.2352941 L1.41176471,12.2352941 C0.632068588,12.2352941 0,11.6032255 0,10.8235294 L0,1.41176471 C0,0.632068588 0.632068588,0 1.41176471,0 Z M1.41176471,0.941176471 C1.151866,0.941176471 0.941176471,1.151866 0.941176471,1.41176471 L0.941176471,10.8235294 C0.941176471,11.0834281 1.151866,11.2941176 1.41176471,11.2941176 L14.5882353,11.2941176 C14.848134,11.2941176 15.0588235,11.0834281 15.0588235,10.8235294 L15.0588235,1.41176471 C15.0588235,1.151866 14.848134,0.941176471 14.5882353,0.941176471 L1.41176471,0.941176471 Z"/>
    <path d="M7.40512402,11.7693505 L7.43763781,15.0634681 C7.44020295,15.3233542 7.65296168,15.531954 7.91284773,15.5294122 C8.17273377,15.5268237 8.38133358,15.314065 8.37876844,15.0541789 L8.34625465,11.7600613 C8.34368951,11.5001752 8.13093078,11.2915754 7.87104474,11.2941172 C7.61115869,11.2967057 7.40255888,11.5094644 7.40512402,11.7693505 Z"/>
    <path d="M4.24494485 15.5294118L11.5714614 15.5294118C11.8313601 15.5294118 12.0420496 15.3187222 12.0420496 15.0588235 12.0420496 14.7989248 11.8313601 14.5882353 11.5714614 14.5882353L4.24494485 14.5882353C3.98504615 14.5882353 3.77435662 14.7989248 3.77435662 15.0588235 3.77435662 15.3187222 3.98504615 15.5294118 4.24494485 15.5294118zM11.9272211 7.52384565C12.1152639 7.70325364 12.4131417 7.69625372 12.5925497 7.50821088 12.7719577 7.32016805 12.7649578 7.02229029 12.5769149 6.8428823L9.23014276 3.64979238 6.38194444 6.97807076 3.81334008 4.67663029C3.61977329 4.50319663 3.32226064 4.51951776 3.14882698 4.71308455 2.97539332 4.90665135 2.99171445 5.20416399 3.18528124 5.37759765L6.47099674 8.32156159 9.29926901 5.01656791 11.9272211 7.52384565z"/>
  </g>
</svg>
