<svg xmlns="http://www.w3.org/2000/svg" width="16" height="15" viewBox="0 0 16 15">
  <g fill="#DEDEDE" transform="translate(.739 -2.984)">
    <path d="M4.19593798,4.64426254 L12.2749719,2.66666667 L10.4142264,10.8625509 L2.2183421,12.7232964 L4.19593798,4.64426254 Z M4.93111267,5.37943723 L3.42357339,11.5381581 L9.67137032,10.1196949 L11.0898335,3.87189796 L4.93111267,5.37943723 Z" transform="rotate(45 7.247 7.695)"/>
    <polygon points="7.103 14.271 1.584 10.642 3.105 9.581 2.596 8.852 0 10.664 7.112 15.341 14.894 10.036 12.083 8.537 11.664 9.321 13.179 10.129"/>
    <polygon points="7.335 16.884 1.817 13.255 3.337 12.194 2.828 11.465 .232 13.276 7.344 17.954 15.126 12.649 12.315 11.149 11.896 11.934 13.412 12.742"/>
  </g>
</svg>
