<svg xmlns="http://www.w3.org/2000/svg" width="16" height="16" viewBox="0 0 16 16">
  <g fill="#DEDEDE">
    <path d="M4,2 L13,2 L13,13 C13,13.5522847 12.5522847,14 12,14 L3,14 L3,3 C3,2.44771525 3.44771525,2 4,2 Z M12,3 L4,3 L4,13 L12,13 L12,3 Z"/>
    <path d="M6,0 L13,0 C14.6568542,0 16,1.34314575 16,3 L3,3 C3,1.34314575 4.34314575,0 6,0 Z M13,1 L6,1 C5.25971764,1 4.61337381,1.40219863 4.26756439,2 L14.7324356,2 C14.3866262,1.40219863 13.7402824,1 13,1 Z"/>
    <polygon points="5 5.5 11 5.5 11 4.5 5 4.5"/>
    <polygon points="5 8.25 11 8.25 11 7.25 5 7.25"/>
    <polygon points="5 11 9 11 9 10 5 10"/>
    <path d="M13,13 C13,14.6568542 11.6568542,16 10,16 L3,16 C1.34314575,16 0,14.6568542 0,13 L13,13 Z M3,15 L10,15 C10.7402824,15 11.3866262,14.5978014 11.7324356,14 L1.26756439,14 C1.61337381,14.5978014 2.25971764,15 3,15 Z"/>
  </g>
</svg>
