<svg xmlns="http://www.w3.org/2000/svg" width="16" height="16" viewBox="0 0 16 16">
  <g fill="#DEDEDE">
    <path d="M0.941176471,15.0588235 L0.941176471,0.470588235 C0.941176471,0.210689529 0.730486941,0 0.470588235,0 C0.210689529,0 0,0.210689529 0,0.470588235 L0,16 L15.5294118,16 C15.7893105,16 16,15.7893105 16,15.5294118 C16,15.2695131 15.7893105,15.0588235 15.5294118,15.0588235 L0.941176471,15.0588235 Z"/>
    <path d="M8.87845168,11.0785457 L10.9783009,6.83807573 L12.9759566,8.30406427 L15.3389314,0.374568282 L12.8670395,1.41213449 C12.6273958,1.51272392 12.5146701,1.78853738 12.6152595,2.02818108 C12.7158489,2.26782478 12.9916624,2.38055053 13.2313061,2.2799611 L13.8687892,2.01238025 L12.4555692,6.75475926 L10.6319932,5.41651986 L8.54250421,9.63606825 L4.33886622,6.41805048 L4.09260679,6.95238913 C2.8379324,9.67480689 2.03841081,11.2590222 1.8652691,11.4247985 C1.67754345,11.6045384 1.67106969,11.902428 1.85080955,12.0901537 C2.03054941,12.2778793 2.32843907,12.2843531 2.51616472,12.1046132 C2.80643027,11.8266955 3.48742989,10.4957034 4.70055364,7.88023271 L8.87845168,11.0785457 Z"/>
  </g>
</svg>
