<svg xmlns="http://www.w3.org/2000/svg" width="16" height="16" viewBox="0 0 16 16">
  <g fill="#DEDEDE">
    <path d="M.941176471 6.50878876L.941176471 1.47363372C.941176471 1.20234524 1.151866.982422477 1.41176471.982422477L14.5882353.982422477C14.848134.982422477 15.0588235 1.20234524 15.0588235 1.47363372L15.0588235 3.54665068C15.0588235 3.81793915 15.2695131 4.03786192 15.5294118 4.03786192 15.7893105 4.03786192 16 3.81793915 16 3.54665068L16 1.47363372C16 .659768288 15.3679314 0 14.5882353 0L1.41176471 0C.632068588 0 0 .659768288 0 1.47363372L0 6.50878876C0 6.78007724.210689529 7 .470588235 7 .730486941 7 .941176471 6.78007724.941176471 6.50878876zM15.0588235 9.45401571L15.0588235 14.6379529C15.0588235 14.8886988 14.848134 15.0919686 14.5882353 15.0919686L1.41176471 15.0919686C1.151866 15.0919686.941176471 14.8886988.941176471 14.6379529L.941176471 12.0122878C.941176471 11.7615419.730486941 11.5582721.470588235 11.5582721.210689529 11.5582721 0 11.7615419 0 12.0122878L0 14.6379529C0 15.3901907.632068588 16 1.41176471 16L14.5882353 16C15.3679314 16 16 15.3901907 16 14.6379529L16 9.45401571C16 9.20326976 15.7893105 9 15.5294118 9 15.2695131 9 15.0588235 9.20326976 15.0588235 9.45401571z"/>
    <path d="M9.53135462,11 L11.0012512,5.47693633 L13.7552936,3.92065851 C13.9807269,3.79326874 14.065761,3.49686184 13.9452224,3.25861518 C13.8246839,3.02036853 13.5442183,2.93050127 13.318785,3.05789105 L10.2168925,4.81073499 L9.01308362,9.33398725 L6.10023015,6.93816754 L3.35476707,9.51244119 L1.77077531,8.02106354 C1.57990082,7.84134925 1.28731457,7.85919129 1.11726565,8.06091486 C0.94721673,8.26263843 0.964099195,8.57185491 1.15497369,8.7515692 L3.35349551,10.8215461 L6.13896408,8.20976142 L9.53135462,11 Z" transform="rotate(180 7.5 7)"/>
    <path d="M11,14 C12.6568542,14 14,12.6568542 14,11 C14,9.34314575 12.6568542,8 11,8 C9.34314575,8 8,9.34314575 8,11 C8,12.6568542 9.34314575,14 11,14 Z M11,13 C9.8954305,13 9,12.1045695 9,11 C9,9.8954305 9.8954305,9 11,9 C12.1045695,9 13,9.8954305 13,11 C13,12.1045695 12.1045695,13 11,13 Z"/>
    <polygon points="12 12.715 15.274 16 16 15.285 12.726 12"/>
  </g>
</svg>
