<svg xmlns="http://www.w3.org/2000/svg" width="10" height="10" viewBox="0 0 10 10">
  <g fill="#D7D7D7" transform="translate(.5 .5)">
    <path d="M8.66304817,0.146446609 L0.146446609,8.66304817 C-0.0488155365,8.85831032 -0.0488155365,9.17489281 0.146446609,9.37015495 C0.341708755,9.5654171 0.658291245,9.5654171 0.853553391,9.37015495 L9.37015495,0.853553391 C9.5654171,0.658291245 9.5654171,0.341708755 9.37015495,0.146446609 C9.17489281,-0.0488155365 8.85831032,-0.0488155365 8.66304817,0.146446609 Z"/>
    <path d="M8.66304817,0.146446609 L0.146446609,8.66304817 C-0.0488155365,8.85831032 -0.0488155365,9.17489281 0.146446609,9.37015495 C0.341708755,9.5654171 0.658291245,9.5654171 0.853553391,9.37015495 L9.37015495,0.853553391 C9.5654171,0.658291245 9.5654171,0.341708755 9.37015495,0.146446609 C9.17489281,-0.0488155365 8.85831032,-0.0488155365 8.66304817,0.146446609 Z" transform="matrix(-1 0 0 1 9.517 0)"/>
  </g>
</svg>
