<svg xmlns="http://www.w3.org/2000/svg" width="16" height="16" viewBox="0 0 16 16">
  <g fill="#DEDEDE">
    <polygon points=".941 7.983 .941 2.605 4.24 .941 12.175 .941 15.059 3.47 15.059 7.83 12.66 5.761 12.045 6.474 16 9.885 16 3.043 12.53 0 4.016 0 0 2.026 0 9.899 4.416 6.49 3.841 5.745"/>
    <path d="M8 9.41176471C9.81929094 9.41176471 11.2941176 7.936938 11.2941176 6.11764706 11.2941176 4.29835612 9.81929094 2.82352941 8 2.82352941 6.18070906 2.82352941 4.70588235 4.29835612 4.70588235 6.11764706 4.70588235 7.936938 6.18070906 9.41176471 8 9.41176471zM8 8.47058824C6.70050647 8.47058824 5.64705882 7.41714059 5.64705882 6.11764706 5.64705882 4.81815353 6.70050647 3.76470588 8 3.76470588 9.29949353 3.76470588 10.3529412 4.81815353 10.3529412 6.11764706 10.3529412 7.41714059 9.29949353 8.47058824 8 8.47058824zM14.1176471 15.5294118C14.1176471 14.7750004 13.9808263 14.038732 13.717173 13.3480822 12.8196997 10.9971167 10.5586137 9.41176471 8 9.41176471 5.44592974 9.41176471 3.18801652 10.9914995 2.2873196 13.3363501 2.02073803 14.0303615 1.88235294 14.7707026 1.88235294 15.5294118 1.88235294 15.7893105 2.09304247 16 2.35294118 16 2.61283988 16 2.82352941 15.7893105 2.82352941 15.5294118 2.82352941 14.8865376 2.94053846 14.2605554 3.16590916 13.6738313 3.92803268 11.689739 5.83871636 10.3529412 8 10.3529412 10.165124 10.3529412 12.078498 11.6944962 12.8378877 13.6837465 13.0607829 14.2676289 13.1764706 14.8901747 13.1764706 15.5294118 13.1764706 15.7893105 13.3871601 16 13.6470588 16 13.9069575 16 14.1176471 15.7893105 14.1176471 15.5294118z"/>
  </g>
</svg>
