<svg xmlns="http://www.w3.org/2000/svg" width="16" height="16" viewBox="0 0 16 16">
  <g fill="#DEDEDE">
    <path d="M.941176471 8C.941176471 4.10151941 4.10151941.941176471 8 .941176471 11.8984806.941176471 15.0588235 4.10151941 15.0588235 8 15.0588235 8.81218083 14.9217887 9.60470146 14.6573053 10.3529412L10.1413143 10.3529412 10.1413143 11.2941176 15.2992928 11.2941176 15.4183076 11.0001011C15.80085 10.0550615 16 9.04097712 16 8 16 3.581722 12.418278 0 8 0 3.581722 0 0 3.581722 0 8 0 9.04097712.199150047 10.0550615.581692351 11.0001011L.700707211 11.2941176 7.15602022 11.2941176 7.15602022 10.3529412 1.34269026 10.3529412C1.07821126 9.60470146.941176471 8.81218083.941176471 8zM4.23529412 13.1764706L11.7647059 13.1764706C12.544402 13.1764706 13.1764706 13.8085392 13.1764706 14.5882353 13.1764706 15.3679314 12.544402 16 11.7647059 16L4.23529412 16C3.455598 16 2.82352941 15.3679314 2.82352941 14.5882353 2.82352941 13.8085392 3.455598 13.1764706 4.23529412 13.1764706zM4.23529412 14.1176471C3.97539541 14.1176471 3.76470588 14.3283366 3.76470588 14.5882353 3.76470588 14.848134 3.97539541 15.0588235 4.23529412 15.0588235L11.7647059 15.0588235C12.0246046 15.0588235 12.2352941 14.848134 12.2352941 14.5882353 12.2352941 14.3283366 12.0246046 14.1176471 11.7647059 14.1176471L4.23529412 14.1176471z"/>
    <path d="M8.47058824,12.2352941 C9.51018306,12.2352941 10.3529412,11.392536 10.3529412,10.3529412 C10.3529412,9.31334635 9.51018306,8.47058824 8.47058824,8.47058824 C7.43099341,8.47058824 6.58823529,9.31334635 6.58823529,10.3529412 C6.58823529,11.392536 7.43099341,12.2352941 8.47058824,12.2352941 Z M8.47058824,11.2941176 C7.95079082,11.2941176 7.52941176,10.8727386 7.52941176,10.3529412 C7.52941176,9.83314376 7.95079082,9.41176471 8.47058824,9.41176471 C8.99038565,9.41176471 9.41176471,9.83314376 9.41176471,10.3529412 C9.41176471,10.8727386 8.99038565,11.2941176 8.47058824,11.2941176 Z"/>
    <path d="M10.4728172,3.29411765 L8.94117647,10.0436574 L11.9969792,10.0436574 L10.4728172,3.29411765 Z M10.8195704,9.10248095 L10.1198584,9.10248095 L10.4705706,7.55698396 L10.8195704,9.10248095 Z" transform="rotate(27 10.47 6.669)"/>
  </g>
</svg>
