<svg xmlns="http://www.w3.org/2000/svg" width="16" height="16" viewBox="0 0 16 16">
  <g fill="#ED5566" transform="translate(0 1)">
    <path d="M2.66666667,1.77777778 L13.3333333,1.77777778 L13.3333333,12.4444444 C13.3333333,13.426284 12.5373951,14.2222222 11.5555556,14.2222222 L4.44444444,14.2222222 C3.46260489,14.2222222 2.66666667,13.426284 2.66666667,12.4444444 L2.66666667,1.77777778 Z M3.55555556,2.66666667 L3.55555556,12.4444444 C3.55555556,12.9353642 3.95352467,13.3333333 4.44444444,13.3333333 L11.5555556,13.3333333 C12.0464753,13.3333333 12.4444444,12.9353642 12.4444444,12.4444444 L12.4444444,2.66666667 L3.55555556,2.66666667 Z"/>
    <path d="M.888888889 2.66666667L15.1111111 2.66666667C15.356571 2.66666667 15.5555556 2.46768211 15.5555556 2.22222222 15.5555556 1.97676233 15.356571 1.77777778 15.1111111 1.77777778L.888888889 1.77777778C.643429 1.77777778.444444444 1.97676233.444444444 2.22222222.444444444 2.46768211.643429 2.66666667.888888889 2.66666667zM4.44444444.888888889L11.5555556.888888889C11.8010154.888888889 12 .689904333 12 .444444444 12 .198984556 11.8010154 0 11.5555556 0L4.44444444 0C4.19898456 0 4 .198984556 4 .444444444 4 .689904333 4.19898456.888888889 4.44444444.888888889zM5.77777778 5.33333333L5.77777778 11.2085503C5.77777778 11.4540102 5.97676233 11.6529948 6.22222222 11.6529948 6.46768211 11.6529948 6.66666667 11.4540102 6.66666667 11.2085503L6.66666667 5.33333333C6.66666667 5.08787344 6.46768211 4.88888889 6.22222222 4.88888889 5.97676233 4.88888889 5.77777778 5.08787344 5.77777778 5.33333333zM9.33333333 5.33333333L9.33333333 11.2085503C9.33333333 11.4540102 9.53231789 11.6529948 9.77777778 11.6529948 10.0232377 11.6529948 10.2222222 11.4540102 10.2222222 11.2085503L10.2222222 5.33333333C10.2222222 5.08787344 10.0232377 4.88888889 9.77777778 4.88888889 9.53231789 4.88888889 9.33333333 5.08787344 9.33333333 5.33333333z"/>
  </g>
</svg>
