<svg xmlns="http://www.w3.org/2000/svg" width="16" height="11" viewBox="0 0 16 11">
  <g fill="#3A89DD" transform="translate(1)">
    <path d="M6.89495798,0 C8.75253562,0 10.3885516,1.14463025 11.0554799,2.83088235 L11.1213235,2.83088235 C13.2634574,2.83088235 15,4.56742496 15,6.70955882 C15,8.85169269 13.2634574,10.5882353 11.1213235,10.5882353 L3.87867647,10.5882353 C1.73654261,10.5882353 0,8.85169269 0,6.70955882 C0,5.01700139 1.09316027,3.54242065 2.66261184,3.02540109 C3.27575568,1.23679879 4.96374687,0 6.89495798,0 Z M3.12404776,3.80895548 C1.81401999,4.14866965 0.882352941,5.33643818 0.882352941,6.70955882 C0.882352941,8.36438261 2.22385268,9.70588235 3.87867647,9.70588235 L11.1213235,9.70588235 C12.7761473,9.70588235 14.1176471,8.36438261 14.1176471,6.70955882 C14.1176471,5.05473503 12.7761473,3.71323529 11.1213235,3.71323529 L10.4197998,3.71323529 L10.3229095,3.40394452 C9.85651267,1.9151243 8.47525985,0.882352941 6.89495798,0.882352941 C5.27758343,0.882352941 3.87190953,1.96391772 3.43789621,3.50173503 L3.36912685,3.74540199 L3.12404776,3.80895548 Z"/>
    <path d="M6.01353766,6.27527707 C5.82445194,6.12160741 5.5465938,6.15031779 5.39292413,6.33940351 C5.23925446,6.52848924 5.26796485,6.80634738 5.45705057,6.96001705 L7.72058824,8.79959051 L9.9841259,6.96001705 C10.1732116,6.80634738 10.201922,6.52848924 10.0482523,6.33940351 C9.89458267,6.15031779 9.61672453,6.12160741 9.42763881,6.27527707 L7.72058824,7.66259436 L6.01353766,6.27527707 Z"/>
    <path d="M7.27941441,2.64552974 L7.26050414,8.10075558 C7.25966236,8.34440915 7.45649801,8.54261399 7.70015158,8.54346119 C7.94380516,8.54430298 8.14201,8.34746733 8.14285449,8.10381375 L8.16176476,2.64858791 C8.16260655,2.40493434 7.9657709,2.20672949 7.72211732,2.2058823 C7.47846375,2.20504051 7.28025891,2.40187616 7.27941441,2.64552974 Z"/>
  </g>
</svg>
