<svg xmlns="http://www.w3.org/2000/svg" width="16" height="16" viewBox="0 0 16 16">
  <g fill="#3A89DD">
    <path d="M13.1764706,6.8024663 L13.1764706,12.2352941 C13.1764706,13.7946864 11.9123334,15.0588235 10.3529412,15.0588235 L3.76470588,15.0588235 C2.20531365,15.0588235 0.941176471,13.7946864 0.941176471,12.2352941 L0.941176471,5.64705882 C0.941176471,4.08766659 2.20531365,2.82352941 3.76470588,2.82352941 L9.03856464,2.82352941 C9.29846335,2.82352941 9.50915288,2.61283988 9.50915288,2.35294118 C9.50915288,2.09304247 9.29846335,1.88235294 9.03856464,1.88235294 L3.76470588,1.88235294 C1.68551624,1.88235294 0,3.56786918 0,5.64705882 L0,12.2352941 C0,14.3144838 1.68551624,16 3.76470588,16 L10.3529412,16 C12.4321308,16 14.1176471,14.3144838 14.1176471,12.2352941 L14.1176471,6.8024663 C14.1176471,6.54256759 13.9069575,6.33187806 13.6470588,6.33187806 C13.3871601,6.33187806 13.1764706,6.54256759 13.1764706,6.8024663 Z"/>
    <path d="M8.94117647,-0.941176471 C9.72087259,-0.941176471 10.3529412,-0.309107882 10.3529412,0.470588235 L10.3529412,12.4680546 C10.3529117,12.6882896 10.3142551,12.9068038 10.2387186,13.1136577 C9.88710671,14.0765325 9.50902774,14.5942096 8.94117647,14.5942096 C8.37330921,14.5942096 7.99522329,14.0765044 7.64359737,13.1135563 C7.56806049,12.9066769 7.52941176,12.6881492 7.52941176,12.4679151 L7.52941176,0.470588235 C7.52941176,-0.309107882 8.16148035,-0.941176471 8.94117647,-0.941176471 Z M8.92401791,13.6451377 C8.92569404,13.6340322 8.94847442,13.6085822 8.98890174,13.5532279 C9.10125452,13.3993911 9.22588512,13.1434192 9.35464302,12.7908209 C9.39241625,12.6873804 9.41174998,12.5780926 9.41176471,12.4679917 L9.41176471,0.470588235 C9.41176471,0.210689529 9.20107518,2.22044605e-16 8.94117647,2.22044605e-16 C8.68127776,2.22044605e-16 8.47058824,0.210689529 8.47058824,0.470588235 L8.47058824,12.4679151 C8.47058824,12.5780351 8.48991369,12.6873051 8.52768099,12.7907416 C8.65644474,13.1433687 8.7810814,13.3993623 8.89344056,13.5532133 C8.93375299,13.6084123 8.95652142,13.6338791 8.95831791,13.6451377 L8.92401791,13.6451377 Z" transform="rotate(45 8.941 6.827)"/>
  </g>
</svg>
