<svg xmlns="http://www.w3.org/2000/svg" width="16" height="17" viewBox="0 0 16 17">
  <g fill="#DEDEDE">
    <path d="M12.9387207,1.5 L14.5,1.5 C14.7761424,1.5 15,1.72385763 15,2 L15,15 C15,15.2761424 14.7761424,15.5 14.5,15.5 L1.5,15.5 C1.22385763,15.5 1,15.2761424 1,15 L1,2 C1,1.72385763 1.22385763,1.5 1.5,1.5 L3.26391602,1.5 L3.26391602,0.5 L1.5,0.5 C0.671572875,0.5 0,1.17157288 0,2 L0,15 C0,15.8284271 0.671572875,16.5 1.5,16.5 L14.5,16.5 C15.3284271,16.5 16,15.8284271 16,15 L16,2 C16,1.17157288 15.3284271,0.5 14.5,0.5 L12.9387207,0.5 L12.9387207,1.5 Z"/>
    <path d="M5 0L11 0C11.5522847 0 12 .44771525 12 1L12 3C12 3.55228475 11.5522847 4 11 4L5 4C4.44771525 4 4 3.55228475 4 3L4 1C4 .44771525 4.44771525 0 5 0zM5 1L5 3 11 3 11 1 5 1zM3 6L6 6 6 9 3 9 3 6zM4 7L4 8 5 8 5 7 4 7zM3 11L6 11 6 14 3 14 3 11zM4 12L4 13 5 13 5 12 4 12z"/>
    <path d="M9.5,6.8001709 L9.5,5 C9.5,4.72385763 9.27614237,4.5 9,4.5 C8.72385763,4.5 8.5,4.72385763 8.5,5 L8.5,7.8001709 L12.602417,7.8001709 C12.8785594,7.8001709 13.102417,7.57631327 13.102417,7.3001709 C13.102417,7.02402852 12.8785594,6.8001709 12.602417,6.8001709 L9.5,6.8001709 Z" transform="rotate(-45 10.801 6.15)"/>
  </g>
</svg>
