<svg xmlns="http://www.w3.org/2000/svg" width="16" height="16" viewBox="0 0 16 16">
  <g fill="#3270B2">
    <path d="M14.2222222,15.014185 L0.888888889,15.014185 L0.888888889,10.1252962 C0.888888889,9.87983627 0.689904333,9.68085172 0.444444444,9.68085172 C0.198984556,9.68085172 1.0125234e-13,9.87983627 1.0125234e-13,10.1252962 L1.0125234e-13,15.9030739 L15.1111111,15.9030739 L15.1111111,10.1252962 C15.1111111,9.87983627 14.9121266,9.68085172 14.6666667,9.68085172 C14.4212068,9.68085172 14.2222222,9.87983627 14.2222222,10.1252962 L14.2222222,15.014185 Z"/>
    <path d="M7.11111111,2.60321578 L3.94292246,8.23555116 C3.82258299,8.44948799 3.55159851,8.52536365 3.33766167,8.40502418 C3.12372484,8.28468471 3.04784918,8.01370022 3.16818865,7.79976339 L7.55555556,9.76996262e-15 L11.9429225,7.79976339 C12.0632619,8.01370022 11.9873863,8.28468471 11.7734494,8.40502418 C11.5595126,8.52536365 11.2885281,8.44948799 11.1681887,8.23555116 L8,2.60321578 L8,12.7919628 C8,13.0374227 7.80101544,13.2364073 7.55555556,13.2364073 C7.31009567,13.2364073 7.11111111,13.0374227 7.11111111,12.7919628 L7.11111111,2.60321578 Z"/>
  </g>
</svg>
