<svg xmlns="http://www.w3.org/2000/svg" width="14" height="16" viewBox="0 0 14 16">
  <g fill="#DEDEDE">
    <path d="M0,0 L11.6489258,0 L11.6489258,2.23120117 L14,2.23120117 L14,16 L0,16 L0,0 Z M1,1 L1,15 L13,15 L13,3.23120117 L10.6489258,3.23120117 L10.6489258,1 L1,1 Z"/>
    <path d="M4.3273669,4.62207023 C4.11864205,4.44127048 3.80286998,4.46390825 3.62207023,4.6726331 C3.44127048,4.88135795 3.46390825,5.19713002 3.6726331,5.37792977 L6.9999921,8.26013137 L10.3273669,5.37792977 C10.5360918,5.19713002 10.5587295,4.88135795 10.3779298,4.6726331 C10.19713,4.46390825 9.88135795,4.44127048 9.6726331,4.62207023 L6.9999921,6.93713425 L4.3273669,4.62207023 Z"/>
    <path d="M4 8.5L10 8.5C10.2761424 8.5 10.5 8.27614237 10.5 8 10.5 7.72385763 10.2761424 7.5 10 7.5L4 7.5C3.72385763 7.5 3.5 7.72385763 3.5 8 3.5 8.27614237 3.72385763 8.5 4 8.5zM4 10.5L10 10.5C10.2761424 10.5 10.5 10.2761424 10.5 10 10.5 9.72385763 10.2761424 9.5 10 9.5L4 9.5C3.72385763 9.5 3.5 9.72385763 3.5 10 3.5 10.2761424 3.72385763 10.5 4 10.5z"/>
    <path d="M6.5,7.59863281 L6.5,13.3439941 C6.5,13.6201365 6.72385763,13.8439941 7,13.8439941 C7.27614237,13.8439941 7.5,13.6201365 7.5,13.3439941 L7.5,7.59863281 C7.5,7.32249044 7.27614237,7.09863281 7,7.09863281 C6.72385763,7.09863281 6.5,7.32249044 6.5,7.59863281 Z"/>
  </g>
</svg>
