<svg xmlns="http://www.w3.org/2000/svg" width="8" height="10" viewBox="0 0 8 10">
  <path fill="#666" d="M4.09675522 4L7.74320183.353553391C7.93846397.158291245 7.93846397-.158291245 7.74320183-.353553391 7.54793968-.548815536 7.23135719-.548815536 7.03609505-.353553391L2.68254166 4 7.03609505 8.35355339C7.23135719 8.54881554 7.54793968 8.54881554 7.74320183 8.35355339 7.93846397 8.15829124 7.93846397 7.84170876 7.74320183 7.64644661L4.09675522 4zM0 0L0 8C0 8.27614237.223857625 8.5.5 8.5.776142375 8.5 1 8.27614237 1 8L1 0C1-.276142375.776142375-.5.5-.5.223857625-.5 0-.276142375 0 0z" transform="translate(0 1)"/>
</svg>
