<svg xmlns="http://www.w3.org/2000/svg" width="12" height="12" viewBox="0 0 12 12">
  <path fill="#979797" d="M5.30804238,1.625 L7.89257813,1.625 C9.20425441,1.625 10.2675781,2.68832372 10.2675781,4 L9.51757813,4 C9.51757813,3.10253728 8.79004084,2.375 7.89257813,2.375 L5.52413405,2.375 L6,4.02661133 L10,4.02661133 C11.1045695,4.02661133 12,4.92204183 12,6.02661133 L12,10 C12,11.1045695 11.1045695,12 10,12 L2,12 C0.8954305,12 0,11.1045695 0,10 L0,2 C0,0.8954305 0.8954305,0 2,0 L4.0872862,0 C4.53294195,0 4.92481247,0.294905119 5.04819657,0.723140358 L5.30804238,1.625 Z M2,0.75 C1.30964406,0.75 0.75,1.30964406 0.75,2 L0.75,10 C0.75,10.6903559 1.30964406,11.25 2,11.25 L10,11.25 C10.6903559,11.25 11.25,10.6903559 11.25,10 L11.25,6.02661133 C11.25,5.33625539 10.6903559,4.77661133 10,4.77661133 L5.43558183,4.77661133 L4.32751379,0.930785089 C4.29666776,0.82372628 4.19870013,0.75 4.0872862,0.75 L2,0.75 Z"/>
</svg>
