<svg xmlns="http://www.w3.org/2000/svg" width="8" height="10" viewBox="0 0 8 10">
  <path fill="#666" d="M7.74320183.853553391C7.93846397.658291245 7.93846397.341708755 7.74320183.146446609 7.54793968-.0488155365 7.23135719-.0488155365 7.03609505.146446609L2.68254166 4.5 7.03609505 8.85355339C7.23135719 9.04881554 7.54793968 9.04881554 7.74320183 8.85355339 7.93846397 8.65829124 7.93846397 8.34170876 7.74320183 8.14644661L4.09675522 4.5 7.74320183.853553391zM0 .5L0 8.5C0 8.77614237.223857625 9 .5 9 .776142375 9 1 8.77614237 1 8.5L1 .5C1 .223857625.776142375 0 .5 0 .223857625 0 0 .223857625 0 .5z" transform="matrix(-1 0 0 1 8 .5)"/>
</svg>
