<svg xmlns="http://www.w3.org/2000/svg" width="15" height="15" viewBox="0 0 15 15">
  <g fill="#91BBD3" transform="translate(-3.5 -2.868)">
    <path d="M10.5,7.36847221 L18.5,7.36847221 C18.7761424,7.36847221 19,7.14461459 19,6.86847221 C19,6.59232984 18.7761424,6.36847221 18.5,6.36847221 L10.5,6.36847221 C10.2238576,6.36847221 10,6.59232984 10,6.86847221 C10,7.14461459 10.2238576,7.36847221 10.5,7.36847221 Z" transform="scale(1 -1) rotate(45 31.082 0)"/>
    <path d="M13.6674975,8.97066536 C13.4722353,9.16592751 13.4722353,9.48250999 13.6674975,9.67777214 C13.8627596,9.87303429 14.1793421,9.87303429 14.3746043,9.67777214 L18.640267,5.41210937 L14.3746043,1.14644661 C14.1793421,0.951184464 13.8627596,0.951184464 13.6674975,1.14644661 C13.4722353,1.34170876 13.4722353,1.65829124 13.6674975,1.85355339 L17.2260535,5.41210938 L13.6674975,8.97066536 Z" transform="scale(1 -1) rotate(45 29.147 0)"/>
    <path d="M3.5,14.3684722 L11.5,14.3684722 C11.7761424,14.3684722 12,14.1446146 12,13.8684722 C12,13.5923298 11.7761424,13.3684722 11.5,13.3684722 L3.5,13.3684722 C3.22385763,13.3684722 3,13.5923298 3,13.8684722 C3,14.1446146 3.22385763,14.3684722 3.5,14.3684722 Z" transform="scale(-1 1) rotate(45 0 -4.238)"/>
    <path d="M3.50617958,18.883391 C3.31091743,19.0786532 3.31091743,19.3952357 3.50617958,19.5904978 C3.70144172,19.78576 4.01802421,19.78576 4.21328636,19.5904978 L8.47894913,15.3248351 L4.21328636,11.0591723 C4.01802421,10.8639101 3.70144172,10.8639101 3.50617958,11.0591723 C3.31091743,11.2544344 3.31091743,11.5710169 3.50617958,11.7662791 L7.06473556,15.3248351 L3.50617958,18.883391 Z" transform="scale(-1 1) rotate(45 0 1.034)"/>
  </g>
</svg>
