<svg xmlns="http://www.w3.org/2000/svg" width="17" height="16" viewBox="0 0 17 16">
  <path fill="#3A89DD" d="M0.970588235,1 L16.0294118,1 C16.2893105,1 16.5,0.776142375 16.5,0.5 C16.5,0.223857625 16.2893105,0 16.0294118,0 L0.970588235,0 C0.710689529,0 0.5,0.223857625 0.5,0.5 C0.5,0.776142375 0.710689529,1 0.970588235,1 Z M0.970588235,15.1176471 L16.0294118,15.1176471 C16.2893105,15.1176471 16.5,14.8937894 16.5,14.6176471 C16.5,14.3415047 16.2893105,14.1176471 16.0294118,14.1176471 L0.970588235,14.1176471 C0.710689529,14.1176471 0.5,14.3415047 0.5,14.6176471 C0.5,14.8937894 0.710689529,15.1176471 0.970588235,15.1176471 Z M4.73529412,8.05882353 L16.0294118,8.05882353 C16.2893105,8.05882353 16.5,7.8349659 16.5,7.55882353 C16.5,7.28268115 16.2893105,7.05882353 16.0294118,7.05882353 L4.73529412,7.05882353 C4.47539541,7.05882353 4.26470588,7.28268115 4.26470588,7.55882353 C4.26470588,7.8349659 4.47539541,8.05882353 4.73529412,8.05882353 Z" transform="matrix(-1 0 0 1 17 0)"/>
</svg>
