<svg xmlns="http://www.w3.org/2000/svg" width="17" height="16" viewBox="0 0 17 16">
  <path fill="#3A89DD" d="M.470588235 1L15.5294118 1C15.7893105 1 16 .776142375 16 .5 16 .223857625 15.7893105 0 15.5294118 0L.470588235 0C.210689529 0 0 .223857625 0 .5 0 .776142375.210689529 1 .470588235 1zM.470588235 15.1176471L15.5294118 15.1176471C15.7893105 15.1176471 16 14.8937894 16 14.6176471 16 14.3415047 15.7893105 14.1176471 15.5294118 14.1176471L.470588235 14.1176471C.210689529 14.1176471 0 14.3415047 0 14.6176471 0 14.8937894.210689529 15.1176471.470588235 15.1176471zM4.23529412 8.05882353L15.5294118 8.05882353C15.7893105 8.05882353 16 7.8349659 16 7.55882353 16 7.28268115 15.7893105 7.05882353 15.5294118 7.05882353L4.23529412 7.05882353C3.97539541 7.05882353 3.76470588 7.28268115 3.76470588 7.55882353 3.76470588 7.8349659 3.97539541 8.05882353 4.23529412 8.05882353z" transform="translate(.5)"/>
</svg>
