<svg xmlns="http://www.w3.org/2000/svg" width="16" height="10" viewBox="0 0 16 10">
  <path fill="#00B894" d="M8,10 C5.09841913,10 2.49142314,8.40487198 0.193689022,5.26470266 L0,5 L0.193689022,4.73529734 C2.49142314,1.59512802 5.09841913,0 8,0 C10.9015809,0 13.5085769,1.59512802 15.806311,4.73529734 L16,5 L15.806311,5.26470266 C13.5085769,8.40487198 10.9015809,10 8,10 Z M8,9.09090909 C10.4900371,9.09090909 12.7702678,7.74247776 14.8540586,5 C12.7702678,2.25752224 10.4900371,0.909090909 8,0.909090909 C5.50996286,0.909090909 3.22973221,2.25752224 1.14594137,5 C3.22973221,7.74247776 5.50996286,9.09090909 8,9.09090909 Z M8,7.27272727 C6.7178607,7.27272727 5.67848144,6.25519261 5.67848144,5 C5.67848144,3.74480739 6.7178607,2.72727273 8,2.72727273 C9.2821393,2.72727273 10.3215186,3.74480739 10.3215186,5 C10.3215186,6.25519261 9.2821393,7.27272727 8,7.27272727 Z M8,6.36363636 C8.76928358,6.36363636 9.39291113,5.75311557 9.39291113,5 C9.39291113,4.24688443 8.76928358,3.63636364 8,3.63636364 C7.23071642,3.63636364 6.60708887,4.24688443 6.60708887,5 C6.60708887,5.75311557 7.23071642,6.36363636 8,6.36363636 Z"/>
</svg>
