<svg xmlns="http://www.w3.org/2000/svg" width="16" height="13" viewBox="0 0 16 13">
  <path fill="#3270B2" d="M11.7246972,3.33612594 L6.80183648,0.693808925 C6.61484811,0.593443996 6.5485301,0.367438857 6.65371106,0.189012317 C6.75889202,0.010585777 6.99574206,-0.0526956621 7.18273043,0.0476692666 L14,3.7067993 L7.18273043,7.36592933 C6.99574206,7.46629426 6.75889202,7.40301282 6.65371106,7.22458628 C6.5485301,7.04615974 6.61484811,6.8201546 6.80183648,6.71978967 L11.7246972,4.07747265 L5.06379851,4.07747265 C2.6962211,4.07747265 0.776920384,5.90889232 0.776920384,8.16806297 C0.776920384,10.4272336 2.6962211,12.2586533 5.06379851,12.2586533 L12.8191863,12.2586533 C13.033727,12.2586533 13.2076465,12.4246094 13.2076465,12.6293266 C13.2076465,12.8340439 13.033727,13 12.8191863,13 L5.06379851,13 C2.26713982,13 0,10.8366681 0,8.16806297 C0,5.49945784 2.26713982,3.33612594 5.06379851,3.33612594 L11.7246972,3.33612594 Z" transform="matrix(-1 0 0 1 15 0)"/>
</svg>
