<svg xmlns="http://www.w3.org/2000/svg" width="14" height="13" viewBox="0 0 14 13">
  <g fill="#91BBD3" transform="rotate(45 10.164 5.69)">
    <path d="M0.5,9 L16.5,9 C16.7761424,9 17,8.77614237 17,8.5 C17,8.22385763 16.7761424,8 16.5,8 L0.5,8 C0.223857625,8 0,8.22385763 0,8.5 C0,8.77614237 0.223857625,9 0.5,9 Z"/>
    <path d="M0.5,9 L16.5,9 C16.7761424,9 17,8.77614237 17,8.5 C17,8.22385763 16.7761424,8 16.5,8 L0.5,8 C0.223857625,8 0,8.22385763 0,8.5 C0,8.77614237 0.223857625,9 0.5,9 Z" transform="rotate(90 8.5 8.5)"/>
  </g>
</svg>
