<svg xmlns="http://www.w3.org/2000/svg" width="16" height="16" viewBox="0 0 16 16">
  <g fill="#DEDEDE">
    <path d="M1.88235294.470588235L1.88235294 3.67876838C1.88235294 3.93866709 2.09304247 4.14935662 2.35294118 4.14935662 2.61283988 4.14935662 2.82352941 3.93866709 2.82352941 3.67876838L2.82352941.470588235C2.82352941.210689529 2.61283988 0 2.35294118 0 2.09304247 0 1.88235294.210689529 1.88235294.470588235zM1.88235294 7.61362592L1.88235294 15.5294118C1.88235294 15.7893105 2.09304247 16 2.35294118 16 2.61283988 16 2.82352941 15.7893105 2.82352941 15.5294118L2.82352941 7.61362592C2.82352941 7.35372721 2.61283988 7.14303768 2.35294118 7.14303768 2.09304247 7.14303768 1.88235294 7.35372721 1.88235294 7.61362592zM7.52941176.470588235L7.52941176 9.47185202C7.52941176 9.73175073 7.74010129 9.94244026 8 9.94244026 8.25989871 9.94244026 8.47058824 9.73175073 8.47058824 9.47185202L8.47058824.470588235C8.47058824.210689529 8.25989871 0 8 0 7.74010129 0 7.52941176.210689529 7.52941176.470588235zM12.2352941.470588235L12.2352941 3.73253676C12.2352941 3.99243547 12.4459836 4.203125 12.7058824 4.203125 12.9657811 4.203125 13.1764706 3.99243547 13.1764706 3.73253676L13.1764706.470588235C13.1764706.210689529 12.9657811 0 12.7058824 0 12.4459836 0 12.2352941.210689529 12.2352941.470588235z"/>
    <path d="M2.35294118 3.29411765C3.65243471 3.29411765 4.70588235 4.34756529 4.70588235 5.64705882 4.70588235 6.94655235 3.65243471 8 2.35294118 8 1.05344765 8 0 6.94655235 0 5.64705882 0 4.34756529 1.05344765 3.29411765 2.35294118 3.29411765zM2.35294118 4.23529412C1.57324506 4.23529412.941176471 4.86736271.941176471 5.64705882.941176471 6.42675494 1.57324506 7.05882353 2.35294118 7.05882353 3.13263729 7.05882353 3.76470588 6.42675494 3.76470588 5.64705882 3.76470588 4.86736271 3.13263729 4.23529412 2.35294118 4.23529412zM8 8.94117647C9.29949353 8.94117647 10.3529412 9.99462412 10.3529412 11.2941176 10.3529412 12.5936112 9.29949353 13.6470588 8 13.6470588 6.70050647 13.6470588 5.64705882 12.5936112 5.64705882 11.2941176 5.64705882 9.99462412 6.70050647 8.94117647 8 8.94117647zM8 9.88235294C7.22030388 9.88235294 6.58823529 10.5144215 6.58823529 11.2941176 6.58823529 12.0738138 7.22030388 12.7058824 8 12.7058824 8.77969612 12.7058824 9.41176471 12.0738138 9.41176471 11.2941176 9.41176471 10.5144215 8.77969612 9.88235294 8 9.88235294zM12.7058824 3.29411765C14.0053759 3.29411765 15.0588235 4.34756529 15.0588235 5.64705882 15.0588235 6.94655235 14.0053759 8 12.7058824 8 11.4063888 8 10.3529412 6.94655235 10.3529412 5.64705882 10.3529412 4.34756529 11.4063888 3.29411765 12.7058824 3.29411765zM12.7058824 4.23529412C11.9261862 4.23529412 11.2941176 4.86736271 11.2941176 5.64705882 11.2941176 6.42675494 11.9261862 7.05882353 12.7058824 7.05882353 13.4855785 7.05882353 14.1176471 6.42675494 14.1176471 5.64705882 14.1176471 4.86736271 13.4855785 4.23529412 12.7058824 4.23529412z"/>
    <path d="M7.52941176 13.1258042L7.52941176 15.5294118C7.52941176 15.7893105 7.74010129 16 8 16 8.25989871 16 8.47058824 15.7893105 8.47058824 15.5294118L8.47058824 13.1258042C8.47058824 12.8659055 8.25989871 12.655216 8 12.655216 7.74010129 12.655216 7.52941176 12.8659055 7.52941176 13.1258042zM12.2352941 7.50585938L12.2352941 15.5294118C12.2352941 15.7893105 12.4459836 16 12.7058824 16 12.9657811 16 13.1764706 15.7893105 13.1764706 15.5294118L13.1764706 7.50585938C13.1764706 7.24596067 12.9657811 7.03527114 12.7058824 7.03527114 12.4459836 7.03527114 12.2352941 7.24596067 12.2352941 7.50585938z"/>
  </g>
</svg>
