<svg xmlns="http://www.w3.org/2000/svg" width="16" height="15" viewBox="0 0 16 15">
  <path fill="#DEDEDE" d="M13,0 C13.5522847,0 14,0.44771525 14,1 L14,2 L15,2 C15.5522847,2 16,2.44771525 16,3 L16,14 C16,14.5522847 15.5522847,15 15,15 L1,15 C0.44771525,15 0,14.5522847 0,14 L0,3 C0,2.44771525 0.44771525,2 1,2 L2,2 L2,1 C2,0.44771525 2.44771525,0 3,0 L13,0 Z M15,3 L1,3 L1,14 L15,14 L15,3 Z M11.3689956,4 L12.0371179,4.23580786 C11.7718341,4.9628821 11.4770742,5.60152838 11.1430131,6.15174672 L12.2729258,6.15174672 L12.2729258,9.26637555 L11.2216157,9.26637555 L11.2216157,11.9093886 C11.2216157,12.1451965 11.3100437,12.2729258 11.4967249,12.2729258 L11.9290393,12.2729258 C12.0665939,12.2729258 12.1648472,12.2041485 12.2237991,12.0862445 C12.3024017,11.9388646 12.3515284,11.4967249 12.3810044,10.7598253 L13,10.9563319 C12.941048,11.8799127 12.8427948,12.4497817 12.6855895,12.6561135 C12.5480349,12.8329694 12.3417031,12.9213974 12.0469432,12.9213974 L11.290393,12.9213974 C10.808952,12.9213974 10.5731441,12.6266376 10.5731441,12.0567686 L10.5731441,9.26637555 L9.66921397,9.26637555 C9.59061135,11.0251092 8.99126638,12.3024017 7.86135371,13.0982533 L7.48799127,12.4792576 C8.43122271,11.830786 8.94213974,10.7598253 9.02074236,9.26637555 L8.11681223,9.26637555 L8.11681223,6.15174672 L10.4159389,6.15174672 C10.779476,5.49344978 11.0938865,4.77620087 11.3689956,4 Z M7.37008734,4.1768559 L7.61572052,4.83515284 C7.2128821,4.95305677 6.79039301,5.05131004 6.34825328,5.13973799 L6.34825328,6.70196507 L7.55676856,6.70196507 L7.55676856,7.37991266 L6.34825328,7.37991266 L6.34825328,7.9989083 C6.819869,8.49017467 7.29148472,9.05021834 7.77292576,9.66921397 L7.37991266,10.268559 C6.98689956,9.62008734 6.6430131,9.10917031 6.34825328,8.71615721 L6.34825328,12.9803493 L5.66048035,12.9803493 L5.66048035,8.6768559 C5.31659389,9.60043668 4.86462882,10.4355895 4.31441048,11.1921397 L4,10.3766376 C4.74672489,9.49235808 5.2871179,8.5 5.61135371,7.37991266 L4.24563319,7.37991266 L4.24563319,6.70196507 L5.66048035,6.70196507 L5.66048035,5.25764192 C5.22816594,5.32641921 4.7860262,5.38537118 4.33406114,5.43449782 L4.19650655,4.7860262 C5.38537118,4.66812227 6.44650655,4.47161572 7.37008734,4.1768559 Z M11.6244541,6.78056769 L8.77510917,6.78056769 L8.77510917,8.63755459 L11.6244541,8.63755459 L11.6244541,6.78056769 Z M8.93231441,4.12772926 C9.23689956,4.63864629 9.53165939,5.20851528 9.81659389,5.81768559 L9.22707424,6.11244541 C8.95196507,5.47379913 8.66703057,4.90393013 8.35262009,4.40283843 L8.93231441,4.12772926 Z M13,1 L3,1 L3,2 L13,2 L13,1 Z"/>
</svg>
