<svg xmlns="http://www.w3.org/2000/svg" width="15" height="16" viewBox="0 0 15 16">
  <g fill="#DEDEDE" transform="translate(-.718)">
    <path d="M4.03890321,13.6778655 C3.45311677,14.263652 2.5033693,14.263652 1.91758286,13.6778655 L1.5174187,13.2777014 C0.931632259,12.6919149 0.931632259,11.7421675 1.5174187,11.156381 L9.28180043,3.3919993 C9.15478469,2.49827886 9.43500093,1.55780912 10.1224492,0.870360902 C11.13901,-0.146199916 12.7088498,-0.272271604 13.8626436,0.492145838 L12.6439337,1.71085574 C12.4118374,1.94295198 12.4118374,2.31925434 12.6439337,2.55135058 C12.8760299,2.78344682 13.2523323,2.78344682 13.4844285,2.55135058 L14.7031384,1.33264068 C15.4675558,2.48643444 15.3414842,4.05627427 14.3249233,5.07283509 C13.6374751,5.76028331 12.6970054,6.04049955 11.8032849,5.91348381 L4.03890321,13.6778655 Z M10.8295559,1.57746768 C10.3848364,2.02218723 10.184927,2.63966397 10.2718518,3.25129299 L10.3421415,3.74587184 L2.22452548,11.8634878 C2.02926333,12.05875 2.02926333,12.3753324 2.22452548,12.5705946 L2.62468965,12.9707588 C2.81995179,13.1660209 3.13653428,13.1660209 3.33179643,12.9707588 L11.4494124,4.85314279 L11.9439912,4.92343243 C12.5556203,5.01035728 13.173097,4.81044785 13.6178166,4.36572831 C13.9223787,4.06116615 14.108317,3.6782598 14.1713499,3.27829464 C13.5472849,3.88100613 12.5527632,3.8743937 11.9368269,3.25845736 C11.3208905,2.64252101 11.3142781,1.64799932 11.9169896,1.02393431 C11.5170244,1.08696728 11.1341181,1.27290553 10.8295559,1.57746768 Z"/>
    <path d="M9.4532774,10.1623761 L14.3316996,10.0399644 C15.1598661,10.0191836 15.8480738,10.673699 15.8688545,11.5018655 C15.86961,11.531975 15.8694585,11.5621003 15.8684002,11.5922007 L15.8569351,11.9182767 C15.8290574,12.7111461 15.1885981,13.3451953 14.3954884,13.3650964 L9.51706613,13.4875082 C8.68889969,13.5082889 8.000692,12.8537735 7.97991125,12.025607 C7.97915573,11.9954976 7.97930725,11.9653722 7.98036559,11.9352718 L7.99183062,11.6091958 C8.01970837,10.8163264 8.66016771,10.1822772 9.4532774,10.1623761 Z M8.99121306,11.6443347 L8.97974803,11.9704107 C8.97937,11.9854651 8.97937,11.9854651 8.97959659,12.0005224 C8.9865235,12.2765779 9.21592606,12.4947497 9.49198154,12.4878228 L14.3704038,12.3654111 C14.6347737,12.3587774 14.8482601,12.1474277 14.8575527,11.8831379 L14.8690177,11.5570618 C14.8693958,11.5420075 14.8693958,11.5420075 14.8691692,11.5269501 C14.8622423,11.2508946 14.6328397,11.0327228 14.3567842,11.0396497 L9.47836198,11.1620614 C9.21399209,11.1686951 9.00050564,11.3800449 8.99121306,11.6443347 Z" transform="rotate(45 11.924 11.764)"/>
    <polygon points=".019 4.099 7.675 3.949 7.655 2.95 0 3.099" transform="rotate(45 3.837 3.524)"/>
  </g>
</svg>
