<svg xmlns="http://www.w3.org/2000/svg" width="15" height="15" viewBox="0 0 15 15">
  <g fill="#91BBD3" transform="translate(-3 -3)">
    <g transform="scale(-1 1) rotate(45 -7.414 -15.728)">
      <path d="M0,5.5 L8,5.5 C8.27614237,5.5 8.5,5.27614237 8.5,5 C8.5,4.72385763 8.27614237,4.5 8,4.5 L0,4.5 C-0.276142375,4.5 -0.5,4.72385763 -0.5,5 C-0.5,5.27614237 -0.276142375,5.5 0,5.5 Z"/>
      <path d="M7.29289322,4.91210937 L3.73433723,8.47066536 C3.53907509,8.66592751 3.53907509,8.98250999 3.73433723,9.17777214 C3.92959938,9.37303429 4.24618187,9.37303429 4.44144402,9.17777214 L8.70710678,4.91210937 L4.44144402,0.646446609 C4.24618187,0.451184464 3.92959938,0.451184464 3.73433723,0.646446609 C3.53907509,0.841708755 3.53907509,1.15829124 3.73433723,1.35355339 L7.29289322,4.91210937 Z"/>
    </g>
    <g transform="scale(1 -1) rotate(45 28.435 -.879)">
      <path d="M-4.54747351e-13,5.5 L8,5.5 C8.27614237,5.5 8.5,5.27614237 8.5,5 C8.5,4.72385763 8.27614237,4.5 8,4.5 L-4.54747351e-13,4.5 C-0.276142375,4.5 -0.5,4.72385763 -0.5,5 C-0.5,5.27614237 -0.276142375,5.5 -4.54747351e-13,5.5 Z"/>
      <path d="M7.29289322,4.91210937 L3.73433723,8.47066536 C3.53907509,8.66592751 3.53907509,8.98250999 3.73433723,9.17777214 C3.92959938,9.37303429 4.24618187,9.37303429 4.44144402,9.17777214 L8.70710678,4.91210937 L4.44144402,0.646446609 C4.24618187,0.451184464 3.92959938,0.451184464 3.73433723,0.646446609 C3.53907509,0.841708755 3.53907509,1.15829124 3.73433723,1.35355339 L7.29289322,4.91210937 Z"/>
    </g>
  </g>
</svg>
