<?xml version="1.0" encoding="UTF-8"?>
<svg width="28px" height="13px" viewBox="0 0 28 13" version="1.1" xmlns="http://www.w3.org/2000/svg" xmlns:xlink="http://www.w3.org/1999/xlink">
    <!-- Generator: Sketch 63 (92445) - https://sketch.com -->
    <title>ae</title>
    <desc>Created with Sketch.</desc>
    <defs>
        <linearGradient x1="100.017656%" y1="39.4368576%" x2="2.43160626%" y2="60.6809007%" id="linearGradient-1">
            <stop stop-color="#FFFFFF" offset="0%"></stop>
            <stop stop-color="#A1A1A1" offset="100%"></stop>
        </linearGradient>
    </defs>
    <g id="ae" stroke="none" stroke-width="1" fill="none" fill-rule="evenodd">
        <path d="M6.67611328,0 C9.81211328,0 11.312,1.16236525 15.036,6.23224448 C17.36,9.38743527 18.592,10.5200679 20.16,10.9245795 C21.952,11.383026 24.024,10.6549051 25.284,9.11776084 C25.4134074,8.96436361 25.5756288,8.74862407 25.7706641,8.47054222 L27.9176953,8.47054222 C27.5855516,9.19909154 27.1276532,9.88226676 26.544,10.5200679 C25.032,12.1920493 23.604,12.785333 21.308,12.8123005 C18.088,12.8123005 16.716,11.8145051 12.964,6.71765844 C10.64,3.56246765 9.408,2.42983506 7.84,2.02532342 C5.824,1.51294201 3.388,2.59163971 2.38,4.4793607 C1.848,5.45018864 1.848,7.49971428 2.38,8.47054222 C2.94,9.54923993 4.312,10.6009702 5.6,10.9245795 C7.392,11.383026 8.82,10.8706446 10.584,9.14472829 L12.068,7.66151894 C12.7773333,8.57841199 13.1413333,9.0907934 13.16,9.19866317 C13.16,9.68407714 10.444,12.0032772 9.38,12.4347563 C7.84,13.1005414 5.86865234,13.2714581 3.92369141,12.4347563 C1.48769141,11.4099935 0,9.14472829 0,6.47495146 C0,2.69950948 2.61611328,0 6.67611328,0 Z M24.2096094,0.569081513 C26.5056094,1.48597456 28,3.80517463 28,6.07043982 L28,7.41881195 L19.88,7.41881195 L19.88,5.53109097 L22.988,5.53109097 C26.068,5.53109097 26.068,5.53109097 25.872,4.93780723 C25.564,3.96697929 24.864,3.18492345 23.8,2.61860716 C21.392,1.32416991 19.684,1.64777922 17.444,3.80517463 L15.904,5.26141654 L15.4,4.6681328 C15.092,4.31755605 14.868,3.91304441 14.84,3.72427231 C14.84,3.29279322 17.416,1.10843037 18.592,0.569081513 C20.3663086,-0.134837213 22.6603125,-0.134837213 24.2096094,0.569081513 Z" id="Combined-Shape" fill="url(#linearGradient-1)" fill-rule="nonzero"></path>
    </g>
</svg>