<?xml version="1.0" encoding="UTF-8"?>
<svg width="24px" height="32px" viewBox="0 0 24 32" version="1.1" xmlns="http://www.w3.org/2000/svg" xmlns:xlink="http://www.w3.org/1999/xlink">
    <!-- Generator: Sketch 63 (92445) - https://sketch.com -->
    <title>btc</title>
    <desc>Created with Sketch.</desc>
    <defs>
        <linearGradient x1="0%" y1="50%" x2="100%" y2="50%" id="linearGradient-1">
            <stop stop-color="#A2A0A9" offset="0%"></stop>
            <stop stop-color="#B2B0BF" offset="100%"></stop>
        </linearGradient>
    </defs>
    <g id="btc" stroke="none" stroke-width="1" fill="none" fill-rule="evenodd">
        <path d="M23.0507098,12.8645954 C23.5315935,9.50215927 21.0841447,7.69459319 17.7375869,6.48875947 L18.823161,1.93391407 L16.1726389,1.24294845 L15.1157517,5.67776325 C14.4189611,5.496138 13.7032974,5.32477852 12.9921633,5.1549984 L14.0565997,0.690965624 L11.4075875,0 L10.3212584,4.55326605 C9.74449996,4.4158626 9.17831039,4.2800385 8.62872905,4.13710732 L8.63174873,4.12289317 L4.97642886,3.1681761 L4.27133412,6.12945735 C4.27133412,6.12945735 6.23789922,6.60089332 6.19637866,6.63011129 C7.26987408,6.91044592 7.46388837,7.65353009 7.43142684,8.24262764 C4.4570443,20.7202823 7.43142684,8.24262764 4.4570443,20.7202823 C4.32568832,21.0614219 3.99276885,21.5731313 3.24237894,21.3788713 C3.26880112,21.4191447 1.31582456,20.8758483 1.31582456,20.8758483 L0,24.0495521 L3.44922686,24.9489919 C4.09090837,25.1171927 4.71975626,25.2932902 5.33879019,25.459122 L4.24189226,30.0660859 L6.88939469,30.7570516 L7.97572374,26.1990475 C8.69893656,26.404363 9.40101162,26.593885 10.0879883,26.7723515 L9.00543384,31.3090344 L11.655956,32 L12.7528539,27.4017225 C17.2725565,28.2964243 20.6712037,27.9355428 22.1017761,23.6594527 C23.254538,20.2164697 22.0444022,18.230437 19.666406,16.93537 C21.3981912,16.517632 22.7026919,15.3260124 23.0507098,12.8645954 L23.0507098,12.8645954 Z M16.9947461,21.7476495 C16.1756586,25.1906325 10.633795,23.3293685 8.83708681,22.8626706 L10.2925715,16.7592725 C12.0892797,17.2283395 17.8508248,18.1569973 16.9947461,21.7476495 Z M17.8145886,12.8148459 C17.0672184,15.9466969 12.4546607,14.3555018 10.9584104,13.9654024 L12.2780096,8.42978062 C13.7742599,8.81988007 18.5929106,9.54796042 17.8145886,12.8148459 L17.8145886,12.8148459 Z" id="symbol" fill="url(#linearGradient-1)" fill-rule="nonzero"></path>
    </g>
</svg>