<?xml version="1.0" encoding="UTF-8"?>
<svg width="25px" height="32px" viewBox="0 0 25 32" version="1.1" xmlns="http://www.w3.org/2000/svg" xmlns:xlink="http://www.w3.org/1999/xlink">
    <!-- Generator: Sketch 63 (92445) - https://sketch.com -->
    <title>bth</title>
    <desc>Created with Sketch.</desc>
    <defs>
        <linearGradient x1="80.2482036%" y1="0.997019958%" x2="21.2329889%" y2="99.549267%" id="linearGradient-1">
            <stop stop-color="#FFFFFF" offset="0%"></stop>
            <stop stop-color="#A1A1A1" offset="100%"></stop>
        </linearGradient>
    </defs>
    <g id="bth" stroke="none" stroke-width="1" fill="none" fill-rule="evenodd">
        <path d="M11.8763496,0 L12.9900094,4.59720018 C16.5502463,4.15043701 19.5785502,4.65699823 20.6886613,7.90396016 C21.5048992,10.2790123 20.879247,11.948949 19.5146926,13.1178882 C22.245523,13.1949084 24.2438525,14.428627 24.787168,18.055716 C25.462963,22.559945 22.574514,24.4408788 18.1028121,25.7048422 L19.2262172,30.3463236 L16.5275784,30.9378782 L15.4195356,26.3584101 C14.7203729,26.512292 14.0025723,26.6631349 13.2585337,26.8094388 L14.372964,31.409828 L11.6770386,32 L10.5496492,27.3506993 C9.91733397,27.4848471 9.27149149,27.6142472 8.61773886,27.7566316 L5.10577678,28.5262108 L4.83249525,25.0668623 C4.83249525,25.0668623 6.83659998,24.6617517 6.79438547,24.6375959 C7.55777423,24.4688971 7.62222825,23.8558402 7.58379453,23.4886125 C4.53348763,10.8946855 7.58379453,23.4886125 4.53348763,10.8946855 C4.29245969,10.3495307 3.77729606,9.76945302 2.68409043,10.0086039 C2.70799896,9.96329228 0.724643507,10.4393116 0.724643507,10.4393116 L0,7.45080471 L3.7263138,6.65080263 C4.2857164,6.52783926 4.85678314,6.39087416 5.4380713,6.25049177 L4.32581421,1.65436765 L7.02309634,1.06350436 L8.11409783,5.56927912 C8.83098387,5.39651736 9.55266446,5.22310344 10.2620946,5.06757157 L9.17771074,0.591554571 L11.8763496,0 Z M11.0107399,17.2511954 L12.502268,23.4117317 C14.3308195,23.0092166 20.164346,22.1473323 19.3211958,18.6730167 C18.4435548,15.0488362 12.840378,16.8508129 11.0107399,17.2511954 Z M8.97439239,8.84414011 L10.327607,14.4313616 C11.8510387,14.0974595 16.7256347,13.4179496 15.9607452,10.2565438 C15.1617331,6.95941184 10.4978241,8.51023798 8.97439239,8.84414011 Z" id="Combined-Shape" fill="url(#linearGradient-1)"></path>
    </g>
</svg>