<?xml version="1.0" encoding="UTF-8"?>
<svg width="24px" height="24px" viewBox="0 0 24 24" version="1.1" xmlns="http://www.w3.org/2000/svg" xmlns:xlink="http://www.w3.org/1999/xlink">
    <!-- Generator: Sketch 63 (92445) - https://sketch.com -->
    <title>btm</title>
    <desc>Created with Sketch.</desc>
    <defs>
        <linearGradient x1="100.017656%" y1="0.997019958%" x2="2.43160626%" y2="99.549267%" id="linearGradient-1">
            <stop stop-color="#FFFFFF" offset="0%"></stop>
            <stop stop-color="#A1A1A1" offset="100%"></stop>
        </linearGradient>
    </defs>
    <g id="btm" stroke="none" stroke-width="1" fill="none" fill-rule="evenodd">
        <path d="M23.0286373,13.7350993 L23.5176226,14.2251656 L24,14.7086093 L23.0286373,18.3443709 C22.4933967,20.3443709 22.0374509,22 22.0110193,22.0264901 C21.9713718,22.0728477 14.8348296,24 14.7026715,24 C14.6696319,24 12.8656726,22.2251656 10.7048863,20.0596026 L6.77318017,16.1192053 L7.96260386,14.9271523 L9.15202756,13.7350993 L11.6630331,16.2384106 C13.0440862,17.6092715 14.51765,19.0728477 14.9405562,19.4900662 L15.7136816,20.2450331 L17.4846013,19.7615894 C18.4625719,19.5033113 19.262129,19.2847682 19.2687369,19.2781457 C19.2687369,19.2715232 19.4207188,18.7218543 19.5925244,18.0596026 L19.9097041,16.8609272 L21.4691707,15.2980132 L23.0286373,13.7350993 Z M7.90974059,6.78807947 L9.09255637,7.98013245 L10.2753722,9.16556291 L7.01106491,12.4370861 L3.75336557,15.7019868 L4.22913505,17.4834437 C4.48684351,18.4635762 4.71151243,19.2715232 4.71812034,19.2781457 C4.72472825,19.2847682 5.27318473,19.4370861 5.94058358,19.615894 L7.15643891,19.9470199 L8.71590554,21.5099338 L10.2753722,23.0728477 L9.8128185,23.5364238 C9.52207048,23.8278146 9.30400947,24 9.21810665,23.9933775 C9.14541965,23.986755 7.48022648,23.5496689 5.51767738,23.0198675 L1.9494063,22.0529801 L0.964827798,18.397351 C0.422979226,16.3907285 -0.00653488558,14.7086093 0.00668093324,14.6754967 C0.0198967521,14.6357616 1.80403229,12.8476821 3.97142658,10.6953642 L7.90974059,6.78807947 Z M14.663024,0 L18.3171979,0.973509934 C20.3260024,1.50993377 21.9845876,1.97350993 22.0110193,2 C22.0374509,2.02649007 22.4933967,3.68211921 23.0286373,5.68211921 L24,9.31788079 L20.0418623,13.2847682 L16.0903324,17.2450331 L14.9141246,16.0662252 C14.2731573,15.4238411 13.7445246,14.8675497 13.7445246,14.8344371 C13.7445246,14.8013245 15.2048726,13.3245033 16.9890081,11.5562914 L20.2334916,8.33774834 L19.7577222,6.54966887 C19.4934058,5.56953642 19.2687369,4.75496689 19.2687369,4.74834437 C19.262129,4.74172185 18.6938487,4.58278146 18.0066262,4.39735099 L16.7511234,4.05960265 L15.2511279,2.55629139 C14.4185314,1.72847682 13.7445246,1.02649007 13.7445246,0.986754967 C13.7445246,0.951434879 13.9063776,0.75913662 14.1233418,0.540093933 L14.663024,0 Z M9.28418574,0.0264900662 C9.3238332,0.0264900662 11.1211846,1.8013245 13.2819709,3.96688742 L17.213677,7.90728477 L16.0044296,9.11258278 L14.8017901,10.3245033 L11.5374829,7.05298013 L8.2731756,3.78145695 L6.50225588,4.25827815 C5.5308932,4.51655629 4.72472825,4.74172185 4.71812034,4.74834437 C4.71151243,4.75496689 4.55953052,5.29801325 4.38772487,5.95364238 L4.07715313,7.14569536 L2.51768651,8.7218543 C1.65865829,9.58278146 0.945004069,10.2913907 0.925180341,10.2913907 C0.905356613,10.2913907 0.687295602,10.0927152 0.442802954,9.8410596 C0.198310306,9.59602649 0,9.36423841 0,9.33112583 C-0.00653488558,9.29139073 0.436195045,7.62251656 0.971435707,5.61589404 L1.9494063,1.96688742 L5.58375648,0.993377483 C7.57934512,0.463576159 9.2511462,0.0264900662 9.28418574,0.0264900662 Z" id="Combined-Shape" fill="url(#linearGradient-1)" fill-rule="nonzero"></path>
    </g>
</svg>