<?xml version="1.0" encoding="UTF-8"?>
<svg width="24px" height="25px" viewBox="0 0 24 25" version="1.1" xmlns="http://www.w3.org/2000/svg" xmlns:xlink="http://www.w3.org/1999/xlink">
    <!-- Generator: Sketch 63 (92445) - https://sketch.com -->
    <title>check</title>
    <desc>Created with Sketch.</desc>
    <g id="check" stroke="none" stroke-width="1" fill="none" fill-rule="evenodd">
        <g id="Group-8" transform="translate(11.646447, 12.853553) rotate(-45.000000) translate(-11.646447, -12.853553) translate(1.146447, 5.353553)" fill="#36CEEC" fill-rule="nonzero">
            <path d="M3.5753788,0.853553391 C5.23223305,0.853553391 6.5753788,2.19669914 6.5753788,3.85355339 L6.5753788,3.85355339 L6.5753788,13.7865534 L18.0575194,13.7868349 L18.2032852,13.7808537 C19.1657487,13.701587 19.9325194,12.8441134 19.9325194,11.7868349 C19.9325194,10.6766924 19.0871547,9.78683486 18.0575194,9.78683486 L18.0575194,9.78683486 L8.84801621,9.78683486 L8.84801621,8.78683486 L18.0575194,8.78683486 L18.2270351,8.79194812 C19.7411225,8.88355783 20.9325194,10.1945279 20.9325194,11.7868349 C20.9325194,13.4381162 19.6512366,14.7868349 18.0575194,14.7868349 L18.0575194,14.7868349 L6.5753788,14.7865534 L6.5753788,14.8535534 L3.5753788,14.8535534 C1.91852455,14.8535534 0.575378798,13.5104076 0.575378798,11.8535534 L0.575378798,11.8535534 L0.575378798,3.85355339 C0.575378798,2.19669914 1.91852455,0.853553391 3.5753788,0.853553391 Z M3.5753788,1.85355339 C2.4708093,1.85355339 1.5753788,2.74898389 1.5753788,3.85355339 L1.5753788,3.85355339 L1.5753788,11.8535534 C1.5753788,12.9581229 2.4708093,13.8535534 3.5753788,13.8535534 L3.5753788,13.8535534 L3.8073788,13.8535534 L3.80751939,13.7868349 L5.5753788,13.7865534 L5.5753788,3.85355339 C5.5753788,2.85190969 4.83904909,2.022245 3.87815314,1.87632279 L3.72464114,1.85903913 Z" id="Combined-Shape"></path>
        </g>
    </g>
</svg>