<?xml version="1.0" encoding="UTF-8"?>
<svg width="24px" height="25px" viewBox="0 0 24 25" version="1.1" xmlns="http://www.w3.org/2000/svg" xmlns:xlink="http://www.w3.org/1999/xlink">
    <!-- Generator: Sketch 63 (92445) - https://sketch.com -->
    <title>checked</title>
    <desc>Created with Sketch.</desc>
    <g id="checked" stroke="none" stroke-width="1" fill="none" fill-rule="evenodd">
        <g id="Group-8" transform="translate(12.707107, 13.207107) rotate(-45.000000) translate(-12.707107, -13.207107) translate(2.707107, 6.707107)" fill="#36CEEC" fill-rule="nonzero">
            <path d="M2.5753788,0.0606601718 C3.95609067,0.0606601718 5.0753788,1.1799483 5.0753788,2.56066017 L5.0753788,11.7866602 L17.0575194,11.7868349 L17.2032852,11.7808537 C18.1657487,11.701587 18.9325194,10.8441134 18.9325194,9.78683486 C18.9325194,8.67669241 18.0871547,7.78683486 17.0575194,7.78683486 L17.0575194,7.78683486 L7.84801621,7.78683486 L7.84801621,6.78683486 L17.0575194,6.78683486 L17.2270351,6.79194812 C18.7411225,6.88355783 19.9325194,8.1945279 19.9325194,9.78683486 C19.9325194,11.4381162 18.6512366,12.7868349 17.0575194,12.7868349 L17.0575194,12.7868349 L5.0753788,12.7866602 L5.0753788,12.8106602 L2.5753788,12.8106602 C1.19466692,12.8106602 0.0753787975,11.691372 0.0753787975,10.3106602 L0.0753787975,2.56066017 C0.0753787975,1.1799483 1.19466692,0.0606601718 2.5753788,0.0606601718 Z" id="Combined-Shape"></path>
        </g>
    </g>
</svg>