<?xml version="1.0" encoding="UTF-8"?>
<svg width="28px" height="28px" viewBox="0 0 28 28" version="1.1" xmlns="http://www.w3.org/2000/svg" xmlns:xlink="http://www.w3.org/1999/xlink">
    <!-- Generator: Sketch 63 (92445) - https://sketch.com -->
    <title>icx</title>
    <desc>Created with Sketch.</desc>
    <defs>
        <linearGradient x1="100.017656%" y1="0.997019958%" x2="2.43160626%" y2="99.549267%" id="linearGradient-1">
            <stop stop-color="#FFFFFF" offset="0%"></stop>
            <stop stop-color="#A1A1A1" offset="100%"></stop>
        </linearGradient>
    </defs>
    <g id="icx" stroke="none" stroke-width="1" fill="none" fill-rule="evenodd">
        <path d="M2.8,22.4 C4.3463973,22.4 5.6,23.6536027 5.6,25.2 C5.6,26.7463973 4.3463973,28 2.8,28 C1.2536027,28 0,26.7463973 0,25.2 C0,23.6536027 1.2536027,22.4 2.8,22.4 Z M22.9833333,7.32666667 C24.3833333,9.19333333 25.2,11.5033333 25.1533333,14.0466667 C25.1533333,20.23 20.1366667,25.2466667 13.9533333,25.2466667 C11.4566667,25.2466667 9.14666667,24.4066667 7.28,23.03 L7.28,23.03 L10.3133333,19.9966667 C11.3866667,20.65 12.6466667,21.0233333 13.9766667,21.0233333 C17.85,21.0233333 20.9766667,17.8966667 20.9766667,14.0233333 C20.9766667,12.67 20.6033333,11.4333333 19.95,10.36 L19.95,10.36 Z M14.0233333,2.77666667 C16.52,2.77666667 18.83,3.61666667 20.6966667,4.99333333 L20.6966667,4.99333333 L17.6633333,8.02666667 C16.59,7.37333333 15.33,7 14,7 C10.1266667,7 7,10.1266667 7,14 C7,15.33 7.37333333,16.59 8.07333333,17.6166667 L8.07333333,17.6166667 L5.04,20.65 C3.64,18.7833333 2.82333333,16.4733333 2.82333333,13.9766667 C2.82333333,7.79333333 7.84,2.77666667 14.0233333,2.77666667 Z M25.2,0 C26.7463973,0 28,1.2536027 28,2.8 C28,4.3463973 26.7463973,5.6 25.2,5.6 C23.6536027,5.6 22.4,4.3463973 22.4,2.8 C22.4,1.2536027 23.6536027,0 25.2,0 Z" id="Combined-Shape" fill="url(#linearGradient-1)" fill-rule="nonzero"></path>
    </g>
</svg>