<?xml version="1.0" encoding="UTF-8"?>
<svg width="18px" height="17px" viewBox="0 0 18 17" version="1.1" xmlns="http://www.w3.org/2000/svg" xmlns:xlink="http://www.w3.org/1999/xlink">
    <!-- Generator: Sketch 63 (92445) - https://sketch.com -->
    <title>key</title>
    <desc>Created with Sketch.</desc>
    <g id="key" stroke="none" stroke-width="1" fill="none" fill-rule="evenodd">
        <g id="Group-24" transform="translate(0.000000, -1.000000)" fill="#FFFFFF" fill-rule="nonzero">
            <path d="M9.91693534,0.819885891 C10.135213,0.761420364 10.3595577,0.890973687 10.4180232,1.10925134 C10.4764887,1.32752899 10.3469354,1.55187366 10.1286577,1.61033918 C7.62148996,2.28188245 5.8500434,4.53655842 5.8500434,7.13564533 C5.8500434,7.77830621 5.95727706,8.40575557 6.16442356,8.99947369 L6.27628899,9.29343607 L6.38119601,9.54755609 L1.39070307,14.4750378 C0.978157012,14.8823749 0.948689436,15.5228418 1.30230034,15.9634832 L1.39070307,16.0614254 L1.93980864,16.6035979 C2.35503778,17.0135842 3.01166363,17.0428689 3.46137801,16.6914521 L3.56128121,16.6035979 L4.42427199,15.7515034 L5.25277033,16.5695409 C5.52144171,16.83482 5.94362668,16.8589363 6.24020963,16.6418898 L6.32513733,16.5695409 L7.16949115,15.7358482 C7.43553574,15.4731627 7.45972161,15.0639043 7.24204876,14.7745692 L7.16949115,14.6916329 L6.3335935,13.8662895 L8.36297509,11.8625314 L8.63528482,12.0264331 C9.53695955,12.5691458 10.5729004,12.8604675 11.6533052,12.8604675 C14.8595138,12.8604675 17.4565671,10.2962054 17.4565671,7.13564533 C17.4565671,4.631313 15.8113072,2.43896585 13.4308137,1.68424497 C13.2154085,1.61595205 13.0961503,1.38596923 13.1644433,1.17056397 C13.2327362,0.955158707 13.462719,0.835900591 13.6781243,0.904193511 C16.394918,1.76553633 18.2748841,4.27063503 18.2748841,7.13564533 C18.2748841,10.7504933 15.3091467,13.6787845 11.6533052,13.6787845 C10.6282798,13.6787845 9.63683016,13.4480165 8.73973583,13.0129161 L8.491,12.885 L7.498,13.866 L7.74444085,14.1093309 C8.3252774,14.6828337 8.35944426,15.5936356 7.84694142,16.2068207 L7.74444085,16.3181502 L6.90008704,17.1518429 C6.32422825,17.7204308 5.41480846,17.7559675 4.79725455,17.2584532 L4.67782063,17.1518429 L4.424,16.901 L4.13623092,17.1858999 C3.41065974,17.9023098 2.25991268,17.9400156 1.48958615,17.2990172 L1.36485894,17.1858999 L0.815753368,16.6437274 C0.0874447988,15.9246147 0.0491127688,14.780262 0.700757278,14.0163871 L0.815753368,13.8927358 L5.419,9.346 L5.40675999,9.31149569 C5.19501909,8.71797213 5.07072768,8.09453237 5.03953709,7.45606335 L5.03172636,7.13564533 C5.03172636,4.16226954 7.05561461,1.58628879 9.91693534,0.819885891 Z" id="Combined-Shape---Oval-7"></path>
            <path d="M11.7391304,4.45447784 C10.2176455,4.45447784 8.98214583,5.67437775 8.98214583,7.18181818 C8.98214583,8.68925861 10.2176455,9.90915852 11.7391304,9.90915852 C13.2606154,9.90915852 14.496115,8.68925861 14.496115,7.18181818 C14.496115,5.67437775 13.2606154,4.45447784 11.7391304,4.45447784 Z M11.7391304,5.27279488 C12.8109826,5.27279488 13.677798,6.12866568 13.677798,7.18181818 C13.677798,8.23497068 12.8109826,9.09084148 11.7391304,9.09084148 C10.6672783,9.09084148 9.80046287,8.23497068 9.80046287,7.18181818 C9.80046287,6.12866568 10.6672783,5.27279488 11.7391304,5.27279488 Z" id="Oval-7-∩-Combined-Shape"></path>
        </g>
    </g>
</svg>