<?xml version="1.0" encoding="UTF-8"?>
<svg width="16px" height="17px" viewBox="0 0 16 17" version="1.1" xmlns="http://www.w3.org/2000/svg" xmlns:xlink="http://www.w3.org/1999/xlink">
    <!-- Generator: Sketch 63 (92445) - https://sketch.com -->
    <title>notice</title>
    <desc>Created with Sketch.</desc>
    <g id="notice" stroke="none" stroke-width="1" fill="none" fill-rule="evenodd">
        <g id="Group-5" fill="#36CEEC" fill-rule="nonzero">
            <path d="M14.5590857,0.641692656 L3.59,4.25288287 L3.59,12.7473862 L14.5590857,16.3585764 C14.701368,16.4054179 14.8502055,16.4292876 15,16.4292876 C15.7787215,16.4292876 16.41,15.7980091 16.41,15.0192876 L16.41,1.98098149 C16.41,1.83118704 16.3861303,1.68234949 16.3392888,1.54006719 C16.0957786,0.800398392 15.2987545,0.398182413 14.5590857,0.641692656 Z M15.5604116,1.79648544 C15.580012,1.856022 15.59,1.91830154 15.59,1.98098149 L15.59,15.0192876 C15.59,15.3451356 15.325848,15.6092876 15,15.6092876 L14.9065732,15.6018435 C14.8757263,15.5968965 14.8452722,15.5894994 14.8155039,15.5796992 L4.41,12.154 L4.41,4.845 L14.8155039,1.42056985 C15.0940601,1.32886493 15.392056,1.45601998 15.5231506,1.7079985 L15.5604116,1.79648544 Z" id="Path-8"></path>
            <path d="M1,4.59 C1.19813215,4.59 1.36343929,4.73054062 1.40167026,4.9173707 L1.41,5 L1.41,13 C1.41,13.2264367 1.22643675,13.41 1,13.41 C0.801867846,13.41 0.636560711,13.2694594 0.598329743,13.0826293 L0.59,13 L0.59,5 C0.59,4.77356325 0.773563253,4.59 1,4.59 Z" id="Path-9"></path>
        </g>
    </g>
</svg>