<?xml version="1.0" encoding="UTF-8"?>
<svg width="40px" height="31px" viewBox="0 0 40 31" version="1.1" xmlns="http://www.w3.org/2000/svg" xmlns:xlink="http://www.w3.org/1999/xlink">
    <title>camera</title>
    <g id="svg" stroke="none" stroke-width="1" fill="none" fill-rule="evenodd">
        <g id="pixwind-cate-icons" transform="translate(-70.000000, -75.000000)" fill="#FFFFFF">
            <g id="Group-5" transform="translate(50.000000, 50.000000)">
                <g id="Group-4">
                    <path d="M40.5564338,31.6446774 C46.3863421,31.6446774 51.109706,36.352651 51.109706,42.162762 C51.109706,47.972873 46.3863421,52.6808467 40.5564338,52.6808467 C34.7265255,52.6808467 29.9968384,47.972873 29.9968384,42.162762 C29.9968384,36.352651 34.7265255,31.6446774 40.5564338,31.6446774 M20,33.027127 L20,51.2920263 C20,54.1270037 21.8842871,56 24.7233639,56 L55.2766361,56 C58.1157129,56 60,54.1270037 60,51.2920263 L60,33.027127 C60,30.1985203 58.1157129,28.3191533 55.2766361,28.3191533 L48.2832754,28.3191533 C48.3970914,27.9496506 48.4097376,27.5228113 48.2959216,27.0641184 C47.9987354,25.891903 46.9554221,25 45.9500474,25 L34.0499526,25 C33.0382548,25 32.0012646,25.891903 31.7040784,27.0641184 C31.5902624,27.5228113 31.6029086,27.9496506 31.7167246,28.3191533 L24.7233639,28.3191533 C21.8842871,28.3191533 20,30.1985203 20,33.027127 M40.5564338,36.1997534 C37.2494467,36.1997534 34.5747708,38.8690917 34.5747708,42.162762 C34.5747708,45.4500617 37.2494467,48.1193999 40.5564338,48.1193999 C43.8570977,48.1193999 46.5380967,45.4500617 46.5380967,42.162762 C46.5380967,38.8690917 43.8570977,36.1997534 40.5564338,36.1997534" id="camera"></path>
                </g>
            </g>
        </g>
    </g>
</svg>