<?xml version="1.0" encoding="UTF-8"?>
<svg width="40px" height="40px" viewBox="0 0 40 40" version="1.1" xmlns="http://www.w3.org/2000/svg" xmlns:xlink="http://www.w3.org/1999/xlink">
    <title>headset</title>
    <g id="svg" stroke="none" stroke-width="1" fill="none" fill-rule="evenodd">
        <g id="pixwind-cate-icons" transform="translate(-370.000000, -71.000000)" fill="#FFFFFF">
            <g id="Group-5" transform="translate(50.000000, 50.000000)">
                <g id="Group" transform="translate(300.000000, 0.000000)">
                    <path d="M59.2928136,35.6355685 C59.9621823,38.5593503 59.9621823,44.4152436 59.9621823,45.3898376 C59.9621823,52.2203249 60.9705819,58.0678884 52.573047,60.3502707 C52.573047,60.3502707 52.2427092,60.6751354 52.2427092,61 L48.8871725,61 L48.8871725,42.1411912 L52.2427092,42.1411912 C53.9204776,43.1157851 56.2676147,44.090379 58.2844139,45.3898376 L58.2844139,39.8588088 C58.8320793,16.9183673 23.5033194,15.7355269 21.5995305,38.8592253 C21.5995305,39.18409 22.0167993,39.8588088 21.6864615,40.1836735 L21.6864615,42.4660558 C21.6864615,43.4406497 21.6864615,44.4152436 22.0167993,45.3898376 C24.0335986,44.090379 27.0587975,42.1411912 28.058504,42.1411912 L31.0837029,42.1411912 L31.0837029,61 L28.058504,61 C26.7197666,60.0254061 24.7029673,59.7005414 23.3642298,58.392753 C22.0167993,57.7430237 20,53.5197834 20,52.5451895 L20,38.5593503 C22.0167993,26.2061641 30.4143342,21 39.8202688,21 C47.5397419,21 56.9456765,24.5818409 59.2928136,35.6355685" id="headset"></path>
                </g>
            </g>
        </g>
    </g>
</svg>