<?xml version="1.0" encoding="UTF-8"?>
<svg width="40px" height="31px" viewBox="0 0 40 31" version="1.1" xmlns="http://www.w3.org/2000/svg" xmlns:xlink="http://www.w3.org/1999/xlink">
    <title>ice</title>
    <g id="svg" stroke="none" stroke-width="1" fill="none" fill-rule="evenodd">
        <g id="pixwind-cate-icons" transform="translate(-170.000000, -75.000000)" fill="#FFFFFF">
            <g id="Group-5" transform="translate(50.000000, 50.000000)">
                <g id="Group-3" transform="translate(100.000000, 0.000000)">
                    <path d="M25.5895494,26.0136835 L21.1970702,31.2693419 C19.2040648,33.651821 19.7613196,37.1835717 22.4099189,39.11409 L40.4715309,52.253236 C42.8120011,53.9642304 46.1293063,53.4928999 47.8994098,51.2460091 L48.8041294,50.0902808 L55.9959944,55.5138103 C57.0777244,56.3273397 58.6314819,56.0949028 59.4706421,55.0037403 C60.3098023,53.9125778 60.132792,52.3629979 59.0707298,51.5365553 L51.9837598,46.0484599 L54.2258909,43.1881937 C55.9501029,40.9929556 55.5764144,37.7840339 53.360507,35.9955605 L39.7831573,25 C39.5143638,25.6843978 39.1406753,26.3429692 38.6489799,26.9369748 C36.0003805,30.1717228 30.9523075,30.5914007 27.3268732,27.7957004 C26.6516115,27.2727171 26.0681329,26.6657984 25.5895494,26.0136835" id="ice"></path>
                </g>
            </g>
        </g>
    </g>
</svg>