<?xml version="1.0" encoding="UTF-8"?>
<svg width="40px" height="39px" viewBox="0 0 40 39" version="1.1" xmlns="http://www.w3.org/2000/svg" xmlns:xlink="http://www.w3.org/1999/xlink">
    <title>pencil</title>
    <g id="svg" stroke="none" stroke-width="1" fill="none" fill-rule="evenodd">
        <g id="pixwind-cate-icons" transform="translate(-270.000000, -71.000000)" fill="#FFFFFF">
            <g id="Group-5" transform="translate(50.000000, 50.000000)">
                <g id="Group-2" transform="translate(200.000000, 0.000000)">
                    <path d="M34.3058247,57.9776123 C33.595838,57.4496798 22.3258186,46.208778 22.3258186,46.208778 L20,60 C20,60 35.0158115,58.4974228 34.3058247,57.9776123 L34.3058247,57.9776123 Z M43.9273692,29.5098662 C44.563909,28.8844692 44.563909,27.8692143 43.9273692,27.2438174 C43.2989901,26.6184204 42.2625727,26.6184204 41.6260328,27.2438174 L25.010711,43.5691154 C24.3741712,44.1945124 24.3741712,45.2097673 25.010711,45.8351643 C25.6472508,46.4524392 26.6755075,46.4524392 27.3120473,45.8351643 L43.9273692,29.5098662 Z M48.7911864,34.277503 C49.4195654,33.652106 49.4195654,32.6449732 48.7911864,32.0195762 C48.1546465,31.3941792 47.1263899,31.3941792 46.48985,32.0195762 L29.8663674,48.3448743 C29.2379884,48.9702713 29.2379884,49.9774041 29.8663674,50.6028011 C30.5029073,51.2281981 31.5393247,51.2281981 32.1677038,50.6028011 L48.7911864,34.277503 Z M53.6468428,39.0532618 C54.2833826,38.4278648 54.2833826,37.41261 53.6468428,36.787213 C53.010303,36.161816 51.9820463,36.161816 51.3455065,36.787213 L34.7301846,53.1125111 C34.0936448,53.7379081 34.0936448,54.7531629 34.7301846,55.3785599 C35.3667245,56.0039569 36.3949811,56.0039569 37.031521,55.3785599 L53.6468428,39.0532618 Z M59.5225951,33.2703702 C60.159135,32.6530952 60.159135,31.6378404 59.5225951,31.0124434 L49.8112823,21.4690477 C49.1747424,20.8436508 48.1464858,20.8436508 47.5099459,21.4690477 L45.2086096,23.7269745 C44.5720698,24.3523715 44.5720698,25.3676264 45.2086096,25.9930234 L54.9199225,35.536419 C55.5564623,36.161816 56.584719,36.161816 57.2212588,35.536419 L59.5225951,33.2703702 Z" id="pencil"></path>
                </g>
            </g>
        </g>
    </g>
</svg>