<?xml version="1.0" encoding="UTF-8"?>
<svg width="328px" height="795px" viewBox="0 0 328 795" version="1.1" xmlns="http://www.w3.org/2000/svg" xmlns:xlink="http://www.w3.org/1999/xlink">
    <!-- Generator: Sketch 51 (57462) - http://www.bohemiancoding.com/sketch -->
    <title>animation2</title>
    <desc>Created with Sketch.</desc>
    <defs></defs>
    <g id="Page-1" stroke="none" stroke-width="1" fill="none" fill-rule="evenodd">
        <g id="2018" transform="translate(-1111.000000, -960.000000)" stroke="#0984E3" stroke-width="10">
            <g id="animation2" transform="translate(1115.000000, 960.000000)">
                <path d="M1.1328125,0.684582399 L1.1328125,49.953125 M1.1328125,167.296875 L1.1328125,207.078125 L187,207.078125 L187,650.164062 M186.953125,748.710938 L186.953125,789.539062 L323.171875,789.539062" id="Path-8"></path>
                <g id="Group-5" transform="translate(66.000000, 567.000000)">
                    <path d="M43.6605149,78.1903618 L66.4551726,59.9688971 L89.3412327,41.6743676 L135.021951,78.1903618 L135.021951,177.186202 L135.021951,193.008098 C135.021951,198.530945 130.544798,203.008098 125.021951,203.008098 L53.6605149,203.008098 C48.1376674,203.008098 43.6605149,198.530945 43.6605149,193.008098 L43.6605149,78.1903618 Z" id="Rectangle-4" transform="translate(89.341233, 122.341233) scale(-1, 1) rotate(-45.000000) translate(-89.341233, -122.341233) "></path>
                    <path d="M43.6605149,45.1903618 L89.3412327,8.67436757 L135.021951,45.1903618 L135.021951,160.008098 C135.021951,165.530945 130.544798,170.008098 125.021951,170.008098 L53.6605149,170.008098 C48.1376674,170.008098 43.6605149,165.530945 43.6605149,160.008098 L43.6605149,45.1903618 Z" id="Rectangle-4-Copy-3" transform="translate(89.341233, 89.341233) scale(-1, 1) rotate(-45.000000) translate(-89.341233, -89.341233) "></path>
                </g>
            </g>
        </g>
    </g>
</svg>