<?xml version="1.0" encoding="UTF-8"?>
<svg width="223px" height="178px" viewBox="0 0 223 178" version="1.1" xmlns="http://www.w3.org/2000/svg" xmlns:xlink="http://www.w3.org/1999/xlink">
    <!-- Generator: Sketch 51 (57462) - http://www.bohemiancoding.com/sketch -->
    <title>Group 4</title>
    <desc>Created with Sketch.</desc>
    <defs>
        <path d="M3.984375,90.0351635 L86.015625,90.0351635 L86.015625,105.660164 L53.59375,105.660164 L53.59375,122.847664 L81.328125,122.847664 L81.328125,138.082039 L53.59375,138.082039 L53.59375,156.441414 L89.921875,156.441414 L89.921875,171.285164 L0.078125,171.285164 L0.078125,156.441414 L36.40625,156.441414 L36.40625,138.082039 L8.671875,138.082039 L8.671875,122.847664 L36.40625,122.847664 L36.40625,105.660164 L3.984375,105.660164 L3.984375,90.0351635 Z M126.25,101.363289 L126.25,86.9101635 L153.59375,86.9101635 L153.59375,101.363289 L147.34375,101.363289 L147.34375,120.113289 L153.203125,120.113289 L153.203125,134.175789 L147.34375,134.175789 L147.34375,152.925789 C149.687512,152.404953 152.031238,152.014331 154.375,151.753914 C154.114582,155.660183 153.984375,159.30598 153.984375,162.691414 C156.328137,160.868488 158.151035,158.785175 159.453125,156.441414 C156.328109,151.75389 153.854176,146.154988 152.03125,139.644539 L161.40625,129.878914 C162.70834,135.608109 164.140617,140.295562 165.703125,143.941414 C167.005215,139.514308 167.786457,134.566441 168.046875,129.097664 L155.546875,129.097664 L155.546875,116.207039 L166.09375,100.582039 L155.9375,100.582039 L155.9375,87.6914135 L180.9375,87.6914135 L180.9375,100.972664 L170.390625,116.207039 L181.328125,116.207039 C181.328125,132.873789 179.244812,146.024699 175.078125,155.660164 C178.463559,159.306015 184.322875,160.998706 192.65625,160.738289 L220.390625,160.738289 C219.869789,162.561214 219.088547,165.035148 218.046875,168.160164 C217.265621,170.503925 216.744793,172.326824 216.484375,173.628914 C203.203059,173.628914 194.218773,173.498706 189.53125,173.238289 C180.416621,172.457035 173.385441,170.113308 168.4375,166.207039 C165.83332,169.85289 162.578145,173.498687 158.671875,177.144539 C157.890621,175.842449 156.458344,174.01955 154.375,171.675789 C152.552074,169.332027 151.250004,167.509128 150.46875,166.207039 C148.645824,166.727874 145.911477,167.37891 142.265625,168.160164 C136.015594,169.462253 131.067727,170.50391 127.421875,171.285164 L125.078125,156.050789 C127.942723,155.529953 130.67707,155.139331 133.28125,154.878914 L133.28125,134.175789 L127.03125,134.175789 L127.03125,120.113289 L133.28125,120.113289 L133.28125,101.363289 L126.25,101.363289 Z M183.671875,113.472664 L193.046875,113.472664 L193.046875,100.972664 C192.005203,100.972664 190.572926,101.102871 188.75,101.363289 C186.666656,101.363289 185.104172,101.493496 184.0625,101.753914 C183.802082,100.191406 183.541668,97.9778862 183.28125,95.1132885 L182.109375,88.0820385 C183.671883,88.0820385 186.276023,87.9518315 189.921875,87.6914135 C202.682355,86.6497416 211.406227,85.8684994 216.09375,85.3476635 L218.046875,99.0195385 C214.401023,99.2799565 210.62502,99.6705776 206.71875,100.191414 L206.71875,113.472664 L216.484375,113.472664 L216.484375,126.753914 L206.71875,126.753914 L206.71875,141.988289 L218.4375,141.988289 L218.4375,155.660164 L181.328125,155.660164 L181.328125,141.988289 L193.046875,141.988289 L193.046875,126.753914 L183.671875,126.753914 L183.671875,113.472664 Z" id="path-1"></path>
        <path d="M133,1.9951635 L133,12.0151635 L140.68,12.0151635 L140.68,16.0351635 L133,16.0351635 L133,35.7751635 C133,36.9151635 133.18,37.7551635 133.66,38.2351635 C134.08,38.7151635 134.86,39.0151635 135.94,39.0151635 L139.9,39.0151635 L139.9,43.0351635 L135.22,43.0351635 C132.7,43.0351635 130.84,42.3751635 129.76,41.0551635 C128.74,39.8551635 128.26,38.1151635 128.26,35.7751635 L128.26,16.0351635 L122.02,16.0351635 L122.02,12.0151635 L128.26,12.0151635 L128.26,3.9751635 L133,1.9951635 Z M141.52,0.0751635017 L144.76,0.0751635017 L149.98,5.4151635 L155.26,0.0751635017 L158.5,0.0751635017 L152.02,7.6951635 L147.94,7.6951635 L141.52,0.0751635017 Z M147.64,12.0151635 L152.38,12.0151635 L152.38,43.0351635 L147.64,43.0351635 L147.64,12.0151635 Z M175.9,11.1751635 C183.58,11.1751635 187.48,15.4351635 187.48,23.9551635 L187.48,43.0351635 L182.68,43.0351635 L182.68,24.3151635 C182.68,18.2551635 179.92,15.2551635 174.52,15.2551635 C172.36,15.2551635 170.5,16.0351635 168.94,17.5951635 C167.26,19.2751635 166.36,21.4951635 166.18,24.3151635 L166.18,43.0351635 L161.38,43.0351635 L161.38,12.0151635 L166.18,12.0151635 L166.18,16.5751635 C167.26,14.8351635 168.64,13.5151635 170.32,12.6151635 C172,11.6551635 173.86,11.1751635 175.9,11.1751635 Z M207.7,11.1751635 C212.38,11.1751635 215.86,13.2151635 218.14,17.3551635 L218.14,12.0151635 L222.94,12.0151635 L222.94,40.8751635 C222.94,50.7751635 218.2,55.7551635 208.78,55.7551635 C204.58,55.7551635 201.34,54.9151635 199.18,53.2351635 C196.96,51.5551635 195.58,49.0351635 195.04,45.6751635 L199.84,45.6751635 C200.2,47.7751635 201.1,49.3351635 202.48,50.2951635 C203.86,51.3151635 205.96,51.8551635 208.78,51.8551635 C215.02,51.8551635 218.14,48.3751635 218.14,41.5351635 L218.14,36.0751635 C215.86,40.2151635 212.38,42.3151635 207.7,42.3151635 C203.38,42.3151635 199.96,40.8151635 197.44,37.8751635 C194.92,34.9951635 193.72,31.3351635 193.72,26.8351635 C193.72,22.2751635 194.92,18.6151635 197.44,15.7351635 C199.96,12.6751635 203.38,11.1751635 207.7,11.1751635 Z M208.42,15.1351635 C205.3,15.1351635 202.9,16.2151635 201.16,18.4951635 C199.48,20.5351635 198.64,23.3551635 198.64,26.8351635 C198.64,30.0751635 199.36,32.7751635 200.86,34.8151635 C202.54,37.0951635 205,38.2951635 208.36,38.2951635 C211.48,38.2951635 213.88,37.2151635 215.68,35.0551635 C217.36,32.9551635 218.2,30.1951635 218.2,26.8351635 C218.2,23.3551635 217.36,20.5351635 215.68,18.4951635 C213.88,16.2151635 211.48,15.1351635 208.42,15.1351635 Z" id="path-2"></path>
    </defs>
    <g id="Page-1" stroke="none" stroke-width="1" fill="none" fill-rule="evenodd">
        <g id="web" transform="translate(-455.000000, -29.000000)">
            <g id="Group-4" transform="translate(455.000000, 29.000000)">
                <g id="王-珽">
                    <use fill="#000000" xlink:href="#path-1"></use>
                    <use fill="#FFFFFF" xlink:href="#path-1"></use>
                </g>
                <g id="tǐng">
                    <use fill="#000000" xlink:href="#path-2"></use>
                    <use fill="#FFFFFF" xlink:href="#path-2"></use>
                </g>
            </g>
        </g>
    </g>
</svg>