<?xml version="1.0" encoding="UTF-8"?>
<svg width="236px" height="57px" viewBox="0 0 236 57" version="1.1" xmlns="http://www.w3.org/2000/svg" xmlns:xlink="http://www.w3.org/1999/xlink">
    <!-- Generator: Sketch 51 (57462) - http://www.bohemiancoding.com/sketch -->
    <title>objective</title>
    <desc>Created with Sketch.</desc>
    <defs></defs>
    <g id="Page-1" stroke="none" stroke-width="1" fill="none" fill-rule="evenodd">
        <g id="web" transform="translate(-649.000000, -630.000000)" fill="#FFFFFF">
            <path d="M704.25,655.390625 C700.34373,658.35939 696.281271,661.171862 692.0625,663.828125 C696.12502,667.578144 701.046846,670.703112 706.828125,673.203125 C706.203122,674.14063 705.42188,675.546866 704.484375,677.421875 C703.234369,679.453135 702.296878,681.01562 701.671875,682.109375 C693.078082,677.734353 686.828145,672.265658 682.921875,665.703125 L682.921875,676.484375 C683.078126,682.265654 680.343778,685.312498 674.71875,685.625 C671.593734,685.937502 668.00002,686.09375 663.9375,686.09375 C663.468748,683.281236 663.390623,682.890615 663.703125,684.921875 C663.390623,682.890615 662.921878,680.39064 662.296875,677.421875 C664.015634,677.578126 666.35936,677.65625 669.328125,677.65625 C672.140639,677.812501 673.468751,676.406265 673.3125,673.4375 L673.3125,668.984375 C665.812463,673.828149 659.09378,677.812484 653.15625,680.9375 L649.40625,671.796875 C657.531291,667.734355 665.499961,663.437523 673.3125,658.90625 L673.3125,648.125 L650.8125,648.125 L650.8125,639.453125 L673.3125,639.453125 L673.3125,630.546875 L682.921875,630.546875 L682.921875,639.453125 L691.59375,639.453125 C690.968747,638.828122 690.031256,637.734383 688.78125,636.171875 C688.156247,635.390621 687.687502,634.843752 687.375,634.53125 L693.9375,630.3125 C696.593763,632.656262 698.93749,635.078112 700.96875,637.578125 L697.921875,639.453125 L705.421875,639.453125 L705.421875,648.125 L682.921875,648.125 L682.921875,649.765625 C684.01563,652.578139 685.343742,655.156238 686.90625,657.5 C688.468758,656.249994 690.812484,654.218764 693.9375,651.40625 C695.500008,649.999993 696.671871,648.984378 697.453125,648.359375 L704.25,655.390625 Z M659.25,648.828125 C660.968759,650.234382 663.78123,652.578109 667.6875,655.859375 C668.468754,656.640629 669.093748,657.187498 669.5625,657.5 L662.765625,663.59375 C659.640609,660.781236 656.437516,657.734391 653.15625,654.453125 L659.25,648.828125 Z M709.875,641.328125 L709.875,633.359375 L734.484375,633.359375 L734.484375,641.328125 L732.140625,641.328125 L732.140625,669.6875 C733.390631,669.374998 734.562495,669.21875 735.65625,669.21875 C735.65625,669.843753 735.578126,670.70312 735.421875,671.796875 C735.265624,674.453138 735.1875,676.32812 735.1875,677.421875 C734.249995,677.734377 733.23438,677.890625 732.140625,677.890625 L732.140625,686.5625 L724.640625,686.5625 L724.640625,679.0625 C722.765616,679.375002 720.031268,679.687498 716.4375,680 C713.781237,680.468752 711.828131,680.781249 710.578125,680.9375 L709.171875,672.96875 C709.484377,672.812499 709.953122,672.734375 710.578125,672.734375 C711.203128,672.578124 711.671873,672.5 711.984375,672.5 L711.984375,641.328125 L709.875,641.328125 Z M736.359375,666.171875 L736.359375,633.828125 L763.546875,633.828125 L763.546875,666.171875 L736.359375,666.171875 Z M732.609375,681.640625 C735.57814,678.046857 738.624984,673.125031 741.75,666.875 L749.71875,671.09375 C747.062487,675.937524 743.859394,681.249971 740.109375,687.03125 L732.609375,681.640625 Z M757.6875,666.875 C759.093757,669.062511 760.890614,672.031231 763.078125,675.78125 C764.796884,678.593764 766.124995,680.624994 767.0625,681.875 L758.859375,686.796875 C756.828115,682.421853 753.859395,677.18753 749.953125,671.09375 L757.6875,666.875 Z M745.5,657.265625 L754.40625,657.265625 L754.40625,642.265625 L745.5,642.265625 L745.5,657.265625 Z M719.71875,671.5625 C721.437509,671.249998 723.078117,671.015626 724.640625,670.859375 L724.640625,665.234375 L719.71875,665.234375 L719.71875,671.5625 Z M719.71875,641.328125 L719.71875,646.484375 L724.640625,646.484375 L724.640625,641.328125 L719.71875,641.328125 Z M719.71875,653.28125 L719.71875,658.4375 L724.640625,658.4375 L724.640625,653.28125 L719.71875,653.28125 Z M774.796875,651.640625 L821.203125,651.640625 L821.203125,670.859375 L801.28125,670.859375 C802.531256,672.265632 803.70312,673.671868 804.796875,675.078125 L798.234375,679.296875 C797.609372,678.515621 796.750005,677.343758 795.65625,675.78125 C794.718745,674.531244 793.937503,673.515629 793.3125,672.734375 L796.125,670.859375 L774.796875,670.859375 L774.796875,651.640625 Z M773.15625,640.625 L773.15625,634.296875 L792.609375,634.296875 C792.140623,632.890618 791.671877,631.796879 791.203125,631.015625 L803.15625,630.546875 C803.468752,631.48438 803.859373,632.734367 804.328125,634.296875 L822.84375,634.296875 L822.84375,640.625 L814.40625,640.625 C814.249999,640.937502 813.937502,641.406247 813.46875,642.03125 L812.765625,643.4375 L825.890625,643.4375 L825.890625,649.53125 L770.109375,649.53125 L770.109375,643.4375 L782.765625,643.4375 C782.296873,642.187494 781.828127,641.250003 781.359375,640.625 L773.15625,640.625 Z M805.5,676.71875 C805.812502,675.624995 806.124998,674.375007 806.4375,672.96875 C807.687506,673.437502 809.953109,674.296869 813.234375,675.546875 C812.921873,675.390624 813.390619,675.546873 814.640625,676.015625 C814.171873,675.234371 813.781252,674.375005 813.46875,673.4375 L821.671875,671.09375 C823.859386,675.781273 825.499995,679.140615 826.59375,681.171875 L818.15625,684.21875 C817.999999,683.749998 817.765627,683.125004 817.453125,682.34375 C816.35937,679.999988 815.500003,678.125007 814.875,676.71875 C814.718749,677.656255 814.328128,678.749994 813.703125,680 C813.546874,680.625003 813.390626,681.093748 813.234375,681.40625 C812.14062,684.687516 809.093775,686.250001 804.09375,686.09375 L789.796875,686.09375 C784.79685,686.09375 782.296875,683.671899 782.296875,678.828125 L782.296875,672.265625 L791.4375,672.265625 L791.4375,676.25 C791.281249,678.593762 792.374988,679.687501 794.71875,679.53125 L801.515625,679.53125 C803.859387,679.687501 805.187498,678.75001 805.5,676.71875 Z M769.171875,681.640625 C771.203135,678.046857 772.76562,674.453143 773.859375,670.859375 L781.828125,673.671875 C779.796865,678.203148 778.078132,681.95311 776.671875,684.921875 L769.171875,681.640625 Z M812.0625,665.46875 L812.0625,663.359375 L783.9375,663.359375 L783.9375,665.46875 L812.0625,665.46875 Z M783.9375,657.03125 L783.9375,659.140625 L812.0625,659.140625 L812.0625,657.03125 L783.9375,657.03125 Z M802.6875,643.4375 L804.09375,640.625 L791.671875,640.625 L793.078125,643.4375 L802.6875,643.4375 Z M884.015625,637.8125 L884.015625,676.015625 C884.640628,682.421907 881.281287,685.625 873.9375,685.625 L869.484375,685.625 C866.984362,685.781251 865.031257,685.859375 863.625,685.859375 C863.468749,684.92187 863.156252,683.43751 862.6875,681.40625 C862.374998,679.531241 862.062502,678.125005 861.75,677.1875 L866.203125,677.1875 C868.234385,677.343751 869.718745,677.421875 870.65625,677.421875 C873.468764,677.421875 874.796876,676.250012 874.640625,673.90625 L874.640625,646.484375 L841.59375,646.484375 L841.59375,686.09375 L832.21875,686.09375 L832.21875,637.8125 L848.390625,637.8125 C848.859377,636.718745 849.328123,635.15626 849.796875,633.125 C850.109377,632.031245 850.343749,631.171878 850.5,630.546875 L861.515625,631.25 C861.359374,631.718752 861.046877,632.42187 860.578125,633.359375 C859.796871,635.234384 859.250002,636.718745 858.9375,637.8125 L884.015625,637.8125 Z M870.890625,650.9375 L870.890625,674.84375 L845.34375,674.84375 L845.34375,650.9375 L870.890625,650.9375 Z M854.015625,658.90625 L854.015625,666.875 L861.984375,666.875 L861.984375,658.90625 L854.015625,658.90625 Z" id="objective"></path>
        </g>
    </g>
</svg>