<svg xmlns="http://www.w3.org/2000/svg" width="24" height="24" viewBox="0 0 24 24">
  <g fill="none" fill-rule="evenodd">
    <path fill="#979797" fill-rule="nonzero" d="M11.5 0C13.9852814 0 16 2.01471863 16 4.5 16 6.98528137 13.9852814 9 11.5 9 9.01471863 9 7 6.98528137 7 4.5 7 2.01471863 9.01471863 0 11.5 0zM11.5 1C9.56700338 1 8 2.56700338 8 4.5 8 6.43299662 9.56700338 8 11.5 8 13.4329966 8 15 6.43299662 15 4.5 15 2.56700338 13.4329966 1 11.5 1zM4.50341797 22.478204C4.50341797 23.6331211 7.42403095 24.1140025 11.6574179 24.1702142L11.9773582 24.1736378C16.4486668 24.2101884 19.4594727 23.759903 19.4594727 22.478204L19.4659005 21.7273973 19.486792 20.9108983 19.5634532 18.8841653 19.5826613 18.1974314C19.7078003 12.6188031 18.9348079 10.6055408 15.3949286 9.27165278 14.7547236 9.03041238 14.3322561 9.175967 13.4064097 9.77167835L13.2143151 9.89684148C12.595175 10.3045681 12.2954434 10.4481205 12 10.4481205 11.7319238 10.4481205 11.454432 10.3284914 10.9245905 9.99700707L10.7578246 9.89111388C9.67328956 9.19361755 9.23051835 9.01055631 8.55258171 9.26445312 6.39918478 10.0709306 5.1541937 11.7185264 4.61905275 14.071666L5.59415547 14.2934197C6.0596877 12.2463659 7.09298362 10.8789231 8.90330616 10.2009318 9.13099799 10.115658 9.39382835 10.212363 10.0663792 10.6362861L10.216905 10.7321882C11.0254713 11.2522009 11.4400146 11.4481205 12 11.4481205 12.5169625 11.4481205 12.9079636 11.2814885 13.5751856 10.8548768L13.7643059 10.7320122C14.5291517 10.2283329 14.7980705 10.1153862 15.0423147 10.2074216 18.1093837 11.3631466 18.7309613 13.1008579 18.5740691 18.5325379L18.49498 20.6509289 18.4745787 21.3148175C18.464058 21.7263171 18.4594727 22.0884583 18.4594727 22.478204 18.4594727 22.7526806 15.4549144 23.2020316 11.9855324 23.1736712 10.2239777 23.1592714 8.51529949 23.0430863 7.26063992 22.8486065 6.61944568 22.7492175 6.1139286 22.6319511 5.78018399 22.5055504L5.59860418 22.4337601C5.52796586 22.4082899 5.50341797 22.4129403 5.50341797 22.478204L4.50341797 22.478204z"/>
    <path fill="#979797" fill-rule="nonzero" d="M15.4321085 9.8182226L15.0140667 11.9078166 14.7044246 13.3988025C14.0818836 16.326159 13.5993977 18.1378844 13.2408184 18.8765548 12.318865 20.7757714 8.57519531 19.4217015 8.57519531 17.2451172 8.57519531 15.7002124 10.4003912 13.6234984 14.0504301 10.8533327L15.4321085 9.8182226zM13.5701119 13.9135029L13.9314309 12.2098446 13.3699443 12.6605219C10.8400361 14.7278238 9.57519531 16.2906319 9.57519531 17.2451172 9.57519531 18.4443639 11.9262256 19.2947219 12.3412129 18.4398514 12.6273356 17.850441 13.0409975 16.3310357 13.5701119 13.9135029zM15.5202637 9.32043457C17.7683919 9.99645996 19.7648926 11.3178711 21.5097656 13.284668 23.75354 16.7327881 23.3396164 19.7871086 22.840332 23 22.669933 24.0965164 21.7231557 24.321577 20 23.6751816 20.4392904 20.7415723 20.4392904 18.1831784 20 16 19.6783612 14.7252486 18.1851157 12.4987267 15.5202637 9.32043457zM19.4116392 12.7341825C20.2593916 13.992403 20.7798485 15.0055586 20.9803508 15.8027378 21.4005869 17.8912209 21.4402659 20.2804005 21.1057911 22.9716195 21.4061802 23.039372 21.6306999 23.0516869 21.7711819 23.0182926 21.8112202 23.008775 21.8226419 23.0078791 21.8332988 22.9601331L21.9113787 22.4574722C22.5184284 18.3758929 22.3417962 16.4241583 20.7120858 13.8926337 20.3266413 13.4622817 19.9292109 13.0663006 19.5196439 12.7044514L19.2101907 12.4394605 19.4116392 12.7341825z"/>
    <path fill="#979797" fill-rule="nonzero" d="M6.68779277,10.6094534 L7.46365006,9.9892246 L7.49967112,10.9818679 C7.571627,12.964778 7.92034109,14.5617513 8.53733069,15.7730647 C9.15443062,16.9845947 10.2433409,18.2097654 11.8091702,19.4417321 L12.6041937,20.0672425 L11.247226,20.4147246 L10.5121645,20.5944077 C4.01268206,22.1402397 0.649902344,21.7561523 0.649902344,19.0851997 C0.649902344,16.6187634 2.67951104,13.8137177 6.68779277,10.6094534 Z M6.24762813,12.273205 C3.17003811,14.9261197 1.64990234,17.2115865 1.64990234,19.0851997 C1.64990234,20.6577277 4.26910121,20.9867357 9.70878414,19.7544207 L10.418549,19.5885978 C9.14967423,18.4815251 8.2245755,17.3623152 7.64626306,16.2269353 C7.11515114,15.1842225 6.76820722,13.9152244 6.60156155,12.4200675 L6.56058003,12.0066903 L6.24762813,12.273205 Z"/>
  </g>
</svg>
