<svg xmlns="http://www.w3.org/2000/svg" width="24" height="24" viewBox="0 0 24 24">
  <g fill="none" fill-rule="evenodd">
    <path fill="#979797" fill-rule="nonzero" d="M13.9507944,-1.64644661 C15.3315063,-1.64644661 16.4507944,-0.527158484 16.4507944,0.853553391 L16.4507944,22.8535534 C16.4507944,24.2342653 15.3315063,25.3535534 13.9507944,25.3535534 L10.3420988,25.3535534 C8.96138691,25.3535534 7.84209878,24.2342653 7.84209878,22.8535534 L7.84209878,0.853553391 C7.84209878,-0.527158484 8.96138691,-1.64644661 10.3420988,-1.64644661 L13.9507944,-1.64644661 Z M13.9507944,-0.646446609 L10.3420988,-0.646446609 C9.51367166,-0.646446609 8.84209878,0.0251262658 8.84209878,0.853553391 L8.84209878,22.8535534 C8.84209878,23.6819805 9.51367166,24.3535534 10.3420988,24.3535534 L13.9507944,24.3535534 C14.7792216,24.3535534 15.4507944,23.6819805 15.4507944,22.8535534 L15.4507944,0.853553391 C15.4507944,0.0251262658 14.7792216,-0.646446609 13.9507944,-0.646446609 Z" transform="rotate(45 12.146 11.854)"/>
    <path fill="#979797" fill-rule="nonzero" d="M16.097241,17.4948706 L16.097241,22.7071068 C16.097241,24.0325902 15.0657051,25.1171455 13.7616167,25.2017891 L13.597241,25.2071068 L9.98854539,25.2071068 C8.66306199,25.2071068 7.57850672,24.1755708 7.49386307,22.8714825 L7.48854539,22.7071068 L7.48854539,17.6697484 L8.48854539,17.6697484 L8.48854539,22.7071068 C8.48854539,23.4868029 9.08343348,24.1275555 9.84408538,24.2002402 L9.98854539,24.2071068 L13.597241,24.2071068 C14.3769372,24.2071068 15.0176897,23.6122187 15.0903745,22.8515668 L15.097241,22.7071068 L15.097241,17.4948706 L16.097241,17.4948706 Z M9.98854539,-0.792893219 L13.597241,-0.792893219 C14.9227244,-0.792893219 16.0072797,0.238642718 16.0919234,1.54273109 L16.097241,1.70710678 L16.097241,8.4057173 L15.097241,8.4057173 L15.097241,1.70710678 C15.097241,0.927410664 14.502353,0.286658103 13.7417011,0.213973359 L13.597241,0.207106781 L9.98854539,0.207106781 C9.20884928,0.207106781 8.56809671,0.801994864 8.49541197,1.56264677 L8.48854539,1.70710678 L8.48854539,8.30766148 L7.48854539,8.30766148 L7.48854539,1.70710678 C7.48854539,0.381623382 8.52008133,-0.702931891 9.82416971,-0.787575539 L9.98854539,-0.792893219 L13.597241,-0.792893219 L9.98854539,-0.792893219 Z" transform="rotate(-45 11.793 12.207)"/>
    <path fill="#979797" fill-rule="nonzero" d="M11.8535534,6.85355339 C13.2342653,6.85355339 14.3535534,7.97284152 14.3535534,9.35355339 L14.3535534,15.3535534 C14.3535534,16.7342653 13.2342653,17.8535534 11.8535534,17.8535534 C10.4728415,17.8535534 9.35355339,16.7342653 9.35355339,15.3535534 L9.35355339,9.35355339 C9.35355339,7.97284152 10.4728415,6.85355339 11.8535534,6.85355339 Z M11.8535534,7.85355339 C11.0251263,7.85355339 10.3535534,8.52512627 10.3535534,9.35355339 L10.3535534,15.3535534 C10.3535534,16.1819805 11.0251263,16.8535534 11.8535534,16.8535534 C12.6819805,16.8535534 13.3535534,16.1819805 13.3535534,15.3535534 L13.3535534,9.35355339 C13.3535534,8.52512627 12.6819805,7.85355339 11.8535534,7.85355339 Z" transform="rotate(45 11.854 12.354)"/>
  </g>
</svg>
