<svg xmlns="http://www.w3.org/2000/svg" width="24" height="24" viewBox="0 0 24 24">
  <g fill="none" fill-rule="evenodd">
    <path fill="#979797" fill-rule="nonzero" d="M19,4 C20.1045695,4 21,4.8954305 21,6 L21,22 C21,23.1045695 20.1045695,24 19,24 L5,24 C3.8954305,24 3,23.1045695 3,22 L3,6 C3,4.8954305 3.8954305,4 5,4 L19,4 Z M19,5 L5,5 C4.44771525,5 4,5.44771525 4,6 L4,22 C4,22.5522847 4.44771525,23 5,23 L19,23 C19.5522847,23 20,22.5522847 20,22 L20,6 C20,5.44771525 19.5522847,5 19,5 Z"/>
    <path fill="#979797" fill-rule="nonzero" d="M17.8092493 4.32077728L18.8092493 4.32077728C18.8092493 3.26152116 19.0257206 2.22083764 19.4603743 1.19507828L19.7549057.5 6.21305431.5C4.00189211.8514016 3.15745786 2.46648346 3.62959577 5.08860487L4.61376888 4.91139513C4.23175541 2.78979954 4.78156916 1.73821474 6.29294687 1.49357591L18.2758895 1.49963392C17.9650865 2.42487387 17.8092493 3.36587562 17.8092493 4.32077728zM7 14L17 14C17.2761424 14 17.5 13.7761424 17.5 13.5 17.5 13.2238576 17.2761424 13 17 13L7 13C6.72385763 13 6.5 13.2238576 6.5 13.5 6.5 13.7761424 6.72385763 14 7 14zM7 18L17 18C17.2761424 18 17.5 17.7761424 17.5 17.5 17.5 17.2238576 17.2761424 17 17 17L7 17C6.72385763 17 6.5 17.2238576 6.5 17.5 6.5 17.7761424 6.72385763 18 7 18zM7 10L13 10C13.2761424 10 13.5 9.77614237 13.5 9.5 13.5 9.22385763 13.2761424 9 13 9L7 9C6.72385763 9 6.5 9.22385763 6.5 9.5 6.5 9.77614237 6.72385763 10 7 10z"/>
  </g>
</svg>
