<svg xmlns="http://www.w3.org/2000/svg" width="20" height="18" viewBox="0 0 20 18">
  <path fill="#FFF" d="M10.5555989,23.9444444 C8.69780684,23.9444444 6.84001475,23.4548882 5.27558678,22.5736479 L1.16890103,23.7485916 L2.14668748,19.6362454 C1.26668185,18.2654488 0.777777778,16.6988646 0.777777778,15.1322586 C0.777777778,10.2366094 5.17780597,6.22222222 10.5555556,6.22222222 C15.9333485,6.22222222 20.3333333,10.2366528 20.3333333,15.1322586 C20.3333333,19.9299704 15.9333051,23.9444444 10.5555556,23.9444444 L10.5555989,23.9444444 Z M5.47112672,21.3008104 L5.66666667,21.398726 C7.1333355,22.2799446 8.79556596,22.7695225 10.5555772,22.7695225 C15.3466853,22.7695225 19.2578094,19.2446699 19.2578094,14.936536 C19.2578094,10.6283803 15.3466853,7.10354939 10.5555772,7.10354939 C5.76446917,7.10354939 1.85334504,10.628402 1.85334504,14.936536 C1.85334504,16.4052264 2.34222743,17.7760229 3.12449562,19.0488821 L3.22227644,19.2446916 L2.53783243,22.0841785 L5.4711701,21.3008755 L5.47112672,21.3008104 Z M15.7378519,15.0343864 C15.7378519,15.6218582 15.2489696,16.1114144 14.6623064,16.1114144 C14.0756432,16.1114144 13.5867608,15.6218582 13.5867608,15.0343864 C13.5867608,14.4469146 14.0756432,13.9573583 14.6623064,13.9573583 C15.2489696,13.9573583 15.7378519,14.4469146 15.7378519,15.0343864 Z M12.1200269,15.0343864 C12.1200269,15.6218582 11.6311445,16.1114144 11.0444813,16.1114144 C10.4578181,16.1114144 9.96893573,15.6218582 9.96893573,15.0343864 C9.96893573,14.4469146 10.4578181,13.9573583 11.0444813,13.9573583 C11.6311445,13.9573583 12.1200269,14.4469146 12.1200269,15.0343864 Z M8.50224521,15.0343864 C8.50224521,15.6218582 8.01336283,16.1114144 7.42669963,16.1114144 C6.84003643,16.1114144 6.35115405,15.6218582 6.35115405,15.0343864 C6.35115405,14.4469146 6.84003643,13.9573583 7.42669963,13.9573583 C8.01336283,13.9573583 8.50224521,14.4469146 8.50224521,15.0343864 Z" opacity=".9" transform="translate(-.778 -6.222)"/>
</svg>
