<svg xmlns="http://www.w3.org/2000/svg" width="23" height="25" viewBox="0 0 23 25">
  <path fill="#979797" fill-rule="evenodd" d="M19,0 C20.1045695,-2.02906125e-16 21,0.8954305 21,2 C21,3.1045695 20.1045695,4 19,4 L11.7312186,4 L21.7657964,12.4718125 C22.5675913,13.1487479 22.7038388,14.321405 22.1045248,15.1605983 L22.0037734,15.2902104 C21.2912099,16.1342051 20.0293701,16.240751 19.1853755,15.5281875 L19.1853755,15.5281875 L12.9992186,10.306 L13,23 C13,24.1045695 12.1045695,25 11,25 C9.8954305,25 9,24.1045695 9,23 L8.99921859,10.594 L3.77004825,15.4638023 C3.00416184,16.1768539 1.82803669,16.1738062 1.06638681,15.4841218 L0.943424309,15.3628217 C0.190758672,14.554386 0.23596921,13.2888634 1.04440487,12.5361977 L1.04440487,12.5361977 L10.2112186,4 L4,4 C2.8954305,4 2,3.1045695 2,2 C2,0.8954305 2.8954305,2.02906125e-16 4,0 L19,0 Z"/>
</svg>
