<svg xmlns="http://www.w3.org/2000/svg" width="175" height="256" viewBox="0 0 175 256">
  <path fill="#FCD8A7" fill-rule="evenodd" d="M123.901599 23.3793129C123.902025 23.3802025 123.902452 23.3810914 123.902878 23.3819797 123.89098 23.3856719 123.866926 23.4319254 123.866926 23.392041 123.866926 23.3819797 122.692367 23.3819797 121.738171 19.8956331 120.799112 16.4645917 121.279965 15.5698804 122.466955 16.1557132 122.493036 16.1685853 122.94676 21.3857291 123.901599 23.3793129 122.98425 20.4465899 122.517228 17.1494269 122.517228 13.9602837 122.517228 4.91343298 123.99146-5.68434189e-14 133.410845-5.68434189e-14 142.83023-5.68434189e-14 144.304462 4.91343298 144.304462 13.9602837 144.304462 16.9948421 143.881618 20.1272023 143.050312 22.9503314 143.882036 20.7271789 144.280082 16.1677455 144.304462 16.1557132 145.491452 15.5698804 145.972305 16.4645917 145.033246 19.8956331 144.136302 23.1728001 143.044645 23.369429 142.916876 23.3895834 142.140262 25.8688182 141.041648 28.0870602 139.631128 29.7586273 139.903728 29.7505604 140.15442 29.7460026 140.37968 29.7460026 140.381712 29.7460026 140.384506 29.7588899 140.38803 29.7843904 140.487751 30.2356759 141.467263 34.5549752 142.600011 35.3582348 149.457142 40.2207933 149.457142 37.9202522 156.48496 41.1669031 159.776774 44.0650436 160.213881 42.3687943 162.852809 53.1889677 164.074439 72.0416076 161.901074 69.6355452 162.852809 83.2334121 167.199539 101.717888 164.529365 104.109566 167.199539 115.292671 169.106152 120.685264 169.106152 117.014256 171.444141 121.818125 172.857452 124.722057 174.432111 128.088475 174.770539 130.708274 174.953151 132.121887 173.903669 132.286658 173.111595 131.431678 171.883495 130.106043 170.661792 126.347045 170.661792 126.347045 171.787263 128.766478 171.787263 134.602679 172.324834 139.339322 172.324834 140.696296 170.661792 140.213712 170.661792 139.339322 169.473342 136.480735 169.003794 130.708274 168.441461 130.708274 167.900563 130.708274 169.306725 137.649563 169.003794 140.213712 169.003794 142.122977 168.157821 142.122977 167.199539 141.220489 166.46849 137.630648 166.46849 130.708274 166.089373 130.708274 165.605685 130.708274 166.46849 137.630648 166.089373 140.213712 165.847212 141.220489 165.087797 141.220489 164.694259 140.213712 163.658611 137.172127 163.73396 131.378042 163.130508 130.708274 162.852809 130.708274 163.219199 135.855375 162.852809 137.489362 162.327198 138.807565 161.39188 138.545469 161.17968 136.885894 160.764445 134.543896 160.624598 132.707329 160.624598 128.776359 158.245401 118.735225 160.902927 120.685264 160.213881 116.807407 157.373774 101.745068 156.781939 105.185035 153.980941 90.5550827 153.612683 88.0192277 153.980941 88.0192277 153.980941 85.4833727 152.803636 71.0137116 153.980941 58.7107959 153.980941 58.7107959 153.442721 60.4417793 153.612683 77.4584712 152.073297 91.6185973 153.478183 99.7547675 155.006147 104.680851 156.062096 120.813239 156.599504 143.429315 156.062096 152.147518 152.073297 177.364224 151.541832 188.512582 152.467233 187.142312 152.073297 198.493932 151.513411 214.627576 148.878742 235.313343 148.744243 238.31725 149.150838 239.246763 150.100867 239.933176 150.100867 243.525611 150.100867 244.878536 151.346257 244.664646 153.257368 245.787549 153.863565 246.14373 155.265808 247.166553 156.062096 248.288731 156.332341 248.669576 156.342885 249.33373 156.48496 249.620489 156.994169 250.648252 154.616678 251.104501 153.257368 251.900079 150.100867 253.747518 147.900394 255.164697 146.859574 255.526556 145.818755 255.888416 142.504668 255.39669 141.417494 253.265248 140.37968 250.435303 141.417494 249.82695 141.417494 246.520725 141.417494 243.2145 141.417494 242.850513 141.417494 239.933176 141.417494 236.541608 141.490307 231.889046 140.934909 227.168794 139.45013 214.079433 139.907428 222.432151 136.918519 201.108905 136.362175 194.404072 138.735299 188.932281 138.410717 182.546807 136.516197 164.765606 135.416764 158.293302 134.609179 143.722239 134.054094 143.799503 133.462047 143.668688 132.83089 143.311584 130.266667 165.970762 130.831521 159.545073 128.380772 182.546807 128.056191 188.932281 130.429314 194.404072 129.872971 201.108905 126.884061 222.432151 127.34136 214.079433 125.85658 227.168794 125.301182 231.889046 125.373995 236.541608 125.373995 239.933176 125.373995 242.850513 125.373995 243.2145 125.373995 246.520725 125.373995 249.82695 126.411809 250.435303 125.373995 253.265248 124.286821 255.39669 120.972734 255.888416 119.931915 255.526556 118.891095 255.164697 116.690623 253.747518 113.534121 251.900079 112.174811 251.104501 109.797321 250.648252 110.306529 249.620489 110.448605 249.33373 110.459149 248.669576 110.729393 248.288731 111.525682 247.166553 112.927924 246.14373 113.534121 245.787549 115.445232 244.664646 116.690623 244.878536 116.690623 243.525611 116.690623 239.933176 117.640651 239.246763 118.047246 238.31725 117.912747 235.313343 115.278078 214.627576 114.718192 198.493932 114.324256 187.142312 115.249658 188.512582 114.718192 177.364224 110.729393 152.147518 110.191985 143.429315 110.729393 120.813239 111.785343 104.680851 113.313306 99.7547675 114.718192 91.6185973 113.178807 77.4584712 113.348768 60.4417793 112.810548 58.7107959 112.810548 58.7107959 113.987853 71.0137116 112.810548 85.4833727 112.810548 88.0192277 113.178807 88.0192277 112.810548 90.5550827 110.00955 105.185035 109.417715 101.745068 106.577609 116.807407 105.888562 120.685264 108.546088 118.735225 106.166892 128.776359 106.166892 132.707329 106.027045 134.543896 105.611809 136.885894 105.399609 138.545469 104.464291 138.807565 103.938681 137.489362 103.57229 135.855375 103.938681 130.708274 103.660982 130.708274 103.057529 131.378042 103.132878 137.172127 102.097231 140.213712 101.703692 141.220489 100.944277 141.220489 100.702116 140.213712 100.323 137.630648 101.185804 130.708274 100.702116 130.708274 100.323 130.708274 100.323 137.630648 99.5919508 141.220489 98.6336681 142.122977 97.7876955 142.122977 97.7876955 140.213712 97.4847646 137.649563 98.8909264 130.708274 98.3500281 130.708274 97.7876955 130.708274 97.3181478 136.480735 96.1296971 139.339322 96.1296971 140.213712 94.4666553 140.696296 94.4666553 139.339322 95.0042266 134.602679 95.0042266 128.766478 96.1296971 126.347045 96.1296971 126.347045 94.9079941 130.106043 93.6798941 131.431678 92.8878207 132.286658 91.8383381 132.121887 92.02095 130.708274 92.3593783 128.088475 93.9340375 124.722057 95.3473488 121.818125 97.6853377 117.014256 97.6853377 120.685264 99.5919508 115.292671 102.262124 104.109566 99.5919508 101.717888 103.938681 83.2334121 104.890415 69.6355452 102.71705 72.0416076 103.938681 53.1889677 106.577609 42.3687943 107.014715 44.0650436 110.306529 41.1669031 117.334347 37.9202522 117.334347 40.2207933 124.191478 35.3582348 125.386987 34.5104702 126.411809 29.7460026 126.411809 29.7460026 126.691841 29.8035795 126.991152 29.8526008 127.306536 29.8940199 125.838169 28.2054633 124.699528 25.9302533 123.901599 23.3793129zM49.1054251 22.5475878C49.0960545 22.553801 49.0867137 22.5598757 49.0774039 22.5658105 49.471871 21.0692581 49.7630507 19.5453071 49.9347969 18.0437198 49.9472423 18.0325012 49.9596626 18.0214841 49.972055 18.0106712 50.0438933 17.4882446 50.1119521 16.9426827 50.1762316 16.3739854 50.2095133 16.3498253 50.2413822 16.3168252 50.2749023 16.3039474 51.7997821 15.7181146 52.7980216 16.6259786 51.5916497 20.0570201 50.3658322 23.5433666 48.8569225 23.5433666 48.8569225 23.5534279 48.8569225 23.5933123 48.8260212 23.5470588 48.810736 23.5433666 48.9125211 23.2332046 49.0107508 22.9012783 49.1054251 22.5475878zM28.5930312 17.7871656C28.446319 16.5142684 28.3724377 15.2287318 28.3724377 13.9602837 28.3724377 4.91343298 29.8466694-9.59232693e-14 39.2660547-9.59232693e-14 48.6854401-9.59232693e-14 50.1596718 4.91343298 50.1596718 13.9602837 50.1596718 20.4847885 48.2049535 27.4614102 44.4384639 30.8445241 44.8939073 30.8007585 45.2211813 32.18871 45.4321062 34.7419539 45.7632718 35.5837644 46.1463551 36.312898 46.5487786 36.5982664 53.4059094 41.4608249 53.4059094 39.1602837 60.4337273 42.4069346 63.7255411 45.3050751 64.1626478 43.6088258 66.801576 54.4289992 68.0232062 73.2816391 65.8498413 70.8755767 66.801576 84.4734437 71.1483058 102.95792 68.4781323 105.349598 71.1483058 116.532703 73.0549189 121.925296 73.0549189 118.254287 75.3929078 123.058156 76.8062191 125.962089 78.3808783 129.328507 78.7193065 131.948306 78.9019185 133.361919 77.8524358 133.526689 77.0603625 132.67171 75.8322625 131.346075 74.6105595 127.587076 74.6105595 127.587076 74.6105595 127.587076 75.7360299 135.842711 76.2736013 140.579354 76.2736013 141.936328 74.6105595 141.453743 74.6105595 140.579354 73.4221088 137.720767 72.9525611 131.948306 72.3902285 131.948306 71.8493302 131.948306 73.2554919 138.889595 72.9525611 141.453743 72.9525611 143.363009 72.1065885 143.363009 71.1483058 142.46052 70.4172569 138.870679 70.4172569 131.948306 70.0381403 131.948306 69.5544523 131.948306 70.4172569 138.870679 70.0381403 141.453743 69.7959796 142.46052 69.0365642 142.46052 68.643026 141.453743 67.6073783 138.412158 67.6827273 132.618074 67.079275 131.948306 66.801576 131.948306 67.1679667 137.095407 66.801576 138.729393 66.2759653 140.047597 65.3406474 139.7855 65.1284476 138.125926 64.7132118 135.783927 64.5733649 133.94736 64.5733649 130.016391 62.1941686 119.975256 64.8516942 121.925296 64.1626478 118.047439 61.3225412 102.985099 60.7307064 106.425067 57.9297084 91.7951143 57.5614498 89.2592593 57.9297084 89.2592593 57.9297084 86.7234043 56.7524035 72.2537431 57.9297084 59.9508274 57.9297084 59.9508274 57.3914886 61.6818109 57.5614498 78.6985028 56.0220646 92.8586288 57.4269504 100.994799 60.4337273 105.792908 61.4896769 121.925296 62.0270851 144.541372 60.4337273 147.886525 57.9297084 173.139165 57.3982426 184.287523 58.8415321 189.134117 58.4475965 200.485737 57.8877102 216.619381 56.7524035 214.002522 56.7524035 228.109693 56.7524035 234.147866 57.33907 234.429032 57.2045705 237.432939 60.2113475 244.306698 61.114736 244.025532 64.1626478 250.201418 64.4133595 250.85083 64.4057157 251.436879 63.5665091 251.674547 63.1089835 251.849488 61.6046493 249.298976 61.4896769 249.298976 61.4896769 249.642283 63.7950355 251.867612 63.4624113 252.681954 63.3375887 253.556186 62.3453901 253.914815 61.8311269 252.899764 60.4337273 250.900236 59.5672183 250.201418 59.5672183 250.201418 59.5672183 250.201418 61.87337 252.490268 62.1361702 253.67502 62.3066246 254.443459 61.3000451 254.817685 60.4337273 254.107801 59.0875436 251.74342 57.5614498 249.940889 57.5614498 250.061072 57.5614498 250.182024 60.2947135 252.967971 60.4337273 254.410055 60.5460925 255.575694 57.9297084 255.575694 57.5614498 254.410055 56.7917572 252.305737 56.2716569 250.145883 56.0220646 250.201418 56.0220646 250.201418 58.7590229 255.416864 56.0220646 255.416864 54.0209614 255.614657 53.243925 253.735085 52.3322301 250.900236 51.788829 249.21057 51.788829 247.043972 50.7016548 244.91253 49.8956659 243.386288 48.483666 242.954383 48.092041 240.708274 47.8300451 239.205635 48.6474389 237.231915 48.6474389 234.314578 48.6474389 230.923011 48.6474389 226.543735 48.092041 221.823483 45.8046702 209.333333 46.3878065 216.742002 43.3988968 195.418755 42.8425532 188.713922 44.6530291 188.713922 44.3284476 182.328448 42.4326326 164.535096 40.5415331 158.693116 39.7823166 143.669788 39.7697249 143.792052 39.7571191 143.914209 39.7444992 144.036257 38.1519506 159.437914 36.3347481 173.112444 34.411809 182.379511 34.0872274 188.764986 35.8977034 188.764986 35.3413598 195.469819 32.3524501 216.793065 32.9355864 209.384397 30.6482156 221.874547 30.0928177 226.594799 30.0928177 230.974075 30.0928177 234.365642 30.0928177 237.282979 30.9102115 239.256698 30.6482156 240.759338 30.2565905 243.005447 28.8445907 243.437352 28.0386017 244.963593 26.9514276 247.095035 26.9514276 249.261634 26.4080265 250.9513 25.4963315 253.786149 24.7192952 255.665721 22.718192 255.467928 19.9812337 255.467928 22.718192 250.252482 22.718192 250.252482 22.4685997 250.196947 21.9484994 252.3568 21.1788068 254.461119 20.8105482 255.626758 18.194164 255.626758 18.3065292 254.461119 18.4455431 253.019035 21.1788068 250.233088 21.1788068 250.112136 21.1788068 249.991953 19.652713 251.794484 18.3065292 254.158865 17.4402115 254.868749 16.433632 254.494523 16.6040864 253.726084 16.8668866 252.541332 19.1730383 250.252482 19.1730383 250.252482 19.1730383 250.252482 18.3065292 250.9513 16.9091297 252.950827 16.3948665 253.965879 15.4026679 253.60725 15.2778452 252.733018 14.9452211 251.918676 17.2505797 249.693347 17.2505797 249.350039 17.1356073 249.350039 15.6312731 251.900552 15.1737475 251.725611 14.3345409 251.487943 14.3268971 250.901894 14.5776088 250.252482 17.6255206 244.076596 18.5289091 244.357762 21.5356861 237.484003 21.4011866 234.480096 21.9878531 234.19893 21.9878531 228.160757 21.9878531 214.053586 20.8525464 216.670444 20.29266 200.536801 19.8987244 189.18518 21.3420139 184.338587 20.8105482 173.190229 18.3065292 147.937589 16.7131715 144.592436 17.2505797 121.976359 18.3065292 105.843972 21.3133062 101.045863 22.718192 92.9096927 21.1788068 78.7495666 21.348768 61.7328747 20.8105482 60.0018913 20.8105482 60.0018913 21.9878531 72.3048069 20.8105482 86.7744681 20.8105482 89.3103231 21.1788068 89.3103231 20.8105482 91.8461781 18.0095501 106.47613 17.4177154 103.036163 14.5776088 118.098503 13.8885623 121.976359 16.5460879 120.02632 14.1668917 130.067455 14.1668917 133.998424 14.0270448 135.834991 13.611809 138.17699 13.3996091 139.836564 12.4642913 140.09866 11.9386805 138.780457 11.5722899 137.146471 11.9386805 131.99937 11.6609816 131.99937 11.0575293 132.669138 11.1328783 138.463222 10.0972306 141.504807 9.70369236 142.511584 8.94427699 142.511584 8.70211631 141.504807 8.32299973 138.921743 9.18580426 131.99937 8.70211631 131.99937 8.32299973 131.99937 8.32299973 138.921743 7.59195083 142.511584 6.63366807 143.414073 5.78769551 143.414073 5.78769551 141.504807 5.48476464 138.940659 6.8909264 131.99937 6.35002806 131.99937 5.78769551 131.99937 5.31814779 137.77183 4.12969709 140.630418 4.12969709 141.504807 2.46665532 141.987392 2.46665532 140.630418 3.00422665 135.893775 4.12969709 130.067455 4.12969709 127.63814 4.12969709 127.63814 2.90799411 131.397139 1.67989409 132.722774.887820743 133.577753-.1616619 133.412983.0209500418 131.99937.359378289 129.379571 1.93403749 126.013152 3.34734878 123.10922 5.68533772 118.305351 5.68533772 121.976359 7.59195083 116.583767 10.2621243 105.400661 7.59195083 103.008983 11.9386805 84.5245075 12.8904153 70.9266405 10.7170504 73.3327029 11.9386805 54.480063 14.5776088 43.6598897 15.0147154 45.3561389 18.3065292 42.4579984 25.3343472 39.2113475 25.3343472 41.5118887 32.191478 36.6493302 33.3024734 35.8614963 34.2660613 31.6913693 34.3967463 31.1057122 32.3086796 29.3811866 30.7490297 26.5750737 29.740383 23.3266054 29.7250171 23.3392912 29.706847 23.3593566 29.706847 23.3287727 29.706847 23.3187115 28.1979373 23.3187115 26.9721198 19.8323649 25.7657479 16.4013234 26.7639874 15.4934594 28.2888672 16.0792922 28.3223873 16.09217 28.3542561 16.1251701 28.3875379 16.1493302 28.4518173 16.7180275 28.5198762 17.2635895 28.5917145 17.786016 28.5921534 17.7863989 28.5925923 17.7867821 28.5930312 17.7871656z"/>
</svg>
