<svg xmlns="http://www.w3.org/2000/svg" width="303" height="309" viewBox="0 0 303 309">
  <g fill="#FFF" fill-rule="evenodd" transform="translate(-52 -52)">
    <path fill-rule="nonzero" d="M361,181 C380.882251,181 397,197.117749 397,217 C397,236.882251 380.882251,253 361,253 L283.782184,253 C268.292298,305.046801 220.078371,343 163,343 C93.4121215,343 37,286.587878 37,217 C37,147.412122 93.4121215,91 163,91 C220.078371,91 268.292298,128.953199 283.782184,181 L361,181 Z M163.613438,327.267767 C223.260191,327.267767 271.613438,278.690662 271.613438,218.767767 C271.613438,158.844872 223.260191,110.267767 163.613438,110.267767 C103.966685,110.267767 55.613438,158.844872 55.613438,218.767767 C55.613438,278.690662 103.966685,327.267767 163.613438,327.267767 Z M289.379726,200.414214 L289.379726,236.414214 L361.379726,236.414214 C371.320851,236.414214 379.379726,228.355339 379.379726,218.414214 C379.379726,208.473088 371.320851,200.414214 361.379726,200.414214 L289.379726,200.414214 Z" transform="rotate(45 217 217)"/>
    <path d="M215.901599 128.379313C215.902025 128.380202 215.902452 128.381091 215.902878 128.38198 215.89098 128.385672 215.866926 128.431925 215.866926 128.392041 215.866926 128.38198 214.692367 128.38198 213.738171 124.895633 212.799112 121.464592 213.279965 120.56988 214.466955 121.155713 214.493036 121.168585 214.94676 126.385729 215.901599 128.379313 214.98425 125.44659 214.517228 122.149427 214.517228 118.960284 214.517228 109.913433 215.99146 105 225.410845 105 234.83023 105 236.304462 109.913433 236.304462 118.960284 236.304462 121.994842 235.881618 125.127202 235.050312 127.950331 235.882036 125.727179 236.280082 121.167746 236.304462 121.155713 237.491452 120.56988 237.972305 121.464592 237.033246 124.895633 236.136302 128.1728 235.044645 128.369429 234.916876 128.389583 234.140262 130.868818 233.041648 133.08706 231.631128 134.758627 231.903728 134.75056 232.15442 134.746003 232.37968 134.746003 232.381712 134.746003 232.384506 134.75889 232.38803 134.78439 232.487751 135.235676 233.467263 139.554975 234.600011 140.358235 241.457142 145.220793 241.457142 142.920252 248.48496 146.166903 251.776774 149.065044 252.213881 147.368794 254.852809 158.188968 256.074439 177.041608 253.901074 174.635545 254.852809 188.233412 259.199539 206.717888 256.529365 209.109566 259.199539 220.292671 261.106152 225.685264 261.106152 222.014256 263.444141 226.818125 264.857452 229.722057 266.432111 233.088475 266.770539 235.708274 266.953151 237.121887 265.903669 237.286658 265.111595 236.431678 263.883495 235.106043 262.661792 231.347045 262.661792 231.347045 263.787263 233.766478 263.787263 239.602679 264.324834 244.339322 264.324834 245.696296 262.661792 245.213712 262.661792 244.339322 261.473342 241.480735 261.003794 235.708274 260.441461 235.708274 259.900563 235.708274 261.306725 242.649563 261.003794 245.213712 261.003794 247.122977 260.157821 247.122977 259.199539 246.220489 258.46849 242.630648 258.46849 235.708274 258.089373 235.708274 257.605685 235.708274 258.46849 242.630648 258.089373 245.213712 257.847212 246.220489 257.087797 246.220489 256.694259 245.213712 255.658611 242.172127 255.73396 236.378042 255.130508 235.708274 254.852809 235.708274 255.219199 240.855375 254.852809 242.489362 254.327198 243.807565 253.39188 243.545469 253.17968 241.885894 252.764445 239.543896 252.624598 237.707329 252.624598 233.776359 250.245401 223.735225 252.902927 225.685264 252.213881 221.807407 249.373774 206.745068 248.781939 210.185035 245.980941 195.555083 245.612683 193.019228 245.980941 193.019228 245.980941 190.483373 244.803636 176.013712 245.980941 163.710796 245.980941 163.710796 245.442721 165.441779 245.612683 182.458471 244.073297 196.618597 245.478183 204.754768 247.006147 209.680851 248.062096 225.813239 248.599504 248.429315 248.062096 257.147518 244.073297 282.364224 243.541832 293.512582 244.467233 292.142312 244.073297 303.493932 243.513411 319.627576 240.878742 340.313343 240.744243 343.31725 241.150838 344.246763 242.100867 344.933176 242.100867 348.525611 242.100867 349.878536 243.346257 349.664646 245.257368 350.787549 245.863565 351.14373 247.265808 352.166553 248.062096 353.288731 248.332341 353.669576 248.342885 354.33373 248.48496 354.620489 248.994169 355.648252 246.616678 356.104501 245.257368 356.900079 242.100867 358.747518 239.900394 360.164697 238.859574 360.526556 237.818755 360.888416 234.504668 360.39669 233.417494 358.265248 232.37968 355.435303 233.417494 354.82695 233.417494 351.520725 233.417494 348.2145 233.417494 347.850513 233.417494 344.933176 233.417494 341.541608 233.490307 336.889046 232.934909 332.168794 231.45013 319.079433 231.907428 327.432151 228.918519 306.108905 228.362175 299.404072 230.735299 293.932281 230.410717 287.546807 228.516197 269.765606 227.416764 263.293302 226.609179 248.722239 226.054094 248.799503 225.462047 248.668688 224.83089 248.311584 222.266667 270.970762 222.831521 264.545073 220.380772 287.546807 220.056191 293.932281 222.429314 299.404072 221.872971 306.108905 218.884061 327.432151 219.34136 319.079433 217.85658 332.168794 217.301182 336.889046 217.373995 341.541608 217.373995 344.933176 217.373995 347.850513 217.373995 348.2145 217.373995 351.520725 217.373995 354.82695 218.411809 355.435303 217.373995 358.265248 216.286821 360.39669 212.972734 360.888416 211.931915 360.526556 210.891095 360.164697 208.690623 358.747518 205.534121 356.900079 204.174811 356.104501 201.797321 355.648252 202.306529 354.620489 202.448605 354.33373 202.459149 353.669576 202.729393 353.288731 203.525682 352.166553 204.927924 351.14373 205.534121 350.787549 207.445232 349.664646 208.690623 349.878536 208.690623 348.525611 208.690623 344.933176 209.640651 344.246763 210.047246 343.31725 209.912747 340.313343 207.278078 319.627576 206.718192 303.493932 206.324256 292.142312 207.249658 293.512582 206.718192 282.364224 202.729393 257.147518 202.191985 248.429315 202.729393 225.813239 203.785343 209.680851 205.313306 204.754768 206.718192 196.618597 205.178807 182.458471 205.348768 165.441779 204.810548 163.710796 204.810548 163.710796 205.987853 176.013712 204.810548 190.483373 204.810548 193.019228 205.178807 193.019228 204.810548 195.555083 202.00955 210.185035 201.417715 206.745068 198.577609 221.807407 197.888562 225.685264 200.546088 223.735225 198.166892 233.776359 198.166892 237.707329 198.027045 239.543896 197.611809 241.885894 197.399609 243.545469 196.464291 243.807565 195.938681 242.489362 195.57229 240.855375 195.938681 235.708274 195.660982 235.708274 195.057529 236.378042 195.132878 242.172127 194.097231 245.213712 193.703692 246.220489 192.944277 246.220489 192.702116 245.213712 192.323 242.630648 193.185804 235.708274 192.702116 235.708274 192.323 235.708274 192.323 242.630648 191.591951 246.220489 190.633668 247.122977 189.787696 247.122977 189.787696 245.213712 189.484765 242.649563 190.890926 235.708274 190.350028 235.708274 189.787696 235.708274 189.318148 241.480735 188.129697 244.339322 188.129697 245.213712 186.466655 245.696296 186.466655 244.339322 187.004227 239.602679 187.004227 233.766478 188.129697 231.347045 188.129697 231.347045 186.907994 235.106043 185.679894 236.431678 184.887821 237.286658 183.838338 237.121887 184.02095 235.708274 184.359378 233.088475 185.934037 229.722057 187.347349 226.818125 189.685338 222.014256 189.685338 225.685264 191.591951 220.292671 194.262124 209.109566 191.591951 206.717888 195.938681 188.233412 196.890415 174.635545 194.71705 177.041608 195.938681 158.188968 198.577609 147.368794 199.014715 149.065044 202.306529 146.166903 209.334347 142.920252 209.334347 145.220793 216.191478 140.358235 217.386987 139.51047 218.411809 134.746003 218.411809 134.746003 218.691841 134.803579 218.991152 134.852601 219.306536 134.89402 217.838169 133.205463 216.699528 130.930253 215.901599 128.379313zM145.105425 127.547588C145.096055 127.553801 145.086714 127.559876 145.077404 127.565811 145.471871 126.069258 145.763051 124.545307 145.934797 123.04372 145.947242 123.032501 145.959663 123.021484 145.972055 123.010671 146.043893 122.488245 146.111952 121.942683 146.176232 121.373985 146.209513 121.349825 146.241382 121.316825 146.274902 121.303947 147.799782 120.718115 148.798022 121.625979 147.59165 125.05702 146.365832 128.543367 144.856922 128.543367 144.856922 128.553428 144.856922 128.593312 144.826021 128.547059 144.810736 128.543367 144.912521 128.233205 145.010751 127.901278 145.105425 127.547588zM124.593031 122.787166C124.446319 121.514268 124.372438 120.228732 124.372438 118.960284 124.372438 109.913433 125.846669 105 135.266055 105 144.68544 105 146.159672 109.913433 146.159672 118.960284 146.159672 125.484789 144.204953 132.46141 140.438464 135.844524 140.893907 135.800758 141.221181 137.18871 141.432106 139.741954 141.763272 140.583764 142.146355 141.312898 142.548779 141.598266 149.405909 146.460825 149.405909 144.160284 156.433727 147.406935 159.725541 150.305075 160.162648 148.608826 162.801576 159.428999 164.023206 178.281639 161.849841 175.875577 162.801576 189.473444 167.148306 207.95792 164.478132 210.349598 167.148306 221.532703 169.054919 226.925296 169.054919 223.254287 171.392908 228.058156 172.806219 230.962089 174.380878 234.328507 174.719307 236.948306 174.901918 238.361919 173.852436 238.526689 173.060362 237.67171 171.832262 236.346075 170.610559 232.587076 170.610559 232.587076 170.610559 232.587076 171.73603 240.842711 172.273601 245.579354 172.273601 246.936328 170.610559 246.453743 170.610559 245.579354 169.422109 242.720767 168.952561 236.948306 168.390229 236.948306 167.84933 236.948306 169.255492 243.889595 168.952561 246.453743 168.952561 248.363009 168.106589 248.363009 167.148306 247.46052 166.417257 243.870679 166.417257 236.948306 166.03814 236.948306 165.554452 236.948306 166.417257 243.870679 166.03814 246.453743 165.79598 247.46052 165.036564 247.46052 164.643026 246.453743 163.607378 243.412158 163.682727 237.618074 163.079275 236.948306 162.801576 236.948306 163.167967 242.095407 162.801576 243.729393 162.275965 245.047597 161.340647 244.7855 161.128448 243.125926 160.713212 240.783927 160.573365 238.94736 160.573365 235.016391 158.194169 224.975256 160.851694 226.925296 160.162648 223.047439 157.322541 207.985099 156.730706 211.425067 153.929708 196.795114 153.56145 194.259259 153.929708 194.259259 153.929708 191.723404 152.752403 177.253743 153.929708 164.950827 153.929708 164.950827 153.391489 166.681811 153.56145 183.698503 152.022065 197.858629 153.42695 205.994799 156.433727 210.792908 157.489677 226.925296 158.027085 249.541372 156.433727 252.886525 153.929708 278.139165 153.398243 289.287523 154.841532 294.134117 154.447597 305.485737 153.88771 321.619381 152.752403 319.002522 152.752403 333.109693 152.752403 339.147866 153.33907 339.429032 153.204571 342.432939 156.211348 349.306698 157.114736 349.025532 160.162648 355.201418 160.413359 355.85083 160.405716 356.436879 159.566509 356.674547 159.108983 356.849488 157.604649 354.298976 157.489677 354.298976 157.489677 354.642283 159.795035 356.867612 159.462411 357.681954 159.337589 358.556186 158.34539 358.914815 157.831127 357.899764 156.433727 355.900236 155.567218 355.201418 155.567218 355.201418 155.567218 355.201418 157.87337 357.490268 158.13617 358.67502 158.306625 359.443459 157.300045 359.817685 156.433727 359.107801 155.087544 356.74342 153.56145 354.940889 153.56145 355.061072 153.56145 355.182024 156.294713 357.967971 156.433727 359.410055 156.546093 360.575694 153.929708 360.575694 153.56145 359.410055 152.791757 357.305737 152.271657 355.145883 152.022065 355.201418 152.022065 355.201418 154.759023 360.416864 152.022065 360.416864 150.020961 360.614657 149.243925 358.735085 148.33223 355.900236 147.788829 354.21057 147.788829 352.043972 146.701655 349.91253 145.895666 348.386288 144.483666 347.954383 144.092041 345.708274 143.830045 344.205635 144.647439 342.231915 144.647439 339.314578 144.647439 335.923011 144.647439 331.543735 144.092041 326.823483 141.80467 314.333333 142.387807 321.742002 139.398897 300.418755 138.842553 293.713922 140.653029 293.713922 140.328448 287.328448 138.432633 269.535096 136.541533 263.693116 135.782317 248.669788 135.769725 248.792052 135.757119 248.914209 135.744499 249.036257 134.151951 264.437914 132.334748 278.112444 130.411809 287.379511 130.087227 293.764986 131.897703 293.764986 131.34136 300.469819 128.35245 321.793065 128.935586 314.384397 126.648216 326.874547 126.092818 331.594799 126.092818 335.974075 126.092818 339.365642 126.092818 342.282979 126.910212 344.256698 126.648216 345.759338 126.256591 348.005447 124.844591 348.437352 124.038602 349.963593 122.951428 352.095035 122.951428 354.261634 122.408026 355.9513 121.496332 358.786149 120.719295 360.665721 118.718192 360.467928 115.981234 360.467928 118.718192 355.252482 118.718192 355.252482 118.4686 355.196947 117.948499 357.3568 117.178807 359.461119 116.810548 360.626758 114.194164 360.626758 114.306529 359.461119 114.445543 358.019035 117.178807 355.233088 117.178807 355.112136 117.178807 354.991953 115.652713 356.794484 114.306529 359.158865 113.440211 359.868749 112.433632 359.494523 112.604086 358.726084 112.866887 357.541332 115.173038 355.252482 115.173038 355.252482 115.173038 355.252482 114.306529 355.9513 112.90913 357.950827 112.394867 358.965879 111.402668 358.60725 111.277845 357.733018 110.945221 356.918676 113.25058 354.693347 113.25058 354.350039 113.135607 354.350039 111.631273 356.900552 111.173748 356.725611 110.334541 356.487943 110.326897 355.901894 110.577609 355.252482 113.625521 349.076596 114.528909 349.357762 117.535686 342.484003 117.401187 339.480096 117.987853 339.19893 117.987853 333.160757 117.987853 319.053586 116.852546 321.670444 116.29266 305.536801 115.898724 294.18518 117.342014 289.338587 116.810548 278.190229 114.306529 252.937589 112.713171 249.592436 113.25058 226.976359 114.306529 210.843972 117.313306 206.045863 118.718192 197.909693 117.178807 183.749567 117.348768 166.732875 116.810548 165.001891 116.810548 165.001891 117.987853 177.304807 116.810548 191.774468 116.810548 194.310323 117.178807 194.310323 116.810548 196.846178 114.00955 211.47613 113.417715 208.036163 110.577609 223.098503 109.888562 226.976359 112.546088 225.02632 110.166892 235.067455 110.166892 238.998424 110.027045 240.834991 109.611809 243.17699 109.399609 244.836564 108.464291 245.09866 107.938681 243.780457 107.57229 242.146471 107.938681 236.99937 107.660982 236.99937 107.057529 237.669138 107.132878 243.463222 106.097231 246.504807 105.703692 247.511584 104.944277 247.511584 104.702116 246.504807 104.323 243.921743 105.185804 236.99937 104.702116 236.99937 104.323 236.99937 104.323 243.921743 103.591951 247.511584 102.633668 248.414073 101.787696 248.414073 101.787696 246.504807 101.484765 243.940659 102.890926 236.99937 102.350028 236.99937 101.787696 236.99937 101.318148 242.77183 100.129697 245.630418 100.129697 246.504807 98.4666553 246.987392 98.4666553 245.630418 99.0042266 240.893775 100.129697 235.067455 100.129697 232.63814 100.129697 232.63814 98.9079941 236.397139 97.6798941 237.722774 96.8878207 238.577753 95.8383381 238.412983 96.02095 236.99937 96.3593783 234.379571 97.9340375 231.013152 99.3473488 228.10922 101.685338 223.305351 101.685338 226.976359 103.591951 221.583767 106.262124 210.400661 103.591951 208.008983 107.938681 189.524507 108.890415 175.926641 106.71705 178.332703 107.938681 159.480063 110.577609 148.65989 111.014715 150.356139 114.306529 147.457998 121.334347 144.211348 121.334347 146.511889 128.191478 141.64933 129.302473 140.861496 130.266061 136.691369 130.396746 136.105712 128.30868 134.381187 126.74903 131.575074 125.740383 128.326605 125.725017 128.339291 125.706847 128.359357 125.706847 128.328773 125.706847 128.318711 124.197937 128.318711 122.97212 124.832365 121.765748 121.401323 122.763987 120.493459 124.288867 121.079292 124.322387 121.09217 124.354256 121.12517 124.387538 121.14933 124.451817 121.718028 124.519876 122.263589 124.591714 122.786016 124.592153 122.786399 124.592592 122.786782 124.593031 122.787166z"/>
  </g>
</svg>
