<svg xmlns="http://www.w3.org/2000/svg" width="24" height="24" viewBox="0 0 24 24">
  <g fill="none" fill-rule="evenodd">
    <path fill="#979797" fill-rule="nonzero" d="M17,0 C17.5522847,0 18,0.44771525 18,1 L18,21 C18,21.5522847 17.5522847,22 17,22 L1,22 C0.44771525,22 0,21.5522847 0,21 L0,1 C0,0.44771525 0.44771525,0 1,0 L17,0 Z M1,1 L1,21 L17,21 L17,1 L1,1 Z"/>
    <path fill="#979797" fill-rule="nonzero" d="M16.9428711 5.5L22 5.5C22.2761424 5.5 22.5 5.72385763 22.5 6L22.5 22C22.5 22.2761424 22.2761424 22.5 22 22.5L9 22.5C8.72385763 22.5 8.5 22.2761424 8.5 22L8.5 20.9824219 7.5 20.9824219 7.5 22C7.5 22.8284271 8.17157288 23.5 9 23.5L22 23.5C22.8284271 23.5 23.5 22.8284271 23.5 22L23.5 6C23.5 5.17157288 22.8284271 4.5 22 4.5L16.9428711 4.5 16.9428711 5.5zM4 13L10 13C10.2761424 13 10.5 12.7761424 10.5 12.5 10.5 12.2238576 10.2761424 12 10 12L4 12C3.72385763 12 3.5 12.2238576 3.5 12.5 3.5 12.7761424 3.72385763 13 4 13z"/>
    <path fill="#979797" fill-rule="nonzero" d="M4 17.5L15 17.5C15.2761424 17.5 15.5 17.2761424 15.5 17 15.5 16.7238576 15.2761424 16.5 15 16.5L4 16.5C3.72385763 16.5 3.5 16.7238576 3.5 17 3.5 17.2761424 3.72385763 17.5 4 17.5zM4 7L9 7C9.27614237 7 9.5 6.77614237 9.5 6.5 9.5 6.22385763 9.27614237 6 9 6L4 6C3.72385763 6 3.5 6.22385763 3.5 6.5 3.5 6.77614237 3.72385763 7 4 7z"/>
    <path fill="#979797" fill-rule="nonzero" d="M4,7 L9,7 C9.27614237,7 9.5,6.77614237 9.5,6.5 C9.5,6.22385763 9.27614237,6 9,6 L4,6 C3.72385763,6 3.5,6.22385763 3.5,6.5 C3.5,6.77614237 3.72385763,7 4,7 Z" transform="rotate(90 6.5 6.5)"/>
  </g>
</svg>
