<svg xmlns="http://www.w3.org/2000/svg" width="20" height="20" viewBox="0 0 20 20">
  <path fill="#FFF" d="M23.7130435,30.6387105 L15.4628335,38.8889205 C15.2072176,39.1445364 14.7927824,39.1445364 14.5371665,38.8889205 C14.2815506,38.6333046 14.2815506,38.2188693 14.5371665,37.9632534 L22.7873764,29.7130435 L14.5371665,21.4628335 C14.2815506,21.2072176 14.2815506,20.7927824 14.5371665,20.5371665 C14.7927824,20.2815506 15.2072176,20.2815506 15.4628335,20.5371665 L23.7130435,28.7873764 L31.9632534,20.5371665 C32.2188693,20.2815506 32.6333046,20.2815506 32.8889205,20.5371665 C33.1445364,20.7927824 33.1445364,21.2072176 32.8889205,21.4628335 L24.6387105,29.7130435 L32.8889205,37.9632534 C33.1445364,38.2188693 33.1445364,38.6333046 32.8889205,38.8889205 C32.6333046,39.1445364 32.2188693,39.1445364 31.9632534,38.8889205 L23.7130435,30.6387105 Z" transform="translate(-14 -20)"/>
</svg>
