<svg xmlns="http://www.w3.org/2000/svg" width="24" height="26" viewBox="0 0 24 26">
  <path fill="#979797" d="M1409.6,1047.92017 C1407.83269,1047.92017 1406.4,1046.48748 1406.4,1044.72017 L1406.4,1033.6 C1406.4,1031.83269 1407.83269,1030.4 1409.6,1030.4 L1426.4,1030.4 C1428.16731,1030.4 1429.6,1031.83269 1429.6,1033.6 L1429.6,1044.72017 C1429.6,1046.48748 1428.16731,1047.92017 1426.4,1047.92017 L1420.76397,1047.92017 L1413.13748,1056.0409 L1413.13748,1047.92017 L1409.6,1047.92017 Z M1419.37928,1044.72017 L1426.4,1044.72017 L1426.4,1033.6 L1409.6,1033.6 L1409.6,1044.72017 L1416.33748,1044.72017 L1416.33748,1047.9591 L1419.37928,1044.72017 Z" transform="translate(-1406 -1030)"/>
</svg>
