<svg xmlns="http://www.w3.org/2000/svg" width="24" height="24" viewBox="0 0 24 24">
  <g fill="#979797">
    <path d="M13.3514476,21.5686932 C13.3514476,20.4052427 12.4537127,19.4532681 11.3187782,19.3789717 L11.1757238,19.3743041 C10.4614148,19.3743041 9.88235294,18.7902745 9.88235294,18.0698375 L9.88235294,14.114729 C9.88235294,13.2297077 10.3947199,12.4653827 11.1366038,12.1070308 C11.4247205,11.9678618 11.291845,11.0795673 10.9357316,11.224135 C9.8010015,11.6847897 9,12.8054149 9,14.114729 L9,18.0698375 C9,19.233288 9.89773492,20.1852626 11.0326694,20.259559 L11.1757238,20.2642266 C11.8900328,20.2642266 12.4690947,20.8482562 12.4690947,21.5686932 L12.4690947,24 L16.0414031,20.8208139 C16.4444206,20.4621473 16.9634096,20.2642266 17.5008905,20.2642266 L20.9117647,20.2642266 C22.61735,20.2642266 24,18.869715 24,17.1494976 L24,15.7125051 L23.1176471,15.7125051 L23.1176471,17.1494976 C23.1176471,18.3782243 22.1300399,19.3743041 20.9117647,19.3743041 L17.5008905,19.3743041 C16.7484173,19.3743041 16.0218326,19.6513929 15.4576081,20.1535262 L13.3514476,22.0279098 L13.3514476,21.5686932 Z" transform="matrix(-1 0 0 1 33 0)"/>
    <path d="M19.55,0 C21.4553824,0 23,1.51103897 23,3.375 L23,10.0538093 C23,11.9177704 21.4553824,13.4288093 19.55,13.4288093 L10.7895402,13.4288093 C10.0068645,13.4288093 9.24744885,13.6891528 8.63598403,14.1670931 L3.73225911,18 L3.73225911,15.2543708 C3.73225911,14.3021538 2.98701851,13.5202132 2.03598539,13.4362698 L1.86612956,13.4288093 C0.835494662,13.4288093 0,12.6114776 0,11.6032478 L0,3.375 C0,1.51103897 1.54461761,0 3.45,0 L19.55,0 Z M4.78634983,16 L7.86622084,13.5513402 C8.69332301,12.8937504 9.72055191,12.5355483 10.7792437,12.5355483 L19.6666667,12.5355483 C20.9553311,12.5355483 22,11.4960421 22,10.2137462 L22,3.32180217 C22,2.03950624 20.9553311,1 19.6666667,1 L3.33333333,1 C2.04466892,1 1,2.03950624 1,3.32180217 L1,11.8126304 C1,12.211887 1.32526882,12.5355483 1.72650825,12.5355483 C3.41641209,12.5355483 4.78634983,13.8987159 4.78634983,15.5802684 L4.78634983,16 Z"/>
  </g>
</svg>
