<?xml version="1.0" standalone="no"?><!DOCTYPE svg PUBLIC "-//W3C//DTD SVG 1.1//EN" "http://www.w3.org/Graphics/SVG/1.1/DTD/svg11.dtd"><svg class="icon" width="200px" height="200.00px" viewBox="0 0 1024 1024" version="1.1" xmlns="http://www.w3.org/2000/svg"><path d="M886.318545 961.722182H137.557333a83.347394 83.347394 0 0 1-83.347394-83.347394V130.234182a83.223273 83.223273 0 0 1 83.223273-83.254303h499.339636a27.927273 27.927273 0 1 1 0 55.854545H165.050182a55.32703 55.32703 0 0 0-55.389091 55.389091v692.906667a55.296 55.296 0 0 0 55.389091 55.420121h693.341091a55.32703 55.32703 0 0 0 55.389091-55.451151v-498.967273a27.927273 27.927273 0 1 1 55.854545 0v526.739394a82.91297 82.91297 0 0 1-83.316364 82.850909zM433.679515 594.695758a27.834182 27.834182 0 1 1-39.346424-39.377455L892.834909 54.644364a27.803152 27.803152 0 1 1 39.284364 39.346424L433.679515 594.695758z" fill="#000000" /><path d="M886.318545 969.386667H137.557333A91.10497 91.10497 0 0 1 46.545455 878.374788V130.234182a91.011879 91.011879 0 0 1 90.918787-90.918788H636.741818a35.591758 35.591758 0 1 1 0 71.183515H164.988121a47.662545 47.662545 0 0 0-47.662545 47.724606v692.906667c0 26.344727 21.379879 47.724606 47.724606 47.786666h693.403151c12.660364 0 24.793212-5.026909 33.698909-13.994666 8.936727-8.998788 13.963636-21.131636 13.963637-33.82303v-498.967273a35.591758 35.591758 0 1 1 71.152485 0v526.739394a90.887758 90.887758 0 0 1-90.949819 90.515394zM137.433212 54.613333a75.651879 75.651879 0 0 0-75.558788 75.589819v748.140606a75.776 75.776 0 0 0 75.71394 75.713939h748.730181a75.527758 75.527758 0 0 0 75.68291-75.217455V352.069818a20.262788 20.262788 0 1 0-40.525576 0v499.029334c0 16.725333-6.640485 32.768-18.40097 44.652606-11.791515 11.884606-27.865212 18.525091-44.621576 18.46303H165.081212a63.146667 63.146667 0 0 1-63.053576-63.115636V158.192485a62.991515 62.991515 0 0 1 62.991516-63.022546h471.970909a20.262788 20.262788 0 1 0-0.155152-40.525575H137.433212z m276.573091 555.938909a35.498667 35.498667 0 0 1-25.072485-60.664242L887.404606 49.245091a35.467636 35.467636 0 1 1 50.113939 50.20703L439.078788 600.03297a35.560727 35.560727 0 0 1-25.072485 10.550303zM912.477091 54.116848a20.138667 20.138667 0 0 0-14.211879 5.895758L399.732364 560.779636a20.169697 20.169697 0 1 0 28.516848 28.547879L926.68897 88.622545a19.921455 19.921455 0 0 0 5.988848-14.273939 20.324848 20.324848 0 0 0-20.200727-20.231758z" fill="#000000" /></svg>