<svg xmlns="http://www.w3.org/2000/svg" width="11" height="12" viewBox="0 0 11 12">
  <path fill="#00AAA6" d="M6.75,1.7175 L6.75,3.3105 C7.1745,3.49575 7.5645,3.7605 7.902,4.098 C8.61,4.806 9,5.748 9,6.75 C9,7.752 8.61,8.69325 7.902,9.402 C7.194,10.11 6.252,10.5 5.25,10.5 C4.248,10.5 3.30675,10.11 2.598,9.402 C1.89,8.694 1.5,7.752 1.5,6.75 C1.5,5.748 1.89,4.80675 2.598,4.098 C2.9355,3.7605 3.3255,3.49575 3.75,3.3105 L3.75,1.7175 C1.58175,2.36325 0,4.37175 0,6.75 C0,9.6495 2.3505,12 5.25,12 C8.1495,12 10.5,9.6495 10.5,6.75 C10.5,4.37175 8.91825,2.36325 6.75,1.7175 Z M4.5,0 L6,0 L6,6 L4.5,6 L4.5,0 Z"/>
</svg>
