<svg xmlns="http://www.w3.org/2000/svg" width="16" height="10" viewBox="0 0 16 10">
  <path fill="#2D3436" d="M8,15.9226337 C5.05333333,15.9226337 2.38666667,14.268642 0,10.9606584 C2.38666667,7.65399177 5.05333333,6 8,6 C10.9466667,6 13.6133333,7.65399177 16,10.9606584 C13.6133333,14.2699588 10.9466667,15.9226337 8,15.9226337 Z M8,14.0855967 C9.74706076,14.0855967 11.1633333,12.686809 11.1633333,10.9613169 C11.1633333,9.23582477 9.74706076,7.83703704 8,7.83703704 C6.25293924,7.83703704 4.83666667,9.23582477 4.83666667,10.9613169 C4.83666667,12.686809 6.25293924,14.0855967 8,14.0855967 Z M8,12.6146502 C7.39067254,12.6316362 6.82012413,12.3202804 6.51038725,11.8017489 C6.20065036,11.2832174 6.20065036,10.6394163 6.51038725,10.1208848 C6.82012413,9.60235334 7.39067254,9.29099756 8,9.30798354 C8.90613122,9.3332434 9.62741792,10.066016 9.62741792,10.9613169 C9.62741792,11.8566177 8.90613122,12.5893903 8,12.6146502 Z" transform="translate(0 -6)"/>
</svg>
