<svg xmlns="http://www.w3.org/2000/svg" width="16" height="16" viewBox="0 0 16 16">
  <path fill="#FFF" d="M7.73243483,17.2581199 L4.92368427,18.7936748 C4.08079902,19.2544835 3.03827687,18.9174908 2.59514587,18.0409807 C2.41868878,17.6919497 2.35779782,17.2921626 2.42189961,16.9035109 L2.95832323,13.6511534 C2.99030095,13.4572713 2.92848782,13.2594408 2.79302805,13.1221328 L0.52070112,10.8188004 C-0.161207371,10.1275874 -0.175160447,8.99240003 0.489536052,8.28328842 C0.754221684,8.00091646 1.10103942,7.81715447 1.47629783,7.76045096 L4.61657642,7.2859384 C4.80377722,7.25765138 4.96560607,7.13538543 5.04932481,6.95898564 L6.45370009,3.99989305 C6.87514272,3.11189127 7.90904139,2.74729953 8.76297742,3.18555461 C9.10301923,3.36007008 9.37825534,3.64628608 9.546076,3.99989305 L10.9504513,6.95898564 C11.03417,7.13538543 11.1959989,7.25765138 11.3831997,7.2859384 L14.5234783,7.76045096 C15.4658526,7.90284867 16.1187902,8.81270596 15.9818552,9.79267411 C15.927327,10.1829026 15.7506145,10.5435558 15.479075,10.8188004 L13.206748,13.1221328 C13.0712883,13.2594408 13.0094751,13.4572713 13.0414529,13.6511534 L13.5778765,16.9035109 C13.7388532,17.8795193 13.1084922,18.8064338 12.1699257,18.9738323 C11.7961836,19.0404913 11.4117331,18.9771712 11.0760918,18.7936748 L8.26734126,17.2581199 C8.09990378,17.1665812 7.89987231,17.1665812 7.73243483,17.2581199 Z M7.1975284,16.2000786 C7.69984085,15.9254624 8.29993525,15.9254624 8.8022477,16.2000786 L11.6109983,17.7356335 C11.7228787,17.7967989 11.8510288,17.8179056 11.9756095,17.795686 C12.288465,17.7398865 12.4985854,17.430915 12.4449265,17.1055788 L11.9085029,13.8532214 C11.8125697,13.271575 11.9980091,12.6780836 12.4043884,12.2661593 L14.6767153,9.96282697 C14.7672285,9.87107876 14.8261327,9.75086102 14.8443087,9.62078487 C14.8899537,9.29412882 14.6723079,8.99084306 14.3581831,8.94337715 L11.2179045,8.46886459 C10.6563021,8.38400353 10.1708155,8.01720569 9.91965931,7.48800632 L8.51528403,4.52891373 C8.45934381,4.41104474 8.36759844,4.3156394 8.25425117,4.25746758 C7.96960583,4.11138256 7.62497294,4.23291313 7.48449206,4.52891373 L6.08011678,7.48800632 C5.82896056,8.01720569 5.34347399,8.38400353 4.7818716,8.46886459 L1.64159301,8.94337715 C1.51650687,8.96227832 1.40090096,9.02353232 1.31267242,9.11765631 C1.09110692,9.35402684 1.09575794,9.73242264 1.32306077,9.96282697 L3.5953877,12.2661593 C4.00176701,12.6780836 4.18720638,13.271575 4.09127324,13.8532214 L3.55484962,17.1055788 C3.53348235,17.2351294 3.55377934,17.3683918 3.61259837,17.4847354 C3.7603087,17.7769055 4.10781609,17.8892364 4.38877784,17.7356335 L7.1975284,16.2000786 Z" transform="translate(0 -3)"/>
</svg>
