<svg xmlns="http://www.w3.org/2000/svg" width="24" height="24" viewBox="0 0 24 24">
  <g fill="none" fill-rule="evenodd">
    <path fill="#979797" fill-rule="nonzero" d="M5.79784035,23.4612026 C5.09631897,23.9018376 4.17041823,23.6903475 3.72978318,22.9888261 C3.57964577,22.749797 3.5,22.4732554 3.5,22.1909857 L3.5,2 C3.5,1.17157288 4.17157288,0.5 5,0.5 L20,0.5 C20.8284271,0.5 21.5,1.17157288 21.5,2 L21.5,22.1909857 C21.5,23.0194129 20.8284271,23.6911833 20,23.6911833 C19.7177303,23.6911833 19.4411888,23.61134 19.2021597,23.4612026 L12.5,19.2514855 L5.79784035,23.4612026 Z M20,1.5 L5,1.5 C4.72385763,1.5 4.5,1.72385763 4.5,2 L4.5,22.1909857 C4.5,22.2850756 4.52654859,22.3772562 4.57659439,22.4569325 C4.72347274,22.690773 5.03210632,22.7612697 5.26594678,22.6143913 L12.5,18.0705848 L19.7340532,22.6143913 C19.8137296,22.6644371 19.9059101,22.6910516 20,22.6910516 C20.2761424,22.6910516 20.5,22.4671281 20.5,22.1909857 L20.5,2 C20.5,1.72385763 20.2761424,1.5 20,1.5 Z"/>
    <path fill="#979797" fill-rule="nonzero" d="M10.602,8.132 L11.8249984,4.82653882 C11.9727305,4.42714958 12.5056777,4.39266349 12.716262,4.73115097 L12.7588139,4.81588797 L14.072,8.132 L17.6435547,8.13232422 C18.0603178,8.13232422 18.2820038,8.6034229 18.0518506,8.92179782 L17.9955225,8.98745606 L15.022,11.934 L16.1420438,15.4579416 C16.2792656,15.8897382 15.8243762,16.2503915 15.4453381,16.0590108 L15.3707397,16.0132317 L15.1127833,15.8233208 L14.4866987,15.3499053 L14.1192196,15.0645868 L13.7456231,14.769417 L12.9662623,14.1397978 L12.404,13.677 L9.64251643,15.9925368 C9.29309492,16.2854777 8.78415131,15.9964412 8.82207678,15.5711343 L8.83716276,15.4843881 L9.84835884,11.567605 L6.68643099,9.02177829 C6.34187019,8.74435511 6.50424255,8.20535365 6.91468138,8.13906215 L7,8.13232422 L10.602,8.132 L11.8249984,4.82653882 L10.602,8.132 Z M12.309892,6.39813315 L11.299025,9.13098071 L11.264,9.117 L11.2645264,9.13232422 L8.41827483,9.13232422 L10.7266594,10.9909204 C10.857734,11.0964552 10.9254729,11.2593691 10.9112465,11.4234714 L10.8972166,11.5053614 L10.1953009,14.224173 L11.965,12.74 L12.313569,12.3078116 L13.9817603,13.6767224 L14.3514117,13.9734779 L14.711508,14.2582476 L13.8930909,11.6829302 L13.922,11.673 L13.8936376,11.6448682 L16.4287678,9.13232422 L13.4661865,9.13232422 L13.466,9.113 L13.3964596,9.14163156 L12.309892,6.39813315 Z"/>
  </g>
</svg>
