<svg xmlns="http://www.w3.org/2000/svg" width="14" height="16" viewBox="0 0 14 16">
  <path fill="orange" d="M3.91757114,15.9461874 C2.86225544,13.7245135 3.41770645,12.4470478 4.25082872,11.2806029 C5.13953732,9.94755085 5.36166564,8.67008512 5.36166564,8.67008514 C5.36166564,8.67008515 6.08374544,9.55879373 5.8060091,11.0028882 C7.02797528,9.61431495 7.2501036,7.39261941 7.08347481,6.55943205 C9.86062137,8.50347804 11.0825659,12.7803054 9.47186423,15.8906879 C18.0254322,11.0028882 11.5824305,3.72678596 10.4715936,2.94918492 C10.8604375,3.7822855 10.915937,5.17085877 10.1383577,5.83743905 C8.860892,0.949617712 5.69490153,0.00538789189 5.69490153,0.00538789189 C6.08374544,2.50479809 4.36193627,5.22644512 2.69562665,7.28149016 C2.64010541,6.28176079 2.58451908,5.61520223 2.02913317,4.61545115 C1.9180256,6.44838957 0.529452342,7.89248409 0.140608432,9.72540083 C-0.359256252,12.2248327 0.529452342,14.0022282 3.91757114,15.9461874 Z"/>
</svg>
