<svg xmlns="http://www.w3.org/2000/svg" width="12" height="12" viewBox="0 0 12 12">
  <path fill="#00AAA6" d="M3,2.25 L1.5,0.75 L0.75,0.75 L0.75,1.5 L2.25,3 L3,2.25 Z M3.75,0 L4.5,0 L4.5,1.5 L3.75,1.5 L3.75,0 Z M6.75,3.75 L8.25,3.75 L8.25,4.5 L6.75,4.5 L6.75,3.75 Z M7.5,1.5 L7.5,0.75 L6.75,0.75 L5.25,2.25 L6,3 L7.5,1.5 Z M0,3.75 L1.5,3.75 L1.5,4.5 L0,4.5 L0,3.75 Z M3.75,6.75 L4.5,6.75 L4.5,8.25 L3.75,8.25 L3.75,6.75 Z M0.75,6.75 L0.75,7.5 L1.5,7.5 L3,6 L2.25,5.25 L0.75,6.75 Z M11.83575,10.33575 L4.3815,2.8815 C4.1625,2.6625 3.80475,2.6625 3.58575,2.8815 L2.8815,3.58575 C2.6625,3.80475 2.6625,4.1625 2.8815,4.3815 L10.33575,11.83575 C10.55475,12.05475 10.9125,12.05475 11.1315,11.83575 L11.83575,11.1315 C12.05475,10.9125 12.05475,10.55475 11.83575,10.33575 Z M5.625,6.375 L3.375,4.125 L4.125,3.375 L6.375,5.625 L5.625,6.375 Z"/>
</svg>
