<svg xmlns="http://www.w3.org/2000/svg" width="24" height="24" viewBox="0 0 24 24">
  <g fill="none" fill-rule="evenodd">
    <path fill="#979797" fill-rule="nonzero" d="M12,5 C16.614169,5 20.4984337,7.9688372 21.6516887,12.0054615 C22.9611129,12.082249 24,13.169802 24,14.5 C24,15.7702549 23.0526345,16.8192408 21.8259123,16.9789489 L21.6514033,16.9955372 C20.497793,21.0316524 16.6137885,24 12,24 C7.38621153,24 3.50220697,21.0316524 2.34859667,16.9955372 C1.03884252,16.9177042 0,15.8301695 0,14.5 C0,13.2297451 0.947365469,12.1807592 2.17408771,12.0210511 L2.348,12.005 L2.42561298,11.7492731 C3.66718459,7.84384768 7.48400482,5 12,5 Z M21.5,16 C22.3284271,16 23,15.3284271 23,14.5 C23,13.7054871 22.3800758,13.0498937 21.593147,13.0037465 L20.8850215,12.9622204 L20.6901606,12.280168 C19.6415417,8.6097913 16.0998377,6 12,6 C7.99211928,6 4.50955017,8.49482405 3.3825127,12.0396916 L3.09526391,12.9861474 L2.38332841,13.0044225 C1.60662522,13.0636675 1,13.7142048 1,14.5 C1,15.2945617 1.62010771,15.9504821 2.40791762,15.9972982 L3.115339,16.0393371 L3.31009327,16.7207203 C4.35904255,20.39066 7.90051976,23 12,23 C16.0994802,23 19.6409574,20.39066 20.6899067,16.7207203 L21.5,16.9522628 L21.5,16 Z"/>
    <path fill="#979797" fill-rule="nonzero" d="M10,8.5 C12.4852814,8.5 14.5,6.48528137 14.5,4 C14.5,1.51471863 12.4852814,-0.5 10,-0.5 C9.72385763,-0.5 9.5,-0.276142375 9.5,0 C9.5,0.276142375 9.72385763,0.5 10,0.5 C11.9329966,0.5 13.5,2.06700338 13.5,4 C13.5,5.93299662 11.9329966,7.5 10,7.5 C9.72385763,7.5 9.5,7.72385763 9.5,8 C9.5,8.27614237 9.72385763,8.5 10,8.5 Z" transform="rotate(-41 12 4)"/>
    <circle cx="8.5" cy="12.5" r="1.5" fill="#979797"/>
    <path fill="#979797" fill-rule="nonzero" d="M16.5,20.5 C16.5,18.290861 14.709139,16.5 12.5,16.5 C10.290861,16.5 8.5,18.290861 8.5,20.5 C8.5,20.7761424 8.72385763,21 9,21 C9.27614237,21 9.5,20.7761424 9.5,20.5 C9.5,18.8431458 10.8431458,17.5 12.5,17.5 C14.1568542,17.5 15.5,18.8431458 15.5,20.5 C15.5,20.7761424 15.7238576,21 16,21 C16.2761424,21 16.5,20.7761424 16.5,20.5 Z"/>
    <circle cx="15.5" cy="12.5" r="1.5" fill="#979797"/>
  </g>
</svg>
