<svg xmlns="http://www.w3.org/2000/svg" width="24" height="24" viewBox="0 0 24 24">
  <g fill="#979797" transform="translate(0 4)">
    <path d="M20.5033031,6.5 L22.1176471,6.5 C22.3350027,6.5 22.5,6.65583074 22.5,6.83333333 L22.5,15.1666667 C22.5,15.3441693 22.3350027,15.5 22.1176471,15.5 L8.88235294,15.5 C8.66499725,15.5 8.5,15.3441693 8.5,15.1666667 L8.5,6.83333333 C8.5,6.65583074 8.66499725,6.5 8.88235294,6.5 L12.4117647,6.5 L12.4117647,5.5 L8.88235294,5.5 C8.12508848,5.5 7.5,6.09036135 7.5,6.83333333 L7.5,15.1666667 C7.5,15.9096387 8.12508848,16.5 8.88235294,16.5 L22.1176471,16.5 C22.8749115,16.5 23.5,15.9096387 23.5,15.1666667 L23.5,6.83333333 C23.5,6.09036135 22.8749115,5.5 22.1176471,5.5 L20.5033031,5.5 L20.5033031,6.5 Z"/>
    <path d="M13.5033031,1.5 L15.1176471,1.5 C15.3350027,1.5 15.5,1.65583074 15.5,1.83333333 L15.5,10.1666667 C15.5,10.3441693 15.3350027,10.5 15.1176471,10.5 L1.88235294,10.5 C1.66499725,10.5 1.5,10.3441693 1.5,10.1666667 L1.5,1.83333333 C1.5,1.65583074 1.66499725,1.5 1.88235294,1.5 L5.41176471,1.5 L5.41176471,0.5 L1.88235294,0.5 C1.12508848,0.5 0.5,1.09036135 0.5,1.83333333 L0.5,10.1666667 C0.5,10.9096387 1.12508848,11.5 1.88235294,11.5 L15.1176471,11.5 C15.8749115,11.5 16.5,10.9096387 16.5,10.1666667 L16.5,1.83333333 C16.5,1.09036135 15.8749115,0.5 15.1176471,0.5 L13.5033031,0.5 L13.5033031,1.5 Z" transform="matrix(1 0 0 -1 0 12)"/>
  </g>
</svg>
