<svg xmlns="http://www.w3.org/2000/svg" width="22" height="20" viewBox="0 0 22 20">
  <path fill="#979797" fill-rule="evenodd" d="M1427,1092 C1428.10457,1092 1429,1092.89543 1429,1094 C1429,1095.10457 1428.10457,1096 1427,1096 L1415,1096 C1413.89543,1096 1413,1095.10457 1413,1094 C1413,1092.89543 1413.89543,1092 1415,1092 L1427,1092 Z M1409,1092 C1410.10457,1092 1411,1092.89543 1411,1094 C1411,1095.10457 1410.10457,1096 1409,1096 C1407.89543,1096 1407,1095.10457 1407,1094 C1407,1092.89543 1407.89543,1092 1409,1092 Z M1427,1084 C1428.10457,1084 1429,1084.89543 1429,1086 C1429,1087.10457 1428.10457,1088 1427,1088 L1415,1088 C1413.89543,1088 1413,1087.10457 1413,1086 C1413,1084.89543 1413.89543,1084 1415,1084 L1427,1084 Z M1409,1084 C1410.10457,1084 1411,1084.89543 1411,1086 C1411,1087.10457 1410.10457,1088 1409,1088 C1407.89543,1088 1407,1087.10457 1407,1086 C1407,1084.89543 1407.89543,1084 1409,1084 Z M1427,1076 C1428.10457,1076 1429,1076.89543 1429,1078 C1429,1079.10457 1428.10457,1080 1427,1080 L1415,1080 C1413.89543,1080 1413,1079.10457 1413,1078 C1413,1076.89543 1413.89543,1076 1415,1076 L1427,1076 Z M1409,1076 C1410.10457,1076 1411,1076.89543 1411,1078 C1411,1079.10457 1410.10457,1080 1409,1080 C1407.89543,1080 1407,1079.10457 1407,1078 C1407,1076.89543 1407.89543,1076 1409,1076 Z" transform="translate(-1407 -1076)"/>
</svg>
