<svg xmlns="http://www.w3.org/2000/svg" width="24" height="20" viewBox="0 0 24 20">
  <path fill="#B2BEC3" d="M12,39.0666667 C11.5581722,39.0666667 11.2,38.7084945 11.2,38.2666667 C11.2,37.8248389 11.5581722,37.4666667 12,37.4666667 L34,37.4666667 C34.4418278,37.4666667 34.8,37.8248389 34.8,38.2666667 C34.8,38.7084945 34.4418278,39.0666667 34,39.0666667 L12,39.0666667 Z M19,30.8 C18.5581722,30.8 18.2,30.4418278 18.2,30 C18.2,29.5581722 18.5581722,29.2 19,29.2 L34,29.2 C34.4418278,29.2 34.8,29.5581722 34.8,30 C34.8,30.4418278 34.4418278,30.8 34,30.8 L19,30.8 Z M12,22.5333333 C11.5581722,22.5333333 11.2,22.1751611 11.2,21.7333333 C11.2,21.2915055 11.5581722,20.9333333 12,20.9333333 L34,20.9333333 C34.4418278,20.9333333 34.8,21.2915055 34.8,21.7333333 C34.8,22.1751611 34.4418278,22.5333333 34,22.5333333 L12,22.5333333 Z" transform="translate(-11 -20)"/>
</svg>
