<svg xmlns="http://www.w3.org/2000/svg" width="30" height="6" viewBox="0 0 30 6">
  <path fill="#FFF" d="M6 3.00061735C6 4.65754558 4.65758207 6 2.99984573 6 1.34241793 6 0 4.65723697 0 3.00061735-.000245476249 2.20472892.315729901 1.44136747.878363332.878589341 1.44099676.315811212 2.20416194-.00024542808 2.99984573 0 3.79558297-.000327331633 4.55882745.315693151 5.12152762.878480162 5.6842278 1.44126717 6.00024552 2.20467543 6 3.00061735L6 3.00061735zM18 3.00061735C18 4.65754558 16.6575821 6 14.9998457 6 13.3424179 6 12 4.65723697 12 3.00061735 11.9997545 2.20472892 12.3157299 1.44136747 12.8783633.878589341 13.4409968.315811212 14.2041619-.00024542808 14.9998457 0 15.795583-.000327331633 16.5588274.315693151 17.1215276.878480162 17.6842278 1.44126717 18.0002455 2.20467543 18 3.00061735L18 3.00061735zM30 3.00061735C30 4.65754558 28.6575821 6 26.9998457 6 25.3424179 6 24 4.65723697 24 3.00061735 23.9997545 2.20472892 24.3157299 1.44136747 24.8783633.878589341 25.4409968.315811212 26.2041619-.00024542808 26.9998457 0 27.795583-.000327331633 28.5588274.315693151 29.1215276.878480162 29.6842278 1.44126717 30.0002455 2.20467543 30 3.00061735L30 3.00061735z"/>
</svg>
