<svg xmlns="http://www.w3.org/2000/svg" width="12" height="12" viewBox="0 0 12 12">
  <path fill="#00AAA6" d="M11.3103529,8.82352941 C11.3103529,5.64705882 8.48682353,6.35294118 8.48682353,3.88235294 C8.48682353,3.67764706 8.46705882,3.50258824 8.43105882,3.35364706 C8.24541176,2.10705882 7.41458824,1.10682353 6.33811765,0.801882353 C6.348,0.758117647 6.35294118,0.713647059 6.35294118,0.667058824 C6.35294118,0.3 6.03529412,-1.13686838e-13 5.64705882,-1.13686838e-13 C5.25882353,-1.13686838e-13 4.94117647,0.3 4.94117647,0.667058824 C4.94117647,0.712941176 4.94611765,0.758117647 4.956,0.801882353 C3.74894118,1.14352941 2.85035294,2.36047059 2.82423529,3.81811765 C2.82352941,3.83929412 2.82352941,3.86047059 2.82352941,3.88235294 C2.82352941,6.35294118 0,5.64705882 0,8.82352941 C0,9.66423529 1.88117647,10.3672941 4.40047059,10.5451765 C4.63764706,10.9905882 5.10705882,11.2941176 5.64705882,11.2941176 C6.18705882,11.2941176 6.65647059,10.9905882 6.89364706,10.5451765 C9.41223529,10.368 11.2941176,9.66423529 11.2941176,8.82352941 C11.2941176,8.82070588 11.2941176,8.81858824 11.2941176,8.81576471 L11.3110588,8.82352941 L11.3103529,8.82352941 Z M9.11294118,9.42 C8.51505882,9.57952941 7.80988235,9.69458824 7.05317647,9.75811765 C6.99035294,9.03670588 6.38470588,8.47058824 5.64705882,8.47058824 C4.90941176,8.47058824 4.30376471,9.03670588 4.24094118,9.75811765 C3.48423529,9.69458824 2.77905882,9.57952941 2.18117647,9.42 C1.35811765,9.20047059 0.964235294,8.95482353 0.820235294,8.82352941 C0.964235294,8.69223529 1.35811765,8.44658824 2.18117647,8.22705882 C3.13835294,7.97152941 4.36941176,7.83105882 5.64705882,7.83105882 C6.92470588,7.83105882 8.15576471,7.97152941 9.11294118,8.22705882 C9.936,8.44658824 10.3298824,8.69223529 10.4738824,8.82352941 C10.3298824,8.95482353 9.936,9.20047059 9.11294118,9.42 Z"/>
</svg>
