<svg xmlns="http://www.w3.org/2000/svg" width="24" height="24" viewBox="0 0 24 24">
  <g fill="none" fill-rule="evenodd">
    <path fill="#979797" fill-rule="nonzero" d="M21.5860493,1.13824199 L21.6423027,1.19607301 C22.2690081,1.95539966 22.5736755,2.66567019 22.95141,4.07999651 L23.262247,5.29080052 C23.4915993,6.15716143 23.6651551,6.64499878 23.9383337,7.15188278 L24,7.26630484 L24,9.5950105 L23.3621268,9.59313424 L22.7314611,9.5593073 L22.3138617,9.54059012 C21.5374718,9.52633603 21.1369903,9.67152939 20.8699716,10.1093818 L20.7585272,10.2369698 C20.6984917,10.2855482 20.6346193,10.3470256 20.5611473,10.4268355 L20.3996963,10.6125082 L20.060796,11.0266925 C19.2692431,11.9662787 18.6826678,12.2658438 17.7612184,11.7480065 C16.0096354,10.5134039 14.9968222,9.18860105 15.0147142,7.55577444 C14.9135408,4.8902796 15.3291594,2.58505563 16.4151823,0.743462548 L16.5572658,0.58926545 C17.9765791,-0.40517789 20.1811079,-0.0869326426 21.5860493,1.13824199 Z M4.54306607,0 L4.50682191,0.63021609 C4.35983033,3.18611632 4.4692231,5.39981145 4.88743579,7.4413205 C5.27752746,8.7696634 4.6234866,10.1470996 3.39324355,10.8918934 L3.21467405,11 L3.01502074,10.9400661 C2.0850871,10.6609097 1.47839924,10.1032647 0.680870874,8.99063721 L0,8.01843437 L0,4.64054937 L0.0604873877,4.53200404 C0.13746709,4.39386305 0.217408901,4.24380868 0.311657155,4.06163765 L0.852071735,3.01469119 C1.76842203,1.31029733 2.58417738,0.442973719 3.93172197,0.138246431 L4.54306607,0 Z M17.2049642,1.36088408 C16.3377882,2.90289674 15.9664112,4.84443105 16.0023737,7.12537404 L16.0187194,7.75060959 C16.0889724,8.90494626 16.896768,9.93061448 18.2734182,10.9160349 C18.6080451,11.1053765 18.8352656,10.9930814 19.3352773,10.387867 L19.7803424,9.84226442 C19.8908466,9.7146037 19.9904626,9.61107028 20.0920143,9.52131793 C20.5769393,8.7691264 21.2564091,8.53603225 22.300929,8.55409404 L22.5147509,8.56097575 L23,8.5896477 L23,7.54158215 C22.7170829,6.98672449 22.5334928,6.44877826 22.3015616,5.56021264 L22.0750934,4.66075756 C21.7035831,3.19718174 21.4461143,2.53469148 20.9201994,1.87877202 L20.7572615,1.74694044 C19.6997077,0.943709615 18.1734979,0.746436627 17.2049642,1.36088408 Z M3.49734674,1 L3.35787982,1.08248484 C2.76231145,1.46285677 2.27640846,2.1445441 1.72145963,3.24947315 L1.59208751,3.51202544 L1.12817031,4.48171731 L1,4.73935688 L1,7.66986691 L1.47661914,8.40476478 C2.07233075,9.29824745 2.50951392,9.76190829 3.06810412,10 C3.80693525,9.43020352 4.16678276,8.51672523 3.92542221,7.62872117 C3.53324994,5.58160353 3.40704696,3.42768609 3.49734674,1 Z M8.90849322,0 L9.07794519,0.0340058319 C10.7496299,0.72744214 12.6293768,0.722521625 14.3433209,0.0322275417 L14.5084226,0 L16,0 L15.7747298,0.719692468 L15.4526603,1.75792143 L15.298682,1.85863669 C13.2965955,3.16817576 10.7455776,3.33151901 8.33717242,2.44800914 L8.01078238,2.3282748 L8.00339446,1.94541383 C7.99386691,1.45167232 8.00430183,0.968408914 8.03588708,0.500743761 L8.0697064,0 L8.90849322,0 Z M14,1.13638374 C12.371002,1.75211132 10.607133,1.7607824 9.00570014,1.14903608 L9,1.50930769 C10.7455171,2.07863007 12.5435626,1.96715107 14,1.13638374 Z M8.57631799,0.26462781 L8.41279282,0.703965437 L8.49858788,0.73537219 L8.58720718,0.73537219 L8.58720718,0.265447427 L8.57631799,0.26462781 Z M14.5887197,0.427073062 L14.4310117,0.516527241 L14.4191699,0.548926938 L14.3477589,0.561319363 L14.3256776,0.572926938 L14.3677845,0.572926938 L14.4171699,0.554926938 L14.4115593,0.572926938 L14.6743224,0.572926938 L14.5887197,0.427073062 Z"/>
    <path fill="#979797" fill-rule="nonzero" d="M3.38170825,19.9421201 L4.76875261,19.4835931 L4.92685641,19.5368321 C5.40338264,19.6972951 5.78616053,19.8694349 6.44105918,20.2089369 L7.15167592,20.5823365 L7.63899232,20.8300783 C8.70712322,21.3570807 9.32169538,21.5341341 10.0922595,21.5183836 C11.7033528,21.4357634 13.039944,21.2302405 15.4391444,20.7200423 L19.3617456,19.8674596 L19.0360083,20.7254994 C18.4229897,22.3402803 17.3253328,22.8749207 14.8266929,23.3463236 L14.4486364,23.417893 L13.9976218,23.5076304 C13.5203575,23.6068139 13.2016597,23.6903848 12.9086851,23.7969037 L12.68552,23.8842832 L12.4923276,23.9231143 L7.95354603,23.9231143 L7.18491361,23.4182174 C5.55849094,22.330147 4.64258864,21.5624621 3.81696423,20.5014623 L3.38170825,19.9421201 Z M5.46283174,20.8366859 C6.02145487,21.3712062 6.70273663,21.8883943 7.64919364,22.5254206 L8.25002901,22.9231143 L12.39385,22.9231143 C12.838223,22.7450022 13.2638572,22.6329877 14.0089709,22.4848431 L14.9289747,22.3077901 C16.1406051,22.0651367 16.9026971,21.8112462 17.4086978,21.3889523 L17.5210092,21.2884389 L15.6307416,21.7016758 L14.8412809,21.8661766 C13.0854275,22.2236613 11.9005539,22.4010319 10.6027027,22.4894241 L10.1282094,22.5176205 C8.94918456,22.5420141 8.13087228,22.2345288 6.41544238,21.3250452 L6.04094745,21.1279999 L5.46283174,20.8366859 Z M4.60772897,20.484544 L4.76290737,20.5387501 L4.92422905,20.4854206 L4.60772897,20.484544 Z M5.42366713,2.01983676 L5.88478437,2.52375231 C7.48380233,4.27118212 9.58281395,5.03352114 11.4432045,4.33162937 L11.6060083,4.2996296 C11.8074712,4.29411007 12.0452742,4.21206477 12.4678036,4.01249928 L12.7733933,3.86860543 C13.8188776,3.38940169 14.3582099,3.33124608 14.9849063,3.90794006 L15.1756871,4.08349903 L15.1421297,4.34058304 L14.8469577,6.38807539 L14.7994626,6.77412222 L14.7495464,7.27919033 C14.6470597,8.52393546 14.7353119,9.49472183 15.0734345,10.3748363 C15.425245,11.1920163 15.9298271,11.7324449 17.1349391,12.6968153 L17.9602236,13.3534693 C18.2055765,13.5530703 18.3886682,13.7104518 18.5701239,13.8786367 L18.8129397,14.1086495 L18.8531257,14.533462 C18.9966432,16.4496344 18.4735807,18.0465185 17.0462877,18.6876652 C14.8714716,19.7436193 12.312392,20.2580858 9.61824564,20.2579823 C7.81851115,20.2946181 6.20538433,19.2384041 4.90357921,17.5045583 C3.69165287,15.9273145 2.97438265,14.5413451 2.74807836,13.0399033 L2.71060698,12.7912951 L2.97678254,12.5248807 L3.20418139,12.3138528 C3.28438054,12.2427995 3.37127277,12.168971 3.47173865,12.086174 L4.09157256,11.5892585 C4.48156959,11.2765894 4.72101007,11.0686441 4.91920503,10.8580702 L5.08153501,10.6744307 C5.32383908,9.94495718 5.30503163,9.18061551 5.07406854,8.00566507 L5.01702557,7.72706272 L4.8446927,6.93826008 C4.39122634,4.8182685 4.38710589,3.81896374 5.08267549,2.6116853 L5.42366713,2.01983676 Z M5.6716615,3.72630726 L5.63159568,3.86371088 C5.46113805,4.51136053 5.5208909,5.25778488 5.76818764,6.46907314 L6.05708894,7.82178632 C6.32757457,9.20001649 6.34075481,10.1290608 5.99571001,11.0904963 L5.91553371,11.2339487 C5.63621295,11.5830996 5.37417831,11.8344432 4.89227651,12.2278738 L4.03573231,12.9178077 L3.78030106,13.1412191 C4.01808585,14.3544147 4.65055088,15.5340017 5.6998921,16.899699 C6.83087214,18.4059818 8.17661252,19.2871213 9.60806963,19.2580858 C12.1692316,19.2580858 14.580222,18.7733905 16.6229579,17.7818111 C17.5823609,17.350687 17.9750002,16.1323856 17.8535539,14.5782069 C17.6938175,14.4319028 17.5257748,14.2886818 17.2997127,14.1053364 L16.2546897,13.2710448 C15.1003842,12.3263437 14.5613933,11.7142584 14.1475134,10.7520404 C13.7078377,9.60888351 13.6246073,8.40128919 13.7844351,6.85910534 L13.8413589,6.36629085 C13.8521956,6.28133788 13.8639498,6.19303319 13.8769853,6.09846214 L14.1072868,4.52970562 C13.9210488,4.48350674 13.6634738,4.55963762 13.1827215,4.78092889 L12.7145473,5.00005897 C12.3115205,5.18156953 12.0261303,5.27333251 11.7209776,5.29497055 C9.66016887,6.03617112 7.4340105,5.35363494 5.6716615,3.72630726 Z"/>
  </g>
</svg>
