<?xml version="1.0" standalone="no"?><!DOCTYPE svg PUBLIC "-//W3C//DTD SVG 1.1//EN" "http://www.w3.org/Graphics/SVG/1.1/DTD/svg11.dtd"><svg class="icon" width="200px" height="200.00px" viewBox="0 0 1024 1024" version="1.1" xmlns="http://www.w3.org/2000/svg"><path d="M0 48.761905 0 48.761905 0 48.761905 0 48.761905zM0 48.761905"  /><path d="M171.35811 575.96099c-28.775375 73.061912-33.533562 142.729021-10.359954 155.673356 16.032914 8.984869 40.993158-11.565349 64.490545-48.94915 9.322301 40.94147 32.295985 77.674789 65.156632 107.370789-34.403474 13.671863-56.947078 36.00384-56.947078 61.251779 0 41.587078 60.876312 75.168427 135.957943 75.168427 67.738088 0 123.854263-27.267657 134.210316-63.195429l16.112884 0c10.555977 35.927771 66.548297 63.195429 134.366354 63.195429 75.165501 0 135.957943-33.581349 135.957943-75.168427 0-25.247939-22.499718-47.416076-56.987063-61.251779 32.739718-29.696975 55.873341-66.429318 65.121524-107.370789 23.49251 37.383802 48.3328 57.933044 64.445684 48.94915 23.293562-12.944335 18.649478-82.611444-10.395063-155.673356-22.698667-57.205516-53.455726-99.445029-76.908251-108.907764 0.318903-3.4816 0.59392-7.325013 0.59392-11.005562 0-22.173013-5.791939-42.642286-15.668175-59.31203 0.194072-1.33315 0.194072-2.585356 0.194072-3.920457 0-10.236099-2.261577-19.74467-6.151802-27.960076C748.633722 215.936244 658.274011 97.52381 511.963916 97.52381c-146.277912 0-236.758552 118.41731-242.670446 267.335192-3.805379 8.332434-6.151802 17.881966-6.151802 28.07808 0 1.33315 0 2.586331 0.158964 3.924358-9.681189 16.543939-15.473128 37.013211-15.473128 59.268145 0 3.720533 0.194072 7.445943 0.433981 11.086507C224.88893 476.597882 194.016792 518.755474 171.35811 575.96099L171.35811 575.96099zM171.35811 575.96099"  /></svg>