<?xml version="1.0" standalone="no"?><!DOCTYPE svg PUBLIC "-//W3C//DTD SVG 1.1//EN" "http://www.w3.org/Graphics/SVG/1.1/DTD/svg11.dtd"><svg class="icon" width="200px" height="200.00px" viewBox="0 0 1024 1024" version="1.1" xmlns="http://www.w3.org/2000/svg"><path d="M432.384 142.506667c-118.784 0-172.970667 70.144-172.970667 170.581333h57.514667c1.621333-71.253333 49.237333-111.786667 115.456-113.92 58.026667 1.706667 83.712 32.938667 85.930667 85.845333 0 27.562667-20.309333 59.392-60.245334 96.085334-46.506667 39.936-54.698667 69.632-54.698666 102.570666v56.661334H460.8v-56.661334c0-18.346667 9.898667-42.666667 42.154667-72.362666 48.213333-42.069333 72.277333-84.224 72.277333-126.293334 0.512-83.626667-50.346667-142.506667-142.848-142.506666z m-29.013333 511.744H460.8v-56.661334h-57.429333v56.661334z m490.325333-181.930667V78.848S882.773333 0 807.253333 0H0v813.482667s10.922667 66.389333 115.456 68.010666c104.533333 1.621333 316.928 0 316.928 0-12.629333 1.621333 461.312-409.173333 461.312-409.173333z m-490.325333 352.426667s-266.581333-0.512-288.426667 0c-66.816 2.730667-57.514667-63.146667-57.514667-63.146667V52.906667H807.253333c38.4 0 29.013333 31.317333 29.013334 52.394666V446.293333c-0.512 0-432.896 378.453333-432.896 378.453334z m516.608-284.416l-18.005334-16.213334-17.578666 16.213334-356.266667 327.68-1.706667 6.997333L489.813333 1024l174.08-31.317333 5.461334-4.864L1024 649.386667l-104.021333-109.056z m-280.746667 409.685333l-81.066667 15.189333 15.957334-74.496 252.842666-232.106666 64.597334 59.306666-252.330667 232.106667z m287.914667-265.045333l-64.597334-59.306667 39.936-36.693333 62.976 61.44-38.4 34.56z" /></svg>