<svg xmlns="http://www.w3.org/2000/svg" width="14" height="16" viewBox="0 0 14 16">
  <path fill="#2D3436" d="M98.8940474,10.0207325 C98.8940474,12.9197224 97.1508004,15.4073433 94.6641004,16.4745968 L95.2955832,18.9816422 C95.2955832,18.9816422 90.3048292,18.0240834 87.6253336,15.5079014 C86.0264018,14.2235242 85.00126,12.2432439 85.00126,10.0207325 C85.00126,6.14932761 88.111375,3.01150534 91.9476629,3.01150534 C95.7839508,3.01150534 98.8940474,6.14932763 98.8940474,10.0207325 Z M87,11.511167 C87,12.9633724 87.8783499,14.2095087 89.131295,14.7441333 L88.813117,16 C88.813117,16 91.3277512,15.5203253 92.677838,14.2598818 C93.4834735,13.6164923 94,12.6245007 94,11.511167 C94,9.5718449 92.4329419,8 90.5,8 C88.5670488,8 87,9.57184491 87,11.511167 Z" transform="translate(-85 -3)"/>
</svg>
