<svg xmlns="http://www.w3.org/2000/svg" width="14" height="14" viewBox="0 0 14 14">
  <path fill="#00AAA6" d="M7.66020999,0.910546822 C8.74102938,1.53455819 9.11222871,2.91604131 8.48972434,3.99772937 L4.0546983,11.7042077 C3.98298204,11.828822 3.87391084,11.9277424 3.7429047,11.9869822 L0.389831828,13.5032112 L0.0520515066,9.85369439 C0.0390041243,9.71272498 0.0699092107,9.5711726 0.140524235,9.44846917 L4.57732335,1.73890361 C5.19871107,0.659164832 6.57774523,0.287592943 7.65748733,0.908974892 C7.65839489,0.909498872 7.65930244,0.910022847 7.66020999,0.910546822 Z M7.62300291,3.49893688 C7.97030323,2.89545417 7.76320806,2.12471332 7.16020999,1.77657223 L7.15869436,1.77569718 C6.55762978,1.42978987 5.78995703,1.63663435 5.44404544,2.23769646 L1.05698608,9.86083077 L1.25626587,12.0139311 L3.23853005,11.1175693 L7.62300291,3.49893688 Z M5.82627177,13.1825924 C5.5501294,13.1825924 5.32627177,12.9587348 5.32627177,12.6825924 C5.32627177,12.40645 5.5501294,12.1825924 5.82627177,12.1825924 L13.3556835,12.1825924 C13.6318259,12.1825924 13.8556835,12.40645 13.8556835,12.6825924 C13.8556835,12.9587348 13.6318259,13.1825924 13.3556835,13.1825924 L5.82627177,13.1825924 Z M8.6498012,9.7346932 C8.3736588,9.7346932 8.1498012,9.5108356 8.1498012,9.2346932 C8.1498012,8.95855083 8.3736588,8.7346932 8.6498012,8.7346932 L13.3556835,8.7346932 C13.6318259,8.7346932 13.8556835,8.95855083 13.8556835,9.2346932 C13.8556835,9.5108356 13.6318259,9.7346932 13.3556835,9.7346932 L8.6498012,9.7346932 Z"/>
</svg>
