<?xml version="1.0" standalone="no"?><!DOCTYPE svg PUBLIC "-//W3C//DTD SVG 1.1//EN" "http://www.w3.org/Graphics/SVG/1.1/DTD/svg11.dtd"><svg class="icon" width="200px" height="200.00px" viewBox="0 0 1024 1024" version="1.1" xmlns="http://www.w3.org/2000/svg"><path d="M935.543475 819.391876S785.124482 669.245237 782.2832 667.007023c39.817876-61.173053 63.084647-133.9242 63.084647-212.411154 0-215.468476-174.615451-390.138193-390.194506-390.138192-215.41421 0-390.138193 174.669717-390.138193 390.138192 0 215.469499 174.723983 390.139216 390.138193 390.139217 78.432688 0 151.347657-23.376326 212.574975-63.138913 2.184971 2.949814 154.842178 153.367783 154.842178 153.367783 16.058617 16.058617 33.809717 24.579391 54.83725 24.579391 20.973267 0 42.0008-7.975043 58.059417-23.97837 32.007679-32.060921 32.007679-84.057914 0.056314-116.173101z m-480.369111-97.87627c-147.195802 0-266.974003-119.723935-266.974002-266.919737 0-147.086246 119.778201-266.919737 266.974002-266.919737 147.14256 0 266.975027 119.833491 266.975027 266.919737 0 147.195802-119.832467 266.919737-266.975027 266.919737z"  /></svg>