<!-- Generated by IcoMoon.io -->
<svg version="1.1" xmlns="http://www.w3.org/2000/svg" width="1024" height="1024" viewBox="0 0 1024 1024">
<title></title>
<g id="icomoon-ignore">
</g>
<path d="M988.241 815.625c47.669 47.669 47.669 124.954 0 172.623s-124.954 47.669-172.623 0l-185.134-185.134c-161.922 87.647-368.513 63.046-505.361-73.801-166.84-166.84-166.84-437.342 0-604.182s437.342-166.84 604.182 0c136.848 136.848 161.45 343.438 73.801 505.361l185.134 185.134zM168.279 686.157c143.006 143.006 374.864 143.006 517.871 0s143.006-374.864 0-517.871c-143.006-143.006-374.864-143.006-517.871 0s-143.006 374.864 0 517.871zM772.463 686.157l-86.312 86.312 172.623 172.623c23.834 23.834 62.478 23.833 86.312 0s23.834-62.478 0-86.312l-172.623-172.623z"></path>
</svg>
