<svg xmlns="http://www.w3.org/2000/svg" width="12" height="12" viewBox="0 0 12 12">
  <path fill="#00AAA6" d="M10.73175,7.15125 C10.1025,6.06075 10.4805,4.6635 11.577,4.02825 L10.398,1.986 C10.06125,2.18325 9.669,2.2965 9.25125,2.2965 C7.99125,2.2965 6.96975,1.26825 6.96975,0 L4.611,0 C4.614,0.3915 4.5165,0.78825 4.3065,1.15125 C3.67725,2.24175 2.277,2.61225 1.179,1.98075 L1.13686838e-13,4.023 C0.33975,4.21575 0.63375,4.4985 0.84225,4.86075 C1.47075,5.94975 1.09425,7.344 0.00225,7.98075 L1.18125,10.023 C1.51725,9.82725 1.9065,9.7155 2.32275,9.7155 C3.579,9.7155 4.5975,10.737 4.60425,12 L6.963,12 C6.96225,11.61225 7.05975,11.22 7.2675,10.86075 C7.896,9.77175 9.2925,9.4005 10.38975,10.02825 L11.56875,7.986 C11.23125,7.79325 10.9395,7.51125 10.73175,7.15125 Z M5.78925,8.43 C4.4475,8.43 3.35925,7.3425 3.35925,6 C3.35925,4.6575 4.44675,3.57 5.78925,3.57 C7.131,3.57 8.21925,4.6575 8.21925,6 C8.21925,7.3425 7.13175,8.43 5.78925,8.43 Z"/>
</svg>
