<svg xmlns="http://www.w3.org/2000/svg" width="15" height="16" viewBox="0 0 15 16">
  <path fill="#FFF" d="M11.8903061,8.2 C11.0248724,8.2 10.2221514,8.5875 9.68282313,9.2375 L5.63159014,6.7125 C5.71938776,6.4375 5.76955782,6.1375 5.76955782,5.8375 C5.76955782,4.275 4.49022109,3 2.90986395,3 C1.30442177,3 0,4.275 0,5.85 C0,7.2375 0.915603741,8.3625 2.22002551,8.6375 L2.22002551,13.375 C0.928146259,13.6375 0,14.7625 0,16.15 C0,17.725 1.29187925,19 2.88477891,19 C4.45259354,19 5.73193027,17.725 5.73193027,16.15 C5.73193027,14.7875 4.80378401,13.65 3.48681973,13.375 L3.48681973,8.6125 C4.05123299,8.475 4.60310374,8.1625 4.99192177,7.7625 L9.11840986,10.3125 C9.05569728,10.5375 9.03061224,10.7875 9.03061224,11.0375 C9.03061224,12.6125 10.309949,13.8875 11.8903061,13.8875 C13.4706633,13.8875 14.75,12.6125 14.75,11.0375 C14.75,9.4625 13.4581207,8.2 11.8903061,8.2 Z M2.5837585,14.5375 L3.22342687,14.5375 C4.01360544,14.5375 4.55293367,15.3875 4.55293367,16.15 C4.55293367,17.05 3.81292517,17.7875 2.90986395,17.7875 C1.9942602,17.7875 1.22916667,17.0375 1.22916667,16.15 C1.22916667,15.3625 2.03188776,14.6625 2.5837585,14.5375 Z M2.90986395,7.475 C2.00680272,7.475 1.26679422,6.7375 1.26679422,5.8375 C1.26679422,4.9375 2.00680272,4.2125 2.90986395,4.2125 C3.81292517,4.2125 4.55293367,4.95 4.55293367,5.85 C4.55293367,6.75 3.81292517,7.475 2.90986395,7.475 Z M11.8903061,12.675 C10.9872449,12.675 10.2472364,11.9375 10.2472364,11.0375 C10.2472364,10.75 10.3224915,10.4625 10.4730017,10.2125 L10.5106293,10.1625 C10.8116497,9.6875 11.3258929,9.4125 11.8903061,9.4125 C12.7933673,9.4125 13.5333759,10.15 13.5333759,11.05 C13.5333759,11.9375 12.7933673,12.675 11.8903061,12.675 Z" transform="translate(0 -3)"/>
</svg>
