<?xml version="1.0" standalone="no"?><!DOCTYPE svg PUBLIC "-//W3C//DTD SVG 1.1//EN" "http://www.w3.org/Graphics/SVG/1.1/DTD/svg11.dtd"><svg class="icon" width="128px" height="128.00px" viewBox="0 0 1024 1024" version="1.1" xmlns="http://www.w3.org/2000/svg"><path d="M808.533333 106.666667H215.466667C155.733333 106.666667 106.666667 155.733333 106.666667 215.466667v593.066666c0 59.733333 49.066667 108.8 108.8 108.8H810.666667c59.733333 0 108.8-49.066667 108.8-108.8V215.466667C917.333333 155.733333 868.266667 106.666667 808.533333 106.666667z m-490.666666 684.8V360.533333h-42.666667v317.866667h-46.933333V302.933333h89.6V202.666667h57.6v102.4h91.733333v317.866666c2.133333 29.866667-12.8 46.933333-42.666667 53.333334-17.066667 0-27.733333 0-34.133333 2.133333-2.133333-19.2-6.4-40.533333-14.933333-64h12.8c4.266667 2.133333 8.533333 2.133333 10.666666 2.133333 14.933333 2.133333 21.333333-6.4 19.2-23.466666V360.533333h-42.666666v430.933334h-57.6z m181.333333 2.133333V488.533333H597.333333V202.666667h61.866667v106.666666h149.333333v59.733334h-149.333333v119.466666h123.733333v307.2h-61.866666v-42.666666h-160v42.666666l-61.866667-2.133333z m61.866667-243.2v147.2h160v-147.2h-160z" /></svg>