<svg xmlns="http://www.w3.org/2000/svg" width="20" height="19" viewBox="0 0 20 19">
  <path fill="#FFF" d="M8.18,5.88 C9.86,6.66 11.38,7.6 12.78,8.68 L12.18,9.6 C10.7,8.4 9.16,7.44 7.6,6.76 L8.18,5.88 Z M2.96,10.68 L16.84,10.68 L16.84,11.52 C15.48,14.78 12.84,17.26 8.96,18.94 L8.24,18.02 C11.76,16.54 14.22,14.44 15.58,11.7 L2.96,11.7 L2.96,10.68 Z M9.64,0.74 L10.4,0.74 C12.94,3.58 15.86,5.84 19.18,7.5 L18.62,8.5 C15.26,6.78 12.4,4.52 10.02,1.76 C7.84,4.36 4.96,6.62 1.4,8.52 L0.86,7.52 C4.38,5.7 7.3,3.44 9.64,0.74 Z"/>
</svg>
