<svg xmlns="http://www.w3.org/2000/svg" width="36" height="36" viewBox="0 0 36 36">
  <path fill="#D63131" d="M137,26 C127.027027,26 119,34.027027 119,44 C119,53.972973 127.027027,62 137,62 C146.972973,62 155,53.972973 155,44 C155,34.027027 146.972973,26 137,26 Z M137,59.8108108 C134.810811,59.8108108 132.864865,59.3243243 130.918919,58.5945946 C128.972973,57.8648649 127.27027,56.6486486 125.810811,55.1891892 C124.351351,53.7297297 123.135135,52.027027 122.405405,50.0810811 C121.432432,48.1351351 121.189189,46.1891892 121.189189,44 C121.189189,41.8108108 121.432432,39.8648649 122.405405,37.9189189 C123.135135,35.972973 124.351351,34.2702703 125.810811,32.8108108 C126.540541,32.0810811 127.513514,31.3513514 128.486486,30.6216216 L143.324324,58.5945946 L143.081081,58.5945946 C141.135135,59.5675676 139.189189,59.8108108 137,59.8108108 Z M148.189189,55.1891892 C147.459459,55.9189189 146.486486,56.6486486 145.513514,57.3783784 L130.675676,29.4054054 L130.918919,29.4054054 C132.864865,28.4324324 134.810811,28.1891892 137,28.1891892 C139.189189,28.1891892 141.135135,28.4324324 143.081081,29.4054054 C145.027027,30.1351351 146.72973,31.3513514 148.189189,32.8108108 C149.648649,34.2702703 150.864865,35.972973 151.594595,37.9189189 C152.324324,39.8648649 152.810811,42.0540541 152.810811,44 C152.810811,45.9459459 152.324324,48.1351351 151.594595,50.0810811 C150.864865,52.027027 149.648649,53.7297297 148.189189,55.1891892 Z M132.864865,41.0810811 L131.648649,41.0810811 L131.648649,39.1351351 L132.864865,41.0810811 Z M134.567568,34.7567568 C137.486486,34.7567568 140.891892,34.2702703 143.324324,33.5405405 C144.297297,33.2972973 144.783784,33.0540541 145.513514,32.8108108 L146.72973,34.5135135 L146.243243,34.5135135 C146,34.5135135 145.756757,34.5135135 145.513514,34.7567568 C143.567568,35.2432432 142.594595,35.4864865 140.648649,35.7297297 L140.648649,39.1351351 L145.513514,39.1351351 C146.486486,39.1351351 147.459459,39.1351351 148.189189,38.8918919 L148.432432,38.8918919 L148.432432,40.8378378 L148.189189,40.8378378 C147.459459,40.8378378 146.72973,40.5945946 145.513514,40.5945946 L140.648649,40.5945946 L140.648649,43.7567568 L143.567568,43.7567568 C144.540541,43.7567568 145.27027,43.7567568 146.243243,43.5135135 L146.486486,43.5135135 L146.486486,51.0540541 L143.324324,51.0540541 L142.351351,49.3513514 L144.297297,49.3513514 L144.297297,45.9459459 L140.405405,45.9459459 L138.945946,43.027027 L138.945946,41.0810811 L137.972973,41.0810811 L137,39.3783784 L138.945946,39.3783784 L138.945946,36.2162162 C138.216216,36.2162162 136.756757,36.4594595 135.297297,36.4594595 L134.567568,34.7567568 Z M138.459459,51.2972973 L133.594595,51.2972973 L133.594595,44 L134.567568,44 L135.540541,45.7027027 L135.540541,49.5945946 L137.486486,49.5945946 L138.459459,51.2972973 L138.459459,51.2972973 Z M144.297297,53.2432432 C146,53.2432432 147.459459,53 148.675676,53 L148.918919,53 L148.918919,53.2432432 C148.432432,54.2162162 148.432432,54.2162162 148.432432,55.1891892 L145.513514,55.1891892 L144.297297,53.2432432 Z M140.405405,55.1891892 L139.432432,55.1891892 C137.972973,55.1891892 135.783784,54.9459459 134.567568,54.9459459 C133.108108,54.7027027 132.378378,54.4594595 131.648649,53.7297297 L130.432432,52.5135135 C129.945946,52.2702703 129.702703,52.027027 129.702703,52.027027 C129.216216,52.027027 127.756757,53.2432432 126.540541,55.1891892 L126.540541,55.4324324 L125.081081,53.7297297 C126.297297,52.5135135 127.27027,51.5405405 127.756757,51.2972973 C128.486486,50.8108108 128.72973,50.5675676 128.972973,50.5675676 L128.972973,44.2432432 L127.513514,44.2432432 C126.540541,44.2432432 126.297297,44.2432432 125.567568,44.4864865 L125.324324,44.4864865 L125.324324,42.5405405 L125.567568,42.5405405 C126.054054,42.5405405 126.540541,42.7837838 127.513514,42.7837838 L128.972973,42.7837838 C129.945946,42.7837838 130.189189,42.7837838 130.918919,42.5405405 L131.162162,42.5405405 L131.162162,42.7837838 C131.162162,43.5135135 130.918919,44.2432432 130.918919,45.2162162 L130.918919,50.5675676 L131.405405,51.0540541 C132.378378,52.027027 133.108108,52.5135135 133.837838,52.7567568 C134.810811,53 136.756757,53.2432432 139.432432,53.2432432 L140.405405,55.1891892 L140.405405,55.1891892 Z M131.162162,37.6756757 L130.432432,38.6486486 C128.72973,36.4594595 128,35.7297297 126.297297,34.2702703 L127.27027,33.0540541 C128.486486,33.7837838 128.972973,34.5135135 129.702703,35 L131.162162,37.6756757 Z" transform="translate(-119 -26)"/>
</svg>
