<svg xmlns="http://www.w3.org/2000/svg" width="23" height="25" viewBox="0 0 23 25">
  <path fill="#B2BEC3" d="M354.039081,30.9660338 C353.902536,31.1514421 353.682708,31.2717391 353.434783,31.2717391 C348.090507,31.2717391 343.75,35.7279925 343.75,41.2347826 C343.75,41.6489962 343.414214,41.9847826 343,41.9847826 C342.585786,41.9847826 342.25,41.6489962 342.25,41.2347826 C342.25,36.0096936 345.66271,31.5963091 350.333513,30.2179714 C348.185947,29.0707459 346.72205,26.7693855 346.72205,24.1217391 C346.72205,20.3309355 349.722961,17.25 353.434783,17.25 C357.146604,17.25 360.147516,20.3309355 360.147516,24.1217391 C360.147516,27.7045084 357.466939,30.6531849 354.039081,30.9660338 Z M353.434783,29.4934783 C356.309214,29.4934783 358.647516,27.0928218 358.647516,24.1217391 C358.647516,21.1506564 356.309214,18.75 353.434783,18.75 C350.560351,18.75 348.22205,21.1506564 348.22205,24.1217391 C348.22205,27.0928218 350.560351,29.4934783 353.434783,29.4934783 Z M364.619565,41.2347826 C364.619565,41.6489962 364.283779,41.9847826 363.869565,41.9847826 C363.455352,41.9847826 363.119565,41.6489962 363.119565,41.2347826 C363.119565,37.56805 361.178455,34.255178 358.118755,32.5122894 C357.758838,32.3072708 357.633268,31.8493 357.838287,31.489383 C358.043305,31.129466 358.501276,31.003896 358.861193,31.2089145 C362.387518,33.2176056 364.619565,37.0270167 364.619565,41.2347826 Z" transform="translate(-342 -17)"/>
</svg>
