<svg xmlns="http://www.w3.org/2000/svg" width="24" height="24" viewBox="0 0 24 24">
  <g fill="#979797">
    <path d="M12.5 0C15.5375661 0 18 2.46243388 18 5.5 18 8.53756612 15.5375661 11 12.5 11 9.46243388 11 7 8.53756612 7 5.5 7 2.46243388 9.46243388 0 12.5 0zM12.5 1C10.0147186 1 8 3.01471863 8 5.5 8 7.98528137 10.0147186 10 12.5 10 14.9852814 10 17 7.98528137 17 5.5 17 3.01471863 14.9852814 1 12.5 1zM19.1578489 13.9986144C17.1379702 12.3903768 14.6363464 11.5 12 11.5 5.64872538 11.5.5 16.6487254.5 23 .5 23.2761424.723857625 23.5 1 23.5 1.27614237 23.5 1.5 23.2761424 1.5 23 1.5 17.2010101 6.20101013 12.5 12 12.5 14.4080183 12.5 16.6905534 13.3123988 18.5349658 14.7809294 18.7509961 14.9529338 19.0655604 14.9172438 19.2375649 14.7012135 19.4095693 14.4851832 19.3738792 14.1706189 19.1578489 13.9986144z"/>
    <path d="M17.3492328,21.3784523 C17.5108608,21.7286913 17.9914169,21.7717503 18.2127351,21.4558243 L23.9353913,13.286879 C24.0938302,13.0607115 24.0389254,12.7489265 23.8127579,12.5904876 C23.5865904,12.4320487 23.2748054,12.4869535 23.1163665,12.713121 L17.8927587,20.1696873 L15.9085797,15.8700829 C15.7494631,15.5252859 15.279196,15.47673 15.0529854,15.7817411 L10.5983956,21.7880888 C10.4338982,22.0098888 10.4803513,22.3230446 10.7021513,22.4875419 C10.9239513,22.6520393 11.2371071,22.6055862 11.4016044,22.3837862 L15.3539083,17.0546961 L17.3492328,21.3784523 Z"/>
  </g>
</svg>
