<svg xmlns="http://www.w3.org/2000/svg" width="24" height="24" viewBox="0 0 24 24">
  <g fill="none" fill-rule="evenodd">
    <path fill="#979797" fill-rule="nonzero" d="M23 0C23.5522847 0 24 .44771525 24 1L24 17C24 17.5522847 23.5522847 18 23 18L1 18C.44771525 18 0 17.5522847 0 17L0 1C0 .44771525.44771525 0 1 0L23 0zM1 1L1 17 23 17 23 1 1 1zM3.56019778 23.3878354L8.47621341 19.3878354C8.69040898 19.2135515 8.72276379 18.8986267 8.54847991 18.6844311 8.37419604 18.4702356 8.05927122 18.4378807 7.84507565 18.6121646L2.92906003 22.6121646C2.71486446 22.7864485 2.68250965 23.1013733 2.85679352 23.3155689 3.0310774 23.5297644 3.34600222 23.5621193 3.56019778 23.3878354z"/>
    <path fill="#979797" fill-rule="nonzero" d="M16.3155689,23.3878354 L21.2315845,19.3878354 C21.4457801,19.2135515 21.4781349,18.8986267 21.303851,18.6844311 C21.1295671,18.4702356 20.8146423,18.4378807 20.6004467,18.6121646 L15.6844311,22.6121646 C15.4702356,22.7864485 15.4378807,23.1013733 15.6121646,23.3155689 C15.7864485,23.5297644 16.1013733,23.5621193 16.3155689,23.3878354 Z" transform="matrix(-1 0 0 1 36.916 0)"/>
    <path fill="#979797" fill-rule="nonzero" d="M15.9718253 9L9.5 12.8830952 9.5 5.11690481 15.9718253 9zM10.5 6.88309519L10.5 11.1169048 14.0281747 9 10.5 6.88309519zM0 19.5L24 19.5C24.2761424 19.5 24.5 19.2761424 24.5 19 24.5 18.7238576 24.2761424 18.5 24 18.5L0 18.5C-.276142375 18.5-.5 18.7238576-.5 19-.5 19.2761424-.276142375 19.5 0 19.5z"/>
  </g>
</svg>
