<svg xmlns="http://www.w3.org/2000/svg" width="19" height="19" viewBox="0 0 19 19">
  <path fill="#FFF" d="M9.2,4.6 C8.64,6.16 7.98,7.6 7.24,8.9 L6.3,8.3 C7.62,6.04 8.58,3.48 9.2,0.64 L10.28,0.88 C10.06,1.8 9.82,2.68 9.56,3.52 L18.04,3.52 L18.04,4.6 L11.62,4.6 L11.62,8.42 L17.32,8.42 L17.32,9.46 L11.62,9.46 L11.62,13.2 L17.78,13.2 L17.78,14.22 L11.62,14.22 L11.62,18.92 L10.54,18.92 L10.54,4.6 L9.2,4.6 Z M6.18,2.32 L6.18,16.74 L5.12,16.74 L5.12,15.46 L1.86,15.46 L1.86,17.2 L0.78,17.2 L0.78,2.32 L6.18,2.32 Z M1.86,14.42 L5.12,14.42 L5.12,9.36 L1.86,9.36 L1.86,14.42 Z M1.86,8.34 L5.12,8.34 L5.12,3.32 L1.86,3.32 L1.86,8.34 Z"/>
</svg>
