<?xml version="1.0" encoding="UTF-8"?>
<svg width="89px" height="99px" viewBox="0 0 89 99" version="1.1" xmlns="http://www.w3.org/2000/svg" xmlns:xlink="http://www.w3.org/1999/xlink">
    <!-- Generator: Sketch 63 (92445) - https://sketch.com -->
    <title>air</title>
    <desc>Created with Sketch.</desc>
    <g id="Page-1" stroke="none" stroke-width="1" fill="none" fill-rule="evenodd">
        <g id="3edata_home_slices" transform="translate(-569.000000, -913.000000)" fill="#FFFFFF" fill-rule="nonzero">
            <path d="M620.529193,945.221104 C624.663683,952.025716 626.882979,959.840083 626.882979,967.976754 C626.882979,992.212654 607.2359,1011.85973 583,1011.85973 C582.171573,1011.85973 581.5,1011.18816 581.5,1010.35973 C581.5,1009.53131 582.171573,1008.85973 583,1008.85973 C605.579046,1008.85973 623.882979,990.5558 623.882979,967.976754 C623.882979,960.393401 621.816533,953.117234 617.965352,946.778896 C617.535179,946.070911 617.760391,945.148252 618.468376,944.718079 C619.176361,944.287907 620.099021,944.513118 620.529193,945.221104 Z M624.964599,913.5 C642.856284,913.5 657.360361,928.004077 657.360361,945.895763 C657.360361,961.036113 646.890706,974.059901 632.338916,977.448144 C631.532071,977.636009 630.725699,977.134228 630.537833,976.327384 C630.349968,975.520539 630.851749,974.714167 631.658593,974.526301 C644.859272,971.452652 654.360361,959.633717 654.360361,945.895763 C654.360361,929.660931 641.19943,916.5 624.964599,916.5 C611.603695,916.5 600.052533,925.487491 596.603588,938.135104 C596.716131,938.41821 596.74211,938.737716 596.660395,939.054766 C596.482999,939.743049 595.855698,940.196136 595.174431,940.180359 C594.977746,940.215832 594.770019,940.212088 594.562502,940.16261 C594.39153,940.121846 594.234437,940.053312 594.094866,939.962932 C592.878375,939.700664 591.629005,939.568836 590.361345,939.568836 C580.496796,939.568836 572.5,947.565632 572.5,957.430181 C572.5,967.294729 580.496796,975.291525 590.361345,975.291525 C595.51935,975.291525 600.31302,973.092881 603.669043,969.344334 C603.710207,969.090857 603.818853,968.845925 603.995249,968.635193 C604.163844,968.43378 604.374088,968.287793 604.602869,968.19928 C606.035069,966.215097 607.73474,962.389899 608.805258,958.171441 C610.313593,952.227737 610.553124,945.966091 609.159992,939.867106 C608.975514,939.05948 609.480675,938.255221 610.288301,938.070743 C611.095926,937.886265 611.900185,938.391426 612.084664,939.199051 C613.590244,945.790326 613.332506,952.527924 611.713088,958.909362 C610.637049,963.149576 608.963835,967.050295 607.381382,969.453698 C610.131285,971.511245 613.224347,973.075466 616.528925,974.063618 C617.322627,974.300955 617.77365,975.136777 617.536313,975.930479 C617.298976,976.724181 616.463154,977.175204 615.669452,976.937867 C611.989052,975.837334 608.547567,974.089318 605.494326,971.789982 C601.601338,975.894862 596.177204,978.291525 590.361345,978.291525 C578.839942,978.291525 569.5,968.951583 569.5,957.430181 C569.5,945.908778 578.839942,936.568836 590.361345,936.568836 C591.538336,936.568836 592.703043,936.666463 593.846777,936.858941 C597.808512,923.173822 610.41171,913.5 624.964599,913.5 Z" id="air"></path>
        </g>
    </g>
</svg>