<?xml version="1.0" encoding="UTF-8"?>
<svg width="96px" height="96px" viewBox="0 0 96 96" version="1.1" xmlns="http://www.w3.org/2000/svg" xmlns:xlink="http://www.w3.org/1999/xlink">
    <!-- Generator: Sketch 63 (92445) - https://sketch.com -->
    <title>earth</title>
    <desc>Created with Sketch.</desc>
    <g id="Page-1" stroke="none" stroke-width="1" fill="none" fill-rule="evenodd">
        <g id="3edata_home_slices" transform="translate(-164.000000, -915.000000)" fill="#FFFFFF" fill-rule="nonzero">
            <path d="M212,915 C238.509668,915 260,936.490332 260,963 C260,979.517729 251.656751,994.086787 238.954608,1002.72282 L238.923423,1002.81494 L238.852751,1002.79188 C231.188861,1007.97385 221.947829,1011 212,1011 C185.490332,1011 164,989.509668 164,963 C164,936.490332 185.490332,915 212,915 Z M223.646938,919.521808 L223.54379,919.899892 C222.834569,922.445074 222.055063,924.904547 221.205355,927.278189 C228.393744,933.62151 233.338837,939.091043 236.050517,943.713729 C236.509494,943.574559 236.99604,943.5 237.5,943.5 C240.261424,943.5 242.5,945.738576 242.5,948.5 C242.5,951.261424 240.261424,953.5 237.5,953.5 C234.738576,953.5 232.5,951.261424 232.5,948.5 C232.5,947.334518 232.898765,946.262173 233.567302,945.411957 L233.632065,945.524552 C231.245889,941.327959 226.722983,936.239497 220.072744,930.285259 C210.991884,953.239601 194.921886,967.639613 171.943568,973.366339 C184.778841,980.428593 193.728013,984.835029 198.723817,986.563135 L199.204717,986.725215 L199.029242,987.258746 C199.851014,985.622711 201.544395,984.5 203.5,984.5 C206.261424,984.5 208.5,986.738576 208.5,989.5 C208.5,992.261424 206.261424,994.5 203.5,994.5 C200.738576,994.5 198.5,992.261424 198.5,989.5 C198.5,989.212453 198.524273,988.930575 198.570882,988.656304 L198.270573,989.57607 L197.760668,989.404297 C192.299842,987.516932 182.60722,982.707417 168.606347,974.950513 C173.839128,994.003033 191.284981,1008 212,1008 C221.004432,1008 229.391161,1005.3553 236.425787,1000.80031 C238.279358,995.042107 239.567147,989.506398 240.291239,984.190909 C230.144175,989.745603 219.81338,992.292048 209.309932,991.810569 L208.718996,991.780296 L208.88857,988.785092 C219.64216,989.393909 230.242895,986.644261 240.705721,980.509744 C241.50359,971.493187 240.61642,963.135799 238.051931,955.429706 L237.841301,954.809139 L240.676331,953.828014 C243.326089,961.484677 244.384579,969.729271 243.858339,978.556215 C247.786389,975.990665 251.696062,972.944345 255.587195,969.416394 L256.407424,970.321285 C256.797279,967.938595 257,965.492971 257,963 C257,942.175006 242.85402,924.653983 223.646938,919.521808 Z M255.837817,973.205332 L255.338003,973.637062 C251.435511,976.986838 247.503771,979.876524 243.543497,982.304854 C243.002795,987.311998 241.97077,992.500011 240.448489,997.867494 C248.028604,991.6767 253.552407,983.061662 255.837817,973.205332 Z M203.5,987.5 C202.395431,987.5 201.5,988.395431 201.5,989.5 C201.5,990.604569 202.395431,991.5 203.5,991.5 C204.604569,991.5 205.5,990.604569 205.5,989.5 C205.5,988.395431 204.604569,987.5 203.5,987.5 Z M206.486041,918.334446 C184.234307,921.05309 167,940.013901 167,963 C167,965.813957 167.258284,968.567589 167.752439,971.238481 L167.470462,971.296934 C191.839872,966.406011 208.541689,952.082432 217.674353,928.180283 C214.631662,925.558246 211.203603,922.780479 207.390584,919.848233 L206.09173,918.854757 Z M237.5,946.5 C236.395431,946.5 235.5,947.395431 235.5,948.5 C235.5,949.604569 236.395431,950.5 237.5,950.5 C238.604569,950.5 239.5,949.604569 239.5,948.5 C239.5,947.395431 238.604569,946.5 237.5,946.5 Z M190.5,940.5 C193.261424,940.5 195.5,942.738576 195.5,945.5 C195.5,948.261424 193.261424,950.5 190.5,950.5 C187.738576,950.5 185.5,948.261424 185.5,945.5 C185.5,942.738576 187.738576,940.5 190.5,940.5 Z M190.5,943.5 C189.395431,943.5 188.5,944.395431 188.5,945.5 C188.5,946.604569 189.395431,947.5 190.5,947.5 C191.604569,947.5 192.5,946.604569 192.5,945.5 C192.5,944.395431 191.604569,943.5 190.5,943.5 Z M212,918 C211.318063,918 210.639669,918.015169 209.965137,918.045187 C213.17012,920.525477 216.103867,922.898242 218.767544,925.165378 C219.471828,923.124178 220.123317,921.017384 220.72317,918.845016 C217.900369,918.290463 214.984105,918 212,918 Z" id="earth"></path>
        </g>
    </g>
</svg>