<?xml version="1.0" encoding="UTF-8"?>
<svg width="100px" height="100px" viewBox="0 0 100 100" version="1.1" xmlns="http://www.w3.org/2000/svg" xmlns:xlink="http://www.w3.org/1999/xlink">
    <!-- Generator: Sketch 63 (92445) - https://sketch.com -->
    <title>envir</title>
    <desc>Created with Sketch.</desc>
    <g id="Page-1" stroke="none" stroke-width="1" fill="none" fill-rule="evenodd">
        <g id="3edata_home_slices" transform="translate(-772.000000, -913.000000)" fill="#FFFFFF" fill-rule="nonzero">
            <path d="M822,913.5 C849.338095,913.5 871.5,935.661905 871.5,963 C871.5,990.338095 849.338095,1012.5 822,1012.5 C794.661905,1012.5 772.5,990.338095 772.5,963 C772.5,935.661905 794.661905,913.5 822,913.5 Z M821.302,969.138 L792.343762,998.817213 C800.392975,1005.48934 810.728118,1009.5 822,1009.5 C833.045256,1009.5 843.19106,1005.64899 851.167977,999.216414 L821.302,969.138 Z M821.941,942.138 L780.705876,984.399554 C783.125398,989.058947 786.310381,993.257046 790.094234,996.827261 L821.28395,964.861684 L853.44716,997.254206 C857.543157,993.491878 860.962449,989.004408 863.501538,983.995294 L821.941,942.138 Z M822,916.5 C796.318759,916.5 775.5,937.318759 775.5,963 C775.5,969.579418 776.866463,975.839682 779.331073,981.512475 L821.922312,937.861684 L850.092,966.233 L859.216887,956.859134 L868.39655,966.126557 C868.465153,965.093239 868.5,964.050689 868.5,963 C868.5,937.318759 847.681241,916.5 822,916.5 Z M859.235,961.141 L852.205,968.362 L864.847906,981.094916 C866.331703,977.585684 867.396982,973.856378 867.981178,969.969565 L859.235,961.141 Z" id="envir"></path>
        </g>
    </g>
</svg>