<?xml version="1.0" encoding="UTF-8"?>
<svg width="99px" height="100px" viewBox="0 0 99 100" version="1.1" xmlns="http://www.w3.org/2000/svg" xmlns:xlink="http://www.w3.org/1999/xlink">
    <!-- Generator: Sketch 63 (92445) - https://sketch.com -->
    <title>exhaust</title>
    <desc>Created with Sketch.</desc>
    <g id="Page-1" stroke="none" stroke-width="1" fill="none" fill-rule="evenodd">
        <g id="3edata_home_slices" transform="translate(-976.000000, -913.000000)" fill="#FFFFFF" fill-rule="nonzero">
            <path d="M1040.61905,913.5 C1052.80876,913.5 1062.69048,923.381715 1062.69048,935.571429 C1062.69048,938.069948 1062.27532,940.471503 1061.51023,942.710874 C1069.51328,946.140473 1074.88095,954.056824 1074.88095,963 C1074.88095,974.653909 1065.84886,984.198259 1054.40292,985.014795 C1054.84483,986.769425 1055.07143,988.5842 1055.07143,990.428571 C1055.07143,1002.61828 1045.18971,1012.5 1033,1012.5 C1025.10593,1012.5 1017.93549,1008.32002 1013.99027,1001.65003 C1013.72604,1001.20331 1013.72003,1000.6754 1013.92774,1000.23965 C1012.97904,1000.41106 1011.99991,1000.5 1011,1000.5 C1001.8873,1000.5 994.5,993.112698 994.5,984 C994.5,974.887302 1001.8873,967.5 1011,967.5 C1015.16683,967.5 1018.9729,969.044552 1021.87693,971.592357 C1022.00894,971.366118 1022.20307,971.172002 1022.4502,971.037286 C1025.20168,969.53739 1028.24267,968.639701 1031.40762,968.413793 C1030.97019,966.682048 1030.7381,964.868128 1030.7381,963 C1030.7381,960.54236 1031.14049,958.13851 1031.91849,955.861331 C1024.05538,952.486006 1018.54762,944.67192 1018.54762,935.571429 C1018.54762,923.381715 1028.42933,913.5 1040.61905,913.5 Z M1032.37936,971.367369 L1031.98406,971.383722 C1029.11826,971.534026 1026.36662,972.319139 1023.88608,973.671339 L1023.87342,973.677951 C1026.14246,976.504213 1027.5,980.093572 1027.5,984 C1027.5,991.308948 1022.74773,997.507942 1016.16454,999.675616 C1016.32539,999.79062 1016.46503,999.941223 1016.57239,1000.12273 C1019.98311,1005.88906 1026.17741,1009.5 1033,1009.5 C1043.53286,1009.5 1052.07143,1000.96143 1052.07143,990.428571 C1052.07143,988.574994 1051.80739,986.758793 1051.29375,985.019001 C1042.72166,984.43819 1035.49379,978.96369 1032.37936,971.367369 Z M1011,970.5 C1003.54416,970.5 997.5,976.544156 997.5,984 C997.5,991.455844 1003.54416,997.5 1011,997.5 C1018.45584,997.5 1024.5,991.455844 1024.5,984 C1024.5,976.544156 1018.45584,970.5 1011,970.5 Z M1060.34869,945.475723 L1060.2269,945.714521 C1056.55373,952.800817 1049.15185,957.642857 1040.61905,957.642857 C1038.58731,957.642857 1036.61969,957.368332 1034.75125,956.854353 C1034.083,958.813074 1033.7381,960.881748 1033.7381,963 C1033.7381,973.532859 1042.27666,982.071429 1052.80952,982.071429 C1063.34238,982.071429 1071.88095,973.532859 1071.88095,963 C1071.88095,955.27994 1067.25168,948.444884 1060.34869,945.475723 Z M1040.61905,916.5 C1030.08619,916.5 1021.54762,925.038569 1021.54762,935.571429 C1021.54762,946.104288 1030.08619,954.642857 1040.61905,954.642857 C1048.3028,954.642857 1054.92524,950.098851 1057.94573,943.551475 C1057.94098,943.381979 1057.96662,943.208633 1058.02456,943.038489 C1058.10695,942.796535 1058.24505,942.589323 1058.41967,942.426292 C1059.24094,940.29998 1059.69048,937.988202 1059.69048,935.571429 C1059.69048,925.038569 1051.15191,916.5 1040.61905,916.5 Z M1014.42857,950.5 C1015.257,950.5 1015.92857,951.171573 1015.92857,952 C1015.92857,952.779696 1015.33368,953.420449 1014.57303,953.493133 L1014.42857,953.5 L978,953.5 C977.171573,953.5 976.5,952.828427 976.5,952 C976.5,951.220304 977.094888,950.579551 977.85554,950.506867 L978,950.5 L1014.42857,950.5 Z M1014.42857,938.568836 C1015.257,938.568836 1015.92857,939.240409 1015.92857,940.068836 C1015.92857,940.848532 1015.33368,941.489285 1014.57303,941.561969 L1014.42857,941.568836 L978,941.568836 C977.171573,941.568836 976.5,940.897263 976.5,940.068836 C976.5,939.28914 977.094888,938.648387 977.85554,938.575703 L978,938.568836 L1014.42857,938.568836 Z M1014.42857,924.5 C1015.257,924.5 1015.92857,925.171573 1015.92857,926 C1015.92857,926.779696 1015.33368,927.420449 1014.57303,927.493133 L1014.42857,927.5 L978,927.5 C977.171573,927.5 976.5,926.828427 976.5,926 C976.5,925.220304 977.094888,924.579551 977.85554,924.506867 L978,924.5 L1014.42857,924.5 Z" id="exhaust"></path>
        </g>
    </g>
</svg>