<?xml version="1.0" encoding="UTF-8"?>
<svg width="123px" height="146px" viewBox="0 0 123 146" version="1.1" xmlns="http://www.w3.org/2000/svg" xmlns:xlink="http://www.w3.org/1999/xlink">
    <!-- Generator: Sketch 63 (92445) - https://sketch.com -->
    <title>lamp</title>
    <desc>Created with Sketch.</desc>
    <g id="Page-1" stroke="none" stroke-width="1" fill="none" fill-rule="evenodd">
        <g id="3edata_home_slices" transform="translate(-248.000000, -2359.000000)" fill="#FFFFFF" fill-rule="nonzero">
            <path d="M328,2498.5 C329.656854,2498.5 331,2499.84315 331,2501.5 C331,2503.09768 329.75108,2504.40366 328.176273,2504.49491 L328,2504.5 L282,2504.5 C280.343146,2504.5 279,2503.15685 279,2501.5 C279,2499.90232 280.24892,2498.59634 281.823727,2498.50509 L282,2498.5 L328,2498.5 Z M336,2483.5 C337.656854,2483.5 339,2484.84315 339,2486.5 C339,2488.09768 337.75108,2489.40366 336.176273,2489.49491 L336,2489.5 L274,2489.5 C272.343146,2489.5 271,2488.15685 271,2486.5 C271,2484.90232 272.24892,2483.59634 273.823727,2483.50509 L274,2483.5 L336,2483.5 Z M305.5,2359.27273 C334.780076,2359.27273 358.924209,2381.26232 362.318907,2409.62801 L365.727932,2404.49145 C366.561081,2403.23662 368.253721,2402.89478 369.50855,2403.72793 C370.713185,2404.52775 371.076409,2406.11969 370.366423,2407.35595 L370.272068,2407.50855 L362.304615,2419.50855 C361.298389,2421.02405 359.135812,2421.13752 357.970475,2419.78526 L357.853569,2419.64014 L348.821022,2407.64014 C347.915196,2406.43673 348.15644,2404.72685 349.359856,2403.82102 C350.515136,2402.95143 352.137172,2403.13898 353.066503,2404.22008 L353.178978,2404.35986 L356.747731,2409.09904 C353.156834,2384.01165 331.580471,2364.72727 305.5,2364.72727 C276.906712,2364.72727 253.727273,2387.90671 253.727273,2416.5 C253.727273,2445.09329 276.906712,2468.27273 305.5,2468.27273 C320.864355,2468.27273 335.128776,2461.5444 344.908541,2450.07814 C345.885989,2448.93214 347.607388,2448.79549 348.753393,2449.77294 C349.899398,2450.75039 350.036041,2452.47179 349.058593,2453.61779 C338.253205,2466.28653 322.478446,2473.72727 305.5,2473.72727 C273.89425,2473.72727 248.272727,2448.10575 248.272727,2416.5 C248.272727,2384.89425 273.89425,2359.27273 305.5,2359.27273 Z M309.441302,2376.97767 C311.194715,2375.39118 313.998381,2376.63539 313.998381,2379 C313.998381,2392.53121 316.4584,2402.78714 321.27558,2409.79441 L321.27558,2409.79441 L321.528474,2410.17165 C329.05777,2421.69226 322.1328,2437.91821 310.479356,2440.40285 C312.716574,2445.01774 315.673851,2448.61487 318.578997,2450.59532 C319.823553,2451.44374 320.144687,2453.14043 319.29627,2454.38498 C318.447853,2455.62954 316.751163,2455.95067 315.506607,2455.10226 C311.362768,2452.27739 307.340152,2447.14905 304.628466,2440.69303 C298.713414,2440.53064 295.254841,2439.74914 292.083009,2437.45803 C287.471355,2434.1269 285.272727,2428.10361 285.272727,2418.59211 C285.272727,2405.32754 293.410582,2391.48227 309.441302,2376.97767 Z M308.719,2385.173 L308.542478,2385.34878 C296.607549,2397.26856 290.727273,2408.36833 290.727273,2418.59211 C290.727273,2426.5225 292.327252,2430.90575 295.276908,2433.03637 C297.013067,2434.29045 299.170902,2434.90275 302.728676,2435.14384 C302.453401,2434.11822 302.211654,2433.06953 302.007603,2432.00162 C301.131884,2427.41849 301.269384,2419.54114 302.374044,2408.19051 C302.51454,2406.74689 303.756364,2405.67615 305.186828,2405.7291 L305.352666,2405.74024 C306.851815,2405.88614 307.94884,2407.21971 307.80294,2408.71886 L307.685127,2409.95662 C306.737557,2420.14618 306.64457,2427.20633 307.365223,2430.97791 C307.644038,2432.43711 308.002665,2433.85246 308.42769,2435.21355 C316.956745,2434.24818 322.718707,2421.52209 316.78071,2412.88443 L316.78071,2412.88443 L316.480077,2412.43971 C312.013002,2405.71978 309.454487,2396.78373 308.747028,2385.64643 L308.747028,2385.64643 L308.719,2385.173 Z" id="lamp"></path>
        </g>
    </g>
</svg>