<?xml version="1.0" encoding="UTF-8"?>
<svg width="98px" height="96px" viewBox="0 0 98 96" version="1.1" xmlns="http://www.w3.org/2000/svg" xmlns:xlink="http://www.w3.org/1999/xlink">
    <!-- Generator: Sketch 63 (92445) - https://sketch.com -->
    <title>loop</title>
    <desc>Created with Sketch.</desc>
    <g id="Page-1" stroke="none" stroke-width="1" fill="none" fill-rule="evenodd">
        <g id="3edata_home_slices" transform="translate(-366.000000, -913.000000)" fill="#FFFFFF" fill-rule="nonzero">
            <path d="M449.917654,966.356793 L449.995288,966.478812 L462.640608,988.608122 C463.328915,989.812659 463.690962,991.17597 463.690962,992.563297 C463.690962,996.882991 460.25523,1000.40023 455.967356,1000.53141 L455.719051,1000.53521 L415.068743,1000.53474 L423.057592,1005.78862 C423.709034,1006.21704 423.91751,1007.06615 423.560277,1007.74162 L423.486636,1007.86609 C423.05821,1008.51754 422.209097,1008.72601 421.533627,1008.36878 L421.409157,1008.29514 L408.690693,999.930739 C407.866709,999.388839 407.788562,998.224674 408.498398,997.574159 L408.600082,997.488743 L421.318499,987.700782 C421.975066,987.195599 422.916863,987.318231 423.422172,987.974704 C423.897634,988.592652 423.816977,989.463255 423.258498,989.984768 L423.148203,990.078314 L413.458743,997.534743 L455.719051,997.535207 C458.464962,997.535207 460.690962,995.309207 460.690962,992.563297 C460.690962,991.794189 460.512551,991.036916 460.171405,990.350506 L460.035878,990.096539 L447.390558,967.967229 C446.979543,967.247953 447.229438,966.331671 447.948715,965.920656 C448.62568,965.533818 449.477157,965.732423 449.917654,966.356793 Z M392.091745,950.348052 L392.098766,950.480665 L392.261645,966.528586 C392.26997,967.356971 391.605244,968.035322 390.776859,968.043804 C389.997203,968.051635 389.350449,967.463277 389.270052,966.703401 L389.26172,966.559019 L389.161743,956.835743 L370.156191,990.096539 C368.793838,992.480657 369.622142,995.517771 372.006259,996.880124 C372.674032,997.261708 373.420045,997.482517 374.185272,997.526875 L374.473018,997.535207 L401.102004,997.535207 C401.930431,997.535207 402.602004,998.20678 402.602004,999.035207 C402.602004,999.814903 402.007116,1000.45566 401.246464,1000.52834 L401.102004,1000.53521 L374.473018,1000.53521 C373.08569,1000.53521 371.72238,1000.17316 370.517843,999.484853 C366.771626,997.344158 365.4212,992.624505 367.424605,988.838709 L367.551461,988.608122 L387.859743,953.066743 L376.769447,957.031958 C376.035242,957.29439 375.231647,956.949877 374.907181,956.25807 L374.852093,956.12435 C374.589661,955.390146 374.934174,954.58655 375.625981,954.262084 L375.759701,954.206996 L390.093971,949.0834 C391.022636,948.751461 391.99941,949.389661 392.091745,950.348052 Z M421.883335,917.291484 L422.017591,917.517843 L443.165743,954.527743 L443.407916,944.127441 C443.42603,943.347955 444.035644,942.721196 444.797779,942.666203 L444.94236,942.662694 C445.721845,942.680808 446.348604,943.290422 446.403598,944.052557 L446.407106,944.197138 L446.053452,959.415464 C446.03054,960.401405 445.084684,961.084591 444.156859,960.827336 L444.030538,960.786367 L428.990143,955.187367 C428.213796,954.898272 427.818717,954.034598 428.107664,953.258194 C428.379758,952.527517 429.160813,952.134568 429.89903,952.331826 L430.036808,952.37579 L440.762743,956.367743 L419.412861,919.006259 C418.050508,916.622142 415.013394,915.793838 412.629276,917.156191 C411.944119,917.547709 411.363253,918.095949 410.933282,918.754305 L410.779208,919.006259 L396.277137,944.384882 C395.866122,945.104159 394.94984,945.354054 394.230564,944.943039 C393.553598,944.556201 393.292417,943.721791 393.606698,943.025299 L393.672408,942.896466 L408.174478,917.517843 C408.880704,916.281947 409.904964,915.257687 411.140859,914.551461 C414.887076,912.410766 419.63884,913.643454 421.883335,917.291484 Z" id="loop"></path>
        </g>
    </g>
</svg>