<?xml version="1.0" encoding="UTF-8"?>
<svg width="64px" height="71px" viewBox="0 0 64 71" version="1.1" xmlns="http://www.w3.org/2000/svg" xmlns:xlink="http://www.w3.org/1999/xlink">
    <!-- Generator: Sketch 63 (92445) - https://sketch.com -->
    <title>member-tourist</title>
    <desc>Created with Sketch.</desc>
    <g id="Page-1" stroke="none" stroke-width="1" fill="none" fill-rule="evenodd">
        <g id="3edata_home_slices" transform="translate(-282.000000, -3393.000000)" fill="#FFFFFF" fill-rule="nonzero">
            <path d="M314,3431.5 C331.223,3431.5 345.21761,3445.32238 345.49578,3462.47909 L345.5,3463 L344.5,3463 C344.5,3446.15532 330.844685,3432.5 314,3432.5 C297.492209,3432.5 284.047488,3445.61456 283.516303,3461.99323 L283.504,3462.5 L304.394531,3462.5 L304.394531,3463.5 L282.5,3463.5 L282.5,3463 C282.5,3445.60303 296.60303,3431.5 314,3431.5 Z M313.5,3393.5 C322.888841,3393.5 330.5,3401.11116 330.5,3410.5 C330.5,3419.88884 322.888841,3427.5 313.5,3427.5 C304.111159,3427.5 296.5,3419.88884 296.5,3410.5 C296.5,3401.11116 304.111159,3393.5 313.5,3393.5 Z M313.5,3394.5 C304.663444,3394.5 297.5,3401.66344 297.5,3410.5 C297.5,3419.33656 304.663444,3426.5 313.5,3426.5 C322.336556,3426.5 329.5,3419.33656 329.5,3410.5 C329.5,3401.66344 322.336556,3394.5 313.5,3394.5 Z" id="member-tourist"></path>
        </g>
    </g>
</svg>