<?xml version="1.0" encoding="UTF-8"?>
<svg width="68px" height="71px" viewBox="0 0 68 71" version="1.1" xmlns="http://www.w3.org/2000/svg" xmlns:xlink="http://www.w3.org/1999/xlink">
    <!-- Generator: Sketch 63 (92445) - https://sketch.com -->
    <title>member-reg</title>
    <desc>Created with Sketch.</desc>
    <g id="Page-1" stroke="none" stroke-width="1" fill="none" fill-rule="evenodd">
        <g id="3edata_home_slices" transform="translate(-688.000000, -3393.000000)" fill="#FFFFFF" fill-rule="nonzero">
            <path d="M720,3431.5 C725.529972,3431.5 730.852106,3432.92746 735.550187,3435.59961 L736.051146,3435.89067 L735.540863,3436.75068 C730.875105,3433.98227 725.546646,3432.5 720,3432.5 C703.492209,3432.5 690.047488,3445.61456 689.516303,3461.99323 L689.504,3462.5 L711.728516,3462.5 L711.728516,3463.5 L688.5,3463.5 L688.5,3463 C688.5,3445.60303 702.60303,3431.5 720,3431.5 Z M746.154898,3445.43947 C749.515333,3450.43484 751.384625,3456.2893 751.49483,3462.42406 L751.5,3463 L750.5,3463 C750.5,3457.04844 748.792422,3451.3526 745.635221,3446.46781 L745.325169,3445.99764 L746.154898,3445.43947 Z M755.019569,3426.64645 C755.193135,3426.82001 755.212421,3427.08944 755.077424,3427.28431 L755.019569,3427.35355 L723.300819,3459.0723 C723.127253,3459.24587 722.857828,3459.26515 722.66296,3459.13016 L722.593712,3459.0723 L711.374962,3447.85355 C711.1797,3447.65829 711.1797,3447.34171 711.374962,3447.14645 C711.548529,3446.97288 711.817953,3446.9536 712.012821,3447.08859 L712.082069,3447.14645 L722.947,3458.011 L754.312462,3426.64645 C754.507724,3426.45118 754.824307,3426.45118 755.019569,3426.64645 Z M719.5,3393.5 C728.888841,3393.5 736.5,3401.11116 736.5,3410.5 C736.5,3419.88884 728.888841,3427.5 719.5,3427.5 C710.111159,3427.5 702.5,3419.88884 702.5,3410.5 C702.5,3401.11116 710.111159,3393.5 719.5,3393.5 Z M719.5,3394.5 C710.663444,3394.5 703.5,3401.66344 703.5,3410.5 C703.5,3419.33656 710.663444,3426.5 719.5,3426.5 C728.336556,3426.5 735.5,3419.33656 735.5,3410.5 C735.5,3401.66344 728.336556,3394.5 719.5,3394.5 Z" id="member-reg"></path>
        </g>
    </g>
</svg>