<?xml version="1.0" encoding="UTF-8"?>
<svg width="64px" height="72px" viewBox="0 0 64 72" version="1.1" xmlns="http://www.w3.org/2000/svg" xmlns:xlink="http://www.w3.org/1999/xlink">
    <!-- Generator: Sketch 63 (92445) - https://sketch.com -->
    <title>member-vip</title>
    <desc>Created with Sketch.</desc>
    <g id="Page-1" stroke="none" stroke-width="1" fill="none" fill-rule="evenodd">
        <g id="3edata_home_slices" transform="translate(-1095.000000, -3391.000000)" fill="#FFFFFF" fill-rule="nonzero">
            <path d="M1132.84557,3441.5 L1138.21443,3449.44004 L1126.6673,3462.14235 L1115.36812,3449.43639 L1120.73451,3441.5 L1132.84557,3441.5 Z M1127,3429.5 C1144.223,3429.5 1158.21761,3443.32238 1158.49578,3460.47909 L1158.5,3461 L1157.5,3461 C1157.5,3444.15532 1143.84468,3430.5 1127,3430.5 C1110.49221,3430.5 1097.04749,3443.61456 1096.5163,3459.99323 L1096.504,3460.5 L1116,3460.5 L1116,3461.5 L1095.5,3461.5 L1095.5,3461 C1095.5,3443.60303 1109.60303,3429.5 1127,3429.5 Z M1132.314,3442.5 L1121.265,3442.5 L1116.631,3449.353 L1126.675,3460.646 L1136.945,3449.349 L1132.314,3442.5 Z M1131.79892,3448.67029 L1132.55069,3449.32971 L1127.0874,3455.55804 L1121.62412,3449.32971 L1122.37588,3448.67029 L1127.087,3454.041 L1131.79892,3448.67029 Z M1126.5,3391.5 C1135.88884,3391.5 1143.5,3399.11116 1143.5,3408.5 C1143.5,3417.88884 1135.88884,3425.5 1126.5,3425.5 C1117.11116,3425.5 1109.5,3417.88884 1109.5,3408.5 C1109.5,3399.11116 1117.11116,3391.5 1126.5,3391.5 Z M1126.5,3392.5 C1117.66344,3392.5 1110.5,3399.66344 1110.5,3408.5 C1110.5,3417.33656 1117.66344,3424.5 1126.5,3424.5 C1135.33656,3424.5 1142.5,3417.33656 1142.5,3408.5 C1142.5,3399.66344 1135.33656,3392.5 1126.5,3392.5 Z" id="member-vip"></path>
        </g>
    </g>
</svg>