<?xml version="1.0" encoding="UTF-8"?>
<svg width="16px" height="16px" viewBox="0 0 16 16" version="1.1" xmlns="http://www.w3.org/2000/svg" xmlns:xlink="http://www.w3.org/1999/xlink">
    <!-- Generator: Sketch 63 (92445) - https://sketch.com -->
    <title>more</title>
    <desc>Created with Sketch.</desc>
    <g id="Page-1" stroke="none" stroke-width="1" fill="none" fill-rule="evenodd">
        <g id="3edata_home_slices" transform="translate(-1307.000000, -2271.000000)" fill="#FFFFFF" fill-rule="nonzero">
            <path d="M1308.52119,2271.23424 L1308.60005,2271.31554 L1314.69527,2278.52676 C1314.90596,2278.77604 1314.92938,2279.10841 1314.7655,2279.37615 L1314.69527,2279.47324 L1308.60005,2286.68446 C1308.3055,2287.03294 1307.74834,2287.10357 1307.35561,2286.84221 C1306.9956,2286.60263 1306.89872,2286.16725 1307.11195,2285.82793 L1307.17783,2285.73799 L1312.8728,2279 L1307.17783,2272.26201 C1306.90782,2271.94257 1306.9522,2271.50054 1307.26398,2271.22777 L1307.35561,2271.15779 C1307.71561,2270.91821 1308.21378,2270.95759 1308.52119,2271.23424 Z M1316.64814,2271.23424 L1316.727,2271.31554 L1322.82222,2278.52676 C1323.03292,2278.77604 1323.05633,2279.10841 1322.89246,2279.37615 L1322.82222,2279.47324 L1316.727,2286.68446 C1316.43245,2287.03294 1315.8753,2287.10357 1315.48256,2286.84221 C1315.12256,2286.60263 1315.02568,2286.16725 1315.23891,2285.82793 L1315.30479,2285.73799 L1320.99975,2279 L1315.30479,2272.26201 C1315.03478,2271.94257 1315.07916,2271.50054 1315.39094,2271.22777 L1315.48256,2271.15779 C1315.84257,2270.91821 1316.34074,2270.95759 1316.64814,2271.23424 Z" id="more"></path>
        </g>
    </g>
</svg>