<?xml version="1.0" encoding="UTF-8"?>
<svg width="146px" height="123px" viewBox="0 0 146 123" version="1.1" xmlns="http://www.w3.org/2000/svg" xmlns:xlink="http://www.w3.org/1999/xlink">
    <!-- Generator: Sketch 63 (92445) - https://sketch.com -->
    <title>plan</title>
    <desc>Created with Sketch.</desc>
    <g id="Page-1" stroke="none" stroke-width="1" fill="none" fill-rule="evenodd">
        <g id="3edata_home_slices" transform="translate(-645.000000, -2370.000000)" fill="#FFFFFF" fill-rule="nonzero">
            <path d="M743,2486.43431 C744.693136,2486.43431 746.065693,2487.80686 746.065693,2489.5 C746.065693,2491.13267 744.789425,2492.46724 743.180133,2492.56049 L743,2492.56569 L678,2492.56569 C676.306864,2492.56569 674.934307,2491.19314 674.934307,2489.5 C674.934307,2487.86733 676.210575,2486.53276 677.819867,2486.43951 L678,2486.43431 L743,2486.43431 Z M739.993865,2445 C742.957055,2445 745.42638,2446.03774 747.331288,2448.11321 C749.165644,2450.09434 750.259202,2452.83019 750.647239,2456.22642 L750.647239,2456.22642 L746.625767,2456.22642 C746.202454,2454.00943 745.42638,2452.40566 744.26227,2451.36792 C743.133436,2450.33019 741.687117,2449.85849 739.923313,2449.85849 C737.277607,2449.85849 735.302147,2451.03774 733.961656,2453.49057 C732.726994,2455.66038 732.127301,2458.67925 732.127301,2462.54717 C732.127301,2466.50943 732.726994,2469.57547 733.92638,2471.69811 C735.231595,2473.96226 737.277607,2475.14151 740.029141,2475.14151 C741.828221,2475.14151 743.309816,2474.5283 744.43865,2473.39623 C745.638037,2472.12264 746.484663,2470.18868 746.978528,2467.64151 L746.978528,2467.64151 L751,2467.64151 C750.435583,2471.60377 749.130368,2474.66981 747.04908,2476.88679 C745.108896,2478.96226 742.780675,2480 740.064417,2480 C735.866564,2480 732.726994,2478.20755 730.680982,2474.71698 C728.881902,2471.69811 728,2467.64151 728,2462.54717 C728,2457.54717 728.917178,2453.4434 730.78681,2450.33019 C732.903374,2446.74528 735.972393,2445 739.993865,2445 Z M765.982734,2445 C769.746763,2445 772.716547,2446.65094 774.892086,2450 C776.964029,2453.16038 778,2457.35849 778,2462.54717 C778,2467.73585 776.964029,2471.88679 774.892086,2475.04717 C772.716547,2478.34906 769.746763,2480 765.982734,2480 C762.184173,2480 759.214388,2478.30189 757.073381,2475 C755.001439,2471.79245 754,2467.64151 754,2462.54717 C754,2457.40566 755.001439,2453.25472 757.073381,2450.04717 C759.214388,2446.65094 762.184173,2445 765.982734,2445 Z M785.742972,2461 C787.267068,2461 788.526104,2461.43956 789.52008,2462.31868 C790.491968,2463.1978 790.977912,2464.31868 790.977912,2465.72527 C790.977912,2467.08791 790.447791,2468.31868 789.431727,2469.43956 C788.813253,2470.0989 787.708835,2470.93407 786.162651,2471.96703 C784.550201,2473.02198 783.578313,2473.94505 783.2249,2474.73626 L783.2249,2474.73626 L791,2474.73626 L791,2477 L780,2477 C780,2475.3956 780.508032,2474.01099 781.568273,2472.82418 C782.14257,2472.16484 783.35743,2471.1978 785.190763,2469.94505 C786.206827,2469.24176 786.913655,2468.64835 787.355422,2468.18681 C788.040161,2467.41758 788.393574,2466.58242 788.393574,2465.7033 C788.393574,2464.84615 788.150602,2464.20879 787.708835,2463.79121 C787.24498,2463.37363 786.560241,2463.17582 785.654618,2463.17582 C784.682731,2463.17582 783.953815,2463.50549 783.467871,2464.16484 C782.981928,2464.78022 782.716867,2465.72527 782.672691,2466.95604 L782.672691,2466.95604 L780.088353,2466.95604 C780.110442,2465.1978 780.618474,2463.79121 781.634538,2462.71429 C782.672691,2461.57143 784.042169,2461 785.742972,2461 Z M766.5,2450 C764.086957,2450 762.228261,2451.16604 760.891304,2453.49813 C759.619565,2455.73694 759,2458.72201 759,2462.54664 C759,2466.32463 759.619565,2469.3097 760.891304,2471.54851 C762.195652,2473.83396 764.086957,2475 766.5,2475 C768.913043,2475 770.771739,2473.8806 772.076087,2471.68843 C773.347826,2469.49627 774,2466.46455 774,2462.54664 C774,2458.62873 773.347826,2455.55037 772.076087,2453.31157 C770.771739,2451.07276 768.913043,2450 766.5,2450 Z M764.848739,2370.93431 C769.848533,2370.93431 773.92056,2374.91102 774.061899,2379.8728 L774.065693,2380.13953 L774.065693,2432.74528 C774.065693,2434.43841 772.693136,2435.81097 771,2435.81097 C769.367333,2435.81097 768.032755,2434.5347 767.939511,2432.92541 L767.934307,2432.74528 L767.934307,2380.13953 C767.934307,2378.50379 766.650981,2377.16449 765.03017,2377.07092 L764.848739,2377.06569 L655.151261,2377.06569 C653.506749,2377.06569 652.16469,2378.34657 652.070927,2379.95905 L652.065693,2380.13953 L652.065693,2455.86047 C652.065693,2457.49621 653.349019,2458.83551 654.96983,2458.92908 L655.151261,2458.93431 L710.512605,2458.93431 C712.205741,2458.93431 713.578298,2460.30686 713.578298,2462 C713.578298,2463.63267 712.30203,2464.96724 710.692738,2465.06049 L710.512605,2465.06569 L655.151261,2465.06569 C650.151467,2465.06569 646.07944,2461.08898 645.938101,2456.1272 L645.934307,2455.86047 L645.934307,2380.13953 C645.934307,2375.14353 649.918618,2371.07917 654.884319,2370.93809 L655.151261,2370.93431 L764.848739,2370.93431 Z M699.242335,2392.27215 L699.340722,2392.4268 L723.81,2433.353 L731.18675,2407.59974 C731.842318,2405.31067 734.723603,2404.62848 736.3401,2406.31461 L736.461892,2406.449 L743.304,2414.434 L754,2414.43431 C755.632667,2414.43431 756.967245,2415.71058 757.060489,2417.31987 L757.065693,2417.5 C757.065693,2419.13267 755.789425,2420.46724 754.180133,2420.56049 L754,2420.56569 L741.894188,2420.56569 C741.067938,2420.56569 740.279781,2420.23236 739.705319,2419.64648 L739.566257,2419.4948 L735.513,2414.764 L727.757396,2441.84405 C727.03533,2444.36532 723.712036,2444.85486 722.275996,2442.72598 L722.178926,2442.5732 L697.419,2401.161 L689.972721,2422.13322 C689.562907,2423.28732 688.508782,2424.08072 687.299135,2424.16552 L687.106917,2424.17297 L665.023157,2424.33979 C663.330069,2424.35257 661.947183,2422.99042 661.934305,2421.29734 C661.922062,2419.66472 663.188213,2418.32054 664.796755,2418.21514 L664.976843,2418.20857 L684.913,2418.057 L693.820502,2392.97414 C694.667673,2390.58839 697.853083,2390.21774 699.242335,2392.27215 Z" id="plan"></path>
        </g>
    </g>
</svg>