<?xml version="1.0" encoding="UTF-8"?>
<svg width="146px" height="131px" viewBox="0 0 146 131" version="1.1" xmlns="http://www.w3.org/2000/svg" xmlns:xlink="http://www.w3.org/1999/xlink">
    <!-- Generator: Sketch 63 (92445) - https://sketch.com -->
    <title>report</title>
    <desc>Created with Sketch.</desc>
    <g id="Page-1" stroke="none" stroke-width="1" fill="none" fill-rule="evenodd">
        <g id="3edata_home_slices" transform="translate(-1057.000000, -2367.000000)" fill="#FFFFFF" fill-rule="nonzero">
            <path d="M1176.89706,2367 C1178.97803,2367 1180.88122,2368.49914 1180.99466,2370.69105 L1181,2370.89855 L1181,2429 L1203,2429 L1203,2488.38583 C1203,2493.69559 1198.69559,2498 1193.38583,2498 L1193.38583,2498 L1066.61417,2498 C1061.30441,2498 1057,2493.69559 1057,2488.38583 L1057,2488.38583 L1057,2429 L1074,2429 L1074,2397.89744 C1074,2395.67638 1075.82406,2394.09802 1077.88908,2394.0044 L1078.08333,2394 L1100,2394 L1100,2370.89855 C1100,2368.66412 1101.84014,2367.09728 1103.90842,2367.00437 L1104.10294,2367 L1176.89706,2367 Z M1110.052,2435 L1063,2435 L1063,2488.38583 C1063,2490.31749 1064.51541,2491.89521 1066.42223,2491.99499 L1066.42223,2491.99499 L1066.61417,2492 L1193.38583,2492 C1195.38188,2492 1197,2490.38188 1197,2488.38583 L1197,2488.38583 L1197,2435 L1148.845,2435 L1148.70086,2435.24859 C1143.65652,2443.81144 1137.54207,2448.37467 1130.37182,2448.5269 L1130.37182,2448.5269 L1130,2448.53084 C1121.99617,2448.53084 1115.35186,2443.96024 1110.18055,2435.2192 L1110.18055,2435.2192 L1110.052,2435 Z M1148,2460.5 C1149.65685,2460.5 1151,2461.84315 1151,2463.5 C1151,2465.09768 1149.75108,2466.40366 1148.17627,2466.49491 L1148,2466.5 L1112,2466.5 C1110.34315,2466.5 1109,2465.15685 1109,2463.5 C1109,2461.90232 1110.24892,2460.59634 1111.82373,2460.50509 L1112,2460.5 L1148,2460.5 Z M1175,2373 L1106,2373 L1106,2429 L1113.60814,2429 L1114.45608,2430.58449 C1118.80478,2438.7106 1123.94017,2442.53084 1130,2442.53084 C1135.25976,2442.53084 1140.06831,2438.72296 1144.44398,2430.57997 L1144.44398,2430.57997 L1145.29298,2429 L1175,2429 L1175,2373 Z M1100,2400 L1080,2400 L1080,2429 L1100,2429 L1100,2400 Z M1147,2404.5 C1148.65685,2404.5 1150,2405.84315 1150,2407.5 C1150,2409.09768 1148.75108,2410.40366 1147.17627,2410.49491 L1147,2410.5 L1122,2410.5 C1120.34315,2410.5 1119,2409.15685 1119,2407.5 C1119,2405.90232 1120.24892,2404.59634 1121.82373,2404.50509 L1122,2404.5 L1147,2404.5 Z M1159,2388.5 C1160.65685,2388.5 1162,2389.84315 1162,2391.5 C1162,2393.09768 1160.75108,2394.40366 1159.17627,2394.49491 L1159,2394.5 L1122,2394.5 C1120.34315,2394.5 1119,2393.15685 1119,2391.5 C1119,2389.90232 1120.24892,2388.59634 1121.82373,2388.50509 L1122,2388.5 L1159,2388.5 Z" id="report"></path>
        </g>
    </g>
</svg>