<?xml version="1.0" encoding="UTF-8"?>
<svg width="90px" height="101px" viewBox="0 0 90 101" version="1.1" xmlns="http://www.w3.org/2000/svg" xmlns:xlink="http://www.w3.org/1999/xlink">
    <!-- Generator: Sketch 63 (92445) - https://sketch.com -->
    <title>water</title>
    <desc>Created with Sketch.</desc>
    <g id="Page-1" stroke="none" stroke-width="1" fill="none" fill-rule="evenodd">
        <g id="3edata_home_slices" transform="translate(-1184.000000, -912.000000)" fill="#FFFFFF" fill-rule="nonzero">
            <path d="M1204.85104,932.247168 L1206.62559,934.666049 C1194.97835,943.210731 1187.5,955.379703 1187.5,967.934579 C1187.5,990.890527 1206.10947,1009.5 1229.06542,1009.5 C1252.02137,1009.5 1270.63084,990.890527 1270.63084,967.934579 C1270.63084,955.464412 1265.10719,943.902287 1255.74242,936.058106 L1255.31411,935.704123 L1257.20998,933.379114 C1267.52585,941.790933 1273.63084,954.364218 1273.63084,967.934579 C1273.63084,992.547382 1253.67822,1012.5 1229.06542,1012.5 C1204.45262,1012.5 1184.5,992.547382 1184.5,967.934579 C1184.5,954.485688 1192.29915,941.630697 1204.40087,932.580611 L1204.85104,932.247168 Z M1196.40905,960.749914 C1196.7139,958.886545 1197.79936,957.678919 1199.51598,958.637877 C1200.21689,959.029427 1203.67888,963.260684 1204.9263,964.457323 C1208.43537,967.823525 1212.42171,969.719766 1217.47196,969.719766 C1221.20122,969.719766 1225.58934,968.679298 1231.16691,966.647859 C1232.66627,966.101768 1234.18764,965.510912 1236.06006,964.75335 L1236.06006,964.75335 L1239.77473,963.234813 C1249.04249,959.447024 1250.81166,958.855762 1254.21695,958.457552 L1254.21695,958.457552 L1254.50088,958.427042 C1259.85453,957.903345 1262.86449,960.571866 1262.86449,966.645859 C1262.86449,985.064813 1247.93297,999.996326 1229.51402,999.996326 C1211.09506,999.996326 1196.16355,985.064813 1196.16355,966.645859 C1196.16355,963.845855 1196.21925,962.145433 1196.36658,961.037707 L1196.36658,961.037707 Z M1259.86449,966.645859 C1259.86449,962.291306 1258.34316,960.995482 1254.56539,961.437248 L1254.56539,961.437248 L1254.42501,961.453957 C1251.82033,961.769612 1250.06581,962.30658 1243.56327,964.932964 L1243.56327,964.932964 L1237.17831,967.537163 C1235.27864,968.305702 1233.72888,968.907533 1232.19358,969.466714 L1232.19358,969.466714 L1231.58969,969.684523 C1225.9924,971.683082 1221.48196,972.719766 1217.47196,972.719766 C1211.57236,972.719766 1206.87799,970.486727 1202.84951,966.622256 C1202.18714,965.986855 1201.27622,964.975981 1200.42583,964.002075 L1200.42583,964.002075 L1199.238,962.626 L1199.22078,962.988925 C1199.19126,963.674943 1199.1737,964.523767 1199.16686,965.566901 L1199.16686,965.566901 L1199.16355,966.645859 C1199.16355,983.407959 1212.75192,996.996326 1229.51402,996.996326 C1246.27612,996.996326 1259.86449,983.407959 1259.86449,966.645859 Z M1238.90674,933.897111 L1242.28337,939.820933 C1245.84395,946.112139 1247.61215,950.259913 1247.61215,952.588034 C1247.61215,956.435769 1244.53633,959.565421 1240.72897,959.565421 C1236.92162,959.565421 1233.84579,956.435769 1233.84579,952.588034 C1233.84579,951.513822 1234.03633,951.076379 1235.51464,948.999905 L1235.51464,948.999905 L1236.34812,947.83878 C1236.48721,947.644369 1236.60828,947.47254 1236.71926,947.311534 L1236.71926,947.311534 L1236.93011,947.000466 C1237.10758,946.733843 1237.2608,946.489728 1237.39324,946.261234 C1238.72313,943.966784 1239.32083,941.945492 1239.23095,940.198569 L1239.23095,940.198569 L1238.90674,933.897111 Z M1241.479,944.608 L1241.44964,944.692098 C1241.08611,945.689472 1240.59833,946.713962 1239.98877,947.765635 C1239.82287,948.051858 1239.63731,948.347497 1239.42746,948.66276 C1239.3141,948.833073 1239.19726,949.003988 1239.06827,949.188489 L1239.06827,949.188489 L1238.07595,950.578508 C1237.20639,951.805266 1236.8992,952.308797 1236.85236,952.531625 L1236.85236,952.531625 L1236.84579,952.588034 C1236.84579,954.790453 1238.59023,956.565421 1240.72897,956.565421 C1242.86771,956.565421 1244.61215,954.790453 1244.61215,952.588034 C1244.61215,951.394443 1243.70429,948.961207 1241.89834,945.41936 L1241.89834,945.41936 L1241.479,944.608 Z M1226.35307,912.027598 L1227.66352,914.234029 C1233.79491,924.557615 1236.84579,931.340348 1236.84579,934.946461 C1236.84579,940.622995 1232.14956,945.21028 1226.37383,945.21028 C1220.5981,945.21028 1215.90187,940.622995 1215.90187,934.946461 C1215.90187,932.75355 1216.99959,929.482784 1219.17972,924.99773 L1219.17972,924.99773 L1219.63017,924.084489 C1220.44957,922.446111 1221.91937,919.770688 1224.0456,916.045839 L1224.0456,916.045839 L1226.35307,912.027598 Z M1226.389,917.992 L1225.51595,919.532435 C1224.16269,921.930784 1223.15906,923.769233 1222.5074,925.042953 L1222.5074,925.042953 L1222.10288,925.849982 C1219.96324,930.186561 1218.90187,933.2689 1218.90187,934.946461 C1218.90187,938.950175 1222.2394,942.21028 1226.37383,942.21028 C1230.50826,942.21028 1233.84579,938.950175 1233.84579,934.946461 C1233.84579,932.436901 1231.56948,927.078453 1227.03712,919.12048 L1227.03712,919.12048 L1226.389,917.992 Z" id="water"></path>
        </g>
    </g>
</svg>