<svg xmlns="http://www.w3.org/2000/svg" width="28" height="28" viewBox="0 0 28 28">
  <g fill="none" fill-rule="evenodd">
    <path fill="#979797" fill-rule="nonzero" d="M19.7324356 6L19.8662178 6 19.7324356 6zM20 6L19.8662178 6 20 6zM19.7324356 5L20 5 20 5.99999989C20 5.63571286 19.9026057 5.29417337 19.7324356 5z"/>
    <path fill="#979797" fill-rule="nonzero" d="M22,7 L22,23 C22,23.5522847 21.5522847,24 21,24 L7,24 C6.44771525,24 6,23.5522847 6,23 L6,7 C6,6.44771525 6.44771525,6 7,6 C7,5.65510793 7.05864808,5.3177798 7.17097599,5 L7,5 C5.8954305,5 5,5.8954305 5,7 L5,23 C5,24.1045695 5.8954305,25 7,25 L21,25 C22.1045695,25 23,24.1045695 23,23 L23,7 C23,5.8954305 22.1045695,5 21,5 L20.829024,5 C20.9413519,5.3177798 21,5.65510793 21,6 C21.5522847,6 22,6.44771525 22,7 Z"/>
    <path fill="#979797" fill-rule="nonzero" d="M8,6 C8,5.63571286 8.09739429,5.29417337 8.26756439,5 L8,5 L8,6 Z"/>
    <polygon fill="#979797" fill-rule="nonzero" points="7 5 7.863 5 7.761 5 7.965 5 7.863 5 9 5 9 6 7 6"/>
    <path fill="#979797" fill-rule="nonzero" d="M8,5 L8.26756439,5 C8.09739429,5.29417337 8,5.63571286 8,6 L8,5 Z"/>
    <path fill="#979797" fill-rule="nonzero" d="M7,6 C7,5.65510793 7.05864808,5.3177798 7.17097599,5 L7,5 C5.8954305,5 5,5.8954305 5,7 L5,23 C5,24.1045695 5.8954305,25 7,25 L21,25 C22.1045695,25 23,24.1045695 23,23 L23,7 C23,5.8954305 22.1045695,5 21,5 L20.829024,5 C20.9413519,5.3177798 21,5.65510793 21,6 C21.5522847,6 22,6.44771525 22,7 L22,23 C22,23.5522847 21.5522847,24 21,24 L7,24 C6.44771525,24 6,23.5522847 6,23 L6,7 C6,6.44771525 6.44771525,6 7,6 Z"/>
    <polygon fill="#979797" fill-rule="nonzero" points="21 6 19 6 19 5 20.019 5 19.903 5 21 5"/>
    <path fill="#979797" fill-rule="nonzero" d="M20 6L19.8662178 6 20 6zM20 6C20 5.63571286 19.9026057 5.29417337 19.7324356 5L20 5 20 6z"/>
    <path fill="#979797" fill-rule="nonzero" d="M9,4 L9,5 C9,5.55228475 9.44771525,6 10,6 L18,6 C18.5522847,6 19,5.55228475 19,5 L19,4 L9,4 Z M19.7324356,3 C19.9026057,3.29417337 20,3.63571286 20,4 L20,5 C20,6.1045695 19.1045695,7 18,7 L10,7 C8.8954305,7 8,6.1045695 8,5 L8,4 C8,3.63571286 8.09739429,3.29417337 8.26756439,3 L19.7324356,3 Z" transform="matrix(1 0 0 -1 0 10)"/>
    <path fill="#979797" fill-rule="nonzero" d="M10.5 20C10.2238576 20 10 19.7761424 10 19.5 10 19.2238576 10.2238576 19 10.5 19L17.5213623 19C17.7975047 19 18.0213623 19.2238576 18.0213623 19.5 18.0213623 19.7761424 17.7975047 20 17.5213623 20L10.5 20zM11.5 22C11.2238576 22 11 21.7761424 11 21.5 11 21.2238576 11.2238576 21 11.5 21L16.2973633 21C16.5735057 21 16.7973633 21.2238576 16.7973633 21.5 16.7973633 21.7761424 16.5735057 22 16.2973633 22L11.5 22zM10.5 14C10.2238576 14 10 13.7761424 10 13.5 10 13.2238576 10.2238576 13 10.5 13L17.5213623 13C17.7975047 13 18.0213623 13.2238576 18.0213623 13.5 18.0213623 13.7761424 17.7975047 14 17.5213623 14L10.5 14z"/>
    <path fill="#979797" fill-rule="nonzero" d="M10.5,14 C10.2238576,14 10,13.7761424 10,13.5 C10,13.2238576 10.2238576,13 10.5,13 L17.5213623,13 C17.7975047,13 18.0213623,13.2238576 18.0213623,13.5 C18.0213623,13.7761424 17.7975047,14 17.5213623,14 L10.5,14 Z" transform="rotate(90 14.01 13.5)"/>
  </g>
</svg>
