<svg xmlns="http://www.w3.org/2000/svg" width="44" height="44" viewBox="0 0 44 44">
  <g fill="none" fill-rule="evenodd">
    <rect width="44" height="44" fill="#FFF" opacity="0"/>
    <path fill="#000" fill-rule="nonzero" d="M9,22 L35,22 C35.2761424,22 35.5,21.7761424 35.5,21.5 C35.5,21.2238576 35.2761424,21 35,21 L9,21 C8.72385763,21 8.5,21.2238576 8.5,21.5 C8.5,21.7761424 8.72385763,22 9,22 Z" transform="rotate(-45 22 21.5)"/>
    <path fill="#000" fill-rule="nonzero" d="M9,22 L35,22 C35.2761424,22 35.5,21.7761424 35.5,21.5 C35.5,21.2238576 35.2761424,21 35,21 L9,21 C8.72385763,21 8.5,21.2238576 8.5,21.5 C8.5,21.7761424 8.72385763,22 9,22 Z" transform="rotate(45 22 21.5)"/>
  </g>
</svg>
