<svg xmlns="http://www.w3.org/2000/svg" width="28" height="28" viewBox="0 0 28 28">
  <g fill="#16ADC0" fill-rule="evenodd" transform="translate(3 3)">
    <path fill-rule="nonzero" d="M1,16.6486486 L1.61111111,16.6486486 L1.61111111,20.5135135 C1.61111111,20.99697 2.00303002,21.3888889 2.48648649,21.3888889 L20.027027,21.3888889 C20.5104835,21.3888889 20.9024024,20.99697 20.9024024,20.5135135 L20.9024024,1.48648649 C20.9024024,1.00303002 20.5104835,0.611111111 20.027027,0.611111111 L2.48648649,0.611111111 C2.00303002,0.611111111 1.61111111,1.00303002 1.61111111,1.48648649 L1.61111111,4.75675676 L1,4.75675676 L1,1.48648649 C1,0.665522669 1.66552267,0 2.48648649,0 L20.027027,0 C20.8479908,0 21.5135135,0.665522669 21.5135135,1.48648649 L21.5135135,20.5135135 C21.5135135,21.3344773 20.8479908,22 20.027027,22 L2.48648649,22 C1.66552267,22 1,21.3344773 1,20.5135135 L1,16.6486486 Z M1,16.6486486 L1.61111111,16.6486486 L1.61111111,20.5135135 C1.61111111,20.99697 2.00303002,21.3888889 2.48648649,21.3888889 L20.027027,21.3888889 C20.5104835,21.3888889 20.9024024,20.99697 20.9024024,20.5135135 L20.9024024,1.48648649 C20.9024024,1.00303002 20.5104835,0.611111111 20.027027,0.611111111 L2.48648649,0.611111111 C2.00303002,0.611111111 1.61111111,1.00303002 1.61111111,1.48648649 L1.61111111,4.75675676 L1,4.75675676 L1,1.48648649 C1,0.665522669 1.66552267,0 2.48648649,0 L20.027027,0 C20.8479908,0 21.5135135,0.665522669 21.5135135,1.48648649 L21.5135135,20.5135135 C21.5135135,21.3344773 20.8479908,22 20.027027,22 L2.48648649,22 C1.66552267,22 1,21.3344773 1,20.5135135 L1,16.6486486 Z M1,12.4864865 L1,8.91891892 L1,12.4864865 Z M1,12.4864865 L1,8.91891892 L1,12.4864865 Z"/>
    <rect width="1" height="3" x="1" y="9"/>
    <path fill-rule="nonzero" d="M1.48648649 5.66516517C1.00303002 5.66516517.611111111 6.05708407.611111111 6.54054054L.611111111 7.13513514C.611111111 7.61859161 1.00303002 8.01051051 1.48648649 8.01051051L3.86486486 8.01051051C4.34832134 8.01051051 4.74024024 7.61859161 4.74024024 7.13513514L4.74024024 6.54054054C4.74024024 6.05708407 4.34832134 5.66516517 3.86486486 5.66516517L1.48648649 5.66516517zM1.48648649 5.05405405L3.86486486 5.05405405C4.68582868 5.05405405 5.35135135 5.71957672 5.35135135 6.54054054L5.35135135 7.13513514C5.35135135 7.95609895 4.68582868 8.62162162 3.86486486 8.62162162L1.48648649 8.62162162C.665522669 8.62162162-5.68434189e-14 7.95609895-5.68434189e-14 7.13513514L-5.68434189e-14 6.54054054C-5.68434189e-14 5.71957672.665522669 5.05405405 1.48648649 5.05405405zM1.48648649 13.3948949C1.00303002 13.3948949.611111111 13.7868138.611111111 14.2702703L.611111111 14.8648649C.611111111 15.3483213 1.00303002 15.7402402 1.48648649 15.7402402L3.86486486 15.7402402C4.34832134 15.7402402 4.74024024 15.3483213 4.74024024 14.8648649L4.74024024 14.2702703C4.74024024 13.7868138 4.34832134 13.3948949 3.86486486 13.3948949L1.48648649 13.3948949zM1.48648649 12.7837838L3.86486486 12.7837838C4.68582868 12.7837838 5.35135135 13.4493065 5.35135135 14.2702703L5.35135135 14.8648649C5.35135135 15.6858287 4.68582868 16.3513514 3.86486486 16.3513514L1.48648649 16.3513514C.665522669 16.3513514-5.68434189e-14 15.6858287-5.68434189e-14 14.8648649L-5.68434189e-14 14.2702703C-5.68434189e-14 13.4493065.665522669 12.7837838 1.48648649 12.7837838zM13.1388889 10.0833333C11.7888595 10.0833333 10.6944444 8.98891828 10.6944444 7.63888889 10.6944444 6.2888595 11.7888595 5.19444444 13.1388889 5.19444444 14.4889183 5.19444444 15.5833333 6.2888595 15.5833333 7.63888889 15.5833333 8.98891828 14.4889183 10.0833333 13.1388889 10.0833333zM13.1388889 9.47222222C14.1514109 9.47222222 14.9722222 8.65141093 14.9722222 7.63888889 14.9722222 6.62636685 14.1514109 5.80555556 13.1388889 5.80555556 12.1263668 5.80555556 11.3055556 6.62636685 11.3055556 7.63888889 11.3055556 8.65141093 12.1263668 9.47222222 13.1388889 9.47222222zM13.2916667 14.9722222L13.2916667 15.5833333 8.25 15.5833333 8.25 15.2777778C8.25 12.7391449 10.5137755 10.6944444 13.2916667 10.6944444 16.0695578 10.6944444 18.3333333 12.7391449 18.3333333 15.2777778L17.7222222 15.2777778C17.7222222 13.0913078 15.7451394 11.3055556 13.2916667 11.3055556 10.953531 11.3055556 9.04804816 12.9273587 8.87406276 14.9722222L13.2916667 14.9722222z"/>
  </g>
</svg>
