<svg xmlns="http://www.w3.org/2000/svg" width="44" height="44" viewBox="0 0 44 44">
  <g fill="none" fill-rule="evenodd">
    <rect width="44" height="44" fill="#FFF" opacity="0"/>
    <path fill="#000" fill-rule="nonzero" d="M30.9444444,16.7391304 L30.1094262,31.1159662 C30.0479917,32.1737075 29.172315,33 28.1127911,33 L15.8872089,33 C14.827685,33 13.9520083,32.1737075 13.8905738,31.1159662 L13.0555556,16.7391304 L12,16.7391304 C11.4477153,16.7391304 11,16.2914152 11,15.7391304 L11,14.826087 C11,13.7695422 11.8564987,12.9130435 12.9130435,12.9130435 L17,12.9130435 L17,12 C17,11.4477153 17.4477153,11 18,11 L26,11 C26.5522847,11 27,11.4477153 27,12 L27,12.9130435 L31.0869565,12.9130435 C32.1435013,12.9130435 33,13.7695422 33,14.826087 L33,15.7391304 C33,16.2914152 32.5522847,16.7391304 32,16.7391304 L30.9444444,16.7391304 Z M26,12 L18,12 L18,12.8695652 L26,12.8695652 L26,12 Z M12.9130435,13.9130435 C12.4087835,13.9130435 12,14.321827 12,14.826087 L12,15.7391304 L32,15.7391304 L32,14.826087 C32,14.321827 31.5912165,13.9130435 31.0869565,13.9130435 L12.9130435,13.9130435 Z M18.4540732,16.7826087 L14.0597661,16.7826087 L14.8888914,31.0579831 C14.9196086,31.5868538 15.357447,32 15.8872089,32 L18.966337,32 L18.4540732,16.7826087 Z M21.1745436,16.7826087 L25.6274414,18.3994141 L24.4789738,32 L28.1127911,32 C28.642553,32 29.0803914,31.5868538 29.1111086,31.0579831 L29.9402339,16.7826087 L21.1745436,16.7826087 Z M19.9669034,32 L23.4754148,32 L24.5665725,19.0780998 L19.4696141,17.227442 L19.9669034,32 Z"/>
  </g>
</svg>
