<svg xmlns="http://www.w3.org/2000/svg" width="76" height="76" viewBox="0 0 76 76">
  <g fill="none" fill-rule="evenodd">
    <rect width="76" height="76" fill="#FFF" opacity="0"/>
    <path fill="#00B894" fill-rule="nonzero" d="M38,76 C58.9868205,76 76,58.9868205 76,38 C76,17.0131795 58.9868205,0 38,0 C17.0131795,0 0,17.0131795 0,38 C0,58.9868205 17.0131795,76 38,76 Z M38,75 C17.5654643,75 1,58.4345357 1,38 C1,17.5654643 17.5654643,1 38,1 C58.4345357,1 75,17.5654643 75,38 C75,58.4345357 58.4345357,75 38,75 Z"/>
    <path fill="#00B894" fill-rule="nonzero" d="M31.0751398,50.6767378 L17.3485456,37.3309619 C17.1505563,37.1384655 16.8340052,37.1429183 16.6415088,37.3409075 C16.4490123,37.5388968 16.4534652,37.855448 16.6514544,38.0479444 L30.7315325,51.7373975 C30.9275554,51.9279821 31.2403086,51.9257825 31.4336315,51.7324596 L58.8125378,24.3535534 C59.0077999,24.1582912 59.0077999,23.8417088 58.8125378,23.6464466 C58.6172756,23.4511845 58.3006931,23.4511845 58.105431,23.6464466 L31.0751398,50.6767378 Z"/>
  </g>
</svg>
