<svg xmlns="http://www.w3.org/2000/svg" width="44" height="44" viewBox="0 0 44 44">
  <g fill="none" fill-rule="evenodd">
    <rect width="44" height="44" fill="#FFF" opacity="0"/>
    <path fill="#999" fill-rule="nonzero" d="M17.5303885,28.9147017 C17.1635749,29.107547 16.7348586,28.7960665 16.8049138,28.3876134 L17.6585336,23.4106279 L14.042542,19.8859072 C13.7457835,19.5966392 13.9095385,19.092653 14.3196487,19.0330605 L19.3168262,18.3069281 L21.551632,13.7787171 C21.7350388,13.4070943 22.2649612,13.4070943 22.448368,13.7787171 L24.6831738,18.3069281 L29.6803513,19.0330605 C30.0904615,19.092653 30.2542165,19.5966392 29.957458,19.8859072 L26.3414664,23.4106279 L27.1950862,28.3876134 C27.2651414,28.7960665 26.8364251,29.107547 26.4696115,28.9147017 L22,26.5648879 L17.5303885,28.9147017 Z M21.7673294,25.5574343 C21.9129914,25.4808552 22.0870086,25.4808552 22.2326706,25.5574343 L26.0382165,27.5581282 L25.3114219,23.3205905 C25.2836029,23.1583935 25.3373772,22.9928934 25.4552202,22.8780248 L28.5339716,19.8769839 L24.2792419,19.2587355 C24.1163868,19.2350713 23.975604,19.1327866 23.902773,18.9852149 L22,15.1297757 L20.097227,18.9852149 C20.024396,19.1327866 19.8836132,19.2350713 19.7207581,19.2587355 L15.4660284,19.8769839 L18.5447798,22.8780248 C18.6626228,22.9928934 18.7163971,23.1583935 18.6885781,23.3205905 L17.9617835,27.5581282 L21.7673294,25.5574343 Z"/>
  </g>
</svg>
