<svg xmlns="http://www.w3.org/2000/svg" width="44" height="44" viewBox="0 0 44 44">
  <g fill="none" fill-rule="evenodd">
    <rect width="44" height="44" fill="#FFF" opacity="0"/>
    <path fill="#979797" fill-rule="nonzero" d="M24.5,25 C27.5375661,25 30,22.5375661 30,19.5 C30,16.4624339 27.5375661,14 24.5,14 C21.4624339,14 19,16.4624339 19,19.5 C19,22.5375661 21.4624339,25 24.5,25 Z M24.5,23 C22.5670034,23 21,21.4329966 21,19.5 C21,17.5670034 22.5670034,16 24.5,16 C26.4329966,16 28,17.5670034 28,19.5 C28,21.4329966 26.4329966,23 24.5,23 Z"/>
    <path fill="#979797" fill-rule="nonzero" d="M21.025113,22.3082662 L15.2778474,28.3082662 C14.8958134,28.7071001 14.9094323,29.3401186 15.3082662,29.7221526 C15.7071001,30.1041866 16.3401186,30.0905677 16.7221526,29.6917338 L22.4694182,23.6917338 C22.8514522,23.2928999 22.8378333,22.6598814 22.4389994,22.2778474 C22.0401656,21.8958134 21.4071471,21.9094323 21.025113,22.3082662 Z"/>
    <path fill="#979797" fill-rule="nonzero" d="M20.1994614,23.1346974 L15.6693833,28.038213 C15.2946118,28.4438789 15.3196566,29.0765483 15.7253224,29.4513198 C16.1309883,29.8260913 16.7636577,29.8010465 17.1384292,29.3953807 L21.6685073,24.4918651 C22.0432788,24.0861992 22.018234,23.4535298 21.6125682,23.0787583 C21.2069024,22.7039868 20.5742329,22.7290316 20.1994614,23.1346974 Z" transform="rotate(90 18.669 26.265)"/>
  </g>
</svg>
