<svg xmlns="http://www.w3.org/2000/svg" width="28" height="28" viewBox="0 0 28 28">
  <g fill="none" fill-rule="evenodd">
    <path fill="#16ADC0" fill-rule="nonzero" d="M4.48648649 8.66516517C4.00303002 8.66516517 3.61111111 9.05708407 3.61111111 9.54054054L3.61111111 10.1351351C3.61111111 10.6185916 4.00303002 11.0105105 4.48648649 11.0105105L6.86486486 11.0105105C7.34832134 11.0105105 7.74024024 10.6185916 7.74024024 10.1351351L7.74024024 9.54054054C7.74024024 9.05708407 7.34832134 8.66516517 6.86486486 8.66516517L4.48648649 8.66516517zM4.48648649 8.05405405L6.86486486 8.05405405C7.68582868 8.05405405 8.35135135 8.71957672 8.35135135 9.54054054L8.35135135 10.1351351C8.35135135 10.956099 7.68582868 11.6216216 6.86486486 11.6216216L4.48648649 11.6216216C3.66552267 11.6216216 3 10.956099 3 10.1351351L3 9.54054054C3 8.71957672 3.66552267 8.05405405 4.48648649 8.05405405zM4.48648649 16.3948949C4.00303002 16.3948949 3.61111111 16.7868138 3.61111111 17.2702703L3.61111111 17.8648649C3.61111111 18.3483213 4.00303002 18.7402402 4.48648649 18.7402402L6.86486486 18.7402402C7.34832134 18.7402402 7.74024024 18.3483213 7.74024024 17.8648649L7.74024024 17.2702703C7.74024024 16.7868138 7.34832134 16.3948949 6.86486486 16.3948949L4.48648649 16.3948949zM4.48648649 15.7837838L6.86486486 15.7837838C7.68582868 15.7837838 8.35135135 16.4493065 8.35135135 17.2702703L8.35135135 17.8648649C8.35135135 18.6858287 7.68582868 19.3513514 6.86486486 19.3513514L4.48648649 19.3513514C3.66552267 19.3513514 3 18.6858287 3 17.8648649L3 17.2702703C3 16.4493065 3.66552267 15.7837838 4.48648649 15.7837838zM11.7702703 16.237988C11.6015166 16.237988 11.4647147 16.1011861 11.4647147 15.9324324 11.4647147 15.7636788 11.6015166 15.6268769 11.7702703 15.6268769L19.5057151 15.6268769C19.6744688 15.6268769 19.8112707 15.7636788 19.8112707 15.9324324 19.8112707 16.1011861 19.6744688 16.237988 19.5057151 16.237988L11.7702703 16.237988zM11.7702703 20.1028529C11.6015166 20.1028529 11.4647147 19.966051 11.4647147 19.7972973 11.4647147 19.6285436 11.6015166 19.4917417 11.7702703 19.4917417L21.8783784 19.4917417C22.0471321 19.4917417 22.1839339 19.6285436 22.1839339 19.7972973 22.1839339 19.966051 22.0471321 20.1028529 21.8783784 20.1028529L11.7702703 20.1028529zM15.5934186 11.3158737C15.6190696 11.2988976 15.6464386 11.2805551 15.6753434 11.2609074 15.8843478 11.1188388 16.0932836 10.9619673 16.2871514 10.7957413 16.3065961 10.7790182 16.3065961 10.7790182 16.3260103 10.7621122 16.4048628 10.6932331 16.4739343 10.6351211 16.5503876 10.5729528 16.5618042 10.5636788 16.5618042 10.5636788 16.5732074 10.5544509 16.611342 10.523618 16.8050613 10.3692113 16.8725838 10.3146902 17.0180886 10.1972021 17.1739301 10.0684217 17.3703608 9.90244031 18.9149103 8.5973808 18.3945894 6.87312312 17.2162302 6.87312312 16.670057 6.87312314 16.1403364 7.11959994 15.7639066 7.45304811L15.5607401 7.63301658 15.3580668 7.4524929C14.9819089 7.11744432 14.445137 6.87312312 13.9063428 6.87312312 12.7417832 6.87312312 12.2601964 8.59227628 13.8107163 9.90242937 13.9821539 10.0472685 14.1388338 10.1669537 14.3110241 10.2879569 14.3836193 10.3389716 14.6495024 10.5192342 14.7122569 10.5637236 14.8098813 10.6329339 14.8903144 10.6949016 14.9669958 10.7614268 15.2398639 10.9981315 15.445419 11.1805556 15.5934186 11.3158737zM17.2162302 6.26201201C18.9882894 6.26201201 19.7273083 8.71099886 17.7647801 10.3692274 17.5649121 10.5381134 17.4055682 10.6697879 17.2564983 10.7901546 17.1869182 10.8463372 16.9934068 11.0005781 16.9574318 11.0296649 16.946658 11.0383835 16.946658 11.0383835 16.9359365 11.0470928 16.8649232 11.1048377 16.8013369 11.1583348 16.7280505 11.2223519 16.7064841 11.2411318 16.7064841 11.2411318 16.6849313 11.259668 16.4722098 11.4420595 16.2455143 11.6122652 16.0188874 11.7663125 15.8825012 11.8590196 15.7754787 11.926334 15.7121377 11.9637621L15.5057665 12.0857069 15.3381995 11.9142982C15.3238604 11.8996304 15.279687 11.857306 15.1954211 11.7800407 15.0508815 11.6475089 14.8447755 11.4644063 14.5665431 11.2230483 14.5065566 11.1710065 14.4413538 11.1207725 14.3588212 11.0622615 14.3027068 11.0224794 14.0382314 10.8431713 13.9596598 10.7879567 13.7733346 10.6570207 13.6024099 10.5264539 13.4163114 10.3692286 11.4533517 8.71057349 12.1392678 6.26201201 13.9063428 6.26201201 14.5163619 6.26201201 15.1034818 6.49203337 15.5615161 6.83124464 16.0172611 6.49367934 16.5981886 6.26201203 17.2162302 6.26201201z"/>
    <path fill="#16ADC0" fill-rule="nonzero" d="M5,19 L5.61111111,19 L5.61111111,23.5 C5.61111111,23.9909198 6.00908022,24.3888889 6.5,24.3888889 L22.5,24.3888889 C22.9909198,24.3888889 23.3888889,23.9909198 23.3888889,23.5 L23.3888889,4.5 C23.3888889,4.00908022 22.9909198,3.61111111 22.5,3.61111111 L6.5,3.61111111 C6.00908022,3.61111111 5.61111111,4.00908022 5.61111111,4.5 L5.61111111,8 L5,8 L5,4.5 C5,3.67157288 5.67157288,3 6.5,3 L22.5,3 C23.3284271,3 24,3.67157288 24,4.5 L24,23.5 C24,24.3284271 23.3284271,25 22.5,25 L6.5,25 C5.67157288,25 5,24.3284271 5,23.5 L5,19 Z M5,16 L5,11 L5.61111111,11 L5.61111111,16 L5,16 Z"/>
  </g>
</svg>
