<svg xmlns="http://www.w3.org/2000/svg" width="28" height="28" viewBox="0 0 28 28">
  <g fill="none" fill-rule="evenodd">
    <path fill="#979797" fill-rule="nonzero" d="M5.41421356 13L7 13 7 23C7 23.5522847 7.44771525 24 8 24L20 24C20.5522847 24 21 23.5522847 21 23L21 13 22.5857864 13 14 4.41421356 5.41421356 13zM22 14L22 23C22 24.1045695 21.1045695 25 20 25L8 25C6.8954305 25 6 24.1045695 6 23L6 14 3 14 14 3 25 14 22 14zM19.7167579 3.13683235C19.9502296 2.98936858 20.2590388 3.05909181 20.4065026 3.29256354 20.5539664 3.52603527 20.4842431 3.83484451 20.2507714 3.98230828L18.3610009 5.17591179C18.1275292 5.32337556 17.8187199 5.25365233 17.6712562 5.0201806 17.5237924 4.78670887 17.5935156 4.47789963 17.8269874 4.33043587L19.7167579 3.13683235zM21.6363423 6.53614698C21.8925212 6.43305984 22.1837639 6.55716528 22.2868511 6.81334422 22.3899382 7.06952317 22.2658328 7.36076588 22.0096538 7.46385302L21.1866558 7.79502978C20.9304768 7.89811691 20.6392341 7.77401148 20.536147 7.51783253 20.4330598 7.26165359 20.5571653 6.97041088 20.8133442 6.86732374L21.6363423 6.53614698z"/>
    <path fill="#979797" fill-rule="nonzero" d="M11,16.5 C10.7238576,16.5 10.5,16.2761424 10.5,16 C10.5,15.7238576 10.7238576,15.5 11,15.5 L17,15.5 C17.2761424,15.5 17.5,15.7238576 17.5,16 C17.5,16.2761424 17.2761424,16.5 17,16.5 L11,16.5 Z"/>
    <path fill="#979797" fill-rule="nonzero" d="M11,16.5 C10.7238576,16.5 10.5,16.2761424 10.5,16 C10.5,15.7238576 10.7238576,15.5 11,15.5 L17,15.5 C17.2761424,15.5 17.5,15.7238576 17.5,16 C17.5,16.2761424 17.2761424,16.5 17,16.5 L11,16.5 Z" transform="rotate(90 14 16)"/>
  </g>
</svg>
