<svg xmlns="http://www.w3.org/2000/svg" width="28" height="28" viewBox="0 0 28 28">
  <path fill="#3BC4DE" d="M13.5 15.5L11 15.5C10.7238576 15.5 10.5 15.7238576 10.5 16 10.5 16.2761424 10.7238576 16.5 11 16.5L13.5 16.5 13.5 19C13.5 19.2761424 13.7238576 19.5 14 19.5 14.2761424 19.5 14.5 19.2761424 14.5 19L14.5 16.5 17 16.5C17.2761424 16.5 17.5 16.2761424 17.5 16 17.5 15.7238576 17.2761424 15.5 17 15.5L14.5 15.5 14.5 13C14.5 12.7238576 14.2761424 12.5 14 12.5 13.7238576 12.5 13.5 12.7238576 13.5 13L13.5 15.5zM22 14L22 23C22 24.1045695 21.1045695 25 20 25L8 25C6.8954305 25 6 24.1045695 6 23L6 14 3 14 14 3 25 14 22 14zM19.7167579 3.13683235C19.9502296 2.98936858 20.2590388 3.05909181 20.4065026 3.29256354 20.5539664 3.52603527 20.4842431 3.83484451 20.2507714 3.98230828L18.3610009 5.17591179C18.1275292 5.32337556 17.8187199 5.25365233 17.6712562 5.0201806 17.5237924 4.78670887 17.5935156 4.47789963 17.8269874 4.33043587L19.7167579 3.13683235zM21.6363423 6.53614698C21.8925212 6.43305984 22.1837639 6.55716528 22.2868511 6.81334422 22.3899382 7.06952317 22.2658328 7.36076588 22.0096538 7.46385302L21.1866558 7.79502978C20.9304768 7.89811691 20.6392341 7.77401148 20.536147 7.51783253 20.4330598 7.26165359 20.5571653 6.97041088 20.8133442 6.86732374L21.6363423 6.53614698z"/>
</svg>
