<svg xmlns="http://www.w3.org/2000/svg" width="44" height="44" viewBox="0 0 44 44">
  <g fill="none" fill-rule="evenodd">
    <rect width="44" height="44" fill="#FFF" opacity="0"/>
    <path fill="#999" fill-rule="nonzero" d="M13.7379296,17.2319163 C12.6300519,20.700522 15.3534764,24.4134481 21.7291878,28.4152997 L21.9950389,28.5821668 L22.2608682,28.4152649 C28.6343386,24.413658 31.3622255,20.7015183 30.2669637,17.2334688 C29.1551302,13.7129464 26.2568711,13.6320492 21.9976998,16.7596542 C17.7565089,13.6322114 14.8617852,13.7132863 13.7379296,17.2319163 Z M14.6905192,17.5361747 C15.5707377,14.7803371 17.753548,14.7803371 21.694093,17.7818029 L21.9963999,18.0120664 L22.2991901,17.7824391 C26.2576087,14.7804898 28.4435919,14.7804898 29.313388,17.5346222 C30.2123727,20.3811778 27.8294917,23.6841859 21.9949629,27.4002585 C16.1592562,23.684433 13.7814982,20.3821883 14.6905192,17.5361747 Z"/>
  </g>
</svg>
