<svg xmlns="http://www.w3.org/2000/svg" width="44" height="44" viewBox="0 0 44 44">
  <g fill="none" fill-rule="evenodd">
    <rect width="44" height="44" fill="#FFF" opacity="0"/>
    <path fill="#979797" fill-rule="nonzero" d="M27,18.5591512 L24.7438767,21.0012583 C25.5285984,21.9520161 26,23.1709572 26,24.5 C26,27.5375661 23.5375661,30 20.5,30 C17.4624339,30 15,27.5375661 15,24.5 C15,21.4624339 17.4624339,19 20.5,19 C21.4856651,19 22.4107717,19.2592817 23.2108358,19.713361 L25.7175551,17 L23,17 C22.4477153,17 22,16.5522847 22,16 C22,15.4477153 22.4477153,15 23,15 L29,15 L29,17 L29,21 C29,21.5522847 28.5522847,22 28,22 C27.4477153,22 27,21.5522847 27,21 L27,18.5591512 Z M20.5,28 C22.4329966,28 24,26.4329966 24,24.5 C24,22.5670034 22.4329966,21 20.5,21 C18.5670034,21 17,22.5670034 17,24.5 C17,26.4329966 18.5670034,28 20.5,28 Z"/>
  </g>
</svg>
