<svg xmlns="http://www.w3.org/2000/svg" width="28" height="28" viewBox="0 0 28 28">
  <g fill="none" fill-rule="evenodd">
    <path fill="#979797" fill-rule="nonzero" d="M14.25,13.5 C16.5972102,13.5 18.5,11.5972102 18.5,9.25 C18.5,6.90278981 16.5972102,5 14.25,5 C11.9027898,5 10,6.90278981 10,9.25 C10,11.5972102 11.9027898,13.5 14.25,13.5 Z M14.25,14.5 C11.3505051,14.5 9,12.1494949 9,9.25 C9,6.35050506 11.3505051,4 14.25,4 C17.1494949,4 19.5,6.35050506 19.5,9.25 C19.5,12.1494949 17.1494949,14.5 14.25,14.5 Z"/>
    <path fill="#979797" fill-rule="nonzero" d="M13.9417342,14.4965935 C13.6674732,14.4644142 13.4712272,14.2159952 13.5034065,13.9417342 C13.5355858,13.6674732 13.7840048,13.4712272 14.0582658,13.5034065 C20.9638428,14.3136441 24.6367358,18.1788285 24.9522168,24.976821 L24.9764965,25.5 L3.5,25.5 L3.5,25 C3.5,21.1386712 5.5764616,18.0588098 9.66411725,15.802727 C9.90588072,15.6692915 10.2100396,15.7571087 10.3434751,15.9988722 C10.4769106,16.2406356 10.3890934,16.5447945 10.14733,16.67823 C6.54428185,18.6668454 4.68495738,21.2619519 4.51312958,24.5 L23.9216299,24.5 C23.4736032,18.5262217 20.1851502,15.2291392 13.9417342,14.4965935 Z"/>
  </g>
</svg>
