<svg xmlns="http://www.w3.org/2000/svg" width="28" height="28" viewBox="0 0 28 28">
  <g fill="none" fill-rule="evenodd">
    <circle cx="14.25" cy="9.25" r="5.25" fill="#3BC4DE" fill-rule="nonzero"/>
    <path fill="#3BC4DE" fill-rule="nonzero" d="M13.9417342,14.4965935 C13.6674732,14.4644142 13.4712272,14.2159952 13.5034065,13.9417342 C13.5355858,13.6674732 13.7840048,13.4712272 14.0582658,13.5034065 C20.9638428,14.3136441 24.6367358,18.1788285 24.9522168,24.976821 L24.9764965,25.5 L3.5,25.5 L3.5,25 C3.5,21.1386712 5.5764616,18.0588098 9.66411725,15.802727 C9.90588072,15.6692915 10.2100396,15.7571087 10.3434751,15.9988722 C10.4769106,16.2406356 10.3890934,16.5447945 10.14733,16.67823 C6.54428185,18.6668454 4.68495738,21.2619519 4.51312958,24.5 L23.9216299,24.5 C23.4736032,18.5262217 20.1851502,15.2291392 13.9417342,14.4965935 Z"/>
  </g>
</svg>
