<svg xmlns="http://www.w3.org/2000/svg" width="28" height="28" viewBox="0 0 28 28">
  <g fill="none" fill-rule="evenodd">
    <path fill="#636E72" fill-rule="nonzero" d="M24.7578194,17.1600356 L24.9999964,16.6 L25,12.399998 C25,10.6326879 23.5673115,9.2 21.8000008,9.2 L6.19999979,9.20000158 C4.43268902,9.20000158 3.00000057,10.6326895 3.00000057,12.3999996 L3,20.800001 C3.00000031,22.5673111 4.43268902,23.9999987 6.19999979,23.9999984 L19.9492163,23.9999954 L21.8000043,24 L22.0421812,23.4399644 C21.9679429,23.4078177 21.8860551,23.3900002 21.8000058,23.39 L19.9492178,23.3899954 L6.19999966,23.3899984 C4.76958256,23.3899987 3.61000025,22.2304172 3.61,20.8000009 L3.61000057,12.3999996 C3.61000057,10.9695832 4.76958267,9.81000158 6.19999979,9.81000158 L21.8000008,9.81 C23.2304179,9.81 24.39,10.9695817 24.39,12.399998 L24.3899964,16.5999995 C24.3899961,16.8508435 24.5414056,17.0663241 24.7578194,17.1600356 Z M24.9999964,16.6 L25,12.399998 C25,10.6326879 23.5673115,9.2 21.8000008,9.2 L6.19999979,9.20000158 C4.43268902,9.20000158 3.00000057,10.6326895 3.00000057,12.3999996 L3,20.800001 C3.00000031,22.5673111 4.43268902,23.9999987 6.19999979,23.9999984 L19.9492163,23.9999954 L21.8000043,24 L22.0421812,23.4399644 C21.9679429,23.4078177 21.8860551,23.3900002 21.8000058,23.39 L19.9492178,23.3899954 L6.19999966,23.3899984 C4.76958256,23.3899987 3.61000025,22.2304172 3.61,20.8000009 L3.61000057,12.3999996 C3.61000057,10.9695832 4.76958267,9.81000158 6.19999979,9.81000158 L21.8000008,9.81 C23.2304179,9.81 24.39,10.9695817 24.39,12.399998 L24.3899964,16.5999995 C24.3899961,16.8508435 24.5414056,17.0663241 24.7578194,17.1600356 L24.9999964,16.6 Z"/>
    <path fill="#636E72" fill-rule="nonzero" d="M14.2 21.505C11.6015003 21.505 9.495 19.3984997 9.495 16.8 9.495 14.2015003 11.6015003 12.095 14.2 12.095 16.7984997 12.095 18.905 14.2015003 18.905 16.8 18.905 19.3984997 16.7984997 21.505 14.2 21.505zM14.2 20.895C16.4616061 20.895 18.295 19.0616061 18.295 16.8 18.295 14.5383939 16.4616061 12.705 14.2 12.705 11.9383939 12.705 10.105 14.5383939 10.105 16.8 10.105 19.0616061 11.9383939 20.895 14.2 20.895zM16.9519072 7.06781582C16.7503307 6.66466283 16.3382776 6.41 15.8875388 6.41L12.1124612 6.41C11.6617224 6.41 11.2496693 6.66466283 11.0480928 7.06781582L9.98700073 9.19 18.0129993 9.19 16.9519072 7.06781582zM12.1124612 5.8L15.8875388 5.8C16.5693285 5.8 17.1926021 6.18520428 17.4975078 6.79501553L19 9.8 9 9.8 10.5024922 6.79501553C10.8073979 6.18520428 11.4306715 5.8 12.1124612 5.8z"/>
    <path fill="#636E72" d="M6.5,8.2 L6.5,8.2 C6.77614237,8.2 7,8.42385763 7,8.7 L7,9.8 L6,9.8 L6,8.7 C6,8.42385763 6.22385763,8.2 6.5,8.2 Z"/>
    <path fill="#636E72" fill-rule="nonzero" d="M22.0861899,17.305 C22.0861899,17.1365532 22.2227431,17 22.3911899,17 C22.5596368,17 22.6961899,17.1365532 22.6961899,17.305 L22.6961899,21.8673798 C22.6961899,22.0358267 22.5596368,22.1723798 22.3911899,22.1723798 C22.2227431,22.1723798 22.0861899,22.0358267 22.0861899,21.8673798 L22.0861899,17.305 Z"/>
    <path fill="#636E72" fill-rule="nonzero" d="M22.0861899,17.305 C22.0861899,17.1365532 22.2227431,17 22.3911899,17 C22.5596368,17 22.6961899,17.1365532 22.6961899,17.305 L22.6961899,21.8673798 C22.6961899,22.0358267 22.5596368,22.1723798 22.3911899,22.1723798 C22.2227431,22.1723798 22.0861899,22.0358267 22.0861899,21.8673798 L22.0861899,17.305 Z" transform="rotate(90 22.586 19.586)"/>
  </g>
</svg>
