<svg xmlns="http://www.w3.org/2000/svg" width="28" height="28" viewBox="0 0 28 28">
  <g fill="#16ADC0" transform="translate(3 3)">
    <path d="M13.9284721,1.88600804 C13.4048303,1.88600804 12.9803348,2.31050358 12.9803348,2.83414536 L12.9803348,3.38111395 C12.9803348,3.90475574 13.4048303,4.32925128 13.9284721,4.32925128 L16.3968432,4.32925128 C16.920485,4.32925128 17.3449805,3.90475574 17.3449805,3.38111395 L17.3449805,2.83414536 C17.3449805,2.31050358 16.920485,1.88600804 16.3968432,1.88600804 L13.9284721,1.88600804 Z M16.3968432,1.29141344 C17.2488705,1.29141344 17.9395751,1.98211805 17.9395751,2.83414536 L17.9395751,3.38111395 C17.9395751,4.23314126 17.2488705,4.92384587 16.3968432,4.92384587 L13.9284721,4.92384587 C13.0764448,4.92384587 12.3857402,4.23314126 12.3857402,3.38111395 L12.3857402,2.83414536 C12.3857402,1.98211805 13.0764448,1.29141344 13.9284721,1.29141344 L16.3968432,1.29141344 Z" transform="rotate(90 15.163 3.108)"/>
    <path d="M5.99513879,1.88600804 C5.471497,1.88600804 5.04700146,2.31050358 5.04700146,2.83414536 L5.04700146,3.38111395 C5.04700146,3.90475574 5.471497,4.32925128 5.99513879,4.32925128 L8.46350986,4.32925128 C8.98715165,4.32925128 9.41164719,3.90475574 9.41164719,3.38111395 L9.41164719,2.83414536 C9.41164719,2.31050358 8.98715165,1.88600804 8.46350986,1.88600804 L5.99513879,1.88600804 Z M5.99513879,1.29141344 L8.46350986,1.29141344 C9.31553717,1.29141344 10.0062418,1.98211805 10.0062418,2.83414536 L10.0062418,3.38111395 C10.0062418,4.23314126 9.31553717,4.92384587 8.46350986,4.92384587 L5.99513879,4.92384587 C5.14311147,4.92384587 4.45240687,4.23314126 4.45240687,3.38111395 L4.45240687,2.83414536 C4.45240687,1.98211805 5.14311147,1.29141344 5.99513879,1.29141344 Z" transform="rotate(90 7.23 3.108)"/>
    <path d="M15.5543199,9.61031185 C15.6693065,9.49310543 15.8575361,9.49130591 15.9747425,9.60629252 C16.0919489,9.72127912 16.0937485,9.90950875 15.9787619,10.0267152 L9.80174098,16.3229836 L5.92611234,12.3725358 C5.81112573,12.2553294 5.81292525,12.0670998 5.93013167,11.9521132 C6.04733809,11.8371266 6.23556773,11.8389261 6.35055433,11.9561325 L9.80174098,15.4739444 L15.5543199,9.61031185 Z"/>
    <path d="M4.44660156,3 C4.61504841,3 4.75160156,3.13655315 4.75160156,3.305 C4.75160156,3.47344685 4.61504841,3.61 4.44660156,3.61 L3.305,3.61 C1.8165926,3.61 0.61,4.8165926 0.61,6.305 L0.61,18.305 C0.61,19.7934074 1.8165926,21 3.305,21 L18.305,21 C19.7934074,21 21,19.7934074 21,18.305 L21,6.305 C21,4.8165926 19.7934074,3.61 18.305,3.61 L17.3383333,3.61 C17.1698865,3.61 17.0333333,3.47344685 17.0333333,3.305 C17.0333333,3.13655315 17.1698865,3 17.3383333,3 L18.305,3 C20.1303011,3 21.61,4.4796989 21.61,6.305 L21.61,18.305 C21.61,20.1303011 20.1303011,21.61 18.305,21.61 L3.305,21.61 C1.4796989,21.61 0,20.1303011 0,18.305 L0,6.305 C0,4.4796989 1.4796989,3 3.305,3 L4.44660156,3 Z"/>
    <path d="M9.84455078,3.61 C9.67610393,3.61 9.53955078,3.47344685 9.53955078,3.305 C9.53955078,3.13655315 9.67610393,3 9.84455078,3 L12.3181836,3 C12.4866304,3 12.6231836,3.13655315 12.6231836,3.305 C12.6231836,3.47344685 12.4866304,3.61 12.3181836,3.61 L9.84455078,3.61 Z"/>
  </g>
</svg>
