<svg xmlns="http://www.w3.org/2000/svg" width="44" height="44" viewBox="0 0 44 44">
  <g fill="none" fill-rule="evenodd">
    <rect width="44" height="44" fill="#FFF" opacity="0"/>
    <path fill="#999" fill-rule="nonzero" d="M17,27.1315789 C15.0670034,27.1315789 13.5,25.5645756 13.5,23.6315789 L13.5,17 C13.5,15.0670034 15.0670034,13.5 17,13.5 L27,13.5 C28.9329966,13.5 30.5,15.0670034 30.5,17 L30.5,23.6315789 C30.5,25.4919897 29.048472,27.0133779 27.2161458,27.1250138 L27.2161458,30 C27.2161458,30.4066781 26.7564773,30.6432421 26.4255413,30.4068771 L21.8397773,27.1315789 L17,27.1315789 Z M26.2161458,26.6315789 C26.2161458,26.3554366 26.4400035,26.1315789 26.7161458,26.1315789 L27,26.1315789 C28.3807119,26.1315789 29.5,25.0122908 29.5,23.6315789 L29.5,17 C29.5,15.6192881 28.3807119,14.5 27,14.5 L17,14.5 C15.6192881,14.5 14.5,15.6192881 14.5,17 L14.5,23.6315789 C14.5,25.0122908 15.6192881,26.1315789 17,26.1315789 L22,26.1315789 C22.1042054,26.1315789 22.205807,26.1641367 22.2906046,26.2247018 L26.2161458,29.028448 L26.2161458,26.6315789 Z"/>
  </g>
</svg>
