<svg xmlns="http://www.w3.org/2000/svg" width="28" height="28" viewBox="0 0 28 28">
  <g fill="none" fill-rule="evenodd">
    <path fill="#979797" fill-rule="nonzero" d="M14.4782609 24.5434783C13.1717161 24.5434783 12.0652174 23.7136042 12.0652174 22.6086957 12.0652174 21.5037871 13.1717161 20.673913 14.4782609 20.673913 15.7848056 20.673913 16.8913043 21.5037871 16.8913043 22.6086957 16.8913043 23.7136042 15.7848056 24.5434783 14.4782609 24.5434783zM14.4782609 23.5434783C15.2848056 23.5434783 15.8913043 23.0886042 15.8913043 22.6086957 15.8913043 22.1287871 15.2848056 21.673913 14.4782609 21.673913 13.6717161 21.673913 13.0652174 22.1287871 13.0652174 22.6086957 13.0652174 23.0886042 13.6717161 23.5434783 14.4782609 23.5434783zM21 10.2675644L21 9.17070571C21.3127789 9.06015422 21.6493646 9 22 9 23.6568542 9 25 10.3431458 25 12L25 16C25 17.6568542 23.6568542 19 22 19L21.3352035 19C21.2213835 19 21.1094654 18.9918569 21 18.9761216L21 17.9575734C21.1071116 17.9852669 21.219437 18 21.3352035 18L22 18C23.1045695 18 24 17.1045695 24 16L24 12C24 10.8954305 23.1045695 10 22 10 21.6357129 10 21.2941734 10.0973943 21 10.2675644zM7 10.2675644C6.70582663 10.0973943 6.36428714 10 6 10 4.8954305 10 4 10.8954305 4 12L4 16C4 17.1045695 4.8954305 18 6 18 6.36428714 18 6.70582663 17.9026057 7 17.7324356L7 18.8292943C6.68722107 18.9398458 6.35063542 19 6 19 4.34314575 19 3 17.6568542 3 16L3 12C3 10.3431458 4.34314575 9 6 9 6.35063542 9 6.68722107 9.06015422 7 9.17070571L7 10.2675644z"/>
    <path fill="#979797" fill-rule="nonzero" d="M6.99599008,18.3043478 C6.99599008,18.5804902 6.77213245,18.8043478 6.49599008,18.8043478 C6.2198477,18.8043478 5.99599008,18.5804902 5.99599008,18.3043478 L5.99599008,10.4920973 C5.99599008,6.07818383 9.57417391,2.5 13.9880873,2.5 C18.4020008,2.5 21.9801846,6.07818383 21.9801846,10.4920976 L21.98018,16.607928 C21.98018,19.3606504 20.2462141,21.8148833 17.6516409,22.7344864 C17.2986071,22.8596134 16.9237375,22.9780722 16.5269869,23.0899339 C16.2612064,23.1648693 15.9850015,23.0101587 15.9100661,22.7443782 C15.8351307,22.4785977 15.9898413,22.2023928 16.2556218,22.1274574 C16.6317578,22.0214079 16.9857558,21.9095445 17.3175705,21.7919383 C19.5129783,21.0138127 20.98018,18.9371543 20.98018,16.6079277 L20.9801846,10.4920973 C20.9801846,6.63046858 17.849716,3.5 13.9880873,3.5 C10.1264587,3.5 6.99599008,6.63046858 6.99599008,10.4920973 L6.99599008,18.3043478 Z"/>
  </g>
</svg>
