<svg xmlns="http://www.w3.org/2000/svg" width="28" height="28" viewBox="0 0 28 28">
  <g fill="none" fill-rule="evenodd">
    <ellipse cx="14.478" cy="22.609" fill="#3BC4DE" fill-rule="nonzero" rx="1.913" ry="1.435"/>
    <path fill="#3BC4DE" fill-rule="nonzero" d="M21.3352035,9 L22,9 C23.6568542,9 25,10.3431458 25,12 L25,16 C25,17.6568542 23.6568542,19 22,19 C21.7784012,19 21.5568023,19 21.3352035,19 L21.3352035,9 Z"/>
    <path fill="#3BC4DE" fill-rule="nonzero" d="M3,9 L4,9 C5.65685425,9 7,10.3431458 7,12 L7,16 C7,17.6568542 5.65685425,19 4,19 L3,19 L3,9 Z" transform="matrix(-1 0 0 1 10 0)"/>
    <path fill="#3BC4DE" fill-rule="nonzero" d="M6.99599008,18.3043478 C6.99599008,18.5804902 6.77213245,18.8043478 6.49599008,18.8043478 C6.2198477,18.8043478 5.99599008,18.5804902 5.99599008,18.3043478 L5.99599008,10.4920973 C5.99599008,6.07818383 9.57417391,2.5 13.9880873,2.5 C18.4020008,2.5 21.9801846,6.07818383 21.9801846,10.4920976 L21.98018,16.607928 C21.98018,19.3606504 20.2462141,21.8148833 17.6516409,22.7344864 C17.2986071,22.8596134 16.9237375,22.9780722 16.5269869,23.0899339 C16.2612064,23.1648693 15.9850015,23.0101587 15.9100661,22.7443782 C15.8351307,22.4785977 15.9898413,22.2023928 16.2556218,22.1274574 C16.6317578,22.0214079 16.9857558,21.9095445 17.3175705,21.7919383 C19.5129783,21.0138127 20.98018,18.9371543 20.98018,16.6079277 L20.9801846,10.4920973 C20.9801846,6.63046858 17.849716,3.5 13.9880873,3.5 C10.1264587,3.5 6.99599008,6.63046858 6.99599008,10.4920973 L6.99599008,18.3043478 Z"/>
  </g>
</svg>
