<svg xmlns="http://www.w3.org/2000/svg" width="44" height="44" viewBox="0 0 44 44">
  <g fill="none" fill-rule="evenodd">
    <rect width="44" height="44" fill="#FFF" opacity="0"/>
    <g fill="#979797" fill-rule="nonzero" transform="translate(15 15)">
      <path d="M12.7012589,0.603350169 L5.81564078,7.94800946 C5.64478641,8.13025413 5.64478641,8.42573112 5.81564078,8.60797579 C5.98649516,8.79022046 6.26350484,8.79022046 6.43435922,8.60797579 L13.3199773,1.2633165 C13.4908317,1.08107183 13.4908317,0.785594838 13.3199773,0.603350169 C13.1491229,0.421105499 12.8721132,0.421105499 12.7012589,0.603350169 Z"/>
      <path d="M12.7988281 4.95598524C12.7988281 5.21371813 12.9947035 5.42265191 13.2363281 5.42265191 13.4779527 5.42265191 13.6738281 5.21371813 13.6738281 4.95598524L13.6738281.933333333C13.6738281.67560045 13.4779527.466666667 13.2363281.466666667L9.33333333.466666667C9.09170876.466666667 8.89583333.67560045 8.89583333.933333333 8.89583333 1.19106622 9.09170876 1.4 9.33333333 1.4L12.7988281 1.4 12.7988281 4.95598524zM10.968689 12.9975224L1.3125 12.9975224 1.3125 3.93755494 5.68744507 3.93843385C5.92906964 3.93846418 6.12496966 3.74261336 6.125 3.50098878 6.12503033 3.25936421 5.92917951 3.06346419 5.68755493 3.06343385L.875054932 3.0625C.633408903 3.06246966.4375 3.25835397.4375 3.5L.4375 13.4350224C.4375 13.6766469.633375422 13.8725224.875 13.8725224L11.406189 13.8725224C11.6478135 13.8725224 11.843689 13.6766469 11.843689 13.4350224L11.843689 9.59199111C11.843689 9.35036654 11.6478135 9.15449111 11.406189 9.15449111 11.1645644 9.15449111 10.968689 9.35036654 10.968689 9.59199111L10.968689 12.9975224z"/>
    </g>
  </g>
</svg>
