<?xml version="1.0" encoding="UTF-8"?>
<svg width="22px" height="20px" viewBox="0 0 22 20" version="1.1" xmlns="http://www.w3.org/2000/svg" xmlns:xlink="http://www.w3.org/1999/xlink">
    <title>case</title>
    <defs>
        <filter id="filter-1">
            <feColorMatrix in="SourceGraphic" type="matrix" values="0 0 0 0 0.486275 0 0 0 0 0.803922 0 0 0 0 0.717647 0 0 0 1.000000 0"></feColorMatrix>
        </filter>
    </defs>
    <g id="Page-1" stroke="none" stroke-width="1" fill="none" fill-rule="evenodd">
        <g id="home" transform="translate(-134.000000, -696.000000)" fill="#7CCDB7">
            <g id="Group-13" transform="translate(28.000000, 673.000000)">
                <g filter="url(#filter-1)" id="case">
                    <g transform="translate(106.000000, 23.000000)">
                        <path d="M8.57289444,1.09954865 C8.44914458,1.04917892 8.32797284,0.993772213 8.20937922,0.933328536 C8.09078561,0.872884859 7.96445762,0.827552102 7.83039527,0.797330263 C6.33508444,0.434668202 4.89129513,0.480000959 3.49902734,0.933328536 C2.1068414,1.38665611 1.06528006,2.31849613 0.374343332,3.72884859 C0.199031028,4.13180644 0.0907498987,4.5322458 0.0494999447,4.93016667 C0.00824999079,5.32816749 -0.00721874194,5.74375774 0.00309374655,6.17693743 C0.0443437005,6.46908187 0.0804374102,6.72596749 0.111374876,6.94759431 C0.142312341,7.16922112 0.209343516,7.40595886 0.312468401,7.65780751 C1.02403011,9.10845576 2.0346949,10.460923 3.34446278,11.7152093 C4.65414882,12.9694955 5.86070997,14.1254808 6.96414624,15.1831652 C7.57258306,15.8178238 8.20422298,16.5204816 8.859066,17.2911385 C9.51390902,18.0617953 10.1198086,18.779564 10.6767649,19.4444444 C10.7180148,19.4444444 11.2104362,18.9432656 12.1540289,17.940908 C13.0976216,16.9385503 13.7705114,16.2358926 14.1726985,15.8329348 C14.5748855,15.4299769 14.9873851,15.032056 15.4101971,14.6391721 C16.2455087,13.8937001 17.1091796,13.1456696 18.0012098,12.3950807 C18.8933219,11.6445717 19.7003151,10.8311005 20.4221893,9.95466723 C20.6800015,9.6423749 20.9455481,9.27971284 21.218829,8.86668105 C21.4921099,8.45364926 21.6906253,8.04061746 21.8143752,7.62758567 C21.8556252,7.44625464 21.8891407,7.25988664 21.914922,7.06848166 C21.9407032,6.87707668 21.9690625,6.68567171 22,6.49426673 L22,5.64805525 C21.979375,5.48687212 21.9613282,5.32317049 21.9458594,5.15695038 C21.9303907,4.99073027 21.9071876,4.82702864 21.8762501,4.66584551 C21.7525003,4.10162457 21.5075787,3.56766545 21.1414853,3.06396815 C20.775392,2.56027084 20.3500018,2.14723905 19.8653149,1.82487277 C18.7825036,1.12977049 17.5346925,0.757034478 16.1218816,0.706664748 C14.7089888,0.656295017 13.4921152,1.05925286 12.4712606,1.91553829 C12.1928234,2.16738694 11.929855,2.43182803 11.6823553,2.70886154 C11.4348555,2.98589506 11.2724338,3.21004037 11.1950902,3.38129745 C11.1177465,3.55255453 11.0584497,3.63818308 11.0171998,3.63818308 C10.7078251,3.03374631 10.367513,2.55271538 9.9962634,2.19509029 C9.62493197,1.8374652 9.15051658,1.47228465 8.57301723,1.09954865 L8.57289444,1.09954865 Z M11.2468732,7.9912787 C10.6349247,7.16437689 9.89338469,6.86413278 9.02225317,7.09054637 C8.15112167,7.31695996 7.71037061,7.93221428 7.7,8.93630933 C7.79333552,9.46788907 8.10186126,9.96993659 8.62557722,10.4424519 C9.14929318,10.9149672 9.57708097,11.2988859 9.90894059,11.594208 C10.1267235,11.8206216 10.3367695,12.0495353 10.5390788,12.280949 C10.7413058,12.5123628 10.9461254,12.7461985 11.1535376,12.9824561 C11.4439148,12.6969781 11.7368846,12.4114611 12.0324471,12.1259049 C12.3280096,11.8404269 12.6261647,11.5549099 12.9269125,11.2693537 C13.2691427,10.9838757 13.6398921,10.6688655 14.0391607,10.3243231 C14.4384293,9.97978066 14.7002873,9.57617383 14.8247347,9.11350258 C14.9388114,8.31613298 14.6665828,7.74025494 14.0080489,7.38586845 C13.349515,7.03148196 12.6572765,7.01671585 11.9313336,7.34157014 C11.7757744,7.43016676 11.6565124,7.52614643 11.5735475,7.62950916 C11.4905826,7.73287188 11.4024324,7.85346173 11.3090968,7.9912787 L11.2468732,7.9912787 L11.2468732,7.9912787 Z M7.49115551,4.53468435 C8.32179199,4.51417414 9.01659345,4.61883297 9.57555988,4.84866085 C10.1344449,5.07856978 10.6138555,5.58678528 11.0137916,6.37330735 C11.3727086,5.79107673 11.7316256,5.38249384 12.0905426,5.14755868 C12.4494596,4.91262352 12.9621981,4.73897579 13.6287583,4.6266155 C13.9261466,4.6266155 14.190207,4.63172278 14.4209394,4.64193735 C14.6516717,4.65215193 14.9311142,4.6981175 15.2592669,4.77983408 C15.4541076,4.83090694 15.6617667,4.91262352 15.8822443,5.02498381 C16.1027219,5.13734411 16.2949988,5.25991897 16.4590752,5.39270841 C16.6641706,5.55614157 16.835938,5.7297893 16.9743774,5.9136516 C17.1128168,6.0975139 17.2384378,6.31201991 17.3512403,6.55716965 C17.8435507,7.92592232 17.6051272,9.13890278 16.63597,10.196111 C15.6668127,11.2533192 14.7054279,12.1650103 13.7518155,12.9311843 C13.3621342,13.2989089 12.9827077,13.6768481 12.6135359,14.0650018 C12.3161475,14.3816536 12.0213229,14.6983053 11.7290619,15.0149571 C11.4368009,15.3316088 11.1471036,15.6482605 10.85997,15.9649123 L10.7369127,15.9036248 C10.3266405,15.3826817 9.96511911,14.9332405 9.65234857,14.5553013 C9.33957804,14.1773621 8.93195088,13.727921 8.42946709,13.2069778 C7.42449949,12.3182289 6.3836402,11.2379974 5.30688921,9.96628313 C4.23013821,8.69456887 4.11220834,7.33347712 4.95309959,5.88300788 C5.11717594,5.64807272 5.29919813,5.44633492 5.49916617,5.27779448 C5.69913421,5.10925403 5.92986657,4.96114274 6.19136324,4.83346058 C6.45285991,4.70577843 6.66564641,4.62916914 6.82972275,4.60363271 C6.9937991,4.57809628 7.21427668,4.55511349 7.49115551,4.53468435 L7.49115551,4.53468435 Z" id="Shape" fill="#5ED9D6" fill-rule="nonzero"></path>
                    </g>
                </g>
            </g>
        </g>
    </g>
</svg>