<?xml version="1.0" encoding="UTF-8"?>
<svg width="20px" height="22px" viewBox="0 0 20 22" version="1.1" xmlns="http://www.w3.org/2000/svg" xmlns:xlink="http://www.w3.org/1999/xlink">
    <title>contact</title>
    <defs>
        <filter id="filter-1">
            <feColorMatrix in="SourceGraphic" type="matrix" values="0 0 0 0 0.486275 0 0 0 0 0.803922 0 0 0 0 0.717647 0 0 0 1.000000 0"></feColorMatrix>
        </filter>
    </defs>
    <g id="Page-1" stroke="none" stroke-width="1" fill="none" fill-rule="evenodd">
        <g id="home" transform="translate(-48.000000, -695.000000)" fill="#7CCDB7">
            <g id="Group-13" transform="translate(28.000000, 673.000000)">
                <g filter="url(#filter-1)" id="contact">
                    <g transform="translate(20.000000, 22.000000)">
                        <path d="M9.86842105,19.9047619 C10.2368421,19.9047619 10.5131579,20.1142857 10.6973684,20.4809524 C10.7434211,20.4809524 10.7894737,20.4285714 10.7894737,20.4285714 L19.5394737,20.4285714 C19.8157895,20.4285714 20,20.6380952 20,20.952381 C20,21.2666667 19.8157895,21.4761905 19.5394737,21.4761905 L10.7894737,21.4761905 C10.7434211,21.4761905 10.6973684,21.4761905 10.6973684,21.4238095 C10.5592105,21.7380952 10.2368421,22 9.86842105,22 C9.3618421,22 8.94736842,21.5285714 8.94736842,20.952381 C8.94736842,20.3761905 9.36184211,19.9047619 9.86842105,19.9047619 Z" id="Shape" fill="#85D465" fill-rule="nonzero"></path>
                        <path d="M15.8139535,19.3809524 C14.7906977,19.3809524 13.9534884,18.5088095 13.9534884,17.4428571 L13.9534884,12.1130952 C13.9534884,11.0471429 14.7906977,10.175 15.8139535,10.175 L18.1395349,10.175 C18,5.62047619 14.4186047,1.93809524 10,1.93809524 C5.58139535,1.93809524 2,5.62047619 1.86046512,10.175 L4.18604651,10.175 C5.20930233,10.175 6.04651163,11.0471429 6.04651163,12.1130952 L6.04651163,17.4428571 C6.04651163,18.5088095 5.20930233,19.3809524 4.18604651,19.3809524 L1.86046512,19.3809524 C0.837209302,19.3809524 5.99520433e-14,18.5088095 5.99520433e-14,17.4428571 L5.99520433e-14,12.1130952 C5.99520433e-14,11.9192857 0.0465116279,11.7739286 0.0930232552,11.580119 C0.0465116273,11.1925 5.99520433e-14,10.804881 5.99520433e-14,10.4172619 C5.99520433e-14,4.65142857 4.46511628,0 10,0 C15.5348837,0 20,4.65142857 20,10.4172619 C20,10.804881 19.9534884,11.1925 19.9069767,11.580119 C19.9534884,11.7254762 20,11.9192857 20,12.1130952 L20,17.4428571 C20,18.5088095 19.1627907,19.3809524 18.1395349,19.3809524 L15.8139535,19.3809524 Z" id="Path" fill="#B2BEC3"></path>
                    </g>
                </g>
            </g>
        </g>
    </g>
</svg>