<?xml version="1.0" encoding="UTF-8"?>
<svg width="22px" height="22px" viewBox="0 0 22 22" version="1.1" xmlns="http://www.w3.org/2000/svg" xmlns:xlink="http://www.w3.org/1999/xlink">
    <title>heart-s</title>
    <g id="heart-s" stroke="none" stroke-width="1" fill="none" fill-rule="evenodd">
        <path d="M15.3763397,7.734375 C17.9392862,7.734375 20.0169647,9.81205358 20.0169647,12.375 C20.0169647,13.1424987 19.8306468,13.8664806 19.5007741,14.5041824 C19.489099,14.5241711 19.4782447,14.54478 19.4672405,14.5652965 C19.4478868,14.6038594 19.4271384,14.6412684 19.4058928,14.678356 C19.3974108,14.6908299 19.3897587,14.7040418 19.3820436,14.7172123 L19.347404,14.7775796 C19.1918331,15.0341619 19.0120957,15.2744622 18.8113492,15.4953233 C18.7985432,15.5079417 18.7866031,15.5209328 18.7745902,15.5338553 C18.7443547,15.567812 18.7127325,15.600833 18.680633,15.633382 C18.6642756,15.6486149 18.6486149,15.6642756 18.6328434,15.6798243 C18.5990637,15.7144355 18.5639976,15.7479337 18.5284143,15.7808811 C18.5188033,15.7885429 18.5098072,15.7968107 18.5007784,15.8050433 C18.266458,16.0198323 18.0094381,16.2101588 17.734155,16.3728627 C17.7152455,16.3832511 17.6969476,16.3939016 17.6785708,16.40443 C17.6402303,16.4271528 17.6010349,16.4488506 17.5614977,16.4699925 C17.5397772,16.4808979 17.518202,16.4922243 17.4965275,16.5033851 C17.3397785,16.5847388 17.1775174,16.6568615 17.0106842,16.7196504 C16.9846235,16.7289615 16.9587118,16.7384565 16.9326929,16.7477258 C16.8929013,16.7623686 16.8525095,16.7761205 16.8118717,16.7893267 C16.7945239,16.7945325 16.7776285,16.799919 16.7606915,16.8052111 C16.7124433,16.8206946 16.6633793,16.8351253 16.613985,16.8487598 C16.6054088,16.8507593 16.5971113,16.8530268 16.5888046,16.8552718 C16.4012343,16.906279 16.208683,16.9454986 16.0122134,16.9724205 C15.9888516,16.9754477 15.9649062,16.978549 15.9409043,16.9814671 C15.8246899,16.9957208 15.7073046,17.005509 15.5887612,17.0108497 L15.3763397,17.015625 L4.546875,17.015625 C3.69255953,17.015625 3,16.3230655 3,15.46875 L3,4.640625 C3.00133988,4.64196192 3.00133974,4.64129348 3.00133974,4.640625 C3.00133974,2.07767858 5.07901832,4.06252809e-12 7.64196474,4.06252809e-12 C10.1337182,4.06252809e-12 12.1667887,1.96385514 12.2778144,4.42820357 L12.2825897,4.640625 L12.2823397,6.96 L10.7353397,6.96 L10.7357147,4.640625 C10.7357147,2.99091236 9.44447415,1.64278513 7.81752211,1.55177244 L7.64196474,1.546875 C5.9333338,1.546875 4.54821474,2.93199406 4.54821474,4.640625 C4.54821474,6.29033764 5.83945533,7.63846487 7.46640737,7.72947756 L7.64196474,7.734375 L15.3763397,7.734375 Z" id="Combined-Shape" fill="#36B593" fill-rule="nonzero" transform="translate(11.508482, 8.507813) rotate(-45.000000) translate(-11.508482, -8.507813) "></path>
    </g>
</svg>