<?xml version="1.0" encoding="UTF-8"?>
<svg width="22px" height="22px" viewBox="0 0 22 22" version="1.1" xmlns="http://www.w3.org/2000/svg" xmlns:xlink="http://www.w3.org/1999/xlink">
    <title>home-s</title>
    <g id="home-s" stroke="none" stroke-width="1" fill="none" fill-rule="evenodd">
        <g>
            <path d="M15,-6.78469626e-17 C16.1045695,-2.70753088e-16 17,0.8954305 17,2 L17,22 L14,22 L14,16 L8,16 L8,22 L0,22 L0,11 L5,11 L5,2 C5,0.8954305 5.8954305,1.35059163e-16 7,-6.78469626e-17 L15,-6.78469626e-17 Z M20,6 C21.1045695,6 22,6.8954305 22,8 L22,22 L18,22 L18,6 L20,6 Z M3.2,12.8 L1.8,12.8 L1.8,20.2 L3.2,20.2 L3.2,12.8 Z M11.9166667,5 L10.0833333,5 L10.083,7.083 L7.95041322,7.08333333 L7.95041322,8.91666667 L10.083,8.916 L10.0833333,11 L11.9166667,11 L11.916,8.916 L14.0495868,8.91666667 L14.0495868,7.08333333 L11.916,7.083 L11.9166667,5 Z" id="Combined-Shape" fill="#36B593" fill-rule="nonzero"></path>
            <g id="Group-7" transform="translate(7.000000, 5.000000)"></g>
        </g>
    </g>
</svg>