<?xml version="1.0" encoding="UTF-8"?>
<svg width="22px" height="22px" viewBox="0 0 22 22" version="1.1" xmlns="http://www.w3.org/2000/svg" xmlns:xlink="http://www.w3.org/1999/xlink">
    <title>video</title>
    <defs>
        <filter id="filter-1">
            <feColorMatrix in="SourceGraphic" type="matrix" values="0 0 0 0 0.486275 0 0 0 0 0.803922 0 0 0 0 0.717647 0 0 0 1.000000 0"></feColorMatrix>
        </filter>
    </defs>
    <g id="Page-1" stroke="none" stroke-width="1" fill="none" fill-rule="evenodd">
        <g id="home" transform="translate(-308.000000, -695.000000)" fill="#7CCDB7">
            <g id="Group-13" transform="translate(28.000000, 673.000000)">
                <g filter="url(#filter-1)" id="video">
                    <g transform="translate(280.000000, 22.000000)">
                        <path d="M17.7222222,6.11111111 C18.7347443,6.11111111 19.5555556,6.9319224 19.5555556,7.94444444 L19.555,12.163 L21.0298496,11.0932564 C21.3029641,10.8949645 21.6851145,10.9556202 21.8834064,11.2287347 C21.9591877,11.3331109 22,11.4587887 22,11.5877739 L22,16.4764832 C22,16.8139905 21.7263962,17.0875943 21.3888889,17.0875943 C21.2534914,17.0875943 21.1219276,17.0426289 21.0148535,16.9597578 L19.555,15.83 L19.5555556,20.1666667 C19.5555556,21.1791887 18.7347443,22 17.7222222,22 L1.83333333,22 C0.820811292,22 1.46738762e-15,21.1791887 0,20.1666667 L0,7.94444444 C-3.46042793e-16,6.9319224 0.820811292,6.11111111 1.83333333,6.11111111 L17.7222222,6.11111111 Z M17.1111111,8.55555556 L2.44444444,8.55555556 L2.44444444,19.5555556 L17.1111111,19.5555556 L17.1111111,8.55555556 Z M9.44079341,11.0414908 L9.52570594,11.0932564 L12.7848454,13.4595205 C12.8317629,13.4935844 12.873594,13.5341518 12.9090807,13.5800026 C13.0949974,13.8202173 13.0739735,14.1551417 12.8733357,14.3703169 L12.7998416,14.4373126 L9.54070208,16.9597578 C9.43362798,17.0426289 9.30206417,17.0875943 9.16666667,17.0875943 C8.86291005,17.0875943 8.61091534,16.8659753 8.56355397,16.5756086 L8.55555556,16.4764832 L8.55555556,11.5877739 C8.55555556,11.4587887 8.59636789,11.3331109 8.67214913,11.2287347 C8.85061186,10.9829316 9.17799995,10.9092202 9.44079341,11.0414908 Z M12.5277778,0 C14.0465608,0 15.2777778,1.23121694 15.2777778,2.75 C15.2777778,4.26878306 14.0465608,5.5 12.5277778,5.5 C11.0089947,5.5 9.77777778,4.26878306 9.77777778,2.75 C9.77777778,1.23121694 11.0089947,0 12.5277778,0 Z M7.02777778,2.44444444 C7.87154615,2.44444444 8.55555556,3.12845385 8.55555556,3.97222222 C8.55555556,4.81599059 7.87154615,5.5 7.02777778,5.5 C6.18400941,5.5 5.5,4.81599059 5.5,3.97222222 C5.5,3.12845385 6.18400941,2.44444444 7.02777778,2.44444444 Z" id="Combined-Shape" fill="#B0ABED"></path>
                    </g>
                </g>
            </g>
        </g>
    </g>
</svg>